<svg class="main-svg" xmlns="http://www.w3.org/2000/svg" xmlns:xlink="http://www.w3.org/1999/xlink" width="700" height="450" style="" viewBox="0 0 700 450"><rect x="0" y="0" width="700" height="450" style="fill: rgb(255, 255, 255); fill-opacity: 1;"/><defs id="defs-06b0c4"><g class="clips"><clipPath class="plotclip" id="clip06b0c4xyplot"><rect width="580" height="330"/></clipPath><clipPath class="axesclip" id="clip06b0c4x"><rect x="60" y="0" width="580" height="450"/></clipPath><clipPath class="axesclip" id="clip06b0c4y"><rect x="0" y="60" width="700" height="330"/></clipPath><clipPath class="axesclip" id="clip06b0c4xy"><rect x="60" y="60" width="580" height="330"/></clipPath></g><g class="gradients"/></defs><g class="bglayer"><rect class="bg" x="60" y="60" width="580" height="330" style="fill: rgb(255, 255, 255); fill-opacity: 1; stroke-width: 0;"/></g><g class="layer-below"><g class="imagelayer"/><g class="shapelayer"/></g><g class="cartesianlayer"><g class="subplot xy"><g class="layer-subplot"><g class="shapelayer"/><g class="imagelayer"/></g><g class="gridlayer"><g class="x"><path class="xgrid crisp" d="M0,60v330" transform="translate(159.75,0)" style="stroke: rgb(238, 238, 238); stroke-opacity: 1; stroke-width: 1px;"/><path class="xgrid crisp" d="M0,60v330" transform="translate(259.5,0)" style="stroke: rgb(238, 238, 238); stroke-opacity: 1; stroke-width: 1px;"/><path class="xgrid crisp" d="M0,60v330" transform="translate(359.26,0)" style="stroke: rgb(238, 238, 238); stroke-opacity: 1; stroke-width: 1px;"/><path class="xgrid crisp" d="M0,60v330" transform="translate(459.01,0)" style="stroke: rgb(238, 238, 238); stroke-opacity: 1; stroke-width: 1px;"/><path class="xgrid crisp" d="M0,60v330" transform="translate(558.76,0)" style="stroke: rgb(238, 238, 238); stroke-opacity: 1; stroke-width: 1px;"/></g><g class="y"><path class="ygrid crisp" d="M60,0h580" transform="translate(0,339.03)" style="stroke: rgb(238, 238, 238); stroke-opacity: 1; stroke-width: 1px;"/><path class="ygrid crisp" d="M60,0h580" transform="translate(0,300.59000000000003)" style="stroke: rgb(238, 238, 238); stroke-opacity: 1; stroke-width: 1px;"/><path class="ygrid crisp" d="M60,0h580" transform="translate(0,262.15999999999997)" style="stroke: rgb(238, 238, 238); stroke-opacity: 1; stroke-width: 1px;"/><path class="ygrid crisp" d="M60,0h580" transform="translate(0,223.72)" style="stroke: rgb(238, 238, 238); stroke-opacity: 1; stroke-width: 1px;"/><path class="ygrid crisp" d="M60,0h580" transform="translate(0,185.29000000000002)" style="stroke: rgb(238, 238, 238); stroke-opacity: 1; stroke-width: 1px;"/><path class="ygrid crisp" d="M60,0h580" transform="translate(0,146.85)" style="stroke: rgb(238, 238, 238); stroke-opacity: 1; stroke-width: 1px;"/><path class="ygrid crisp" d="M60,0h580" transform="translate(0,108.42)" style="stroke: rgb(238, 238, 238); stroke-opacity: 1; stroke-width: 1px;"/><path class="ygrid crisp" d="M60,0h580" transform="translate(0,69.98)" style="stroke: rgb(238, 238, 238); stroke-opacity: 1; stroke-width: 1px;"/></g></g><g class="zerolinelayer"><path class="xzl zl crisp" d="M0,60v330" transform="translate(60,0)" style="stroke: rgb(68, 68, 68); stroke-opacity: 1; stroke-width: 1px;"/><path class="yzl zl crisp" d="M60,0h580" transform="translate(0,377.46)" style="stroke: rgb(68, 68, 68); stroke-opacity: 1; stroke-width: 1px;"/></g><path class="xlines-below"/><path class="ylines-below"/><g class="overlines-below"/><g class="xaxislayer-below"/><g class="yaxislayer-below"/><g class="overaxes-below"/><g class="plot" transform="translate(60, 60)" clip-path="url(#clip06b0c4xyplot)"><g class="imagelayer"/><g class="maplayer"/><g class="barlayer"/><g class="carpetlayer"/><g class="violinlayer"/><g class="boxlayer"/><g class="scatterlayer"><g class="trace scatter traceaac640" style="stroke-miterlimit: 2; opacity: 1;"><path class="js-line" style="vector-effect: non-scaling-stroke; fill: none; stroke: rgb(31, 119, 180); stroke-opacity: 1; stroke-width: 2px; opacity: 1;" d="M0,16.5L0.32,179.51L0.96,140.13L1.28,130.99L1.92,125.48L2.23,130.1L2.87,110.14L3.19,124.49L3.83,105.57L4.15,119.7L4.79,102.02L5.11,106.58L5.43,107.58L5.75,108.71L6.06,104.13L6.7,90.68L7.02,96.21L7.34,98.06L7.66,113.65L7.98,115.88L8.3,98.65L8.62,98.58L8.94,103.69L9.26,103.73L9.58,107.31L10.21,121.85L10.53,118.4L10.85,110.34L11.49,99.52L11.81,101.42L12.13,109.38L12.45,108.76L12.77,100.23L14.68,116.64L15,121.11L15.64,109.07L16.28,110.68L16.6,108.32L16.92,109.02L17.24,113.56L17.56,122.81L17.88,114.56L18.19,106.99L18.51,112.33L18.83,112.31L19.15,108.05L19.79,109.39L20.11,111.5L20.43,112.37L20.75,109.35L21.39,104.75L21.71,111.21L22.34,132.01L22.66,119.53L22.98,109.25L23.3,112.99L23.62,118.1L23.94,120.66L24.26,117.58L24.58,113.79L24.9,114.04L25.22,113.53L25.54,117.72L25.86,116.85L26.18,112.96L26.49,111.15L26.81,115.04L27.13,129.85L27.45,127.28L27.77,118.42L29.37,126.86L29.69,127.41L30.01,129.99L30.32,126.38L30.64,121.78L30.96,127.66L31.28,126.55L31.6,123.31L31.92,127.05L32.24,128.16L32.56,126.94L32.88,121.03L33.84,139.01L34.16,130.37L35.11,122.02L35.43,127.83L35.75,132.24L36.07,131.77L36.39,126.54L36.71,120.23L37.03,122.08L37.35,127.14L37.67,124.2L37.99,124.28L38.3,125.63L38.94,130.79L39.26,130L39.58,126.95L40.22,114.09L40.54,121.85L40.86,136.83L41.5,137.76L41.82,140.58L42.14,136.2L42.45,138.58L42.77,141.88L43.41,136.77L43.73,141.05L44.37,152.12L44.69,159.47L45.33,154.29L45.65,159.16L47.24,145.02L47.56,150.28L47.88,147.72L48.2,153.68L48.52,150.65L48.84,135.6L49.48,143.29L49.8,136.91L50.12,132.7L50.43,137.56L50.75,147.47L51.39,176.38L51.71,168.55L52.03,155.78L52.35,151.69L52.67,172.57L53.31,148.01L53.63,152.39L53.95,152.23L54.27,155.67L54.58,151.42L54.9,144.12L55.22,141.67L55.54,150.02L55.86,157.54L56.18,153.72L56.5,143.58L57.46,134.09L57.78,142.12L58.41,150.86L58.73,144.52L59.05,136.97L59.37,151.98L60.33,177.08L60.65,166.77L60.97,153.41L61.29,154.21L61.61,166.62L62.56,180.81L62.88,179.04L63.2,175.78L64.16,170.75L64.48,158.33L64.8,148.55L65.12,163.92L65.44,184.82L65.76,177.9L66.08,173.09L67.67,204.2L67.99,201.47L68.31,184.14L68.63,182.81L68.95,187.52L69.27,199.54L69.59,196.36L69.91,194.58L70.54,231.24L70.86,204.33L71.82,192.91L72.14,202.4L72.46,206.22L72.78,195.43L73.1,190.65L73.42,191.67L73.74,195.17L74.06,196.44L74.38,202.78L75.01,219.44L75.33,211.42L75.65,204.47L75.97,204.47L76.29,201.62L76.61,192.99L76.93,196.58L77.25,207.21L77.57,216.15L78.21,214.89L78.53,216.12L78.84,215.56L79.16,217.22L81.08,236.17L81.4,229.87L81.72,227.66L82.04,234.1L82.67,221.56L82.99,230.29L83.31,240.74L83.63,233.99L83.95,234.38L84.27,232.63L84.59,225.59L86.19,250.47L86.51,246.66L87.78,244.24L88.1,249L88.42,249.01L88.74,246.6L90.02,260.93L90.34,258.49L90.97,235.86L91.29,240.45L91.61,239.74L92.89,265.58L93.21,262.24L93.53,255.49L93.85,260.12L94.17,266.76L94.8,263.1L95.12,256.59L95.44,255.93L95.76,263.02L96.4,271.81L96.72,271.22L97.04,266.07L98,250.12L98.32,261.21L98.64,270.31L99.27,268.59L99.59,271.22L100.23,263.63L100.55,268.49L101.51,277.82L101.83,275.89L102.15,275.46L102.78,270.6L103.1,277.23L103.42,279.51L103.74,278.5L104.06,277.34L104.7,285.94L105.02,280.79L105.66,281.23L105.98,279.34L106.3,282.39L106.62,280.42L106.93,279.17L107.25,280.91L107.57,275.99L107.89,275.96L108.21,283.08L108.53,285.24L108.85,281.84L109.49,274.36L109.81,275.61L110.13,277.25L110.76,274.19L111.08,277.71L111.4,276.78L111.72,280.89L112.36,285.79L112.68,284.35L113,285.28L113.32,286.55L113.64,286.45L113.96,285.49L114.28,283.78L114.6,286.99L114.91,288.86L115.23,284.74L115.87,292.5L116.19,291.08L116.51,289.9L117.15,289.92L117.47,291.12L117.79,291.09L118.11,288.18L118.75,285.35L119.06,286.36L119.38,289.43L120.02,291.05L120.34,290.32L120.66,290.52L121.3,292.45L121.62,290.73L121.94,290.23L122.26,290.73L122.58,292.55L122.89,297.27L123.21,295.34L123.53,293.62L123.85,292.56L124.17,294.35L124.49,297.22L124.81,292.1L125.13,291.85L125.45,296.05L125.77,295.84L126.09,292.65L126.41,288.08L126.73,291.25L127.04,296.99L127.36,299.45L127.68,299.14L128,297.58L128.64,298.67L128.96,297.87L129.28,294.97L130.24,292.37L130.56,294.26L131.19,298.31L131.51,297.93L131.83,296.43L132.15,293.6L132.47,294.09L132.79,297.63L133.11,299.66L133.75,299.09L134.07,298.86L134.39,299.24L134.71,301.67L135.02,299.13L135.34,299.44L135.66,302.69L136.3,300.06L136.62,300.46L136.94,301.86L137.58,300.15L137.9,301.14L138.54,298.09L138.86,300.52L139.17,300.16L139.49,300.63L139.81,301.04L140.13,300.02L140.45,301.42L140.77,302.5L141.41,304.28L141.73,303.3L142.05,302.09L142.37,302.63L142.69,302.23L143,302.22L143.64,303.95L143.96,302.75L144.28,302.77L144.6,304.71L145.56,305.78L145.88,304.4L147.15,302.82L147.47,303.63L148.11,305.82L148.43,305.12L148.75,304.29L149.39,305.1L149.71,304.06L150.35,306.5L150.67,305.88L150.99,305.98L151.62,306.3L151.94,305.59L152.26,305.08L152.58,305.83L152.9,306.44L153.54,304.5L153.86,305.27L154.18,305.75L154.82,305.7L155.13,307.18L156.09,305.8L156.41,306.58L156.73,307.61L157.05,307.24L157.37,304.16L157.69,304.04L158.01,306.76L158.65,307.58L158.97,306.77L159.28,306.07L159.6,306.39L159.92,307.23L160.24,307.89L160.56,307.65L160.88,306.79L161.52,305.14L161.84,306.17L162.16,307.07L162.48,305.79L162.8,306.49L163.12,308.8L163.43,308.92L163.75,307.44L164.71,307.01L165.03,306.8L165.99,308.08L166.31,307.81L166.63,307.66L166.95,308.79L167.58,307.84L167.9,306.08L168.54,308.21L168.86,307.7L169.18,307.07L170.46,307.01L170.78,307.83L171.1,307.75L171.41,306.08L171.73,304.95L172.05,306.27L172.37,307.19L173.33,307.04L173.65,307.08L174.29,308.53L174.61,308.39L174.93,308.86L175.56,308.53L175.88,308.32L176.2,308.22L176.52,305.6L176.84,305.39L177.16,308.18L178.12,309L178.44,307.23L178.76,306.78L179.08,308.05L179.39,308.44L179.71,307.86L180.03,307.84L180.35,308.37L180.67,307.92L180.99,307.89L181.95,309.2L182.27,308.43L184.18,308.63L184.5,307.69L185.46,309.55L185.78,308.76L186.1,307.98L187.69,309.11L188.01,308.81L188.33,309.25L188.65,308.38L189.61,307.37L189.93,307.76L190.25,308.36L190.57,307.26L190.89,307.45L191.21,308.67L191.84,308.94L192.16,307.46L192.8,308.97L193.12,308.27L193.44,308.1L194.08,307.59L194.4,308.26L194.72,309.07L195.35,308.71L195.67,308.18L196.95,307.5L197.27,308.23L197.59,308.24L197.91,307.23L198.87,309.6L199.19,309.24L199.5,308.89L200.78,309.18L201.1,309.75L202.7,309.34L203.02,308.31L203.34,308.5L203.65,309.69L204.29,308.69L204.61,309.2L204.93,309.2L205.57,307.82L205.89,308.1L206.21,308.61L207.8,310.86L208.12,310.03L208.44,309.41L208.76,309.75L209.08,310.14L211.32,307.3L211.63,308.2L212.59,308.79L212.91,308.07L213.55,310.09L213.87,309.8L214.19,309.55L214.51,310.1L214.83,309.49L215.15,308.93L215.47,308.91L215.78,306.76L216.1,306.79L216.42,308.87L217.38,308.95L217.7,309.65L218.34,308.88L218.66,309.63L218.98,310.14L219.93,309.51L220.25,309.92L220.57,309.35L220.89,309.63L221.21,310.76L222.49,309.09L222.81,308.55L223.45,309.86L223.76,309.46L224.08,307.8L225.68,310.06L226,310.16L226.64,309.4L226.96,309.96L228.23,309.53L228.55,309.81L229.83,308.87L230.15,309.09L232.06,309.33L232.38,309.16L233.66,308.54L233.98,308.6L234.62,308.25L234.94,307.15L236.21,309.13L236.53,309.39L237.49,309.95L237.81,309.71L238.45,308.9L238.77,309.61L239.09,309.92L240.04,308.86L240.36,309.78L241,310L241.32,309.74L242.92,309.6L243.24,309.05L244.83,310.32L245.15,310.71L245.79,310.47L246.11,309.91L246.43,310.15L246.75,309.62L247.07,309.67L247.39,310.42L247.71,310.12L248.02,309.59L248.34,308.74L248.66,309.36L248.98,310.25L249.94,309.17L250.26,309.4L250.58,309.45L251.85,308.68L252.17,307.56L252.49,307.88L252.81,309.45L253.45,308.74L253.77,309.16L254.09,309.06L254.41,308.93L254.73,309.79L257.6,308.9L257.92,309.09L258.24,309.41L258.56,309.01L258.88,308.93L259.2,309.54L259.83,309.15L260.15,309.35L260.79,309.36L261.11,309.9L261.75,310.31L262.07,310.04L262.71,310.42L263.03,308.57L263.35,308.15L263.67,309.96L263.98,310.5L264.3,310.13L264.62,310.05L265.58,310.43L265.9,310.3L267.18,310.89L267.5,310.34L268.45,309.7L268.77,310.16L270.05,311.06L270.37,310.83L273.56,310.54L273.88,310.18L275.16,310L275.48,310.64L276.75,310.35L277.07,309.8L278.35,311.31L278.67,310.97L278.99,310.71L282.82,310.07L283.14,310.64L283.46,310.55L283.78,306.37L284.09,306.29L284.41,310.29L284.73,310.4L285.05,307.57L285.37,305.33L285.69,307.76L286.01,310.19L287.29,310.62L287.61,310.73L289.52,311.35L289.84,310.99L290.48,310.45L290.8,310.67L291.12,310.6L294.31,311.06L294.63,310.36L295.27,309.8L295.59,310.61L296.54,311.16L296.86,311.01L298.46,311.71L298.78,311.69L300.37,310.68L300.69,311.16L302.29,311.04L302.61,310.12L303.89,309.87L304.2,310.1L305.48,311.27L305.8,311.01L306.12,310.74L307.4,310.88L307.72,311.17L311.55,311.07L311.87,302.77L312.18,300.81L312.5,309.08L313.46,310.72L313.78,310.83L314.74,310.56L315.06,311.09L316.02,311.15L316.33,311.85L316.65,312.14L316.97,311.59L317.29,311.48L317.93,312.26L318.25,311.9L318.57,312.04L319.85,312.46L320.17,312.07L321.12,311.57L321.44,311.72L322.72,311.4L323.04,311.25L324.31,311.55L324.63,311.17L326.23,309.99L326.55,310.83L327.51,310.93L327.83,311.21L328.46,311.18L328.78,310.99L330.7,311.69L331.02,311.63L331.66,311.59L331.98,311.05L332.61,311.09L332.93,310.56L334.21,311.63L334.53,311.57L335.17,311.93L335.49,311.58L336.44,311.69L336.76,307.37L337.08,304.35L337.4,308.27L337.72,311.38L339,311.74L339.32,311.35L339.64,310.94L339.96,311.77L340.59,311.98L340.91,311.57L341.55,312.44L341.87,311.97L342.19,311.3L343.79,312.01L344.11,311.75L345.38,311.57L345.7,311.67L348.26,311.61L348.57,309.98L348.89,303.75L349.21,305.08L349.53,310.72L350.49,311.32L350.81,307.67L351.13,298.31L351.45,301.68L351.77,310.51L352.41,311.28L352.72,311.09L353.04,311.31L353.36,311.1L353.68,308.21L354,301.89L354.32,304.77L354.64,311.38L355.6,311.63L355.92,311.44L356.55,311.99L356.87,311.72L357.19,311.77L360.07,311.83L360.39,311.93L361.66,311.44L361.98,311.62L363.58,311.94L363.9,311.78L364.85,311.88L365.17,311.76L367.41,310.44L367.73,311.41L368.68,311.65L369,311.27L370.6,311.41L370.92,310.99L373.47,311.37L373.79,310.82L374.75,311.55L375.07,311.39L376.35,312.05L376.66,312.1L377.94,312.11L378.26,311.51L381.13,311.88L381.45,311.7L383.69,311.48L384.01,311.49L384.96,311.42L385.28,311.66L385.92,311.34L386.24,311.92L389.11,311.83L389.43,311.54L390.39,311.43L390.71,311.66L391.67,311.82L391.99,312.2L395.18,311.35L395.5,311.44L400.61,312.12L400.92,311.91L407.63,312L407.95,311.51L409.54,312.13L409.86,311.82L411.78,311.84L412.1,312.11L414.65,312.51L414.97,312.45L416.25,312.1L416.57,312.22L421.67,312.8L421.99,312.48L424.23,312.63L424.55,312.39L426.14,312.29L426.46,312.03L427.42,312.72L427.74,312.14L429.97,312.25L430.29,312.48L431.57,312.1L431.89,312.21L433.48,312.64L433.8,312.37L436.36,312.71L436.68,312.93L437.95,312.47L438.27,312.66L439.23,312.58L439.55,312.31L441.14,311.94L441.46,309.32L441.78,309.45L442.1,312.15L443.38,312.44L443.7,312.15L444.98,312.32L445.29,312.03L445.93,311.66L446.25,312.2L447.21,312.54L447.53,312.23L448.17,312.18L448.49,311.87L450.72,312.28L451.04,311.83L451.68,310.57L452,311.4L452.32,312.37L452.96,312.83L453.27,312.27L453.59,312.34L454.87,312.37L455.19,312.43L456.15,312.8L456.47,312.93L458.06,311.85L458.38,311L459.66,312.29L459.98,312.02L461.25,312L461.57,310.72L461.89,310.8L462.21,312.11L462.85,312.35L463.17,312.89L464.77,312.51L465.09,312.5L466.04,312.39L466.36,312.31L467.32,312.16L467.64,311.97L468.92,312.04L469.24,312.26L470.19,312.44L470.51,312.24L474.98,312.77L475.3,313.01L480.09,312.57L480.41,309.82L480.73,309.68L481.05,312.47L482,312.41L482.32,312.82L484.24,312.65L484.56,312.85L486.79,312.16L487.11,312.21L487.75,309.93L488.07,312.44L488.71,311.32L489.03,311.7L489.35,312.32L492.22,313.03L492.54,312.79L494.13,312.69L494.45,312.66L495.41,312.68L495.73,312.39L498.6,313.14L498.92,313.16L501.16,312.96L501.47,313.05L502.11,312.82L502.43,313.34L504.03,312.84L504.35,312.89L507.86,312.97L508.18,312.7L509.46,312.34L509.77,312.67L511.05,312.43L511.37,312.64L512.65,312.99L512.97,312.64L513.92,312.43L514.24,312.82L515.52,313.23L515.84,313.16L516.8,313.06L517.12,313.25L521.59,312.36L521.9,312.76L522.86,312.41L523.18,313L524.46,312.78L524.78,312.74L529.88,313.21L530.2,312.81L534.35,313.02L534.67,312.52L537.55,313.41L537.86,313.1L538.5,313.13L538.82,313.33L540.42,313.15L540.74,312.82L542.33,312.71L542.65,312.68L544.89,313.13L545.21,313.11L548.08,313.25L548.4,313.02L549.36,312.94L549.68,313L550.95,313.1L551.27,312.63L552.87,313.18L553.19,312.86L553.82,312.72L554.14,313.01L554.78,312.66L555.1,312.47L556.38,312.98L556.7,312.88L558.29,312.84L558.61,312.73L559.89,313.43L560.21,313.29L564.68,312.83L565,313.19L566.59,313.3L566.91,313.12L568.19,312.65L568.51,312.54L569.79,313.05L570.1,313.15L571.7,312.86L572.02,312.81L580,313.26"/><g class="points"/></g></g></g><g class="overplot"/><path class="xlines-above crisp" style="fill: none;" d="M0,0"/><path class="ylines-above crisp" style="fill: none;" d="M0,0"/><g class="overlines-above"/><g class="xaxislayer-above"><g class="xtick"><text text-anchor="middle" x="0" y="403" style="font-family: TOBESTRIPPEDOpen\ SansTOBESTRIPPED, verdana, arial, sans-serif; font-size: 12px; fill: rgb(68, 68, 68); fill-opacity: 1; white-space: pre;" transform="translate(60,0)">0</text></g><g class="xtick"><text text-anchor="middle" x="0" y="403" style="font-family: TOBESTRIPPEDOpen\ SansTOBESTRIPPED, verdana, arial, sans-serif; font-size: 12px; fill: rgb(68, 68, 68); fill-opacity: 1; white-space: pre;" transform="translate(159.75,0)">10</text></g><g class="xtick"><text text-anchor="middle" x="0" y="403" style="font-family: TOBESTRIPPEDOpen\ SansTOBESTRIPPED, verdana, arial, sans-serif; font-size: 12px; fill: rgb(68, 68, 68); fill-opacity: 1; white-space: pre;" transform="translate(259.5,0)">20</text></g><g class="xtick"><text text-anchor="middle" x="0" y="403" style="font-family: TOBESTRIPPEDOpen\ SansTOBESTRIPPED, verdana, arial, sans-serif; font-size: 12px; fill: rgb(68, 68, 68); fill-opacity: 1; white-space: pre;" transform="translate(359.26,0)">30</text></g><g class="xtick"><text text-anchor="middle" x="0" y="403" style="font-family: TOBESTRIPPEDOpen\ SansTOBESTRIPPED, verdana, arial, sans-serif; font-size: 12px; fill: rgb(68, 68, 68); fill-opacity: 1; white-space: pre;" transform="translate(459.01,0)">40</text></g><g class="xtick"><text text-anchor="middle" x="0" y="403" style="font-family: TOBESTRIPPEDOpen\ SansTOBESTRIPPED, verdana, arial, sans-serif; font-size: 12px; fill: rgb(68, 68, 68); fill-opacity: 1; white-space: pre;" transform="translate(558.76,0)">50</text></g></g><g class="yaxislayer-above"><g class="ytick"><text text-anchor="end" x="59" y="4.199999999999999" style="font-family: TOBESTRIPPEDOpen\ SansTOBESTRIPPED, verdana, arial, sans-serif; font-size: 12px; fill: rgb(68, 68, 68); fill-opacity: 1; white-space: pre;" transform="translate(0,377.46)">0</text></g><g class="ytick"><text text-anchor="end" x="59" y="4.199999999999999" style="font-family: TOBESTRIPPEDOpen\ SansTOBESTRIPPED, verdana, arial, sans-serif; font-size: 12px; fill: rgb(68, 68, 68); fill-opacity: 1; white-space: pre;" transform="translate(0,339.03)">0.2</text></g><g class="ytick"><text text-anchor="end" x="59" y="4.199999999999999" style="font-family: TOBESTRIPPEDOpen\ SansTOBESTRIPPED, verdana, arial, sans-serif; font-size: 12px; fill: rgb(68, 68, 68); fill-opacity: 1; white-space: pre;" transform="translate(0,300.59000000000003)">0.4</text></g><g class="ytick"><text text-anchor="end" x="59" y="4.199999999999999" style="font-family: TOBESTRIPPEDOpen\ SansTOBESTRIPPED, verdana, arial, sans-serif; font-size: 12px; fill: rgb(68, 68, 68); fill-opacity: 1; white-space: pre;" transform="translate(0,262.15999999999997)">0.6</text></g><g class="ytick"><text text-anchor="end" x="59" y="4.199999999999999" style="font-family: TOBESTRIPPEDOpen\ SansTOBESTRIPPED, verdana, arial, sans-serif; font-size: 12px; fill: rgb(68, 68, 68); fill-opacity: 1; white-space: pre;" transform="translate(0,223.72)">0.8</text></g><g class="ytick"><text text-anchor="end" x="59" y="4.199999999999999" style="font-family: TOBESTRIPPEDOpen\ SansTOBESTRIPPED, verdana, arial, sans-serif; font-size: 12px; fill: rgb(68, 68, 68); fill-opacity: 1; white-space: pre;" transform="translate(0,185.29000000000002)">1</text></g><g class="ytick"><text text-anchor="end" x="59" y="4.199999999999999" style="font-family: TOBESTRIPPEDOpen\ SansTOBESTRIPPED, verdana, arial, sans-serif; font-size: 12px; fill: rgb(68, 68, 68); fill-opacity: 1; white-space: pre;" transform="translate(0,146.85)">1.2</text></g><g class="ytick"><text text-anchor="end" x="59" y="4.199999999999999" style="font-family: TOBESTRIPPEDOpen\ SansTOBESTRIPPED, verdana, arial, sans-serif; font-size: 12px; fill: rgb(68, 68, 68); fill-opacity: 1; white-space: pre;" transform="translate(0,108.42)">1.4</text></g><g class="ytick"><text text-anchor="end" x="59" y="4.199999999999999" style="font-family: TOBESTRIPPEDOpen\ SansTOBESTRIPPED, verdana, arial, sans-serif; font-size: 12px; fill: rgb(68, 68, 68); fill-opacity: 1; white-space: pre;" transform="translate(0,69.98)">1.6</text></g></g><g class="overaxes-above"/></g></g><g class="polarlayer"/><g class="ternarylayer"/><g class="geolayer"/><g class="pielayer"/><g class="glimages"/><defs id="topdefs-06b0c4"><g class="clips"/></defs><g class="layer-above"><g class="imagelayer"/><g class="shapelayer"/></g><g class="infolayer"><g class="g-gtitle"><text class="gtitle" style="font-family: TOBESTRIPPEDOpen\ SansTOBESTRIPPED, verdana, arial, sans-serif; font-size: 17px; fill: rgb(68, 68, 68); opacity: 1; font-weight: normal; white-space: pre;" x="350" y="30" text-anchor="middle">Distribution Entropy</text></g><g class="g-xtitle"><text class="xtitle" style="font-family: TOBESTRIPPEDOpen\ SansTOBESTRIPPED, verdana, arial, sans-serif; font-size: 14px; fill: rgb(68, 68, 68); opacity: 1; font-weight: normal; white-space: pre;" x="350" y="442" text-anchor="middle">Frames in Mio.</text></g><g class="g-ytitle"><text class="ytitle" transform="rotate(-90,22,225)" style="font-family: TOBESTRIPPEDOpen\ SansTOBESTRIPPED, verdana, arial, sans-serif; font-size: 14px; fill: rgb(68, 68, 68); opacity: 1; font-weight: normal; white-space: pre;" x="22" y="225" text-anchor="middle">Entropy</text></g></g></svg>