<svg class="main-svg" xmlns="http://www.w3.org/2000/svg" xmlns:xlink="http://www.w3.org/1999/xlink" width="700" height="450" style="" viewBox="0 0 700 450"><rect x="0" y="0" width="700" height="450" style="fill: rgb(255, 255, 255); fill-opacity: 1;"/><defs id="defs-0d5aad"><g class="clips"><clipPath class="plotclip" id="clip0d5aadxyplot"><rect width="484" height="330"/></clipPath><clipPath class="axesclip" id="clip0d5aadx"><rect x="60" y="0" width="484" height="450"/></clipPath><clipPath class="axesclip" id="clip0d5aady"><rect x="0" y="60" width="700" height="330"/></clipPath><clipPath class="axesclip" id="clip0d5aadxy"><rect x="60" y="60" width="484" height="330"/></clipPath></g><g class="gradients"/></defs><g class="bglayer"><rect class="bg" x="60" y="60" width="484" height="330" style="fill: rgb(255, 255, 255); fill-opacity: 1; stroke-width: 0;"/></g><g class="layer-below"><g class="imagelayer"/><g class="shapelayer"/></g><g class="cartesianlayer"><g class="subplot xy"><g class="layer-subplot"><g class="shapelayer"/><g class="imagelayer"/></g><g class="gridlayer"><g class="x"><path class="xgrid crisp" d="M0,60v330" transform="translate(143.39,0)" style="stroke: rgb(238, 238, 238); stroke-opacity: 1; stroke-width: 1px;"/><path class="xgrid crisp" d="M0,60v330" transform="translate(227.04,0)" style="stroke: rgb(238, 238, 238); stroke-opacity: 1; stroke-width: 1px;"/><path class="xgrid crisp" d="M0,60v330" transform="translate(310.7,0)" style="stroke: rgb(238, 238, 238); stroke-opacity: 1; stroke-width: 1px;"/><path class="xgrid crisp" d="M0,60v330" transform="translate(394.36,0)" style="stroke: rgb(238, 238, 238); stroke-opacity: 1; stroke-width: 1px;"/><path class="xgrid crisp" d="M0,60v330" transform="translate(478.01,0)" style="stroke: rgb(238, 238, 238); stroke-opacity: 1; stroke-width: 1px;"/></g><g class="y"><path class="ygrid crisp" d="M60,0h484" transform="translate(0,308.83000000000004)" style="stroke: rgb(238, 238, 238); stroke-opacity: 1; stroke-width: 1px;"/><path class="ygrid crisp" d="M60,0h484" transform="translate(0,234.5)" style="stroke: rgb(238, 238, 238); stroke-opacity: 1; stroke-width: 1px;"/><path class="ygrid crisp" d="M60,0h484" transform="translate(0,160.17000000000002)" style="stroke: rgb(238, 238, 238); stroke-opacity: 1; stroke-width: 1px;"/><path class="ygrid crisp" d="M60,0h484" transform="translate(0,85.84)" style="stroke: rgb(238, 238, 238); stroke-opacity: 1; stroke-width: 1px;"/></g></g><g class="zerolinelayer"><path class="yzl zl crisp" d="M60,0h484" transform="translate(0,383.16)" style="stroke: rgb(68, 68, 68); stroke-opacity: 1; stroke-width: 1px;"/></g><path class="xlines-below"/><path class="ylines-below"/><g class="overlines-below"/><g class="xaxislayer-below"/><g class="yaxislayer-below"/><g class="overaxes-below"/><g class="plot" transform="translate(60, 60)" clip-path="url(#clip0d5aadxyplot)"><g class="imagelayer"/><g class="maplayer"/><g class="barlayer"/><g class="carpetlayer"/><g class="violinlayer"/><g class="boxlayer"/><g class="scatterlayer"><g class="trace scatter tracea09f24" style="stroke-miterlimit: 2; opacity: 1;"><path class="js-line" style="vector-effect: non-scaling-stroke; fill: none; stroke: rgb(31, 119, 180); stroke-opacity: 1; stroke-width: 2px; opacity: 1;" d="M0,308.62L0.27,308.14L0.54,310.27L0.8,310.37L1.07,308.19L1.87,305.69L2.14,308.09L2.41,309.52L2.68,303.51L3.75,309.84L4.02,307.1L4.55,310.64L4.82,309.52L5.09,301.89L5.62,306.68L5.89,303.24L6.16,304.24L6.42,305.26L6.96,304.48L7.23,304.25L7.5,304.02L7.76,306.07L8.03,298.49L8.57,303.28L8.83,305L9.1,307.98L9.37,305.7L9.64,305.12L10.44,299.69L10.71,301.38L10.98,297.73L11.24,301.11L11.51,301.87L11.78,299.85L12.05,303.21L12.31,303.03L12.58,304.35L12.85,301.35L13.12,303.9L13.65,303.61L13.92,300.45L14.72,303.09L14.99,302.5L15.26,301.56L15.79,294.55L16.06,301.25L16.33,299.24L16.87,299.56L17.13,301.32L18.2,284.44L18.47,290.03L19.27,297.53L19.54,294.42L19.81,295.99L20.08,302.25L20.61,292.75L20.88,295.53L21.15,299.85L21.42,291.24L21.95,292.35L22.22,296.92L22.75,294.17L23.02,291.65L23.29,292.93L23.56,283.02L24.09,287.74L24.36,284.58L24.63,286.8L24.9,285.82L25.16,288.78L25.43,288.44L25.7,285.56L25.97,287.94L26.23,283.17L26.5,280.95L26.77,285.03L27.84,295.17L28.11,291.48L29.18,296.88L29.45,291.78L30.25,283.89L30.52,288.41L31.59,280.26L31.86,286.32L32.66,280.16L32.93,284.36L33.46,277.18L33.73,280.43L34,283.63L34.27,287.83L34.53,284.2L34.8,282.6L35.07,286.03L35.34,275.49L35.6,277.11L35.87,272.79L36.14,277.75L36.41,268.45L37.21,284.28L37.75,283.21L38.01,277.36L38.28,274.74L38.55,285.59L39.35,281.02L39.62,285.55L39.89,287.97L40.15,273.72L40.69,261.16L40.96,265.91L41.23,264.92L41.76,260.06L42.03,271.34L42.3,262.03L42.56,272.19L42.83,274.71L43.37,268.19L43.63,275.09L43.9,275.58L44.17,270.37L44.97,257.08L45.24,257.23L45.51,266.02L46.31,272.86L46.58,272.03L46.85,261.17L47.65,248.31L47.92,254.19L48.19,251.75L48.45,266.92L48.99,254.3L49.26,263.24L49.52,269.14L49.79,263.86L50.06,275.07L50.33,276.93L50.6,267.82L50.86,268.21L51.13,270.82L51.4,264.95L51.93,269.52L52.2,268.41L52.74,251.92L53,258.71L53.27,255.27L53.54,259.91L53.81,257.91L54.08,256.19L55.41,268.62L55.68,251.87L55.95,265.98L56.48,255.39L56.75,261.76L57.56,245.16L57.82,247.49L58.09,250L58.36,267.86L58.63,269.53L58.89,256.77L59.43,261.61L59.7,250.76L60.23,269.65L60.5,257.02L60.77,249L61.04,247.03L61.3,264.31L62.11,239.34L62.37,254.38L62.64,263.7L62.91,254.66L63.18,243.03L63.98,258.32L64.25,257.43L64.52,244.36L64.78,250.88L65.05,235.06L65.32,252.16L65.85,245.61L66.12,232.84L66.92,245.62L67.19,240.58L67.73,247.9L68,240.93L68.26,241.81L68.53,241.7L68.8,253.83L69.07,252.04L69.33,238.86L69.6,239.27L69.87,233.52L70.14,244.27L70.4,225.42L70.67,241.44L70.94,224.66L71.21,233.38L71.48,217.14L72.28,242.39L72.55,235.73L72.81,222.73L73.08,228.36L73.35,222.26L73.62,217.46L74.42,244.25L74.69,231.86L75.49,246.85L75.76,231.08L76.03,229.51L76.29,216.53L77.9,257.73L78.17,231.42L78.44,230.37L78.7,234.8L79.51,213.23L79.77,225.97L80.04,246.29L80.31,219.58L80.58,222.79L80.85,221.27L81.11,228.8L82.18,199.59L82.45,201.1L82.72,226L83.25,219.48L83.52,241.93L84.33,211.99L84.59,227.82L85.13,224.21L85.66,249.77L85.93,235.73L86.47,240.34L86.73,226.41L87.54,219.8L87.81,199.45L88.61,223.96L88.88,222.18L89.14,201.28L89.41,206.43L89.68,227.04L89.95,211.43L90.21,213.49L90.48,227.8L90.75,228.73L91.02,220.24L91.29,271.49L91.82,235.65L92.09,214.9L92.62,222.3L92.89,214.04L93.16,233.16L93.43,209.66L93.69,218.91L93.96,236.48L94.5,222.9L94.77,241.99L95.3,206.75L95.57,227.08L95.84,219.31L96.64,229.02L96.91,203.42L97.44,209.79L97.71,237.34L98.51,215.28L98.78,230.2L99.05,231.36L99.32,223.95L99.58,216.8L99.85,223.31L100.12,223.95L100.39,229.65L100.65,216.09L101.73,241.16L101.99,188.6L102.26,221.14L102.8,217.78L103.06,200.76L103.6,225.65L104.13,219.33L104.4,218.67L104.67,223.53L105.21,220.01L105.47,198.46L105.74,214.34L106.01,180.92L106.28,226.21L106.81,210.1L107.08,205.84L107.35,190.32L107.62,228.13L107.88,198.14L108.42,201.37L108.69,212.1L108.95,212.96L109.22,212.06L109.49,216.3L109.76,217.9L110.02,189.73L110.56,211.9L110.83,208.96L111.1,205.04L111.36,221.26L111.9,211.32L112.17,207.58L112.43,214.13L112.97,209.72L113.24,205.01L113.77,215.62L114.04,208.77L114.31,195.46L114.58,198.98L114.84,198.08L115.11,171.35L115.38,211.72L115.91,208.38L116.18,211.01L116.98,175.73L117.25,209.19L117.52,183.06L118.06,199.12L118.32,210.98L118.59,186.1L118.86,218.49L119.13,202.36L119.39,200.05L119.93,218.24L120.2,200.44L120.73,227.62L121,195.71L121.27,192.36L121.54,200.65L122.34,208.48L122.61,192.97L123.14,214.24L123.41,183.8L124.21,209.57L124.48,209.45L124.75,196.48L125.28,222.23L125.55,186.13L125.82,224.06L126.35,203.24L126.62,214.77L126.89,202.81L127.16,216.47L127.42,213.87L127.69,197.39L127.96,197.73L128.23,218.67L129.03,188.96L129.3,190L129.57,191.05L129.83,189.93L130.1,185.17L130.37,208.17L130.9,194.41L131.17,197.36L131.44,211.5L131.98,204.35L132.24,207.42L132.78,210.87L133.31,193.85L133.58,197.56L133.85,189.83L134.12,202.92L134.38,209.59L134.65,166.2L134.92,189.43L135.19,216.94L135.46,168.5L135.72,222.29L135.99,205.48L136.26,201.55L136.53,209.71L136.79,189.93L137.06,197.66L137.33,176.93L138.4,205.61L138.67,194.98L138.94,197.31L139.2,209.32L139.47,198.94L139.74,206.47L140.01,162.68L140.27,207.67L140.81,204.27L141.08,210.65L141.35,189.93L141.61,198.52L141.88,207L142.15,177L142.42,221.66L142.68,207.85L143.22,166.98L143.49,194.04L143.75,193.55L144.02,209.26L144.29,182.57L144.83,186.68L145.09,199.74L145.36,164.9L145.63,203.82L145.9,183.49L146.16,173.28L147.23,212.11L147.5,206.83L147.77,191.16L148.31,196.44L148.57,208.05L148.84,188.24L149.11,194.39L149.38,204.6L149.64,216.39L149.91,214.5L150.18,192.35L150.45,206.47L150.71,196.58L150.98,179.63L151.25,199.95L151.79,199.91L152.05,195.67L152.32,178.39L152.86,189.05L153.12,181.87L153.66,214.91L153.93,213.12L154.19,207.84L155,174.71L155.27,187.26L155.53,194.64L156.07,204.02L156.34,186.62L156.6,189.94L156.87,208.24L157.41,184.68L157.67,213.43L157.94,176.08L158.48,193.31L158.75,184.27L159.01,177.65L159.28,178.67L159.55,206.22L159.82,211.91L160.08,190.85L160.62,180.11L160.89,203.22L161.15,169.81L161.69,176.54L161.96,173.4L162.23,163.6L162.49,192.2L163.03,183.67L163.3,167.35L163.83,196.33L164.1,152.14L164.63,195.88L165.17,186.18L165.44,186.22L165.71,212.71L165.97,178.97L166.24,199.08L166.51,180.01L167.31,213.69L167.58,194.45L167.85,180.62L168.38,180.1L168.65,188.82L168.92,185.51L169.19,186.34L169.45,196.75L169.72,198.64L169.99,207.5L170.26,218.82L170.52,201.28L170.79,184.28L171.06,192.67L171.6,186.14L171.86,189.75L172.13,163.67L172.4,217.38L173.2,167.5L173.47,198.58L173.74,197.53L174,180.87L174.54,185.6L174.81,164.38L175.08,200.18L175.34,195.58L175.61,158.36L175.88,188.31L176.41,179.66L176.68,183.46L176.95,175.15L177.22,200.98L177.48,204.7L177.75,191.42L178.02,192.13L178.29,189.65L178.56,190.87L178.82,180.75L179.36,184.56L179.63,170.72L179.89,167.85L180.16,186.74L180.43,179.5L180.7,183.51L180.96,152.39L182.04,198.06L182.3,192.45L183.11,181.8L183.37,156.43L183.91,192.18L184.18,173.26L184.44,187.59L184.71,207.8L184.98,163.8L185.25,161.47L185.52,190.4L185.78,180.3L186.05,193.88L186.32,194.08L186.85,174.51L187.12,180.77L187.39,197L188.73,172.7L189,188.83L189.26,194.82L189.53,189.69L189.8,175.12L190.33,192.41L190.6,171.11L190.87,174.42L191.14,189.09L191.94,163.07L192.21,190.93L192.74,158.41L193.01,190.76L193.28,192.39L193.55,183.52L193.81,172.37L194.08,191.52L194.35,177.15L194.62,184.04L194.88,173.24L195.42,176.97L195.69,193.22L196.22,174.57L196.49,178.68L196.76,199.82L197.03,175.85L197.56,185.02L197.83,174.14L198.1,168.9L198.37,180.77L198.63,197.79L198.9,164.59L199.17,167.07L199.44,159.57L199.7,196.1L200.24,190.86L200.51,197.54L200.77,164.76L201.31,186.73L201.58,180.76L201.85,198.64L202.11,159.57L202.92,194.94L203.18,178.78L203.45,190.27L203.72,175.56L203.99,171.04L204.52,192.97L204.79,184.15L205.06,145.11L205.33,203.26L205.86,182.11L206.13,191.77L206.93,160.2L207.2,184.3L207.47,198.9L207.73,150.15L208.27,195.51L208.54,164.97L208.81,167.28L209.34,192.28L209.61,158.66L209.88,167.67L210.14,143.23L211.21,206.57L211.48,198.14L212.02,155.11L212.55,157.45L212.82,169.21L213.36,192.73L213.62,169.74L213.89,159.8L214.16,184.2L214.43,178.49L214.69,201.81L215.5,167.18L215.77,188.78L216.03,168.85L216.57,181.83L216.84,175.04L217.1,169.25L217.37,179.15L217.64,155.16L217.91,163.86L218.17,155.58L218.44,153.79L219.51,185.79L219.78,170.33L220.05,192.91L220.58,175.61L220.85,155.61L221.12,158.79L221.39,172.4L221.65,181.19L221.92,172.05L222.19,149.44L222.46,145.89L222.73,158L222.99,162.71L223.26,155.35L223.53,152.87L223.8,184.91L224.33,172.41L224.6,167.32L224.87,151.61L225.4,155.06L225.67,181.4L225.94,152.67L226.47,173.23L226.74,190.18L227.54,153.15L227.81,167.15L228.08,193.11L228.35,148.03L228.62,160.81L229.15,182.3L229.42,159.84L229.69,159.51L229.95,150.21L230.49,184.61L230.76,176.77L231.02,163.51L231.29,163.57L231.56,151.33L231.83,170.77L232.1,150.33L232.36,162.52L232.63,154.46L232.9,141.71L233.17,163.71L233.43,163.95L233.7,162.13L233.97,168.66L234.5,136.13L234.77,152.75L235.04,156.64L235.31,130.2L235.84,167.5L236.11,166.39L236.38,160.04L236.65,142.18L236.91,162.03L237.18,168.92L237.45,163.73L237.72,291.53L237.98,167.09L238.52,187.37L238.79,241.94L239.32,148.7L239.86,182.85L240.13,154.81L240.39,135.19L240.66,137.45L240.93,190.55L242,128.01L242.27,146.54L242.54,167.33L242.8,139.12L243.07,134.88L243.87,179.25L244.14,135.17L244.68,151.07L244.94,165.12L245.21,145.22L245.75,154.22L246.02,148.06L246.28,166.16L246.55,136.69L246.82,155.02L247.09,154.3L247.35,150.71L247.62,156.59L247.89,157.8L248.16,164.32L248.42,162.78L248.69,145.18L249.5,120.42L249.76,153.95L250.57,121.93L250.83,142.22L251.1,146.24L251.37,163.1L251.64,173.09L251.9,129.55L252.17,126.15L252.44,157.22L252.71,154.25L252.98,155.31L253.24,139.53L253.51,143.7L253.78,176.11L254.58,122.18L255.12,126.8L255.38,159.19L256.19,142.9L256.46,152.42L256.72,137.65L256.99,169.01L258.06,130.26L258.33,155.81L258.6,113.46L259.13,144.22L259.4,155.11L259.94,144.5L260.2,166.14L260.47,128.32L260.74,142.79L261.01,180.3L261.27,289.74L261.54,190.01L261.81,180.36L262.61,146.89L262.88,155.82L263.15,156.38L263.42,157.8L263.68,131.92L263.95,162.13L264.22,153.11L264.49,112.27L264.75,172.44L265.29,158.24L265.56,180.13L266.9,141.19L267.16,160.84L267.43,104.98L267.7,145.99L267.97,157.77L269.04,125.43L269.31,142.39L269.57,145.92L269.84,170.21L270.64,139.07L270.91,156.41L271.98,123.47L272.25,169.31L272.79,94.1L273.05,147.18L273.32,124.51L273.59,162.31L274.12,139.18L274.39,126.39L274.66,127.28L274.93,143.84L275.19,105.93L275.46,150.02L275.73,108.83L276,137.47L276.27,175.96L276.53,147.17L276.8,139.65L277.07,140.37L277.34,145.6L277.87,118.81L278.41,121.66L278.67,156.41L278.94,182.07L279.21,130.84L279.75,130.96L280.01,130.64L280.28,143.04L280.82,139.22L281.08,144.28L281.62,135.82L281.89,156.37L282.15,291.77L282.42,167.75L282.69,106.87L283.76,157.77L284.03,141.37L284.3,134.58L284.56,137.59L284.83,160.65L285.63,91.28L285.9,116.1L286.97,160.25L287.24,132.1L287.51,132.23L287.78,121.92L288.31,127.69L288.58,131.48L288.85,130.28L289.12,110.17L289.92,141.8L290.19,124.38L290.45,143.55L290.72,140.94L290.99,121.13L291.52,153.52L291.79,133.63L292.33,221.85L292.6,142.34L292.86,145.77L293.13,165.75L293.4,163.2L293.67,141.52L293.93,291.55L294.2,228.32L294.47,138.97L294.74,149.64L295,108.64L295.27,142.78L295.81,135.26L296.08,135.13L296.34,262.13L296.61,201.33L296.88,141.64L297.15,144.19L297.41,125.02L297.95,173.79L298.22,117.69L298.75,133.82L299.02,132.87L299.29,136.13L299.56,133.22L299.82,147.97L300.09,127.7L300.36,150.08L300.63,147.12L300.89,150.18L301.16,121.7L301.96,150.64L302.23,137.5L302.5,124.27L302.77,142.77L303.04,122.93L303.3,137.13L303.57,132.91L303.84,130.52L304.11,111.27L304.64,114.64L305.44,94.73L305.71,151.8L305.98,169.59L306.25,112.82L306.52,135.36L306.78,109.83L307.05,125.65L307.32,118.12L307.59,164.26L307.85,132.77L308.12,92.19L309.19,149.52L309.46,144.32L309.73,116.1L310,138.88L310.26,155.41L310.8,128.85L311.07,142.95L312.14,118.94L312.4,108.04L312.94,137.04L313.21,109.73L313.48,132.76L313.74,110.41L314.01,111.84L314.28,118.94L314.55,105.42L315.35,123.28L315.62,82.77L316.15,143.57L316.42,99.93L316.69,107L316.96,105.45L317.22,111.44L317.49,102.41L317.76,113.69L318.03,144.45L318.56,112.3L318.83,136.22L319.1,117.2L319.37,134.29L319.63,78.03L320.7,165.31L320.97,159.54L322.04,122.93L322.31,132.26L322.85,114.37L323.11,139.72L323.92,99.51L324.18,102.81L324.45,141.35L324.72,137.76L324.99,108.52L325.25,106.97L325.52,111.7L325.79,119.39L326.06,95.03L326.33,100L326.59,98.23L326.86,132.15L327.13,110.94L327.66,126.41L327.93,128.58L328.2,97.16L328.47,141.89L328.73,104.23L329,122.26L329.27,109.68L329.81,117.87L330.07,116.83L330.34,95.73L330.61,146.67L331.41,114.89L331.68,126.47L331.95,126.11L332.21,118.74L332.48,143.48L332.75,61.86L333.02,125.39L333.55,112.75L333.82,103.73L334.09,112.67L334.36,151.32L334.89,100.86L335.16,119.14L335.43,118.92L335.69,129.38L335.96,100.62L336.23,143.54L336.5,129.63L336.77,104.87L337.03,105.84L337.3,121.54L337.57,98.79L337.84,129.09L338.1,115.97L338.37,133.97L338.91,91.86L339.17,109.61L339.44,123.58L339.71,127.83L339.98,119.9L340.25,104.46L340.51,139.91L340.78,94.53L341.32,125.89L341.58,96.9L341.85,115.27L342.12,114.8L342.39,99.57L342.65,102.94L342.92,89.5L343.46,138.69L343.73,95.44L344.26,160.47L344.53,124.5L344.8,139.91L345.06,95.92L345.6,105.04L345.87,130.82L346.4,134.04L346.67,75.67L346.94,86.68L347.21,107.59L347.47,83.97L347.74,129.42L348.01,129.08L348.28,118.57L348.54,87.26L348.81,105.87L349.08,112.64L349.35,128.71L349.62,93.69L349.88,118.54L350.42,104.23L350.69,115.23L350.95,92.02L351.49,100.1L351.76,115.62L352.02,132.8L352.29,110.37L352.56,99.52L352.83,78.52L353.1,114.48L353.36,110.95L353.63,116.67L353.9,96.74L354.17,136.67L354.7,129.77L354.97,96.84L355.24,88.77L355.5,90.22L355.77,131.08L356.04,125.62L356.31,100.42L356.58,87.43L356.84,122.56L357.11,71.04L357.38,135.22L357.65,109.78L357.91,105.37L358.18,125.28L358.45,67.31L358.72,122.27L359.25,92.89L359.52,91.4L359.79,113.04L360.32,103.21L360.59,115.76L361.13,138.6L361.39,85.18L361.66,116.57L361.93,92.91L362.2,90.54L363,142.02L363.27,119.39L363.8,109.98L364.07,73.04L365.41,134.18L365.68,100.15L365.94,107.46L366.21,88.94L366.75,145.89L367.02,100.38L367.28,129.63L367.55,72.98L368.09,130.52L368.35,84.53L368.62,156.76L368.89,110.2L369.16,100.14L369.42,108.83L369.69,91.82L369.96,246.02L370.23,118.65L370.5,109.68L370.76,117.58L371.03,76.75L371.57,112.34L371.83,91.98L372.1,79.87L372.37,123.66L372.9,123.04L373.17,108.1L373.44,85.45L373.71,96.61L373.98,113.05L374.24,99.05L374.51,120.49L374.78,64.47L375.58,135.49L375.85,110.95L376.12,112.89L376.38,107.01L377.46,138.33L377.72,96.93L377.99,99.76L378.26,88.49L378.53,74.9L378.79,111.34L379.6,75.04L379.87,105.07L380.13,85.16L380.4,129.42L380.94,108.61L381.2,118.43L381.47,123.09L381.74,154.21L382.01,112.76L382.27,140.45L382.54,83.87L383.35,101.95L383.61,74.38L383.88,118.17L384.42,101.5L384.68,110.8L385.22,83.29L385.49,97.57L385.75,108.12L386.02,88.36L386.29,90.63L386.56,112.45L386.83,144.57L387.09,86.25L387.36,128.12L387.63,101.04L387.9,79.33L388.16,85.55L388.43,110.01L389.23,103.13L389.5,123.16L390.31,77.62L390.57,116.33L390.84,126.43L391.11,89.33L391.38,51.42L391.64,105.92L391.91,65.96L392.18,113.88L393.25,68.95L393.52,88.91L394.05,63.39L394.32,131.89L394.86,77.99L395.39,80.62L395.66,83.06L395.93,50.38L396.19,108.66L396.46,87.81L396.73,88.8L397,119.84L397.53,69.34L397.8,89.49L398.07,94.73L398.34,69.57L398.6,103.8L398.87,111.41L399.67,97.84L399.94,121.97L400.21,118.85L400.48,88.98L400.75,63.74L401.01,83.16L401.28,130.13L402.08,79.55L402.35,130.35L402.62,271.9L402.89,118.57L403.15,99.51L403.42,106.43L403.69,100.39L403.96,79.19L404.23,114.02L404.49,89.14L404.76,34.68L405.03,116.7L405.56,78.88L405.83,102.87L406.9,75.5L407.17,106.52L407.44,111.44L407.71,35.41L408.51,200.21L408.78,89.09L409.04,116.83L409.31,112.81L409.58,88.56L409.85,91.36L410.12,49.41L411.19,129.96L411.45,80.85L411.72,90.58L411.99,78.85L412.26,48.56L413.33,123.69L413.6,112.21L414.4,73.06L414.67,78.14L414.93,156.25L415.47,48.53L415.74,72.24L416,96.06L416.27,50.1L416.54,100.97L416.81,80.18L417.08,103.27L417.34,117.45L417.61,114.77L417.88,67.99L418.41,136.11L418.68,88.58L418.95,85.06L419.48,109.82L419.75,93.89L420.02,63.26L421.09,98.24L421.36,140.83L421.89,49.4L422.16,113.64L422.43,97.41L422.7,120.27L422.96,91.26L423.23,76.8L423.5,102.58L423.77,98.96L424.04,77.7L424.57,110.17L424.84,93.8L425.11,111.96L425.37,57.76L425.91,85.84L426.18,131.97L426.44,61.17L426.98,70.64L427.25,111.58L427.52,45.81L427.78,89.14L428.05,129.95L428.59,71.59L428.85,119.29L429.12,119.96L429.92,79.34L430.19,111.03L430.46,56.6L431,75.53L431.26,84.05L431.53,56.54L431.8,70.02L432.07,90.99L432.33,91.72L432.6,59.73L433.14,100.55L433.4,85.52L433.67,58.21L434.21,85.87L434.48,101.91L434.74,100.29L435.01,64.98L435.28,137.83L435.55,59.14L435.81,112.33L436.08,64.18L436.35,114.82L436.62,64.14L436.88,43.78L438.22,106.62L438.49,102.03L438.76,65.25L439.03,67.16L439.29,64.47L439.56,117.56L439.83,49.43L440.37,65.39L440.63,121.17L440.9,120.04L441.17,114.52L441.97,44.81L442.24,95.37L442.77,110.7L443.04,47.3L443.31,57.72L443.58,61.86L443.85,91.73L444.38,89.2L444.65,92.97L444.92,119.86L445.18,68.73L445.45,100.87L445.72,56.3L445.99,59.2L446.79,84.02L447.06,53.56L448.13,103.63L448.4,80.56L449.2,105.73L449.47,100.86L450.27,60.01L450.54,99.49L450.81,131.6L451.07,73.59L451.34,63.76L451.61,55.66L451.88,68.23L452.14,59.07L452.41,70.06L452.68,81.55L452.95,47.85L453.21,135.86L453.75,91.6L454.02,46.41L454.29,54.01L454.55,99.42L454.82,54.09L455.09,96.27L455.36,99.93L455.89,100.1L456.43,42.64L456.69,109.88L456.96,35.42L457.5,83.38L457.77,109.59L458.3,113.55L458.84,61.96L459.1,100.48L460.17,38.21L460.44,91.45L460.71,71.19L460.98,103.41L461.25,100.8L462.32,59.05L462.58,73.57L462.85,91.45L463.12,16.5L463.92,105.08L464.19,76.37L464.73,65.82L464.99,81.85L465.26,97.05L465.53,37.21L466.06,133.33L466.33,75.88L466.6,103.16L466.87,96.44L467.13,103.36L467.4,64.54L467.67,113.83L467.94,86.93L468.21,52.29L468.74,111.06L469.01,67.88L469.28,67.95L469.54,78.83L469.81,45.07L470.62,83.77L470.88,78.93L471.15,54.37L471.42,95.78L471.69,94.91L471.95,29.14L472.49,50.49L472.76,85.14L473.02,76.05L473.29,92.21L473.56,96.45L474.1,44.56L474.36,52.32L474.63,106.04L475.7,70.65L475.97,90.38L476.5,92.56L476.77,64.04L477.04,95.08L477.31,31.18L477.84,67.65L478.11,55.25L478.38,85.9L478.65,52.55L478.91,68.75L479.18,65.9L479.45,59.66L479.72,70.32L479.98,81.44L480.52,100.66L480.79,56.97L481.86,100.97L482.13,87.81L482.39,86.42L482.93,43.47L483.2,82.15L483.46,30.41L483.73,87.08L484,97.32"/><g class="points"/></g><g class="trace scatter traceb6d017" style="stroke-miterlimit: 2; opacity: 1;"><path class="js-line" style="vector-effect: non-scaling-stroke; fill: none; stroke: rgb(255, 127, 14); stroke-opacity: 1; stroke-width: 2px; opacity: 1;" d="M0,312.01L0.27,311.27L0.54,312.76L1.07,312.76L1.34,311.27L1.61,311.27L1.87,308.3L2.94,312.76L3.21,311.27L3.75,313.5L4.02,312.76L4.28,312.76L4.55,313.5L4.82,312.01L5.35,312.76L5.62,309.78L6.16,308.3L6.42,309.78L7.5,306.81L7.76,311.27L8.57,309.78L8.83,310.53L9.1,312.76L9.37,308.3L9.64,311.27L9.9,306.81L10.17,305.32L10.44,306.81L10.71,306.07L10.98,305.32L11.24,304.58L11.51,309.78L12.31,306.81L12.58,311.27L12.85,306.07L13.38,309.78L13.65,311.27L14.19,305.32L14.46,306.81L14.72,308.3L15.26,309.78L15.53,303.84L15.79,303.09L16.06,311.27L16.33,303.09L16.87,305.32L17.13,311.27L17.4,301.61L17.94,305.32L18.2,302.35L19.27,306.81L19.54,303.84L20.08,309.78L20.35,300.86L20.88,298.63L21.15,305.32L21.42,300.86L21.95,302.35L22.22,306.07L22.49,308.3L22.75,306.81L23.02,305.32L23.29,303.84L23.56,296.4L23.83,296.4L24.09,303.84L25.43,290.46L25.7,290.46L25.97,303.84L26.23,286.74L26.5,291.94L26.77,287.48L27.04,299.38L27.31,299.38L27.57,296.4L27.84,306.07L28.38,305.32L28.64,300.86L29.18,300.86L29.45,297.89L29.71,291.2L30.25,293.43L30.52,297.89L30.79,297.89L31.05,302.35L31.59,283.02L31.86,293.43L32.12,293.43L32.39,293.43L32.66,290.46L33.19,296.4L33.46,283.02L34.27,294.92L34.53,291.94L35.07,294.17L35.34,286L35.6,286L36.41,287.48L36.67,284.51L36.94,285.25L37.21,294.92L37.48,291.94L37.75,302.35L38.01,283.02L38.55,297.89L38.82,293.43L39.08,287.48L39.35,290.46L39.62,300.86L39.89,297.89L40.15,280.79L40.42,281.54L40.69,278.56L40.96,284.51L41.49,280.05L41.76,283.02L42.56,287.48L42.83,290.46L43.37,278.56L43.63,282.28L43.9,280.05L44.44,267.41L44.71,274.1L45.24,268.16L45.51,274.1L45.78,284.51L46.31,280.05L46.58,281.54L46.85,280.79L47.12,262.21L47.38,264.44L47.65,263.7L47.92,259.98L48.19,264.44L48.45,282.28L48.72,250.32L49.26,259.24L49.52,282.28L49.79,274.1L50.06,284.51L50.33,284.51L51.4,265.18L51.67,280.05L52.74,269.64L53,276.33L53.27,262.21L53.81,268.16L54.08,275.59L55.15,259.24L55.41,274.1L55.68,259.24L55.95,262.21L56.22,271.13L56.75,278.56L57.29,245.86L57.56,248.83L58.09,261.47L58.36,292.69L58.63,294.92L58.89,251.8L59.43,284.51L59.7,268.9L59.96,281.54L60.23,293.43L60.5,271.13L60.77,268.16L61.04,249.57L61.57,287.48L61.84,283.02L62.11,268.9L62.37,265.18L62.64,278.56L63.44,250.32L63.71,257.75L64.25,290.46L64.52,245.86L65.05,247.34L65.32,257.75L65.59,254.78L65.85,268.16L66.39,251.8L66.66,268.16L67.46,248.83L67.73,250.32L68,239.91L69.07,272.62L69.33,251.8L70.14,245.86L70.4,222.07L70.67,256.26L71.21,247.34L71.48,222.07L72.28,250.32L72.55,238.42L73.62,223.56L73.88,257.75L74.15,241.4L74.69,247.34L74.96,260.72L75.22,245.86L75.49,277.08L76.29,211.67L76.56,222.07L76.83,232.48L77.9,274.85L78.17,265.18L78.97,239.17L79.24,264.44L79.51,225.05L79.77,242.88L80.04,260.72L80.58,232.48L80.85,248.83L81.11,245.86L82.45,199.77L82.72,223.56L83.52,257.75L83.79,236.94L84.33,208.69L84.59,241.4L84.86,239.91L85.13,244.37L85.4,242.88L85.66,265.18L85.93,253.29L86.2,259.24L86.47,268.16L87.81,190.85L88.07,220.59L88.34,219.84L88.61,238.42L88.88,238.42L89.14,242.88L89.41,184.91L89.95,211.67L90.21,239.91L90.75,259.24L91.02,238.42L91.29,303.09L91.82,274.1L92.09,242.88L92.36,242.88L92.62,229.51L92.89,228.02L93.16,235.45L93.43,213.9L93.69,224.3L93.96,259.98L94.23,236.94L94.5,257.75L94.77,258.49L95.3,232.48L95.57,240.65L95.84,239.91L96.64,245.86L96.91,213.15L97.17,222.82L97.44,221.33L97.71,271.13L97.98,227.28L98.51,230.99L98.78,238.42L99.05,244.37L99.32,238.42L99.58,233.97L99.85,230.99L100.12,237.68L100.39,251.8L100.65,236.94L100.92,230.25L101.19,262.21L101.73,257.01L101.99,205.72L103.06,241.4L103.33,225.05L103.6,250.32L103.87,239.91L104.13,228.02L104.4,211.67L104.67,235.45L104.94,222.07L105.21,225.05L106.01,186.39L106.28,226.53L106.54,226.53L106.81,223.56L107.08,220.59L107.35,192.34L107.62,256.26L108.15,230.99L108.42,199.03L108.95,203.49L109.22,243.63L110.29,207.21L110.56,211.67L111.36,231.74L111.63,216.13L111.9,223.56L112.17,220.59L112.43,207.21L112.7,210.18L112.97,208.69L113.24,236.94L113.77,230.99L114.04,219.1L114.84,203.49L115.11,170.04L115.65,220.59L115.91,208.69L116.18,217.61L116.98,204.23L117.25,213.9L117.52,198.29L117.79,204.23L118.06,211.67L118.32,226.53L118.59,208.69L118.86,225.05L119.13,198.29L120.73,233.97L121,235.45L121.27,198.29L121.8,214.64L122.07,219.1L122.34,225.05L122.61,184.16L123.14,217.61L123.41,186.39L124.48,225.05L124.75,211.67L125.28,230.99L125.55,207.21L125.82,235.45L126.09,220.59L126.35,207.21L127.16,238.42L127.42,230.99L127.69,214.64L127.96,202.75L128.23,235.45L129.3,204.98L129.57,217.61L130.1,187.88L130.37,219.1L130.9,220.59L131.17,205.72L131.44,220.59L131.71,222.07L131.98,228.02L132.51,195.31L132.78,225.05L133.85,196.8L134.12,225.05L134.38,220.59L134.65,186.39L134.92,193.83L135.19,225.05L135.46,167.81L135.99,199.77L136.26,229.51L137.33,186.39L137.6,195.31L137.87,198.29L138.4,223.56L138.94,219.1L139.2,225.05L139.47,222.82L139.74,202.75L140.01,168.55L140.27,232.48L141.35,181.93L141.61,216.13L141.88,212.41L142.15,187.88L142.42,254.03L142.95,214.64L143.22,183.42L144.02,239.17L144.29,181.93L144.56,212.41L145.09,203.49L145.36,181.19L145.63,223.56L145.9,193.83L146.16,181.93L147.23,220.59L147.5,222.07L148.04,187.88L148.31,199.77L148.57,220.59L148.84,187.88L149.11,192.34L149.38,214.64L149.64,230.99L149.91,220.59L150.18,206.46L150.45,205.72L150.71,192.34L151.25,225.05L151.52,216.87L151.79,201.26L152.05,208.69L152.32,173.01L152.86,204.23L153.12,180.45L153.39,202.75L153.93,227.28L154.19,217.61L154.46,192.34L154.73,214.64L155,184.16L155.27,183.42L156.34,204.23L156.6,205.72L156.87,214.64L157.14,184.91L157.41,190.85L157.67,224.3L158.21,189.37L158.48,201.26L158.75,187.88L159.01,180.45L159.28,183.42L159.55,228.02L159.82,225.05L160.08,199.77L160.35,198.29L160.62,186.39L160.89,210.18L161.15,181.93L161.42,175.99L161.96,187.88L162.23,166.32L162.49,196.06L163.03,189.37L163.3,156.66L163.83,207.21L164.1,138.82L164.63,207.21L165.17,202.75L165.44,180.45L165.71,235.45L166.24,210.92L166.51,191.6L167.31,223.56L167.58,199.77L167.85,181.19L168.38,191.6L168.65,195.31L168.92,199.77L169.19,184.91L169.99,240.65L170.26,222.82L170.52,201.26L170.79,205.72L171.06,191.6L171.33,192.34L171.6,189.37L171.86,195.31L172.13,165.58L172.4,229.51L172.93,202.75L173.2,184.91L173.74,205.72L174,196.06L174.27,165.58L175.34,213.15L175.61,178.96L175.88,189.37L176.15,167.07L176.41,217.61L176.95,182.68L177.22,204.23L177.48,223.56L178.02,208.69L178.29,214.64L178.56,195.31L179.09,198.29L179.36,198.29L179.63,153.69L179.89,178.22L180.16,204.23L180.96,155.17L181.23,175.99L181.5,184.91L181.77,182.68L182.04,213.15L182.57,208.69L182.84,199.77L183.37,173.01L183.64,207.21L183.91,206.46L184.18,171.53L184.71,205.72L184.98,155.17L185.52,202.75L185.78,197.54L186.05,192.34L186.32,189.37L186.59,205.72L186.85,166.32L187.39,178.96L187.66,193.08L187.92,193.83L188.19,183.42L188.73,164.09L189,187.88L189.26,213.15L189.53,190.85L189.8,164.09L190.07,169.3L190.33,214.64L190.6,180.45L191.14,186.39L191.4,174.5L191.67,183.42L191.94,162.61L192.21,232.48L192.48,183.42L192.74,171.53L193.01,197.54L193.55,180.45L193.81,165.58L194.62,187.88L194.88,184.91L195.15,196.06L195.42,182.68L195.69,171.53L196.22,168.55L196.76,220.59L197.03,172.27L197.83,193.83L198.1,169.3L198.63,207.21L198.9,178.96L199.44,158.15L199.7,201.26L200.24,181.19L200.51,206.46L200.77,161.12L201.31,186.39L201.58,177.47L201.85,196.8L202.11,171.53L202.38,193.83L202.65,178.96L202.92,190.85L203.18,189.37L203.45,178.96L203.99,168.55L204.25,184.91L204.52,190.85L204.79,187.88L205.06,137.33L205.59,199.03L205.86,187.88L206.13,184.91L206.4,186.39L206.66,184.91L206.93,150.71L207.47,222.07L207.73,158.89L208,186.39L208.27,204.23L208.54,184.16L208.81,173.01L209.07,210.92L209.34,181.93L209.61,165.58L209.88,166.32L210.14,141.79L210.41,192.34L210.68,168.55L210.95,146.25L211.21,216.13L211.75,177.47L212.02,138.82L212.55,198.29L213.09,192.34L213.36,199.77L213.62,150.71L213.89,159.63L214.16,192.34L214.69,194.57L214.96,174.5L215.23,207.21L216.03,155.17L216.3,175.99L216.57,184.91L217.1,172.27L217.37,186.39L218.17,158.15L218.44,159.63L218.71,189.37L218.98,162.61L219.25,165.58L219.78,178.96L220.05,196.8L221.12,156.66L221.39,173.01L221.65,186.39L221.92,168.55L222.19,145.51L222.46,140.31L222.73,158.15L223.8,187.88L224.06,164.09L224.33,159.63L224.6,175.99L224.87,151.46L225.4,163.35L225.67,184.91L225.94,147.74L226.47,173.01L226.74,193.83L227.54,146.25L227.81,156.66L228.08,190.85L228.62,173.01L228.88,168.55L229.15,199.77L229.42,158.15L229.69,167.81L229.95,153.69L230.22,171.53L230.49,184.91L230.76,189.37L231.02,167.07L231.29,173.01L231.56,140.31L231.83,175.99L232.36,173.01L232.63,180.45L232.9,141.79L233.43,170.04L233.7,156.66L233.97,182.68L234.5,171.53L234.77,162.61L235.04,162.61L235.31,129.9L236.11,181.93L236.38,143.28L236.65,135.85L236.91,173.01L237.18,164.09L237.45,173.76L237.72,308.3L237.98,167.81L238.52,192.34L238.79,296.4L239.32,156.66L239.86,171.53L240.13,174.5L240.39,133.62L240.66,151.46L240.93,184.91L241.46,134.36L241.73,150.71L242,152.2L242.54,171.53L242.8,147L243.07,131.39L243.34,181.93L243.61,181.93L243.87,176.73L244.14,126.93L244.68,140.31L244.94,167.07L245.21,167.07L245.48,165.58L245.75,164.09L246.02,140.31L246.28,155.17L246.55,138.08L246.82,149.97L247.09,155.92L247.35,152.2L247.62,164.84L248.16,178.96L248.42,164.09L249.23,141.79L249.5,149.23L249.76,155.17L250.03,137.33L250.3,139.56L250.57,134.36L250.83,131.39L251.1,152.94L251.64,178.96L251.9,149.23L252.17,153.69L252.44,145.51L252.71,174.5L253.24,164.09L253.51,138.82L253.78,184.91L254.31,168.55L254.58,123.95L255.38,149.23L255.65,141.79L256.46,162.61L256.72,137.33L256.99,174.5L257.53,147L257.79,137.33L258.06,141.79L258.33,167.07L258.6,134.36L258.87,138.08L259.13,164.09L259.4,160.38L259.67,168.55L260.47,137.33L260.74,155.17L261.01,175.99L261.27,309.78L261.81,162.61L262.08,196.8L262.35,184.91L263.15,150.71L263.42,147L263.68,142.54L263.95,143.28L264.22,169.3L264.49,128.41L265.02,135.85L265.29,161.12L265.56,182.68L265.83,156.66L266.09,174.5L266.36,141.79L266.63,167.07L267.16,164.84L267.43,120.24L267.97,195.31L268.23,125.44L268.5,165.58L269.04,144.77L269.31,140.31L270.11,174.5L270.38,149.23L270.64,133.62L271.18,140.31L271.45,153.69L271.98,123.95L272.25,177.47L272.52,122.47L273.05,147.74L273.32,147.74L273.59,178.96L273.86,141.79L274.12,155.17L274.39,144.77L274.66,146.25L274.93,156.66L275.19,120.98L275.73,123.95L276,138.08L276.27,174.5L276.8,147.74L277.07,138.82L277.34,173.76L277.6,140.31L277.87,134.36L278.94,177.47L279.21,138.82L279.48,141.05L279.75,132.87L280.55,162.61L280.82,141.79L281.89,158.15L282.15,312.76L282.69,119.49L283.23,137.33L283.49,138.82L283.76,157.4L284.03,150.71L284.3,131.39L284.83,149.23L285.1,120.98L285.63,116.52L286.44,155.92L286.71,155.17L286.97,173.01L287.24,129.9L288.04,155.17L288.31,142.54L288.58,174.5L288.85,140.31L289.12,137.33L289.65,152.94L289.92,132.87L290.19,130.64L290.45,164.09L290.72,158.15L290.99,128.41L292.33,230.99L292.6,153.69L293.13,170.04L293.4,152.94L293.67,138.08L293.93,305.32L295,118.01L295.27,171.53L296.08,137.33L296.34,300.12L297.41,131.39L297.68,135.85L297.95,186.39L298.48,145.51L298.75,138.82L299.29,146.25L299.56,138.82L300.09,126.93L300.36,166.32L300.63,151.46L300.89,161.12L301.16,138.82L301.7,167.07L301.96,155.17L302.23,144.77L302.5,135.85L302.77,159.63L303.57,140.31L303.84,158.15L304.64,122.47L304.91,133.62L305.44,120.98L305.71,170.04L305.98,177.47L306.25,150.71L306.52,150.71L306.78,132.87L307.05,132.87L307.32,153.69L307.59,169.3L307.85,129.9L308.12,120.98L308.39,130.64L308.66,138.08L309.46,177.47L309.73,134.36L310.53,158.15L310.8,150.71L311.6,141.79L311.87,140.31L312.4,120.98L312.67,123.95L312.94,135.1L313.21,122.47L313.48,156.66L314.01,118.01L314.28,125.44L314.55,133.62L314.81,144.02L315.08,128.41L315.35,134.36L315.62,120.98L315.88,159.63L316.15,170.04L316.42,120.98L317.22,128.41L317.49,119.49L318.03,164.09L318.29,135.85L318.56,123.95L318.83,144.77L319.1,141.79L319.37,155.17L319.63,123.95L320.44,187.88L320.97,174.5L321.24,156.66L321.77,137.33L322.04,138.82L322.31,147.74L322.58,143.28L322.85,122.47L323.11,150.71L323.65,138.82L323.92,140.31L324.18,122.47L324.45,155.92L324.72,134.36L325.25,135.85L325.52,134.36L325.79,149.97L326.06,138.82L326.33,125.44L326.59,131.39L326.86,155.17L327.13,125.44L327.66,149.23L327.93,154.43L328.2,119.49L328.73,123.95L329,132.87L329.27,138.08L329.54,123.95L330.07,125.44L330.34,134.36L330.61,171.53L330.88,129.9L331.14,143.28L331.41,144.77L331.95,122.47L332.21,161.12L332.48,158.15L332.75,115.03L333.02,159.63L333.55,128.41L333.82,131.39L334.09,173.76L334.62,140.31L334.89,148.48L335.43,134.36L335.69,138.08L335.96,138.82L336.5,153.69L336.77,123.95L337.03,131.39L337.57,128.41L337.84,131.39L338.37,132.87L338.64,143.28L338.91,115.03L339.17,128.41L339.44,138.82L339.71,144.77L339.98,139.56L340.25,129.9L340.51,143.28L340.78,120.98L341.05,131.39L341.58,125.44L341.85,136.59L342.39,129.9L342.65,146.25L342.92,120.98L343.19,136.59L343.46,151.46L343.73,131.39L343.99,134.36L344.26,175.24L345.06,119.49L345.33,134.36L345.6,125.44L345.87,152.2L346.67,118.01L346.94,120.98L347.21,138.82L347.47,125.44L347.74,146.25L348.01,141.79L348.28,138.82L348.54,122.47L348.81,119.49L349.08,123.95L349.35,153.69L349.62,120.24L350.15,126.93L350.42,138.82L350.69,125.44L351.22,132.13L351.49,123.95L351.76,140.31L352.29,135.85L352.56,120.98L352.83,120.98L353.1,137.33L353.36,144.77L353.63,140.31L353.9,120.98L354.17,167.07L354.7,141.79L354.97,137.33L355.24,119.49L355.5,131.39L355.77,135.85L356.04,167.07L356.31,134.36L356.58,120.98L356.84,123.95L357.11,115.03L358.18,171.53L358.45,116.52L358.72,140.31L359.25,132.13L359.52,122.47L360.06,138.82L360.32,123.95L360.59,125.44L360.86,149.23L361.39,123.21L361.66,129.9L361.93,135.85L362.73,122.47L363,160.38L363.27,129.9L363.8,143.28L364.07,128.41L364.34,128.41L364.61,135.85L365.14,138.82L365.41,138.08L365.68,138.82L365.94,123.21L366.21,129.9L366.48,135.85L366.75,155.17L367.02,126.93L367.28,132.87L367.55,123.95L367.82,129.16L368.09,131.39L368.35,122.47L368.62,167.81L369.16,122.47L369.42,126.93L369.69,129.9L369.96,294.92L370.23,131.39L370.5,128.41L370.76,135.85L371.03,119.49L371.83,126.93L372.1,120.98L372.64,133.62L372.9,129.9L373.17,125.44L373.98,134.36L374.24,131.39L374.51,129.9L374.78,116.52L375.58,155.17L375.85,122.47L376.92,149.23L377.19,124.7L377.46,140.31L377.72,120.24L377.99,120.98L378.26,116.52L378.53,120.98L378.79,120.98L379.06,119.49L379.33,125.44L379.6,116.52L379.87,134.36L380.13,132.87L380.4,138.82L380.94,126.93L381.2,135.85L381.47,140.31L381.74,147.74L382.01,128.41L382.27,149.23L382.54,122.47L382.81,138.82L383.08,123.21L383.61,121.72L383.88,146.25L384.15,119.49L384.68,128.41L384.95,116.52L385.22,116.52L385.49,126.18L385.75,138.82L386.02,129.9L386.29,125.44L386.56,125.44L386.83,159.63L387.09,116.52L387.63,131.39L387.9,134.36L388.16,118.01L388.43,129.16L388.7,132.87L388.97,120.98L389.23,129.9L389.5,135.1L389.77,122.47L390.04,137.33L390.31,123.21L390.57,137.33L390.84,155.17L391.11,129.9L391.38,115.03L392.18,144.77L392.45,140.31L392.71,134.36L393.52,116.52L393.79,122.47L394.05,116.52L394.32,137.33L395.39,119.49L395.66,121.72L395.93,115.03L396.19,132.87L396.73,122.47L397,143.28L397.53,118.01L397.8,125.44L398.07,139.56L398.34,116.52L398.6,120.98L398.87,158.15L399.67,120.98L399.94,146.25L400.75,119.49L401.01,125.44L401.28,155.17L402.08,120.98L402.35,137.33L402.62,303.84L402.89,122.47L403.15,127.67L403.69,138.82L403.96,119.49L404.23,134.36L404.49,123.95L404.76,112.06L405.3,138.82L405.56,123.21L405.83,126.18L406.63,119.49L406.9,120.98L407.17,126.93L407.44,118.01L407.71,48.14L408.51,216.13L408.78,132.87L409.04,126.93L409.31,132.87L409.58,120.98L409.85,132.13L410.12,111.32L411.19,152.2L411.45,122.47L411.72,119.49L411.99,128.41L412.26,115.03L412.79,118.01L413.06,145.51L414.4,116.52L414.67,116.52L414.93,155.17L415.2,120.24L415.47,115.03L416,126.93L416.27,115.03L417.34,147.74L417.61,138.82L417.88,116.52L418.15,161.12L418.41,178.96L418.68,119.49L418.95,120.98L419.22,128.41L419.48,141.79L419.75,129.9L420.02,115.03L420.29,115.03L420.56,118.01L420.82,116.52L421.09,133.62L421.36,134.36L421.63,116.52L421.89,104.63L422.16,131.39L422.96,120.98L423.23,134.36L423.77,138.82L424.04,128.41L424.3,130.64L424.57,131.39L424.84,129.16L425.11,132.87L425.37,115.03L426.18,159.63L426.44,116.52L426.71,116.52L426.98,122.47L427.25,122.47L427.52,103.14L428.05,149.23L428.32,119.49L428.59,120.98L428.85,140.31L429.66,118.75L429.92,121.72L430.19,122.47L430.46,115.03L430.73,138.82L431.53,63L431.8,115.03L432.33,123.95L432.6,115.03L432.87,118.75L433.14,141.79L433.94,116.52L434.21,120.98L434.74,120.98L435.01,123.95L435.28,149.23L435.55,92.73L435.81,152.2L436.35,134.36L436.62,114.29L436.88,101.65L437.15,120.98L437.42,116.52L437.96,123.95L438.22,147.74L439.29,115.03L439.56,152.2L439.83,115.03L440.37,115.78L440.63,138.82L440.9,134.36L441.17,155.92L441.97,115.03L442.24,120.98L442.51,115.03L442.77,131.39L443.04,107.6L443.58,119.49L443.85,138.08L444.11,115.03L444.65,126.93L444.92,134.36L445.72,116.52L445.99,115.03L446.52,116.52L446.79,131.39L447.06,115.03L447.59,125.44L447.86,121.72L448.13,123.21L448.4,133.62L448.93,131.39L449.2,141.79L449.47,126.93L450.27,115.03L450.54,122.47L450.81,167.07L451.07,118.01L451.34,120.98L452.14,116.52L452.41,122.47L452.68,120.98L452.95,115.03L453.21,134.36L453.48,116.52L453.75,118.01L454.02,97.19L454.29,118.01L454.55,131.39L454.82,120.24L455.36,128.41L455.62,123.95L456.16,135.1L456.43,115.03L456.69,139.56L456.96,31.78L457.77,126.93L458.03,115.03L458.3,135.85L458.57,129.9L458.84,116.52L459.1,128.41L459.37,118.01L459.64,118.01L459.91,120.98L460.17,115.03L460.98,134.36L461.25,118.01L461.78,118.01L462.05,116.52L462.32,119.49L462.85,118.01L463.12,37.73L463.92,137.33L464.19,123.95L464.46,115.03L464.99,119.49L465.26,136.59L465.53,100.17L465.8,118.01L466.06,140.31L466.33,118.01L466.87,120.98L467.13,138.82L467.4,118.75L467.94,122.47L468.21,125.44L468.47,120.98L468.74,155.17L469.81,92.73L470.08,120.98L470.35,116.52L470.62,118.75L470.88,120.98L471.15,63L471.42,125.44L471.69,134.36L471.95,85.3L472.49,118.01L472.76,116.52L473.29,120.98L473.56,133.62L473.83,115.03L474.36,118.01L474.63,149.23L475.17,115.03L475.43,144.77L476.5,118.01L476.77,118.01L477.04,120.98L477.31,115.03L477.58,122.47L478.11,116.52L478.38,122.47L478.65,89.02L478.91,117.26L479.18,122.47L479.45,116.52L479.72,120.98L479.98,128.41L480.25,129.9L480.52,126.93L481.32,116.52L481.59,118.01L482.13,138.82L482.39,125.44L482.66,115.03L482.93,117.26L483.2,123.95L483.46,16.92L483.73,120.24L484,123.21"/><g class="points"/></g></g></g><g class="overplot"/><path class="xlines-above crisp" style="fill: none;" d="M0,0"/><path class="ylines-above crisp" style="fill: none;" d="M0,0"/><g class="overlines-above"/><g class="xaxislayer-above"><g class="xtick"><text text-anchor="middle" x="0" y="403" style="font-family: TOBESTRIPPEDOpen\ SansTOBESTRIPPED, verdana, arial, sans-serif; font-size: 12px; fill: rgb(68, 68, 68); fill-opacity: 1; white-space: pre;" transform="translate(143.39,0)">10</text></g><g class="xtick"><text text-anchor="middle" x="0" y="403" style="font-family: TOBESTRIPPEDOpen\ SansTOBESTRIPPED, verdana, arial, sans-serif; font-size: 12px; fill: rgb(68, 68, 68); fill-opacity: 1; white-space: pre;" transform="translate(227.04,0)">20</text></g><g class="xtick"><text text-anchor="middle" x="0" y="403" style="font-family: TOBESTRIPPEDOpen\ SansTOBESTRIPPED, verdana, arial, sans-serif; font-size: 12px; fill: rgb(68, 68, 68); fill-opacity: 1; white-space: pre;" transform="translate(310.7,0)">30</text></g><g class="xtick"><text text-anchor="middle" x="0" y="403" style="font-family: TOBESTRIPPEDOpen\ SansTOBESTRIPPED, verdana, arial, sans-serif; font-size: 12px; fill: rgb(68, 68, 68); fill-opacity: 1; white-space: pre;" transform="translate(394.36,0)">40</text></g><g class="xtick"><text text-anchor="middle" x="0" y="403" style="font-family: TOBESTRIPPEDOpen\ SansTOBESTRIPPED, verdana, arial, sans-serif; font-size: 12px; fill: rgb(68, 68, 68); fill-opacity: 1; white-space: pre;" transform="translate(478.01,0)">50</text></g></g><g class="yaxislayer-above"><g class="ytick"><text text-anchor="end" x="59" y="4.199999999999999" style="font-family: TOBESTRIPPEDOpen\ SansTOBESTRIPPED, verdana, arial, sans-serif; font-size: 12px; fill: rgb(68, 68, 68); fill-opacity: 1; white-space: pre;" transform="translate(0,383.16)">0</text></g><g class="ytick"><text text-anchor="end" x="59" y="4.199999999999999" style="font-family: TOBESTRIPPEDOpen\ SansTOBESTRIPPED, verdana, arial, sans-serif; font-size: 12px; fill: rgb(68, 68, 68); fill-opacity: 1; white-space: pre;" transform="translate(0,308.83000000000004)">50</text></g><g class="ytick"><text text-anchor="end" x="59" y="4.199999999999999" style="font-family: TOBESTRIPPEDOpen\ SansTOBESTRIPPED, verdana, arial, sans-serif; font-size: 12px; fill: rgb(68, 68, 68); fill-opacity: 1; white-space: pre;" transform="translate(0,234.5)">100</text></g><g class="ytick"><text text-anchor="end" x="59" y="4.199999999999999" style="font-family: TOBESTRIPPEDOpen\ SansTOBESTRIPPED, verdana, arial, sans-serif; font-size: 12px; fill: rgb(68, 68, 68); fill-opacity: 1; white-space: pre;" transform="translate(0,160.17000000000002)">150</text></g><g class="ytick"><text text-anchor="end" x="59" y="4.199999999999999" style="font-family: TOBESTRIPPEDOpen\ SansTOBESTRIPPED, verdana, arial, sans-serif; font-size: 12px; fill: rgb(68, 68, 68); fill-opacity: 1; white-space: pre;" transform="translate(0,85.84)">200</text></g></g><g class="overaxes-above"/></g></g><g class="polarlayer"/><g class="ternarylayer"/><g class="geolayer"/><g class="pielayer"/><g class="glimages"/><defs id="topdefs-0d5aad"><g class="clips"/><clipPath id="legend0d5aad"><rect width="134" height="48" x="0" y="0"/></clipPath></defs><g class="layer-above"><g class="imagelayer"/><g class="shapelayer"/></g><g class="infolayer"><g class="g-gtitle"><text class="gtitle" style="font-family: TOBESTRIPPEDOpen\ SansTOBESTRIPPED, verdana, arial, sans-serif; font-size: 17px; fill: rgb(68, 68, 68); opacity: 1; font-weight: normal; white-space: pre;" x="350" y="30" text-anchor="middle">Rewards</text></g><g class="legend" pointer-events="all" transform="translate(553.6800000000001, 60)"><rect class="bg" shape-rendering="crispEdges" style="stroke: rgb(68, 68, 68); stroke-opacity: 1; fill: rgb(255, 255, 255); fill-opacity: 1; stroke-width: 0px;" width="134" height="48" x="0" y="0"/><g class="scrollbox" transform="translate(0, 0)" clip-path="url(#legend0d5aad)"><g class="groups"><g class="traces" style="opacity: 1;" transform="translate(0, 14.5)"><g class="layers" style="opacity: 1;"><g class="legendfill"/><g class="legendlines"><path class="js-line" d="M5,0h30" style="fill: none; stroke: rgb(31, 119, 180); stroke-opacity: 1; stroke-width: 2px;"/></g><g class="legendsymbols"><g class="legendpoints"/></g></g><text class="legendtext user-select-none" text-anchor="start" style="font-family: TOBESTRIPPEDOpen\ SansTOBESTRIPPED, verdana, arial, sans-serif; font-size: 12px; fill: rgb(68, 68, 68); fill-opacity: 1; white-space: pre;" x="40" y="4.680000000000001">Mean Reward</text><rect class="legendtoggle" style="cursor: pointer; fill: rgb(0, 0, 0); fill-opacity: 0;" pointer-events="all" x="0" y="-9.5" width="174" height="19"/></g><g class="traces" style="opacity: 1;" transform="translate(0, 33.5)"><g class="layers" style="opacity: 1;"><g class="legendfill"/><g class="legendlines"><path class="js-line" d="M5,0h30" style="fill: none; stroke: rgb(255, 127, 14); stroke-opacity: 1; stroke-width: 2px;"/></g><g class="legendsymbols"><g class="legendpoints"/></g></g><text class="legendtext user-select-none" text-anchor="start" style="font-family: TOBESTRIPPEDOpen\ SansTOBESTRIPPED, verdana, arial, sans-serif; font-size: 12px; fill: rgb(68, 68, 68); fill-opacity: 1; white-space: pre;" x="40" y="4.680000000000001">Median Reward</text><rect class="legendtoggle" style="cursor: pointer; fill: rgb(0, 0, 0); fill-opacity: 0;" pointer-events="all" x="0" y="-9.5" width="174" height="19"/></g></g></g><rect class="scrollbar" rx="20" ry="3" width="0" height="0" style="fill: rgb(128, 139, 164); fill-opacity: 1;" x="0" y="0"/></g><g class="g-xtitle"><text class="xtitle" style="font-family: TOBESTRIPPEDOpen\ SansTOBESTRIPPED, verdana, arial, sans-serif; font-size: 14px; fill: rgb(68, 68, 68); opacity: 1; font-weight: normal; white-space: pre;" x="302" y="442" text-anchor="middle">Frames in Mio.</text></g><g class="g-ytitle"><text class="ytitle" transform="rotate(-90,22,225)" style="font-family: TOBESTRIPPEDOpen\ SansTOBESTRIPPED, verdana, arial, sans-serif; font-size: 14px; fill: rgb(68, 68, 68); opacity: 1; font-weight: normal; white-space: pre;" x="22" y="225" text-anchor="middle">Reward</text></g></g></svg>