<svg class="main-svg" xmlns="http://www.w3.org/2000/svg" xmlns:xlink="http://www.w3.org/1999/xlink" width="700" height="450" style="" viewBox="0 0 700 450"><rect x="0" y="0" width="700" height="450" style="fill: rgb(255, 255, 255); fill-opacity: 1;"/><defs id="defs-eb3b0e"><g class="clips"><clipPath class="plotclip" id="clipeb3b0exyplot"><rect width="484" height="330"/></clipPath><clipPath class="axesclip" id="clipeb3b0ex"><rect x="60" y="0" width="484" height="450"/></clipPath><clipPath class="axesclip" id="clipeb3b0ey"><rect x="0" y="60" width="700" height="330"/></clipPath><clipPath class="axesclip" id="clipeb3b0exy"><rect x="60" y="60" width="484" height="330"/></clipPath></g><g class="gradients"/></defs><g class="bglayer"><rect class="bg" x="60" y="60" width="484" height="330" style="fill: rgb(255, 255, 255); fill-opacity: 1; stroke-width: 0;"/></g><g class="layer-below"><g class="imagelayer"/><g class="shapelayer"/></g><g class="cartesianlayer"><g class="subplot xy"><g class="layer-subplot"><g class="shapelayer"/><g class="imagelayer"/></g><g class="gridlayer"><g class="x"><path class="xgrid crisp" d="M0,60v330" transform="translate(156.70999999999998,0)" style="stroke: rgb(238, 238, 238); stroke-opacity: 1; stroke-width: 1px;"/><path class="xgrid crisp" d="M0,60v330" transform="translate(253.57,0)" style="stroke: rgb(238, 238, 238); stroke-opacity: 1; stroke-width: 1px;"/><path class="xgrid crisp" d="M0,60v330" transform="translate(350.43,0)" style="stroke: rgb(238, 238, 238); stroke-opacity: 1; stroke-width: 1px;"/><path class="xgrid crisp" d="M0,60v330" transform="translate(447.29,0)" style="stroke: rgb(238, 238, 238); stroke-opacity: 1; stroke-width: 1px;"/></g><g class="y"><path class="ygrid crisp" d="M60,0h484" transform="translate(0,384.59)" style="stroke: rgb(238, 238, 238); stroke-opacity: 1; stroke-width: 1px;"/><path class="ygrid crisp" d="M60,0h484" transform="translate(0,344.99)" style="stroke: rgb(238, 238, 238); stroke-opacity: 1; stroke-width: 1px;"/><path class="ygrid crisp" d="M60,0h484" transform="translate(0,305.39)" style="stroke: rgb(238, 238, 238); stroke-opacity: 1; stroke-width: 1px;"/><path class="ygrid crisp" d="M60,0h484" transform="translate(0,265.78999999999996)" style="stroke: rgb(238, 238, 238); stroke-opacity: 1; stroke-width: 1px;"/><path class="ygrid crisp" d="M60,0h484" transform="translate(0,186.59)" style="stroke: rgb(238, 238, 238); stroke-opacity: 1; stroke-width: 1px;"/><path class="ygrid crisp" d="M60,0h484" transform="translate(0,146.99)" style="stroke: rgb(238, 238, 238); stroke-opacity: 1; stroke-width: 1px;"/><path class="ygrid crisp" d="M60,0h484" transform="translate(0,107.39)" style="stroke: rgb(238, 238, 238); stroke-opacity: 1; stroke-width: 1px;"/><path class="ygrid crisp" d="M60,0h484" transform="translate(0,67.79)" style="stroke: rgb(238, 238, 238); stroke-opacity: 1; stroke-width: 1px;"/></g></g><g class="zerolinelayer"><path class="yzl zl crisp" d="M60,0h484" transform="translate(0,226.19)" style="stroke: rgb(68, 68, 68); stroke-opacity: 1; stroke-width: 1px;"/></g><path class="xlines-below"/><path class="ylines-below"/><g class="overlines-below"/><g class="xaxislayer-below"/><g class="yaxislayer-below"/><g class="overaxes-below"/><g class="plot" transform="translate(60, 60)" clip-path="url(#clipeb3b0exyplot)"><g class="imagelayer"/><g class="maplayer"/><g class="barlayer"/><g class="carpetlayer"/><g class="violinlayer"/><g class="boxlayer"/><g class="scatterlayer"><g class="trace scatter trace265649" style="stroke-miterlimit: 2; opacity: 1;"><path class="js-line" style="vector-effect: non-scaling-stroke; fill: none; stroke: rgb(31, 119, 180); stroke-opacity: 1; stroke-width: 2px; opacity: 1;" d="M0,282.77L0.15,306.01L0.77,304.73L0.93,301.21L1.86,307.39L2.01,306.66L2.17,305.37L2.32,296.51L2.48,293.68L2.63,308.8L2.94,287.24L3.41,296.86L3.56,295.97L3.72,292.96L3.87,303.95L4.03,296.88L4.18,308.65L4.34,294.12L4.96,303.83L5.11,301.15L5.27,296.3L5.58,304.16L5.73,301.45L5.89,303.47L6.2,301.97L6.35,307.36L6.51,304.8L6.66,300.74L7.28,300.34L7.44,306.58L7.59,304.26L7.75,305.96L7.9,302.81L8.06,305.76L8.21,300.19L8.37,300.08L8.52,298.99L8.68,304.74L8.99,296.49L9.3,301.29L9.45,300.93L9.61,308.19L9.76,293.51L10.07,300.95L10.23,300.35L10.38,301.43L10.54,309.2L11,301.74L11.16,310.3L11.31,306.73L11.47,306.61L12.24,297.84L12.4,303.77L12.55,301.39L12.71,303.83L12.86,312.03L13.48,297.31L13.64,303.05L13.79,306.18L14.1,308.74L14.88,298.76L15.03,300.79L15.19,305.51L15.5,304.58L15.65,307.52L15.81,301.44L15.96,308.87L16.27,301.19L16.58,302.63L16.74,299.41L17.05,306.33L17.51,304.09L17.67,298.76L18.13,294.88L18.44,306.59L18.6,305.16L18.75,302.65L18.91,298.57L19.06,305.56L19.37,304.66L19.53,303.45L19.68,303.35L19.84,305.79L20.61,298.35L20.77,302.77L20.92,298.73L21.23,305.96L21.39,305.07L21.54,304.08L22.01,297.41L22.32,300.89L22.47,303.37L22.78,295.05L22.94,303.89L23.25,297.95L23.56,305.54L23.71,300.56L23.87,305.68L24.02,299.89L24.49,308.04L24.64,305.83L24.95,295.77L25.42,300.05L25.57,304.56L26.19,297.6L26.35,299.94L26.5,302.78L26.81,297.58L26.97,303.45L27.12,298.06L27.74,302.64L27.9,304.96L28.36,300.71L28.52,310.18L28.67,298.69L29.29,301.4L29.45,305.03L30.07,299.14L30.22,301.7L30.38,302.93L30.69,302.17L31,309.43L31.15,302.82L31.31,306.06L31.62,302.74L31.93,305.85L32.08,303.07L32.24,297.89L32.86,298.78L33.01,301.58L33.17,300.94L33.32,303.47L33.48,305.07L33.63,300.57L33.79,299.33L34.1,293.23L34.56,303.58L34.72,300.96L35.18,299.67L35.49,304.44L35.65,299.6L35.96,301.28L36.11,298.76L36.27,303.85L37.04,297.51L37.2,301.61L37.35,304.46L37.5,296.65L37.97,302.24L38.12,301.15L38.28,293.33L38.59,301.99L38.74,301.77L38.9,304.55L39.52,295.98L39.67,301.11L39.83,298.91L40.14,294.06L40.29,297.93L40.45,301.03L40.6,299.35L40.91,302.45L41.07,304.59L41.22,304.51L41.38,299.99L41.69,299.75L42.15,307.21L42.31,300.35L42.46,294.02L42.62,302.56L42.93,297.41L43.08,300.3L43.55,303.09L43.7,291.24L43.86,295.63L44.01,299.38L44.17,296.51L44.48,301.05L44.63,297.8L44.79,300L44.94,297.42L45.1,303.22L45.25,301.71L45.41,304.32L45.72,293.99L46.03,299.81L46.18,299.51L46.34,304.86L46.8,295.78L46.96,298.94L47.27,301.08L47.42,294.4L47.58,295.57L47.73,299.7L48.35,288.71L48.51,296.9L48.66,302.5L49.75,295L49.9,294.35L50.06,297.67L50.21,293.07L50.37,297.48L50.52,291.59L50.99,303.98L51.3,297.59L51.45,292.04L51.76,299.13L51.92,296.97L52.07,291.58L53,298.69L53.16,292.09L53.31,297.33L53.78,295.14L53.93,288.03L54.09,303.77L54.55,290.33L54.71,289.08L55.02,288.26L55.33,298.08L55.48,296.94L55.64,284.37L56.1,301.3L56.41,289.81L56.57,295.57L56.88,287.99L57.03,300.12L57.19,299.34L57.34,294.64L57.5,299.5L57.96,294.82L58.12,288.39L58.74,298.38L58.89,287.44L59.2,292.39L59.36,282.92L59.51,294.3L59.67,296.61L59.98,292.17L60.13,292.86L60.29,293L60.44,299.47L60.75,288.43L60.91,286.08L61.68,297.37L61.84,289.29L61.99,299.82L62.46,298.91L62.61,287.16L62.92,297.07L63.54,296.18L63.7,288.01L63.85,287.97L64.01,297.04L64.63,297.36L64.94,285.84L65.09,300.74L65.56,286.48L65.87,295.49L66.02,297.51L66.18,287.75L66.33,298.73L66.8,293.05L66.95,298.72L67.88,287.4L68.04,295.74L68.81,280.17L68.97,292.55L69.28,280.72L69.43,285.06L69.59,292.46L69.9,284.19L70.05,293.84L70.36,284.98L70.52,293.69L70.83,283.79L70.98,287.61L71.14,275.44L71.6,296.82L71.91,282.61L72.07,290.41L72.22,288.96L72.38,294.9L72.84,279.46L73,289.26L73.15,294.09L73.46,284.56L74.08,286.6L74.24,290.85L74.39,293.66L74.54,285.73L74.7,275.2L74.85,274.94L75.01,291.18L75.47,279.63L75.78,283.91L75.94,288.32L76.56,271.6L76.71,288.6L76.87,280.49L77.49,286.67L77.64,283.6L77.95,268.57L78.26,276.38L78.42,287.83L78.73,280.63L78.88,283.37L79.04,285.32L79.19,290.11L79.35,279.06L79.66,289.78L79.81,274.47L80.9,286.8L81.05,272.86L81.98,289.49L82.14,279.78L82.29,272.19L82.45,283.62L82.76,278.7L82.91,286.11L83.53,263.29L83.69,288.98L84.31,261.52L84.46,280.68L84.62,276.75L84.77,277.34L84.93,275.52L85.08,266.07L85.24,277.9L85.86,274.19L86.01,270.24L86.17,278.64L86.32,264.38L86.63,278.15L86.79,264.27L87.72,275.89L87.87,276.33L88.03,273.84L88.18,281.72L88.34,263.32L88.65,285.06L88.96,268.59L89.11,268.37L89.27,275.24L89.42,263.13L89.89,272.83L90.04,272.21L90.2,261.87L90.82,265.09L90.97,269.3L91.28,264.7L91.44,271.85L91.59,248.84L92.52,285.62L92.68,270.94L92.83,274.24L92.99,260.53L93.61,271.75L93.76,267.05L93.92,261.23L94.54,286.91L94.69,260.65L94.85,260.48L95,257.66L95.16,248.05L95.31,259.91L95.78,250.01L95.93,255.03L96.09,264.36L96.4,244.55L96.55,260.67L96.71,251.74L96.86,230.38L97.33,254.84L97.48,250.97L97.79,246.37L97.95,257.56L98.1,245.92L98.88,265.38L99.03,262.24L99.19,249.42L99.34,239.22L99.65,252.48L99.81,248.28L99.96,259.98L100.58,222.91L100.89,243.7L101.05,239.92L101.98,226.48L102.13,245.97L102.75,221.64L102.91,227.71L103.06,239.59L103.37,258.18L103.53,236.68L103.68,237.25L103.84,237.5L104.15,251.26L104.3,222.44L104.61,251.17L104.77,242.8L105.23,219.44L105.39,229.31L105.54,245.67L106.16,220.03L106.32,258.72L106.78,219.77L107.09,229.91L107.25,226.7L107.4,227.41L107.56,225.09L107.71,244.33L107.87,247L108.02,232.92L108.18,204.48L108.64,236.59L108.8,227.87L109.26,236.93L109.42,211.12L109.57,217.36L109.73,211.99L110.19,217.22L110.35,203.62L110.5,217.75L110.66,176.75L110.97,226.26L111.12,211.93L111.28,220.19L111.59,187.31L111.74,231.53L112.05,188.51L112.2,187.36L112.98,215.55L113.13,193.79L113.6,220.34L113.75,204.31L113.91,205.93L114.06,213.12L114.22,203.76L114.37,209.6L114.53,193.27L114.68,200.22L114.84,183.73L114.99,164.97L115.77,210.46L115.92,209.11L116.08,190.64L116.23,188.78L116.39,196.25L116.54,210.46L116.7,179.37L117.01,204.52L117.16,195.57L117.63,186.28L117.78,173.06L118.56,203.7L118.71,180.2L119.64,204.81L119.8,185.12L120.11,174.09L120.26,212.2L120.57,193.25L120.73,185.55L121.35,212.21L121.5,201.24L121.66,191.06L121.81,193.81L121.97,154.58L122.59,195.85L122.9,186.8L123.05,186.52L123.36,174.02L123.83,206.73L123.98,185.26L124.14,176.82L124.29,204.79L124.45,208.46L124.76,169.59L125.22,190.9L125.38,186.39L125.53,187.37L125.69,162.01L126.31,215.68L126.46,173.57L127.08,165.3L127.24,203.07L127.39,184.8L127.7,201.2L127.86,172.5L128.17,166.06L128.32,173.94L128.48,184.15L128.63,189.26L128.79,187.7L128.94,162.81L129.72,201.8L129.87,170.29L130.8,192.62L130.96,181.95L131.27,175.24L131.42,191.9L131.58,184.09L131.73,169.21L131.89,157.6L132.04,173.59L132.51,161.25L132.66,182.81L132.97,168.41L133.13,186.51L133.44,168.11L133.75,200.04L133.9,194.83L134.83,173.78L134.99,186.35L135.14,184.2L135.3,152.41L136.23,185.02L136.38,188.88L136.54,191.68L136.69,163.16L137,151.77L137.16,193.08L137.31,159.8L137.47,160.4L137.78,198.97L137.93,173.05L138.4,151.32L138.55,168L138.71,177.85L138.86,187.83L139.17,169.68L139.33,183.7L139.48,169.47L139.64,131.59L139.95,179.89L140.1,170.18L140.26,174.86L140.41,177.81L140.57,168.86L140.72,177.39L140.88,159.78L141.03,152.49L141.19,187.83L142.12,132.22L142.27,169.74L142.43,168.87L142.58,160.41L142.74,158.77L142.89,187.77L143.05,166.53L143.67,171.05L143.82,176.34L144.29,153.53L144.44,182.19L144.6,168.43L144.75,166.1L144.91,169.23L145.06,161.47L145.22,158.79L145.37,151.14L145.53,179.46L145.68,176.21L146.46,143.16L146.61,171.93L147.23,180.67L147.39,136.86L147.54,155.97L147.7,159.3L147.85,180.74L148.16,163.59L148.63,166.42L148.78,173.11L148.93,171.8L149.09,186.53L150.02,150.09L150.17,147.69L150.64,177.58L150.95,170.25L151.1,158.36L151.26,153.65L151.41,174.56L151.88,141.43L152.19,154.2L152.34,179.65L152.65,151.58L153.12,167.82L153.27,154.88L153.74,183.73L153.89,180.05L154.05,145.61L154.67,183.9L154.98,168.96L155.13,146.19L155.6,181.81L156.06,181.69L156.22,173.4L156.37,169.99L156.53,197.21L157.46,129.1L157.61,148.99L157.77,140.1L157.92,165.13L158.39,147.08L158.54,168.31L158.7,177.06L158.85,166.24L159.01,151.02L159.16,177.35L159.32,130.19L159.78,155.94L159.94,169.09L160.25,136.94L160.71,153.43L160.87,153.75L161.18,136.57L161.33,162.39L161.64,182.3L161.8,141.45L161.95,173.82L162.11,125.93L162.26,179.1L162.73,156.31L162.88,148.52L163.04,161.21L163.35,146.11L163.5,146.76L163.66,146.09L163.81,168.86L164.12,141.72L164.28,164.6L164.43,134.1L165.21,175.53L165.36,158.79L165.83,122.52L165.98,162.86L166.76,155.06L166.91,160.16L167.07,158.19L167.22,162.61L167.38,139.5L167.53,142.04L167.69,173.63L167.84,140.37L168,175.52L168.46,140.56L168.62,167.32L169.39,132.58L169.55,162.12L170.01,134.94L170.17,159.52L170.32,165.23L170.48,123.8L170.94,137.94L171.1,163.17L171.87,137.92L172.03,146.67L172.18,153.74L172.34,139.41L172.8,140.89L172.96,154.51L173.11,109.57L173.27,160.94L173.58,151.52L173.73,157.03L173.89,156.06L174.04,124.49L174.66,156.09L174.97,147.41L175.13,142.24L175.28,135.48L175.44,145.68L175.59,164.99L175.75,144.92L176.37,155.25L176.52,165.53L177.14,119.52L177.3,150.47L177.45,131.72L177.61,124.2L177.76,149.48L177.92,155.23L178.07,155.84L178.23,145.73L178.69,134.64L178.85,142.03L179,142.76L179.16,165.04L179.62,129.42L179.78,137.56L179.93,165.85L180.24,135.89L180.4,172.49L180.86,137.12L181.02,135.11L181.33,143.39L181.48,135.77L181.64,135.79L181.95,150.06L182.1,111.59L182.26,112.58L182.41,142.3L182.57,157.64L182.88,138.8L183.03,153.38L183.19,123.66L183.81,146.99L184.12,143.65L184.27,101.22L184.74,169.84L185.2,165.42L185.36,143.93L185.51,157.98L186.13,150.04L186.28,134.74L186.44,135.71L186.59,135.12L186.75,128.05L186.9,123.13L187.06,155.66L187.83,125.01L188.14,125.58L188.3,151.03L188.61,158.41L188.76,131.13L188.92,123.88L189.07,140.17L189.38,133.64L189.54,130.6L189.85,137.31L190,134.64L190.16,126.27L190.62,134.42L190.78,134.38L190.93,142.72L191.09,116.49L191.4,173.51L191.55,163.51L191.71,138.92L192.02,130.06L192.48,160.32L192.64,144.35L193.26,122.62L193.41,123.83L193.57,165.8L193.72,118.64L194.34,139.42L194.5,131.33L194.81,141.17L195.27,115L195.43,135.51L195.58,119.24L195.74,157.95L196.2,127.23L196.36,146.11L196.98,153.08L197.29,118.3L197.44,147.52L197.6,184.63L197.91,138.34L198.06,114.15L198.68,161.82L198.99,151.28L199.15,112.28L199.77,164.98L199.92,133.1L200.08,133.86L200.23,133.85L200.39,114.01L201.01,152.89L201.16,122.91L201.32,138.02L201.47,147.67L201.63,136.93L201.78,112.4L202.09,153.8L202.4,110.44L202.56,115.28L202.87,101.75L203.33,149.58L203.49,116.79L204.42,139.95L204.57,138.56L204.73,140L204.88,126.78L205.04,117.86L205.19,133.4L205.5,123.3L205.66,135.09L205.81,98.83L206.12,146.89L206.43,122.03L206.59,135.83L206.74,122.19L207.05,150.79L207.36,126.71L207.52,143.63L207.83,152.97L208.14,120.42L208.29,130.92L208.45,123.4L208.6,106.62L209.07,136.8L209.22,144.54L209.38,112.11L209.84,118.76L210,147.45L210.15,151.91L210.31,124.27L210.62,109.31L211.08,146.98L211.24,119.72L211.55,157.14L211.7,116.73L211.86,127.7L212.01,131.96L212.17,122.8L212.32,128.82L212.48,148.28L212.94,115.38L213.25,123.58L213.41,135.48L213.56,143.33L213.72,107.45L213.87,108.09L214.03,129.8L214.34,139.47L214.65,113.81L214.8,149.33L215.27,116.33L215.73,121.48L215.89,124.89L216.04,136.17L216.35,114L216.66,128.89L216.82,137.55L217.28,104.38L217.44,112.02L217.59,139.04L217.9,129.35L218.06,111.3L218.83,148.95L218.99,99.96L220.07,151.24L220.23,117.46L220.38,135.94L220.54,102.92L221,123.39L221.16,93.35L221.78,148.98L221.93,130.16L222.09,111.94L222.55,117.69L222.71,114.13L222.86,102.28L223.48,128.34L223.79,122.47L223.94,105.81L224.1,104.59L224.25,131.53L225.03,109.75L225.18,112.22L225.34,129.77L225.49,162.46L225.96,117.19L226.11,129.95L226.73,113.84L226.89,131.44L227.04,108.68L227.66,125.67L227.82,136.63L227.97,161.74L228.13,130.03L228.28,139.2L228.44,114.28L228.59,139.2L228.75,101.86L229.06,119.2L229.21,115.12L229.37,111.15L229.52,130.66L229.99,96.41L230.14,133.89L230.45,113.05L230.61,108.58L230.76,100.03L230.92,128.89L231.07,104.56L231.23,141.59L231.54,74.67L232,109.66L232.16,103.47L232.31,123.78L232.47,103.03L232.93,107.23L233.09,123.92L233.4,89.85L233.86,102.79L234.02,98.94L234.17,96.98L234.33,140.97L234.64,97.43L235.1,100.36L235.26,135.47L235.88,98.8L236.03,105.42L236.19,121.78L236.5,101.54L236.81,105.61L236.96,123.95L237.12,126.88L237.27,110.98L237.58,130.62L237.74,85.53L238.51,115.6L238.67,93.48L239.13,126.31L239.44,106.14L239.6,93.99L239.75,126.33L240.37,118.42L240.53,118.53L240.99,150.12L241.15,104.69L241.3,103.16L241.46,112.72L241.61,90.9L242.08,117.24L242.23,110.34L242.7,88.92L242.85,116.9L243.16,126.22L243.47,86.91L243.78,98.15L243.94,126.11L244.09,87.56L244.56,129.79L244.71,111.78L244.87,96.99L245.02,70.85L245.18,106.86L245.49,92.74L245.64,116.01L245.95,80.26L246.42,108.7L246.57,103.25L246.73,85.77L247.04,120.22L247.19,113.77L247.35,110.59L247.81,103.3L248.12,134.33L248.28,105.85L248.9,131.54L249.05,117.12L249.21,99.7L249.36,134.57L249.98,120.58L250.14,129.23L251.07,83.21L251.22,110.71L251.38,77.18L251.53,127.95L251.84,116.47L252,116.02L252.31,94.87L252.62,118.85L252.77,117.38L253.24,136.8L253.7,83.07L253.86,102.77L254.01,110.65L254.17,56.66L254.48,111.48L254.94,98.04L255.1,87.64L255.56,129.74L255.87,118.2L256.03,127.65L256.34,87.91L256.8,106.57L256.96,114.81L257.11,96.5L257.42,141.35L257.73,101.06L257.89,142.57L258.66,95.76L258.82,115.92L258.97,117.33L259.13,101.28L259.28,107.14L259.44,98.33L259.59,106.81L259.75,83.94L260.06,143.04L260.52,123.7L260.67,118.44L261.14,82.62L261.45,100.76L261.6,104.89L261.76,90.65L262.07,114.66L262.22,105.33L262.38,134.51L263.15,96.23L263.31,96.3L263.46,109.54L263.62,119.14L263.77,93.6L263.93,110.25L264.08,76.21L264.24,104.03L264.86,96.1L265.01,93.77L265.63,91.68L266.1,139.93L266.25,134.1L266.56,77.39L266.87,82.69L267.03,116.97L267.18,93.84L267.65,119.97L267.8,113.2L267.96,106.82L268.27,73.61L268.58,109.5L268.73,125.63L269.51,87.11L269.66,93.53L269.82,112.54L270.28,120.09L270.44,90.58L270.59,100.85L270.75,96.63L271.06,106.91L271.37,77.99L271.52,81.21L271.68,131.21L272.3,83.63L272.61,104.42L272.76,117.71L273.23,92.88L273.54,102.41L273.69,117.85L273.85,120.58L274,104.58L274.31,87.17L274.62,136.21L274.93,130.28L275.09,111.95L275.24,98.52L275.4,135.66L275.55,111.09L275.71,128.24L275.86,81.45L276.48,113.44L276.64,99.14L277.26,76.8L277.41,104.49L277.57,92.56L277.88,116.26L278.03,117L278.19,115.27L278.34,99.22L278.5,105.6L278.65,80.65L279.58,126.5L279.74,110.77L280.2,77.82L280.51,107.85L280.67,99.87L280.82,106.72L280.98,97.15L281.13,98.12L281.29,84.49L281.44,77.09L281.75,91.33L281.91,87.25L282.06,90.77L282.37,88.19L282.53,116.62L282.84,97.35L282.99,96.29L283.15,121.91L283.77,118.87L283.92,110.87L284.08,116.82L284.23,109.47L284.39,97.65L284.54,110.36L284.7,101.05L284.85,72.92L285.16,120.2L285.63,111.14L285.78,80.57L285.94,113.83L286.56,103.58L286.71,103.35L287.02,110.89L287.18,110.17L287.33,97.27L287.49,97.69L287.64,91.2L287.95,99.3L288.26,94L288.42,81.93L288.57,122.32L289.04,79.42L289.19,95.28L289.35,92.92L289.5,80L289.66,94.13L289.81,90.63L289.97,106.36L290.12,106.96L290.28,84.49L290.59,116.25L291.05,115.6L291.21,100.21L291.36,127.45L291.83,84.31L291.98,86.12L292.14,124.65L292.76,97.74L292.91,126.33L293.22,84.6L293.84,93.16L294,95.64L294.15,101.76L294.31,84.73L294.46,79.48L295.08,72.63L295.24,122.58L295.39,72.76L296.01,127.61L296.17,117.37L296.32,85.84L296.48,78.44L296.63,103.11L296.79,98.49L296.94,96.14L297.1,89.56L297.25,90.81L297.41,111.2L297.56,115.29L297.72,84.87L297.87,59.92L298.02,109.57L298.33,102.4L298.49,91.71L298.64,102.35L298.8,81.82L299.11,91.23L299.26,88.62L299.42,108.71L299.73,87.09L299.88,88.29L300.04,89.83L300.19,85.26L300.35,105.92L300.5,124.76L300.66,81.3L300.97,93.71L301.12,79.02L301.28,114.86L301.59,76.1L301.74,81.61L301.9,75.75L302.36,86.72L302.52,99.83L302.67,99.79L302.83,76.18L303.6,97.68L303.76,68.68L304.53,108.27L304.69,76.46L305.15,102.68L305.46,96.05L305.62,91.42L305.77,88.99L305.93,89.81L306.08,66.08L307.01,113.88L307.17,79.71L307.32,60.26L307.48,86.16L307.79,85.51L307.94,77.44L308.56,98.18L308.87,91.57L309.03,62.75L309.49,97.58L309.8,97L309.96,67.9L310.11,69.41L310.27,82.52L310.42,73.59L310.58,86.35L310.73,102.12L310.89,115.62L311.2,84.39L311.35,60.02L311.51,66.58L311.66,117.71L312.13,89.47L312.59,98.78L312.75,98.93L313.06,106.45L313.21,80.66L313.37,103.59L313.83,73.87L313.99,85.42L314.14,93.73L314.3,60.5L314.45,94.27L314.76,83.63L314.92,113.03L315.38,61.12L315.54,112.12L315.69,115.88L316.16,89.91L316.47,107.08L316.62,96.3L316.93,118.96L317.24,94.61L317.4,81.89L317.71,109.39L317.86,107.9L318.02,85.5L318.79,103.66L318.95,79.22L319.1,70.86L319.26,125.89L319.57,83.97L320.03,99.09L320.19,91.44L320.5,108.5L320.96,104.38L321.12,99.36L321.43,123.75L321.58,82.51L321.74,96.44L321.89,85.88L322.2,76.73L322.36,100.87L322.51,89.76L322.67,82.77L322.82,106.51L322.98,76.17L323.44,101.36L323.6,86.17L323.75,72L324.06,111.4L324.22,93.74L324.37,102.71L324.53,123.76L324.84,94.41L324.99,101.85L325.15,83.44L325.77,102.42L325.92,64.88L326.23,87.25L326.7,74.34L326.85,82.22L327.01,122.61L327.16,71.49L327.63,100.24L327.78,76.87L327.94,50.48L328.4,81.62L328.56,108.54L328.71,103.14L328.87,68.7L329.18,90.22L329.33,102.25L329.49,62.25L329.95,104.71L330.11,85.15L330.26,90.21L330.42,107.33L330.57,76.85L330.73,92.6L330.88,52.13L331.35,91.28L331.81,85.87L331.97,81.33L332.12,85.35L332.28,65.5L333.21,113.73L333.36,99.78L333.83,56.81L334.14,74.02L334.29,89.65L334.6,83.7L334.76,104.54L334.91,61.75L335.53,92L335.68,104.16L335.84,78.7L336.46,97.91L336.61,97.43L337.08,72.72L337.39,92.34L337.54,87.72L337.7,89.91L337.85,110.47L338.16,61.49L338.78,76.19L338.94,75.16L339.71,91.36L339.87,86.8L340.02,115.4L340.95,67.26L341.11,70.84L341.26,114.69L341.88,104.87L342.04,114.07L342.97,61.94L343.12,106.7L343.59,57.07L344.05,76.55L344.21,93.77L345.14,70.31L345.29,86.09L345.45,67.71L345.6,101.7L346.07,79.23L346.22,87.15L346.38,95.66L346.53,66.56L346.84,81.09L347,86.43L347.15,63.95L347.62,105.53L347.77,88.62L348.39,63.8L348.7,70.1L348.86,74.98L349.32,68.77L349.94,99.02L350.1,91.05L350.25,76.06L350.56,103.14L350.87,83.97L351.03,124.41L351.65,72.07L351.8,79.67L351.96,103.34L352.11,108.03L352.27,95.28L352.42,98.24L352.58,80.43L352.73,112.63L353.2,95.15L353.35,83.33L353.82,49.26L353.97,65.58L354.13,91.15L354.75,59.15L354.9,79.14L355.06,68.6L355.37,120.82L355.83,76.09L355.99,89.64L356.14,73.22L356.3,92.46L356.61,81.88L356.76,103.48L357.07,104.06L357.54,59.91L357.69,91.64L358,83.63L358.62,107.42L358.78,84.28L358.93,50.1L359.24,87.83L359.55,76.1L359.71,106.44L360.17,109.85L360.64,69.46L360.79,107.9L361.57,75.23L361.72,87.16L361.88,79.04L362.03,101.64L362.5,71.62L362.65,92.31L362.81,71.59L363.58,102.35L363.74,64.19L363.89,53.74L364.2,77.84L364.36,87.11L364.51,99.89L364.67,58.6L365.13,94.86L365.29,80.6L365.44,79.83L365.6,88.88L365.75,72.78L366.06,99.42L366.22,84.53L366.37,112.05L366.68,77.82L366.84,120.06L367.3,53.57L367.77,87.02L367.92,73.08L368.7,89.15L368.85,89.09L369.01,84.02L369.16,71.07L369.32,102.54L369.47,100.66L369.63,95.55L370.56,71.71L370.71,76.97L371.02,68.55L371.18,77.24L371.33,74L371.49,110.43L371.64,64.07L372.26,94.87L372.41,80.6L372.72,112.91L373.03,85.34L373.19,81.53L373.65,72.63L373.81,101.68L373.96,70.32L374.12,113.93L374.43,64.02L374.58,84.64L374.74,73.69L374.89,77.79L375.05,103.3L375.51,68.67L375.82,99.42L375.98,91.04L376.13,76.68L376.6,95.86L376.75,81.21L376.91,73.95L377.06,43.44L377.53,89.28L377.68,100.05L377.84,111.44L377.99,82.24L378.15,110.9L378.3,80.68L378.61,92.95L378.77,103.68L379.08,52.77L379.54,69.82L379.7,97.41L379.85,100.4L380.01,77.15L380.32,68.54L380.63,107.46L380.78,63.31L381.25,97.38L381.71,90.71L381.87,94.04L382.18,59L382.64,69.79L382.8,74.93L383.11,107.03L383.57,89.66L383.73,78.08L383.88,64.45L384.19,94.01L384.35,90.78L385.12,53.1L385.28,69.84L385.9,104.5L386.05,86.84L386.21,77.56L386.36,77.38L386.52,65.58L386.67,91.59L386.83,64.5L387.14,86.97L387.29,64L387.6,100.75L387.91,81.18L388.07,63.42L388.84,98.82L389,80.31L389.15,87.55L389.62,77.06L389.77,63.72L390.08,52.52L390.39,96.58L390.55,83.21L390.7,80.85L391.17,87.92L391.32,55.2L391.48,82.81L391.63,80.37L391.79,58.2L391.94,47.5L392.1,68.76L392.25,101.06L392.72,82.37L392.87,62.16L393.03,67.35L393.18,60.05L393.34,47.06L393.49,111.46L394.11,67.16L394.27,93.38L394.42,76.37L394.89,100.1L395.04,82.52L395.2,96.2L395.35,96.53L395.51,77.75L395.66,79.7L395.82,98.67L396.13,62.63L396.59,73.83L396.75,81.44L396.9,85.96L397.06,65.91L397.68,99.13L397.83,59.14L398.3,55.45L398.76,82.54L398.92,63.96L399.23,60.61L399.38,72.08L399.54,62.7L399.69,61.79L399.85,61.52L400,70.08L400.16,68.12L400.31,75.4L400.47,62.07L400.62,87.02L401.24,67.79L401.4,60.89L401.71,112.8L402.02,57.24L402.17,35.49L402.95,82.16L403.1,75.21L403.26,75.92L403.41,94.12L403.57,107.87L403.72,71.37L404.03,91.14L404.19,90.62L404.5,59.81L404.96,72.41L405.12,95.13L405.27,60.23L405.89,72.97L406.05,102.06L406.82,58.72L406.98,85.82L407.13,85.85L407.29,81.87L407.44,106.84L407.6,72.07L408.22,95.93L408.37,87.64L408.53,86.26L408.68,99.93L409.3,70.39L409.46,88.58L409.61,75.35L409.76,69.75L409.92,74.88L410.07,88.79L410.23,88.92L410.38,73.32L410.54,74.47L410.69,74.38L410.85,69.37L411.16,73.67L411.31,47L411.47,64.71L411.62,66.33L412.09,45.64L412.24,112.09L412.55,88.78L412.71,65.24L412.86,46.44L413.02,90.43L413.17,70.72L413.33,85.44L413.48,84.31L413.64,54.26L413.79,101.46L414.26,73.22L414.41,59.89L415.03,54.03L415.5,110.34L415.65,63.09L415.81,95.23L416.27,72.82L416.43,60.71L416.89,109.12L417.2,70.58L417.36,70.8L417.82,98.04L418.13,75.32L418.29,64.91L418.6,83.88L419.06,69.34L419.22,77.56L419.68,108.63L419.84,77.59L419.99,79.96L420.15,80.13L420.3,68.11L420.46,63.3L420.61,78.55L420.77,75.71L420.92,97.33L421.39,66.56L421.54,101.79L421.7,72.92L421.85,78.72L422.16,43.9L422.32,98.25L422.47,82.06L422.63,52.71L423.71,104.67L423.87,90.94L424.02,55.01L424.64,57.53L424.8,105.24L425.11,63.25L425.57,66.33L425.73,83.02L426.19,115.64L426.35,49.71L427.12,90.25L427.28,65.87L427.9,108.15L428.05,75.86L428.21,51.49L428.36,104.12L428.98,79.83L429.14,97.3L429.29,103.22L429.45,77.24L430.07,60.3L430.22,79.6L430.38,76.81L430.53,91.83L431.46,59.92L431.62,61.09L432.39,95.87L432.55,82.76L432.7,61.18L433.32,61.92L433.48,81.05L433.79,89.6L434.1,87.28L434.25,63.86L434.72,59.53L435.03,99.77L435.18,57.47L435.49,95.76L435.8,87.94L435.96,50.88L436.58,104.48L436.89,85.53L437.04,69.71L437.2,89.42L437.35,68.22L437.66,74.96L437.82,65.12L437.97,60.08L438.13,95L438.75,65.05L439.06,68.52L439.21,106.31L440.14,48.26L440.3,67.49L440.45,56.03L440.76,81.72L440.92,96.18L441.07,58.77L441.38,112.7L441.54,90.92L441.69,96.79L442,59.68L442.47,59.76L442.62,94.25L442.93,97.8L443.4,66.08L443.55,110.55L444.02,72.17L444.33,90.1L444.48,81.96L444.79,96.72L444.95,94.72L445.1,73.09L445.26,34.6L445.88,49.93L446.03,65.79L446.34,53.29L446.8,71.92L446.96,70.95L447.11,70.7L447.27,59.48L447.42,81.65L447.73,35.37L447.89,60.98L448.04,44.3L448.35,92.17L448.82,71.75L448.97,68.2L449.13,80.91L449.75,80.23L449.9,52.01L450.06,91.49L450.52,60.13L450.68,57.12L451.45,90.67L451.61,36.35L452.69,107.41L452.85,87.14L453.16,44.91L453.31,100.28L453.62,62.37L453.78,93.93L454.24,57.81L454.4,70.88L454.55,92.89L455.17,57.19L455.33,100.1L455.48,101.32L455.64,90.13L455.95,59.17L456.41,60.79L456.57,64.02L457.5,90.39L457.65,73.47L457.81,74.35L457.96,86.58L458.58,67.09L458.74,78.91L458.89,76.88L459.05,69.41L459.2,72.32L459.36,23.06L459.67,87.51L460.29,75.9L460.44,76.38L460.6,65.82L461.06,79.46L461.22,81.92L461.37,115.49L461.84,63.2L461.99,53.25L462.15,47.89L462.3,94.3L462.46,100.92L462.61,77.16L462.77,60.3L462.92,62.33L463.08,83.66L463.39,57.32L463.54,78.85L463.7,83.5L464.01,30.48L464.16,67.72L464.32,87.69L464.78,46.8L465.09,68.33L465.25,77.56L465.4,77.03L465.56,63.93L465.71,49.84L466.02,80.81L466.18,65.31L466.33,73.64L466.49,72.86L466.64,47.53L466.95,80.03L467.11,59.45L467.26,44.17L468.19,86.14L468.35,71.62L468.5,76.48L468.66,51.54L468.81,89.28L469.12,70.08L469.28,74.5L469.9,46.44L470.05,68.97L470.21,63.4L470.36,67.21L470.52,80.21L470.67,72.66L470.98,75.88L471.14,87.46L471.29,87.85L471.45,86.41L471.6,114.76L472.07,53.99L472.38,72.18L472.53,88.84L473.62,51.82L473.77,84.73L474.08,50.31L474.55,60.25L474.7,68.78L474.86,83.21L475.01,53.07L475.48,74.61L475.63,60.17L475.79,47.24L476.1,73.29L476.25,90.63L476.72,44.11L476.87,65.29L477.03,76.05L477.34,44.89L477.8,45.76L477.96,61.75L478.11,60.98L478.27,73.47L478.42,72.82L478.58,52.35L478.73,37.62L478.89,67.09L479.04,91.2L479.35,100.24L479.82,53.17L479.97,59.99L480.13,52.92L480.28,63.3L480.75,45.44L480.9,52.15L481.68,69.81L481.83,49.55L482.14,40.45L482.61,82.67L482.76,62.48L483.38,40.98L483.54,48.44L483.69,93.63L483.85,81.31L484,85.65"/><g class="points"/></g><g class="trace scatter trace25943e" style="stroke-miterlimit: 2; opacity: 1;"><path class="js-line" style="vector-effect: non-scaling-stroke; fill: none; stroke: rgb(255, 127, 14); stroke-opacity: 1; stroke-width: 2px; opacity: 1;" d="M0,286.18L0.15,308.75L0.77,303.6L0.93,307.16L1.55,302.81L1.7,311.92L2.48,297.26L2.63,307.16L2.79,306.77L2.94,295.28L3.87,307.16L4.03,305.58L4.18,307.96L4.34,298.06L4.65,307.16L5.11,305.58L5.27,304.79L5.42,304.79L5.58,308.75L6.2,302.41L6.35,307.96L6.51,307.16L6.82,308.75L7.13,305.18L7.28,305.58L7.44,306.37L7.75,310.73L8.06,310.33L8.21,303.2L8.37,301.62L8.52,304.39L8.68,307.96L8.83,309.54L8.99,303.2L9.45,302.81L9.61,308.35L9.76,300.83L9.92,300.83L10.07,304.79L10.23,302.41L10.38,306.77L10.54,309.14L10.69,304.79L11.16,311.92L11.31,310.33L12.24,304L12.4,305.58L12.55,300.04L12.86,311.92L13.17,300.83L13.33,307.96L13.48,300.83L13.95,305.58L14.1,308.75L14.41,311.52L14.57,302.41L14.88,304L15.03,309.54L15.81,304.79L15.96,311.12L16.74,300.83L17.05,303.2L17.2,307.96L17.36,309.54L17.51,306.37L17.67,304L18.13,301.62L18.6,308.35L18.75,304.79L18.91,303.6L19.06,307.96L19.22,307.56L19.37,308.75L19.68,307.96L19.84,306.37L20.61,302.41L20.77,303.6L20.92,304L21.08,304.79L21.23,309.54L22.01,302.81L22.16,304L22.63,305.98L22.78,303.2L23.25,302.41L23.56,307.96L23.71,302.41L24.49,311.12L24.64,305.58L24.8,306.37L24.95,301.22L25.26,308.75L25.73,305.58L25.88,305.58L26.19,302.41L26.35,304.79L26.5,306.37L27.12,302.41L27.28,306.37L27.43,309.54L27.59,302.41L27.9,308.75L28.05,304.39L28.36,306.37L28.52,309.54L29.14,302.41L29.29,305.58L29.45,309.54L29.6,304L30.22,305.58L30.38,305.58L30.69,308.75L31,307.56L31.15,304L31.77,308.75L31.93,306.37L32.55,302.81L32.7,306.37L33.01,303.2L33.32,306.37L33.48,307.16L34.25,299.24L34.41,303.2L34.56,307.96L34.72,307.96L34.87,307.16L35.34,303.2L35.8,304.79L35.96,310.33L36.89,300.83L37.04,303.2L37.66,307.16L37.81,304L37.97,306.37L38.28,297.66L38.43,307.96L38.59,304L39.21,304.79L39.36,304L39.52,300.04L40.14,301.62L40.29,302.41L41.22,306.37L41.38,302.81L41.53,300.83L41.84,305.58L42,303.6L42.15,307.16L42.31,307.16L42.46,301.62L42.77,305.58L43.08,304.79L43.24,301.62L43.39,305.58L43.7,297.66L43.86,303.2L44.01,300.83L44.48,304.79L44.63,302.41L44.79,302.41L45.1,306.77L45.25,301.62L45.56,304.79L45.72,301.62L46.49,305.58L46.65,303.2L46.96,305.58L47.11,302.41L47.27,300.83L47.58,300.83L47.73,299.64L47.89,297.66L48.04,303.2L48.2,304.79L48.35,294.89L48.66,310.33L48.97,302.81L49.13,302.41L49.44,306.77L49.59,305.98L49.75,299.24L50.06,304L50.37,298.85L50.52,299.24L50.99,308.75L51.3,304.79L51.45,302.41L51.76,302.41L51.92,300.04L52.38,304.79L52.69,300.43L52.85,299.24L53,304.79L53.16,296.08L53.62,300.04L53.78,300.04L53.93,301.62L54.09,313.5L54.55,292.91L55.02,294.49L55.17,307.96L55.64,298.45L55.95,300.83L56.1,302.41L56.26,306.77L56.72,302.02L56.88,303.2L57.19,307.16L57.5,305.58L57.65,304L57.81,305.58L57.96,298.45L58.27,307.16L58.43,304L58.58,299.64L58.74,300.04L58.89,297.26L59.2,296.87L59.36,292.12L59.67,303.6L60.29,303.2L60.44,301.62L60.75,297.66L60.91,299.24L61.06,302.41L61.53,300.83L61.68,303.2L61.99,307.16L62.3,296.87L62.46,304L63.23,297.66L63.39,305.58L63.7,297.66L63.85,299.24L64.01,305.58L64.47,297.26L64.63,307.96L64.78,294.49L65.4,298.85L65.56,298.45L65.87,297.26L66.33,307.96L66.49,302.41L66.64,300.83L66.8,298.06L66.95,308.75L67.88,296.87L68.04,303.2L68.5,295.28L68.81,298.85L68.97,305.98L69.9,290.53L70.05,296.87L70.98,304.79L71.14,289.74L71.29,308.75L71.91,297.66L72.07,301.62L72.38,304.39L72.53,298.45L72.84,295.28L73.31,304.39L73.46,296.08L73.77,307.96L74.08,302.41L74.24,298.45L74.39,305.58L74.7,288.55L74.85,292.91L75.01,297.66L75.47,286.57L75.63,300.83L75.78,299.24L75.94,305.18L76.4,297.66L76.56,284.99L76.71,301.62L77.33,294.49L77.49,292.91L77.64,296.87L77.8,286.18L77.95,284.59L78.42,301.62L78.73,289.74L78.88,298.45L79.04,297.66L79.19,302.02L79.97,287.36L80.12,293.3L80.9,300.04L81.05,283.4L81.98,298.45L82.14,294.49L82.29,289.74L82.45,297.66L82.76,297.26L82.91,296.87L83.07,298.45L83.22,290.93L83.53,274.69L83.69,300.04L84,293.7L84.15,278.65L84.93,301.62L85.08,289.74L85.24,298.45L85.39,281.03L85.86,296.47L86.01,298.45L86.48,300.83L86.79,283.01L86.94,291.32L87.1,283.4L87.25,296.47L87.56,284.99L87.72,292.91L87.87,296.87L88.03,292.12L88.18,293.7L88.34,287.36L88.65,298.45L88.96,283.4L89.11,288.95L89.27,292.12L89.89,296.08L90.2,277.07L90.35,289.74L90.66,297.66L90.82,282.61L90.97,278.26L91.13,291.72L91.28,282.22L91.44,290.53L91.59,263.6L92.21,274.69L92.37,281.03L92.52,308.75L92.99,275.48L93.14,292.12L93.3,286.57L94.23,302.41L94.38,290.53L94.54,310.33L94.69,281.03L94.85,283.8L95,262.02L95.31,292.91L95.62,267.56L95.78,264.79L96.09,289.74L96.24,275.88L96.4,250.93L96.55,296.87L96.86,231.13L97.17,263.6L97.33,285.78L97.64,256.48L97.95,288.16L98.1,259.64L98.26,274.69L98.41,258.85L98.88,280.24L99.03,270.73L99.19,272.32L99.34,249.35L99.65,283.01L99.81,269.15L99.96,276.28L100.43,278.65L100.58,224L100.74,256.48L100.89,262.02L101.2,234.3L101.82,241.82L101.98,240.64L102.29,231.92L102.6,264L102.75,224.8L103.37,276.28L103.53,244.6L103.68,241.43L103.84,254.89L103.99,254.1L104.15,269.15L104.3,226.38L104.77,272.32L104.92,249.35L105.08,243.8L105.39,226.38L105.54,266.77L105.85,242.22L106.16,247.76L106.32,288.16L106.78,212.92L107.09,234.3L107.25,239.84L107.4,227.17L107.56,239.05L107.71,272.32L108.02,251.72L108.18,205L108.49,250.14L108.8,229.55L108.95,221.63L109.26,244.99L109.42,194.7L109.57,213.71L109.73,193.12L110.5,216.88L110.66,162.23L110.97,235.09L111.43,193.51L111.59,180.05L111.74,212.12L112.2,174.11L112.36,189.55L112.51,193.91L112.82,208.16L113.13,183.61L113.29,188.36L113.44,196.28L113.6,228.76L113.91,190.74L114.06,212.92L114.22,182.03L114.37,219.25L114.84,180.44L114.99,162.23L115.15,163.02L115.3,172.52L115.46,173.32L115.61,171.73L115.77,186.78L116.08,163.42L116.54,212.12L116.7,167.38L116.85,167.77L117.01,205.79L117.63,178.86L117.78,179.65L117.94,180.44L118.25,193.91L118.56,177.67L118.71,161.44L119.64,223.21L119.8,170.94L120.26,197.08L120.42,196.28L120.57,169.36L120.88,222.42L121.04,194.7L121.19,177.67L121.35,217.67L121.66,176.48L121.81,176.48L121.97,143.22L122.43,186.38L122.74,166.19L122.9,169.36L123.21,190.74L123.36,167.38L123.52,174.9L123.67,155.89L124.29,205.79L124.45,201.83L124.6,156.68L124.76,159.06L124.91,180.44L125.22,173.71L125.38,176.48L125.53,179.65L125.69,155.5L126.15,195.89L126.31,203.41L127.08,155.1L127.24,188.36L127.7,189.95L128.17,150.74L128.32,168.96L128.63,194.3L128.79,191.93L128.94,149.16L129.25,195.49L129.72,185.2L129.87,159.06L130.03,178.07L130.49,157.87L130.65,167.77L130.8,176.48L130.96,177.28L131.11,182.03L131.89,141.24L132.04,152.72L132.2,153.52L132.35,154.7L132.51,151.93L132.66,170.94L132.82,155.1L133.13,172.52L133.44,156.29L133.59,155.89L133.75,191.14L134.37,170.94L134.52,189.95L135.3,141.24L135.45,170.94L135.61,175.69L135.76,153.52L136.54,190.34L136.69,149.56L137.16,183.61L137.31,150.35L137.47,130.55L137.78,193.91L138.24,161.44L138.4,142.43L139.02,168.56L139.33,167.77L139.48,164.6L139.64,140.84L139.95,178.86L140.1,153.52L140.26,186.78L141.03,145.6L141.19,174.9L141.96,130.55L142.12,140.84L142.27,148.76L142.74,139.66L143.2,182.03L143.36,159.85L144.29,147.18L144.44,160.64L144.6,160.25L144.75,151.54L145.37,145.6L145.53,167.38L145.68,154.7L145.84,155.89L145.99,155.1L146.15,132.92L146.3,153.52L146.46,129.76L146.92,148.76L147.08,146.39L147.39,134.9L147.85,177.67L148.01,155.89L148.16,155.89L148.32,151.93L149.09,179.65L149.24,162.23L150.02,140.05L150.17,148.76L150.33,157.08L150.48,163.81L150.64,153.91L150.79,141.64L151.41,166.98L151.57,144.8L151.72,147.18L151.88,140.05L152.03,144.01L152.19,142.43L152.34,165L152.5,141.24L152.96,148.37L153.12,143.22L153.74,161.44L154.05,152.33L154.2,145.6L154.36,142.43L154.51,158.27L155.13,127.38L155.29,149.16L155.44,150.35L155.6,177.28L156.06,178.86L156.37,152.72L156.53,185.99L157.15,186.78L157.46,132.13L157.61,133.72L157.77,132.93L158.7,170.94L158.85,161.83L159.32,133.72L159.47,162.23L159.63,151.93L159.78,161.04L160.56,136.88L160.71,147.18L160.87,157.48L161.18,130.55L161.49,151.14L161.64,166.19L162.11,125.8L162.26,170.15L162.42,147.97L162.57,147.18L162.73,145.6L162.88,132.92L163.35,155.89L163.81,153.52L163.97,144.8L164.12,123.42L164.59,156.29L164.74,136.49L164.9,138.47L165.36,164.21L165.52,142.43L165.67,131.34L165.83,122.63L165.98,147.58L166.14,133.72L166.29,142.82L166.45,127.78L166.6,148.76L166.91,148.76L167.07,153.91L167.22,156.68L167.38,145.6L167.53,144.41L167.69,155.89L167.84,136.88L168,174.5L168.46,140.45L168.62,151.14L168.77,155.89L168.93,140.05L169.08,153.52L169.24,142.03L169.39,140.84L169.55,144.01L169.7,143.22L169.86,128.96L170.32,161.44L170.48,118.67L171.25,146.39L171.41,145.99L171.56,159.06L171.87,126.59L172.03,144.01L172.18,146.39L172.34,132.92L172.8,137.68L172.96,146.39L173.11,109.96L173.42,161.44L173.58,149.95L173.73,145.99L173.89,147.97L174.04,118.67L174.35,153.52L174.82,137.68L174.97,132.13L175.13,133.72L175.28,132.92L175.44,145.2L175.59,147.18L175.75,128.96L176.52,149.56L176.68,121.44L176.83,165.4L177.14,113.92L177.3,140.84L177.45,123.42L177.61,122.63L177.76,144.8L178.07,154.31L178.54,129.76L178.69,136.88L178.85,151.14L179,133.72L179.31,144.8L179.47,132.13L179.62,125L179.78,144.01L179.93,149.56L180.24,131.34L180.4,149.56L181.17,125L181.33,134.9L181.64,132.53L181.79,145.2L181.95,142.43L182.1,114.71L182.57,155.89L182.72,147.18L182.88,121.84L183.19,120.25L183.34,154.31L183.65,130.55L183.81,155.1L184.27,103.62L184.58,128.96L184.74,146.39L184.89,135.3L185.05,148.76L185.2,145.6L185.36,156.68L186.44,119.86L186.59,144.8L186.9,107.58L187.06,148.37L187.52,111.54L187.68,120.65L188.45,147.97L188.61,144.01L188.76,117.08L188.92,106.79L189.07,135.3L189.23,134.51L189.38,129.76L189.69,125L189.85,140.05L190.31,121.04L190.62,128.17L190.78,135.7L190.93,143.22L191.09,108.37L191.4,172.13L191.86,148.76L192.02,128.17L192.33,150.74L192.64,144.8L192.79,112.33L193.57,151.14L193.72,130.55L193.88,126.59L194.03,124.61L194.19,132.92L194.34,133.72L194.5,132.13L194.65,109.16L194.81,142.43L195.43,133.72L195.58,113.92L195.74,144.8L196.36,132.13L196.51,132.13L196.98,143.22L197.13,125.8L197.29,126.59L197.6,162.23L197.91,138.47L198.06,117.88L198.22,147.18L198.84,137.68L198.99,140.05L199.3,147.18L199.61,101.24L199.77,147.58L200.39,113.12L200.54,128.17L200.7,130.55L200.85,110.75L201.01,136.09L201.32,125L201.47,139.26L201.63,135.7L201.78,105.6L201.94,141.64L202.4,98.87L202.56,117.08L202.71,118.67L202.87,97.28L203.18,113.92L203.33,138.47L203.64,112.33L203.8,142.43L204.11,115.5L204.26,128.96L204.57,140.05L204.73,139.66L204.88,131.34L205.19,117.08L205.35,135.3L205.5,121.84L205.66,133.32L205.81,99.66L206.12,142.43L206.43,123.42L206.59,138.07L207.05,145.99L207.21,120.25L207.36,121.04L207.52,130.55L207.67,131.34L207.83,144.8L208.6,97.28L208.76,130.55L209.07,123.42L209.22,133.72L209.38,96.49L209.84,124.61L210,154.31L210.77,93.32L210.93,119.86L211.08,132.92L211.24,104.41L211.55,140.05L211.7,132.13L211.86,135.3L212.01,141.63L212.17,122.63L212.32,111.54L212.48,140.05L213.1,129.76L213.25,124.21L213.56,144.01L213.72,130.15L213.87,115.5L214.34,143.22L214.49,129.76L214.65,114.71L214.8,144.8L215.27,111.54L215.42,117.08L215.58,109.16L215.73,126.59L215.89,126.59L216.04,123.82L216.35,115.5L216.51,139.26L216.66,136.09L216.82,124.61L217.28,94.91L217.44,119.46L217.59,143.62L218.06,109.96L218.37,126.19L218.52,129.76L218.68,124.21L218.83,155.1L218.99,97.28L219.61,119.46L219.76,145.99L220.07,148.37L220.54,91.74L220.69,127.38L221.16,90.95L221.31,106L221.47,137.68L222.24,113.12L222.4,116.69L222.55,124.21L222.71,125.8L222.86,83.82L223.48,138.07L223.63,107.58L223.79,124.21L224.25,126.59L224.72,99.66L224.87,111.94L225.34,117.48L225.49,148.37L225.65,110.35L226.27,128.96L226.42,113.92L226.73,113.12L226.89,132.13L227.04,117.08L227.2,96.49L227.97,151.93L228.13,136.09L228.28,136.09L228.44,115.5L228.59,138.47L229.06,106L229.21,121.04L229.37,99.66L229.99,98.87L230.14,151.54L230.3,97.28L230.76,89.36L231.23,130.55L231.38,95.7L231.54,80.65L231.69,127.38L232,96.49L232.16,106.79L232.31,125.8L232.93,109.96L233.09,126.59L233.4,80.65L233.86,119.46L234.02,106.79L234.17,102.43L234.33,135.3L234.64,98.87L235.1,102.83L235.26,132.13L235.88,90.16L236.03,117.08L236.19,109.56L236.5,98.08L237.12,130.94L237.27,107.58L237.43,106.79L237.58,129.76L237.74,71.15L238.36,79.46L238.51,131.34L238.67,90.95L239.29,123.02L239.44,113.92L239.6,94.12L239.75,123.42L240.06,100.45L240.22,118.67L240.37,120.25L240.53,102.04L240.99,138.47L241.15,105.2L241.3,83.03L242.23,117.08L242.39,117.88L242.7,85.4L243.16,114.71L243.32,106L243.47,91.74L243.78,92.53L243.94,127.38L244.09,87.78L244.71,96.49L244.87,96.1L245.18,112.33L245.33,59.27L245.49,84.61L245.64,119.06L245.8,71.94L246.42,95.7L246.57,92.53L246.73,79.07L247.04,112.33L247.19,126.59L247.35,125.8L247.5,118.67L247.66,119.06L247.81,104.41L248.12,136.09L248.59,131.34L248.74,113.12L249.21,89.36L249.36,143.22L249.52,120.25L249.67,125.8L250.6,88.57L250.76,101.24L250.91,102.04L251.07,88.57L251.22,98.08L251.38,64.81L251.53,129.76L252,131.34L252.31,89.36L252.46,128.17L252.93,83.82L253.08,102.83L253.24,145.6L254.17,45.8L254.32,120.65L254.63,62.44L254.79,87.78L254.94,94.12L255.1,88.57L255.25,131.34L255.56,135.3L256.34,76.69L256.49,116.29L257.11,102.83L257.27,104.41L257.42,131.34L257.58,102.04L258.2,109.96L258.35,102.04L258.51,136.88L258.82,100.85L258.97,102.83L259.13,94.91L259.28,106L259.59,102.83L259.75,80.65L260.06,139.26L260.52,127.38L260.67,104.81L260.83,109.16L260.98,91.74L261.14,81.05L261.29,105.2L261.76,86.99L261.91,108.37L262.53,99.66L262.69,127.78L262.84,113.92L263.46,83.82L263.62,121.04L264.08,79.07L264.39,99.66L264.55,96.49L264.86,97.28L265.01,92.53L265.17,119.06L265.63,89.36L265.79,121.84L266.1,130.55L266.56,77.48L266.72,130.55L267.34,79.07L267.49,123.42L267.65,123.42L268.27,67.98L268.42,98.08L268.73,118.67L269.04,93.72L269.2,94.12L269.35,126.59L269.66,76.69L269.82,113.12L269.97,90.16L270.13,90.95L270.28,105.2L270.9,89.76L271.06,119.46L271.37,70.36L271.52,80.65L271.68,133.72L272.3,78.28L272.45,79.86L272.61,106.79L272.76,105.2L272.92,109.56L273.07,96.49L273.38,86.99L273.54,103.62L273.69,128.17L274.31,79.07L274.47,98.08L274.62,122.63L274.78,122.63L274.93,123.42L275.09,103.22L275.4,140.05L275.55,112.33L275.71,137.68L276.64,86.99L276.79,77.48L277.26,60.85L277.41,106L277.72,100.85L277.88,91.74L278.19,120.25L278.5,102.04L278.65,77.88L279.58,130.55L279.74,110.75L280.2,79.86L280.36,119.46L280.51,119.46L280.98,122.23L281.29,88.97L281.44,92.14L281.6,71.94L281.91,96.49L282.06,87.78L282.22,114.71L282.53,116.69L282.84,90.95L282.99,92.53L283.15,121.04L283.46,98.87L284.08,106L284.23,96.49L284.39,121.84L284.85,75.9L285.01,93.72L285.32,74.32L285.63,128.96L285.78,99.26L285.94,102.83L286.09,69.56L286.25,120.65L286.56,105.2L286.71,107.58L286.87,115.5L287.02,91.74L287.18,103.62L287.33,92.53L287.49,90.95L287.64,91.74L287.8,73.52L288.57,126.59L288.73,101.24L289.35,103.62L289.5,67.98L289.66,90.95L289.97,82.24L290.12,117.88L290.28,54.52L290.59,120.25L290.74,113.92L290.9,112.33L291.05,116.29L291.21,84.22L291.36,128.17L291.52,68.77L291.83,75.11L291.98,77.48L292.45,73.13L292.76,112.33L292.91,115.5L293.22,74.32L293.53,118.67L293.69,120.25L294,79.86L294.46,85.4L294.62,100.45L295.08,56.1L295.24,117.48L295.39,67.19L295.55,77.48L296.01,117.88L296.32,87.38L296.48,67.19L297.25,102.83L297.41,90.16L297.56,109.16L297.87,64.81L298.18,102.83L298.33,109.16L298.8,83.03L299.11,86.99L299.26,100.45L300.04,78.28L300.19,95.7L300.5,105.2L300.66,85.4L300.81,71.54L301.28,128.96L301.43,92.53L301.59,80.65L301.9,86.59L302.05,69.17L302.67,96.49L302.83,57.68L303.6,99.26L303.76,51.35L304.53,120.25L304.69,67.19L305.62,86.99L305.77,92.53L306.08,30.76L306.24,78.28L306.39,102.83L306.55,94.91L306.7,104.41L306.86,102.83L307.01,126.19L307.32,49.76L307.79,81.44L307.94,82.24L308.41,60.85L308.56,89.36L308.72,88.97L308.87,89.36L309.03,50.56L309.49,101.64L309.8,89.36L309.96,75.9L310.11,40.26L310.58,83.03L310.73,110.35L310.89,136.09L311.2,80.26L311.35,55.31L311.51,56.1L311.66,130.55L312.28,64.02L312.59,80.65L312.75,99.66L313.06,113.12L313.21,60.06L313.37,108.77L313.99,88.57L314.14,93.32L314.3,67.19L314.45,101.24L314.76,70.36L314.92,96.1L315.07,94.12L315.23,65.6L315.54,92.53L315.69,100.45L316.31,70.75L316.47,100.45L316.62,94.91L316.78,102.83L316.93,124.21L317.55,79.07L317.71,99.66L317.86,106.79L318.17,79.07L318.64,85.4L318.79,99.66L319.1,57.68L319.26,122.63L319.72,54.52L320.03,73.52L320.19,98.08L320.65,81.44L320.81,123.42L320.96,105.2L321.12,94.91L321.43,122.63L321.58,85.8L322.05,103.22L322.2,69.56L322.36,100.45L322.98,75.9L323.13,86.99L323.6,65.6L323.75,72.73L323.91,100.45L324.22,75.11L324.53,118.67L324.68,106L324.84,99.66L324.99,106.79L325.15,69.56L325.77,103.62L325.92,57.68L326.23,81.44L326.54,52.93L326.7,69.56L326.85,67.19L327.01,125.4L327.47,45.01L327.63,101.25L327.78,70.36L327.94,37.09L328.4,92.53L328.56,115.5L328.87,56.1L329.18,103.22L329.33,111.54L329.49,62.44L330.11,80.65L330.26,94.12L330.42,103.62L330.57,67.98L330.73,90.95L330.88,48.18L331.35,74.32L331.5,75.11L331.66,53.73L331.81,80.26L332.28,58.48L332.43,77.48L333.21,121.84L333.36,82.24L333.83,43.43L333.98,92.93L334.14,70.36L334.29,98.87L335.07,60.85L335.22,106.79L335.84,45.8L335.99,85.4L336.15,90.16L336.3,102.04L336.61,84.61L336.77,72.73L336.92,92.14L337.08,61.64L337.39,82.24L337.54,72.73L337.7,65.6L337.85,98.47L338.01,99.66L338.16,46.6L338.32,88.57L338.78,40.26L338.94,81.44L339.09,80.65L339.25,81.44L339.4,103.62L340.18,69.56L340.33,103.22L340.49,57.29L341.11,69.56L341.26,120.25L341.57,58.48L341.88,121.84L342.19,62.44L342.35,80.65L342.66,98.08L342.81,56.5L342.97,56.89L343.12,108.77L343.59,62.44L344.05,66L344.21,99.66L344.52,53.33L344.98,82.24L345.14,61.25L345.29,65.6L345.45,55.31L345.6,106L346.53,66.4L346.69,77.48L346.84,60.46L347.31,66.4L347.46,94.91L348.39,51.35L348.55,76.69L348.7,53.72L348.86,79.07L349.32,56.89L349.48,79.86L349.79,100.45L350.1,92.93L350.25,63.62L351.03,112.33L351.18,93.72L351.65,48.18L351.8,90.16L351.96,103.62L352.11,120.25L352.27,78.28L352.42,91.74L352.58,66.4L352.73,95.7L353.35,77.09L353.51,68.77L353.66,72.73L353.82,29.96L354.13,90.95L354.59,74.32L354.75,45.01L355.37,106.79L355.52,83.82L355.68,72.73L355.83,74.71L355.99,93.72L356.3,64.42L356.76,86.2L356.92,98.87L357.23,88.57L357.38,47.39L357.54,32.34L357.69,85.4L357.85,113.12L358,78.28L358.47,106.79L358.62,109.16L358.93,32.34L359.4,73.92L359.55,77.09L360.17,106L360.33,73.92L360.48,81.44L360.64,48.18L360.79,115.5L361.26,79.86L361.41,56.1L362.03,95.7L362.19,72.73L362.34,48.97L362.65,108.37L363.27,95.7L363.43,60.85L364.05,47.39L364.36,109.16L364.51,88.57L364.67,62.04L364.82,94.12L365.29,77.48L365.44,77.48L365.75,68.77L365.91,71.15L366.06,98.08L366.53,104.41L366.68,61.64L366.84,102.04L367.3,58.87L367.61,88.57L367.77,88.57L368.23,51.35L368.39,94.91L368.54,66.4L368.7,86.2L369.16,71.94L369.32,83.82L369.47,106.79L370.25,69.56L370.4,86.99L370.87,56.1L371.18,60.06L371.33,85.4L371.49,97.28L371.64,48.97L372.57,95.7L372.72,105.2L373.65,64.81L373.81,96.49L374.12,114.71L374.27,47.39L374.58,73.52L374.74,112.33L375.05,119.86L375.51,53.73L375.67,61.64L375.82,85.4L375.98,95.7L376.13,77.48L376.29,82.24L376.44,70.75L376.6,93.72L376.91,45.8L377.06,19.67L377.84,102.83L377.99,86.99L378.15,101.24L379.08,34.72L379.23,71.94L379.54,67.19L379.7,97.28L380.32,56.1L380.47,67.19L380.63,92.53L380.78,54.52L381.25,118.67L381.4,58.48L381.56,73.92L381.87,110.75L382.02,42.64L382.33,91.74L382.64,48.97L382.8,53.72L383.11,115.5L383.57,86.2L383.73,72.34L383.88,67.98L384.04,69.56L384.19,109.96L385.12,33.13L385.28,64.81L385.59,79.07L385.74,73.92L385.9,95.7L386.21,50.56L386.67,84.61L386.83,49.76L387.45,96.89L387.76,95.7L387.91,60.85L388.07,59.27L388.22,71.54L388.69,62.44L388.84,106.39L389.15,101.24L389.31,68.77L389.62,85.4L389.77,51.35L390.08,46.2L390.39,96.49L390.55,65.6L390.7,68.77L390.86,58.48L391.17,85.4L391.32,60.06L391.48,86.99L391.94,28.78L392.1,56.5L392.25,92.93L392.56,94.12L393.18,43.43L393.34,57.68L393.49,119.46L394.11,55.31L394.58,57.68L394.73,80.26L394.89,120.25L395.35,88.57L395.51,67.19L395.66,41.84L395.82,106L396.13,43.43L396.28,87.38L396.9,56.89L397.06,60.85L397.21,77.48L397.37,75.9L397.52,60.06L397.99,90.95L398.14,49.76L398.3,41.05L398.76,84.61L399.07,71.15L399.23,43.43L399.38,64.02L400,55.31L400.16,64.02L400.47,31.94L400.62,94.51L400.78,70.36L400.93,79.86L401.09,45.8L401.55,80.65L401.71,90.95L401.86,89.36L402.02,69.56L402.17,24.42L402.79,61.64L402.95,86.2L403.26,59.27L403.41,95.7L403.57,95.7L404.5,27.59L404.65,60.85L404.81,56.1L404.96,63.62L405.12,104.41L405.27,47.39L405.74,60.85L405.89,100.45L406.36,105.2L406.51,61.64L406.98,70.36L407.13,75.9L407.29,47.39L407.44,76.69L407.75,56.89L407.91,85.8L408.06,102.83L408.37,91.74L408.53,68.77L408.68,97.28L409.15,84.61L409.3,62.44L409.46,98.87L409.61,59.27L410.07,79.86L410.23,78.28L411,56.89L411.16,68.77L411.31,33.92L411.78,77.09L411.93,85.4L412.24,126.59L412.71,43.82L412.86,45.01L413.02,84.61L413.17,43.43L413.48,64.42L413.64,45.8L413.79,104.41L414.26,43.03L414.41,57.68L414.57,81.05L414.72,79.86L414.88,87.78L415.03,43.82L415.5,95.7L415.65,59.27L415.81,96.49L415.96,94.12L416.12,69.56L416.43,45.8L416.58,84.61L416.74,93.32L416.89,102.83L417.05,86.99L417.2,73.52L417.36,58.48L417.67,86.99L417.82,78.28L417.98,81.44L418.13,48.18L418.6,76.69L418.75,82.24L418.91,52.14L419.37,97.28L419.53,90.95L420.15,57.68L420.3,64.81L420.46,33.13L420.92,105.6L421.23,65.21L421.39,48.97L421.54,86.2L422.01,82.24L422.16,37.88L422.32,104.41L422.78,66.4L422.94,43.03L423.87,94.91L424.02,34.72L424.49,84.61L424.95,73.52L425.11,48.97L426.19,117.08L426.35,64.02L426.5,59.27L426.66,63.23L426.81,79.86L426.97,56.5L427.59,72.73L427.74,64.81L427.9,109.16L428.21,43.03L428.36,105.2L428.52,41.84L428.67,32.34L428.83,38.68L428.98,75.9L429.14,77.48L429.29,99.66L430.07,36.3L430.22,84.61L430.53,88.97L430.69,72.73L431.15,92.53L431.46,41.05L431.62,58.48L431.93,109.16L432.39,105.2L432.55,74.32L432.86,75.11L433.01,30.76L433.32,56.89L433.48,69.96L433.94,64.02L434.1,74.71L434.25,60.85L434.56,56.89L434.72,45.41L435.18,33.93L435.49,92.53L435.65,60.46L435.96,32.34L436.58,94.12L436.73,61.64L437.04,63.23L437.2,85.41L437.97,36.3L438.13,75.11L438.59,29.96L438.9,67.19L439.06,75.9L439.21,86.19L439.37,60.06L439.68,69.56L439.83,53.72L440.14,32.34L440.3,66.4L440.45,39.47L440.76,91.74L440.92,81.44L441.07,60.85L441.23,99.66L441.85,77.48L442,27.59L442.93,86.99L443.09,92.53L443.4,59.27L443.55,102.83L443.71,76.69L443.86,102.83L444.33,62.44L444.64,73.52L444.79,74.71L444.95,94.51L445.1,52.93L445.26,25.21L445.72,22.84L446.19,75.9L446.34,45.8L446.8,73.52L446.96,56.1L447.11,41.05L447.42,56.89L447.58,45.41L447.73,24.82L448.35,89.76L448.66,50.16L448.82,55.7L449.44,83.82L449.59,83.42L449.75,68.77L449.9,35.9L450.52,55.31L450.68,56.89L451.45,83.03L451.61,22.84L452.69,110.35L452.85,61.64L453,67.19L453.16,36.7L453.31,102.04L453.93,45.8L454.09,47.39L454.24,36.3L454.4,55.31L454.55,93.32L455.17,39.86L455.33,85.4L455.48,88.57L456.1,29.17L456.41,37.49L456.57,46.99L457.03,75.11L457.19,74.32L457.34,42.64L457.5,84.61L458.12,60.46L458.27,78.28L458.43,29.96L459.05,48.97L459.2,57.68L459.36,26.8L459.67,79.07L459.82,67.19L459.98,59.27L460.13,44.62L460.44,68.77L460.6,57.68L460.75,78.67L461.06,72.73L461.22,81.44L461.37,99.26L461.99,43.43L462.15,50.16L462.3,71.94L462.46,125L462.92,37.88L463.08,81.05L464.01,17.29L464.16,54.52L464.47,85.4L464.78,50.56L464.94,80.65L465.09,71.15L465.25,71.15L465.4,61.64L465.56,64.81L465.71,37.09L466.02,69.56L466.49,56.1L466.64,16.5L466.95,90.95L467.42,56.1L467.57,62.44L467.73,32.34L468.19,59.27L468.35,67.98L468.5,71.15L468.66,33.92L469.28,87.78L469.43,64.81L469.59,41.84L470.05,63.23L470.21,28.38L471.14,86.2L471.29,84.61L471.45,70.36L471.6,128.96L472.07,41.05L472.22,71.15L472.38,43.82L472.84,89.36L473,77.48L473.15,78.28L473.31,41.05L473.46,47.39L473.62,31.55L473.77,82.23L474.08,56.1L474.55,58.48L474.7,66.4L474.86,80.65L475.17,47.79L475.32,67.19L475.48,65.21L475.79,29.96L476.1,55.31L476.25,75.9L476.56,60.85L476.72,48.18L477.03,71.94L477.34,29.96L477.49,71.15L477.65,79.07L477.8,33.53L478.27,78.28L478.58,51.35L478.73,35.51L479.2,31.55L479.35,97.28L479.51,45.8L479.66,63.23L480.59,22.04L480.75,37.09L480.9,33.92L481.52,65.6L481.68,56.89L481.83,52.93L481.99,56.1L482.14,29.96L482.61,90.55L482.92,39.47L483.07,45.8L483.38,38.68L483.54,54.52L483.69,96.1L484,82.24"/><g class="points"/></g></g></g><g class="overplot"/><path class="xlines-above crisp" style="fill: none;" d="M0,0"/><path class="ylines-above crisp" style="fill: none;" d="M0,0"/><g class="overlines-above"/><g class="xaxislayer-above"><g class="xtick"><text text-anchor="middle" x="0" y="403" style="font-family: TOBESTRIPPEDOpen\ SansTOBESTRIPPED, verdana, arial, sans-serif; font-size: 12px; fill: rgb(68, 68, 68); fill-opacity: 1; white-space: pre;" transform="translate(156.70999999999998,0)">20</text></g><g class="xtick"><text text-anchor="middle" x="0" y="403" style="font-family: TOBESTRIPPEDOpen\ SansTOBESTRIPPED, verdana, arial, sans-serif; font-size: 12px; fill: rgb(68, 68, 68); fill-opacity: 1; white-space: pre;" transform="translate(253.57,0)">40</text></g><g class="xtick"><text text-anchor="middle" x="0" y="403" style="font-family: TOBESTRIPPEDOpen\ SansTOBESTRIPPED, verdana, arial, sans-serif; font-size: 12px; fill: rgb(68, 68, 68); fill-opacity: 1; white-space: pre;" transform="translate(350.43,0)">60</text></g><g class="xtick"><text text-anchor="middle" x="0" y="403" style="font-family: TOBESTRIPPEDOpen\ SansTOBESTRIPPED, verdana, arial, sans-serif; font-size: 12px; fill: rgb(68, 68, 68); fill-opacity: 1; white-space: pre;" transform="translate(447.29,0)">80</text></g></g><g class="yaxislayer-above"><g class="ytick"><text text-anchor="end" x="59" y="4.199999999999999" style="font-family: TOBESTRIPPEDOpen\ SansTOBESTRIPPED, verdana, arial, sans-serif; font-size: 12px; fill: rgb(68, 68, 68); fill-opacity: 1; white-space: pre;" transform="translate(0,384.59)">20</text></g><g class="ytick"><text text-anchor="end" x="59" y="4.199999999999999" style="font-family: TOBESTRIPPEDOpen\ SansTOBESTRIPPED, verdana, arial, sans-serif; font-size: 12px; fill: rgb(68, 68, 68); fill-opacity: 1; white-space: pre;" transform="translate(0,344.99)">15</text></g><g class="ytick"><text text-anchor="end" x="59" y="4.199999999999999" style="font-family: TOBESTRIPPEDOpen\ SansTOBESTRIPPED, verdana, arial, sans-serif; font-size: 12px; fill: rgb(68, 68, 68); fill-opacity: 1; white-space: pre;" transform="translate(0,305.39)">10</text></g><g class="ytick"><text text-anchor="end" x="59" y="4.199999999999999" style="font-family: TOBESTRIPPEDOpen\ SansTOBESTRIPPED, verdana, arial, sans-serif; font-size: 12px; fill: rgb(68, 68, 68); fill-opacity: 1; white-space: pre;" transform="translate(0,265.78999999999996)">5</text></g><g class="ytick"><text text-anchor="end" x="59" y="4.199999999999999" style="font-family: TOBESTRIPPEDOpen\ SansTOBESTRIPPED, verdana, arial, sans-serif; font-size: 12px; fill: rgb(68, 68, 68); fill-opacity: 1; white-space: pre;" transform="translate(0,226.19)">0</text></g><g class="ytick"><text text-anchor="end" x="59" y="4.199999999999999" style="font-family: TOBESTRIPPEDOpen\ SansTOBESTRIPPED, verdana, arial, sans-serif; font-size: 12px; fill: rgb(68, 68, 68); fill-opacity: 1; white-space: pre;" transform="translate(0,186.59)">5</text></g><g class="ytick"><text text-anchor="end" x="59" y="4.199999999999999" style="font-family: TOBESTRIPPEDOpen\ SansTOBESTRIPPED, verdana, arial, sans-serif; font-size: 12px; fill: rgb(68, 68, 68); fill-opacity: 1; white-space: pre;" transform="translate(0,146.99)">10</text></g><g class="ytick"><text text-anchor="end" x="59" y="4.199999999999999" style="font-family: TOBESTRIPPEDOpen\ SansTOBESTRIPPED, verdana, arial, sans-serif; font-size: 12px; fill: rgb(68, 68, 68); fill-opacity: 1; white-space: pre;" transform="translate(0,107.39)">15</text></g><g class="ytick"><text text-anchor="end" x="59" y="4.199999999999999" style="font-family: TOBESTRIPPEDOpen\ SansTOBESTRIPPED, verdana, arial, sans-serif; font-size: 12px; fill: rgb(68, 68, 68); fill-opacity: 1; white-space: pre;" transform="translate(0,67.79)">20</text></g></g><g class="overaxes-above"/></g></g><g class="polarlayer"/><g class="ternarylayer"/><g class="geolayer"/><g class="pielayer"/><g class="glimages"/><defs id="topdefs-eb3b0e"><g class="clips"/><clipPath id="legendeb3b0e"><rect width="134" height="48" x="0" y="0"/></clipPath></defs><g class="layer-above"><g class="imagelayer"/><g class="shapelayer"/></g><g class="infolayer"><g class="g-gtitle"><text class="gtitle" style="font-family: TOBESTRIPPEDOpen\ SansTOBESTRIPPED, verdana, arial, sans-serif; font-size: 17px; fill: rgb(68, 68, 68); opacity: 1; font-weight: normal; white-space: pre;" x="350" y="30" text-anchor="middle">Rewards</text></g><g class="legend" pointer-events="all" transform="translate(553.6800000000001, 60)"><rect class="bg" shape-rendering="crispEdges" style="stroke: rgb(68, 68, 68); stroke-opacity: 1; fill: rgb(255, 255, 255); fill-opacity: 1; stroke-width: 0px;" width="134" height="48" x="0" y="0"/><g class="scrollbox" transform="translate(0, 0)" clip-path="url(#legendeb3b0e)"><g class="groups"><g class="traces" style="opacity: 1;" transform="translate(0, 14.5)"><g class="layers" style="opacity: 1;"><g class="legendfill"/><g class="legendlines"><path class="js-line" d="M5,0h30" style="fill: none; stroke: rgb(31, 119, 180); stroke-opacity: 1; stroke-width: 2px;"/></g><g class="legendsymbols"><g class="legendpoints"/></g></g><text class="legendtext user-select-none" text-anchor="start" style="font-family: TOBESTRIPPEDOpen\ SansTOBESTRIPPED, verdana, arial, sans-serif; font-size: 12px; fill: rgb(68, 68, 68); fill-opacity: 1; white-space: pre;" x="40" y="4.680000000000001">Mean Reward</text><rect class="legendtoggle" style="cursor: pointer; fill: rgb(0, 0, 0); fill-opacity: 0;" pointer-events="all" x="0" y="-9.5" width="174" height="19"/></g><g class="traces" style="opacity: 1;" transform="translate(0, 33.5)"><g class="layers" style="opacity: 1;"><g class="legendfill"/><g class="legendlines"><path class="js-line" d="M5,0h30" style="fill: none; stroke: rgb(255, 127, 14); stroke-opacity: 1; stroke-width: 2px;"/></g><g class="legendsymbols"><g class="legendpoints"/></g></g><text class="legendtext user-select-none" text-anchor="start" style="font-family: TOBESTRIPPEDOpen\ SansTOBESTRIPPED, verdana, arial, sans-serif; font-size: 12px; fill: rgb(68, 68, 68); fill-opacity: 1; white-space: pre;" x="40" y="4.680000000000001">Median Reward</text><rect class="legendtoggle" style="cursor: pointer; fill: rgb(0, 0, 0); fill-opacity: 0;" pointer-events="all" x="0" y="-9.5" width="174" height="19"/></g></g></g><rect class="scrollbar" rx="20" ry="3" width="0" height="0" style="fill: rgb(128, 139, 164); fill-opacity: 1;" x="0" y="0"/></g><g class="g-xtitle"><text class="xtitle" style="font-family: TOBESTRIPPEDOpen\ SansTOBESTRIPPED, verdana, arial, sans-serif; font-size: 14px; fill: rgb(68, 68, 68); opacity: 1; font-weight: normal; white-space: pre;" x="302" y="442" text-anchor="middle">Frames in Mio.</text></g><g class="g-ytitle"><text class="ytitle" transform="rotate(-90,22,225)" style="font-family: TOBESTRIPPEDOpen\ SansTOBESTRIPPED, verdana, arial, sans-serif; font-size: 14px; fill: rgb(68, 68, 68); opacity: 1; font-weight: normal; white-space: pre;" x="22" y="225" text-anchor="middle">Reward</text></g></g></svg>