<svg class="main-svg" xmlns="http://www.w3.org/2000/svg" xmlns:xlink="http://www.w3.org/1999/xlink" width="700" height="450" style="" viewBox="0 0 700 450"><rect x="0" y="0" width="700" height="450" style="fill: rgb(255, 255, 255); fill-opacity: 1;"/><defs id="defs-a862fe"><g class="clips"><clipPath class="plotclip" id="clipa862fexyplot"><rect width="487" height="330"/></clipPath><clipPath class="axesclip" id="clipa862fex"><rect x="60" y="0" width="487" height="450"/></clipPath><clipPath class="axesclip" id="clipa862fey"><rect x="0" y="60" width="700" height="330"/></clipPath><clipPath class="axesclip" id="clipa862fexy"><rect x="60" y="60" width="487" height="330"/></clipPath></g><g class="gradients"/></defs><g class="bglayer"><rect class="bg" x="60" y="60" width="487" height="330" style="fill: rgb(255, 255, 255); fill-opacity: 1; stroke-width: 0;"/></g><g class="layer-below"><g class="imagelayer"/><g class="shapelayer"/></g><g class="cartesianlayer"><g class="subplot xy"><g class="layer-subplot"><g class="shapelayer"/><g class="imagelayer"/></g><g class="gridlayer"><g class="x"><path class="xgrid crisp" d="M0,60v330" transform="translate(157.31,0)" style="stroke: rgb(238, 238, 238); stroke-opacity: 1; stroke-width: 1px;"/><path class="xgrid crisp" d="M0,60v330" transform="translate(254.77,0)" style="stroke: rgb(238, 238, 238); stroke-opacity: 1; stroke-width: 1px;"/><path class="xgrid crisp" d="M0,60v330" transform="translate(352.23,0)" style="stroke: rgb(238, 238, 238); stroke-opacity: 1; stroke-width: 1px;"/><path class="xgrid crisp" d="M0,60v330" transform="translate(449.69,0)" style="stroke: rgb(238, 238, 238); stroke-opacity: 1; stroke-width: 1px;"/></g><g class="y"><path class="ygrid crisp" d="M60,0h487" transform="translate(0,386.55)" style="stroke: rgb(238, 238, 238); stroke-opacity: 1; stroke-width: 1px;"/><path class="ygrid crisp" d="M60,0h487" transform="translate(0,348.17)" style="stroke: rgb(238, 238, 238); stroke-opacity: 1; stroke-width: 1px;"/><path class="ygrid crisp" d="M60,0h487" transform="translate(0,309.8)" style="stroke: rgb(238, 238, 238); stroke-opacity: 1; stroke-width: 1px;"/><path class="ygrid crisp" d="M60,0h487" transform="translate(0,271.43)" style="stroke: rgb(238, 238, 238); stroke-opacity: 1; stroke-width: 1px;"/><path class="ygrid crisp" d="M60,0h487" transform="translate(0,194.69)" style="stroke: rgb(238, 238, 238); stroke-opacity: 1; stroke-width: 1px;"/><path class="ygrid crisp" d="M60,0h487" transform="translate(0,156.31)" style="stroke: rgb(238, 238, 238); stroke-opacity: 1; stroke-width: 1px;"/><path class="ygrid crisp" d="M60,0h487" transform="translate(0,117.94)" style="stroke: rgb(238, 238, 238); stroke-opacity: 1; stroke-width: 1px;"/><path class="ygrid crisp" d="M60,0h487" transform="translate(0,79.57)" style="stroke: rgb(238, 238, 238); stroke-opacity: 1; stroke-width: 1px;"/></g></g><g class="zerolinelayer"><path class="yzl zl crisp" d="M60,0h487" transform="translate(0,233.06)" style="stroke: rgb(68, 68, 68); stroke-opacity: 1; stroke-width: 1px;"/></g><path class="xlines-below"/><path class="ylines-below"/><g class="overlines-below"/><g class="xaxislayer-below"/><g class="yaxislayer-below"/><g class="overaxes-below"/><g class="plot" transform="translate(60, 60)" clip-path="url(#clipa862fexyplot)"><g class="imagelayer"/><g class="maplayer"/><g class="barlayer"/><g class="carpetlayer"/><g class="violinlayer"/><g class="boxlayer"/><g class="scatterlayer"><g class="trace scatter tracea11615" style="stroke-miterlimit: 2; opacity: 1;"><path class="js-line" d="M0,306.06L1.09,290.28L1.25,298.73L1.4,308.47L1.56,305.19L1.72,276.86L1.87,300.25L2.5,293.02L2.65,299.18L2.96,293.7L3.27,299.18L3.43,299.99L3.74,290.36L4.05,295.47L4.21,304.1L4.68,291.71L4.99,292.49L5.15,298.75L5.46,271.38L5.61,277.58L5.77,290.44L5.93,290.24L6.08,295.23L6.55,292.2L7.17,303.44L7.33,286.41L7.8,259.77L7.95,297.3L8.11,299.22L8.42,297.43L8.58,289.74L8.73,281.14L9.04,297.02L9.2,290.93L9.36,292.67L9.67,292.3L10.29,303.09L10.45,293.83L10.6,293.21L10.76,288.45L10.92,305.2L11.23,297.7L11.38,274.3L11.54,239.48L12.01,297.35L12.16,300.26L12.79,305.12L13.25,263.92L13.41,279.01L13.57,299.4L14.19,287.31L14.35,280.09L15.13,297.79L15.28,292.57L15.44,291.11L15.91,307.2L16.06,296.9L16.22,292.62L16.37,291.5L16.53,302.1L16.69,301.44L16.84,296.02L17.15,277.15L17.47,297.15L17.62,293.57L17.78,299.57L17.93,290.41L18.24,293.46L18.4,274.57L18.56,297.3L19.18,281.2L19.34,295.26L19.65,301.31L19.8,297.31L20.12,303.72L20.27,298.12L20.9,281.39L21.05,289.23L21.21,296.58L21.68,285.04L21.83,276L22.14,301.45L22.61,293.77L22.77,285.17L23.24,284.85L23.39,302.9L23.7,296.11L23.86,291.71L24.17,293.29L24.64,282.78L24.79,296.36L24.95,302.27L25.42,298.68L25.57,292.61L25.89,287.23L26.04,297.7L26.2,296.79L26.35,297.92L26.51,300.24L26.67,301.48L26.82,296.04L26.98,268.77L27.29,299.49L27.45,293.2L27.6,298.5L27.76,302.61L28.23,296.07L28.38,298.6L29,283.06L29.16,286.26L29.32,292.54L29.63,270L29.94,274.04L30.1,296.06L30.88,284.66L31.03,295.1L31.66,303.47L31.81,296.55L31.97,293.37L32.28,288.52L32.44,305.6L32.75,299.41L32.9,297.28L33.06,298.22L33.22,303.64L34.15,279.67L34.31,271.39L35.4,305.11L35.55,300.86L36.02,281.42L36.33,284.43L36.49,296.03L37.11,299L37.27,292.2L37.58,304.31L37.89,292.47L38.05,289.52L38.36,296.73L38.52,287.61L38.67,286.61L38.83,289.63L38.98,277.15L39.45,301.9L39.92,293.81L40.08,285.32L40.23,282.14L40.54,289.4L40.7,290.23L40.86,292.3L41.01,289.92L41.17,275.63L42.88,305.42L43.2,304.25L43.35,294.84L43.66,289.42L43.82,278.45L44.75,306.19L44.91,303.49L45.07,308.54L45.22,287.5L46,299.01L46.16,295.61L46.31,302.56L46.78,299.39L46.94,296.62L47.41,304.88L47.56,303.31L47.72,294.33L48.19,304.41L48.5,299.91L48.65,292.09L48.97,289.94L49.12,297.86L49.9,289.71L50.06,289.68L50.52,299.1L50.84,296.52L50.99,294.01L51.15,295.15L51.3,303.27L51.77,305.78L52.55,284.55L52.71,287.95L53.02,290.15L53.18,282.55L53.96,301.78L54.11,295.23L54.89,307.35L55.05,302.19L55.2,296.74L55.36,303.35L55.51,295.78L55.67,283.46L56.92,305.38L57.07,293.5L58.01,279.38L58.17,284.44L58.63,294.7L58.79,294.66L58.95,277.63L59.1,278.72L59.26,288.4L59.41,303.09L60.04,298.9L60.19,304.66L60.35,304.81L60.5,300.98L60.66,300.45L60.82,294.06L61.13,291.32L61.28,299.79L61.6,297.33L61.75,291.27L61.91,296.29L62.22,284.2L62.38,284.36L62.53,296.87L63,280.4L63.16,280L64.25,299.93L64.4,301.06L64.56,303.46L64.72,292.68L65.65,302.12L65.81,289.19L66.12,266.48L66.43,297.36L66.59,301.25L67.52,280.49L67.68,291.49L68.15,287.78L68.46,299.17L68.61,297.31L69.08,296.11L69.24,300.8L69.39,297.87L69.55,298.22L69.71,299L69.86,296.14L70.02,296.7L70.48,291.1L70.64,299.22L70.95,291.62L71.11,300.3L71.26,302.58L71.42,297.72L71.73,298.33L71.89,297.95L72.04,299.37L72.2,294.1L72.36,294.08L72.51,296.65L72.67,292.38L72.82,292.5L72.98,290.82L73.14,304.04L73.6,303.11L73.76,292.73L74.07,297.68L74.23,288.17L75.32,305.86L75.47,295.25L75.79,304.17L76.1,287.38L76.25,291.59L76.41,290.07L76.72,298.73L77.03,297.58L77.19,291.85L77.35,306.69L77.81,299.11L77.97,292.38L78.59,290.79L78.75,302.02L78.91,301.64L79.06,302.96L79.69,291.7L80,292.76L80.15,302.64L80.78,283.57L80.93,288.13L81.09,288.54L81.24,288.9L81.4,300L82.49,277.61L82.65,280.19L82.8,290.95L83.12,298.27L83.27,291.01L83.43,303.84L84.52,281.45L84.68,294.43L84.99,286.42L85.3,286.8L85.46,301.59L85.61,288.6L85.92,302.19L86.23,295.51L86.39,288.24L86.86,302.92L87.17,299.47L87.33,301.16L87.79,290.66L88.11,291.46L88.26,296.36L88.42,302.16L88.57,290.07L88.73,298.97L88.89,288.29L89.35,296.54L89.51,285.93L89.67,290.15L89.82,285.02L90.6,293.26L90.76,284.58L90.91,286.18L91.07,302.56L91.85,287.56L92,288.89L92.16,286.59L92.32,286.37L92.47,289.21L92.63,288.62L92.78,296.08L92.94,294.62L93.1,303.12L93.56,285.02L93.88,297.53L94.03,291.44L94.34,290.17L94.66,305.41L94.81,298.52L94.97,291.52L95.12,279.96L95.28,296.26L95.59,287.75L95.75,293.54L96.21,294.18L96.53,290.33L96.68,292.97L96.99,294.85L97.15,289.72L97.31,282.33L97.46,283.56L97.62,275.74L98.24,298.27L98.4,287.6L98.55,285.26L98.71,295.02L99.02,282.52L99.18,286.77L99.33,280.98L100.11,297.78L100.27,290.05L100.43,302.3L101.05,293.15L101.2,292.08L101.52,286.88L101.67,288.7L101.83,294.51L101.98,294.2L102.14,285.85L103.08,298.66L103.39,295.64L103.54,294.84L103.7,298.25L104.01,289.85L104.17,296.42L104.32,288.14L104.79,292.78L105.1,291.62L105.26,286.69L105.42,297.54L106.04,293.58L106.2,294.88L106.51,304.47L106.66,291.54L106.97,301.96L107.13,285.98L107.91,298.8L108.07,291.71L108.53,298.39L108.69,297.48L108.85,286.71L109,288.57L109.31,284.83L109.47,280.33L109.63,276.76L109.94,286.17L110.09,293.96L110.72,289.34L110.87,290.58L111.03,297.91L111.5,286.77L111.96,290.82L112.12,296.42L112.74,285.6L112.9,292.42L113.06,290.03L113.21,284.61L113.52,292.91L113.68,286.67L113.84,295.26L113.99,294.23L114.15,296.28L114.3,288.72L114.46,290.52L114.62,275.01L115.24,297.8L115.4,293.15L115.55,287.51L115.71,293.15L115.86,283.06L116.33,289.16L116.49,286.42L116.95,297.63L117.27,289.67L117.42,285.52L117.58,278.01L117.73,289.92L118.05,287.88L118.2,291.61L118.51,293.78L118.98,283.81L119.14,285.71L119.29,287.9L119.45,296.11L119.61,284.21L119.92,294.2L120.07,284.37L120.39,296.19L120.7,292.87L120.85,282.98L121.17,281.93L121.79,296.28L121.94,285.81L122.72,300.82L122.88,290.3L123.19,297.24L123.66,294.11L123.82,293.07L124.13,297.24L124.28,289.45L124.44,281.72L125.06,303.93L125.38,298.66L125.53,296.34L125.69,279.81L126.31,285.74L126.47,298.68L127.87,273.94L128.03,284.4L128.49,297.13L128.96,292.92L129.12,292.6L129.59,301.19L129.74,284.66L129.9,295.52L130.37,284.86L130.52,281.23L131.3,293.2L131.46,286.41L131.77,297.39L131.93,286.16L132.08,288.69L132.24,283.59L132.39,283.82L132.55,293.32L132.7,286.72L133.17,288.06L133.33,300.66L133.8,287.56L134.11,294.33L134.26,296.23L134.58,281.72L134.89,282.22L135.04,295.32L135.36,294.94L135.51,293.4L135.67,286.51L135.82,294.34L136.14,290.69L136.29,293.27L136.92,277.56L137.07,288.47L137.23,286.33L137.38,278.18L137.69,290.58L137.85,283.62L138.01,287.04L138.32,293.93L138.63,288.42L138.79,279.71L139.72,292.01L139.88,287.15L140.03,296.09L140.66,292.37L140.81,292.72L141.59,284.26L141.75,288.22L141.91,289.43L142.06,275.8L142.53,299.93L142.68,287.63L142.84,293.76L143.15,279.54L143.31,288.56L143.46,285.45L143.78,299.35L144.09,286.67L144.24,282.34L145.02,298.12L145.18,296.71L145.34,290.63L145.8,281.3L145.96,281.48L146.12,287.21L146.27,298.11L146.43,282.08L146.74,288.43L146.9,288.92L147.52,267.31L147.67,286.87L147.83,275.05L147.99,291.29L148.45,269.64L148.61,274.92L148.92,263.22L149.08,273.6L150.01,248.28L150.17,261.16L150.33,248.99L150.64,271.08L150.79,270.2L150.95,263.54L151.26,265.83L151.42,262.16L152.04,243.27L152.2,264.75L152.51,280.68L152.67,259.57L153.13,262.71L153.6,245.05L153.76,247.69L154.22,267.81L154.54,267.07L154.69,250.56L155,266.61L155.32,260.23L155.47,241.71L155.63,257.84L156.25,249.07L156.41,242.02L156.56,239.48L156.72,249.1L156.88,274.96L157.81,237.75L157.97,256.07L158.12,274.54L158.43,247.57L158.75,270.14L158.9,248.91L159.21,228.26L159.53,260.6L159.68,253.87L159.84,242.48L160.15,247.12L160.62,231.76L160.77,257.83L161.55,238.1L161.71,245.82L162.18,258.93L162.33,240.95L162.65,239.01L162.8,254.69L162.96,243.75L163.11,238.16L163.42,230.54L163.58,253.77L163.74,235.05L163.89,236.36L164.52,248.31L164.67,232.58L164.83,231.17L164.98,244.34L165.14,244.46L165.3,257.61L166.39,233.08L166.54,235.41L166.7,234.08L167.01,259.28L167.48,238.8L167.64,252.51L167.79,256.56L167.95,240.72L168.1,267.12L169.35,228.25L169.51,254.85L170.29,233.45L170.44,236.03L170.6,239.18L170.91,257.88L171.22,240.09L171.38,233.11L171.53,229.28L171.69,244.29L171.85,246.84L172,266.03L172.31,247.11L172.47,222.41L173.41,250.7L173.56,242.05L173.72,244.72L173.87,228.16L174.03,249.42L174.65,236.24L174.81,225.15L175.28,223.47L175.59,254.01L175.74,242.34L175.9,240.73L176.06,252.27L176.52,263.48L176.68,220.04L176.84,243.41L176.99,262.65L177.3,235.9L177.93,245.54L178.08,248.56L178.4,241.98L178.55,230.95L178.71,242.85L179.17,230.62L179.33,224.9L179.64,244.04L179.95,237.1L180.11,224.96L180.58,250.27L180.73,215.68L180.89,234.85L181.05,228.34L181.67,251.7L181.83,230.6L181.98,244.9L182.14,228.24L182.45,237.72L182.61,228.34L182.76,222.93L182.92,225.97L183.07,242.69L183.85,221.54L184.01,227.85L184.48,219.68L184.63,241.56L185.26,199.59L185.41,223.54L185.57,249.23L185.88,225.87L186.04,231.33L186.19,254.21L186.82,233.59L186.97,252.87L187.44,225.17L187.75,241.77L187.91,246.07L188.38,216.64L188.69,228.31L188.84,226.19L189,195.35L189.47,229.5L189.62,222.04L189.78,219L189.93,226.94L190.09,188.41L191.03,238.33L191.18,206.69L191.49,206.05L191.65,220.92L192.12,197.68L192.27,236.02L193.05,205.56L193.21,218.89L193.52,239.28L193.83,213.81L193.99,219.02L194.15,201.54L194.46,221.02L194.61,209.23L194.77,235.38L195.39,181.43L195.55,211.35L195.7,221.19L196.64,184.85L196.8,200.33L197.42,177.92L197.58,186.63L197.73,222.34L198.51,172.92L198.67,185.94L198.82,188.01L198.98,186.53L199.14,187.5L199.29,177.76L199.45,175.7L199.6,186.89L200.54,210.7L200.69,199.67L201.32,189.79L201.47,196.32L201.63,197.19L202.1,183.48L202.25,184.36L202.41,199.84L203.19,162.01L203.35,206.27L203.5,162.01L203.97,217.11L204.13,185.53L204.28,187.19L204.75,204.37L204.9,189.46L205.06,172.83L205.37,181.7L205.53,167.24L205.68,165.28L205.84,184.18L206.15,197.78L206.46,162.62L206.62,177.76L206.78,178.48L207.24,165.58L207.4,179.55L207.56,177.57L208.18,154.22L208.34,165.16L208.49,188.89L208.8,193.21L209.58,159.7L209.74,172.92L209.89,173.25L210.05,157.78L210.21,151.47L210.36,179.98L210.52,157L210.83,187.19L210.99,163.31L211.14,179.09L211.45,193.43L211.92,151.05L212.08,166.17L212.23,168.1L212.39,135.83L213.01,133.73L213.33,185.06L213.48,145.47L213.64,163.51L214.26,160.82L214.42,162.11L214.73,169.98L215.2,144.56L215.35,171.33L215.66,140.79L216.13,161.04L216.29,153.08L216.44,139.39L216.6,167.39L216.91,162.48L217.07,159.93L217.54,142.99L217.85,157.39L218,173.67L218.16,194L218.47,158.48L218.63,131L219.41,175.9L219.56,171.09L220.03,137.68L220.34,158.25L220.5,147.85L220.65,150.43L220.81,145.64L220.97,181.6L221.59,132.46L221.9,138.24L222.06,174.3L222.99,141.27L223.15,154.28L223.31,161.19L223.46,138.39L223.62,150.22L223.77,144.27L224.24,124.34L224.4,151.01L224.55,142.71L224.87,166.01L225.02,141.33L225.18,127.66L226.27,172.59L226.42,162.32L226.74,167.37L226.89,145.65L227.05,174.92L227.83,147.93L227.98,174.04L228.92,132.48L229.08,139.24L229.23,127.87L229.39,147.05L229.7,143.41L229.86,159.29L230.17,137.04L230.32,140.16L230.48,151.77L230.63,151.55L230.79,167.23L231.1,172.56L231.26,162.58L231.41,138.94L231.57,137.02L231.73,137.57L231.88,170.6L232.04,142.14L232.51,169.57L232.66,176.58L233.29,126.45L233.44,137.45L233.6,171.36L233.91,124.19L234.38,141.38L234.53,147.84L234.69,158.01L235.16,154.45L235.31,136.93L235.47,159.57L235.94,120.32L236.09,141.03L236.25,141.58L236.4,155.48L236.87,168.98L237.18,131.13L237.34,164.38L238.12,142.89L238.28,155.61L238.43,157.53L238.59,151.02L238.74,117.99L238.9,149.47L239.37,129.73L239.52,120.46L240.15,154.15L240.46,144.98L240.62,155.24L240.93,135.33L241.39,137.43L241.55,141.77L241.71,146.59L241.86,132.85L242.02,131.95L242.64,141.29L242.8,134.02L242.95,120.71L243.58,154.21L243.73,124.52L243.89,120.65L244.67,153.73L244.83,139.2L245.14,158.54L245.76,101.49L245.92,150.1L246.38,153.61L246.7,126.15L246.85,128.94L247.16,130.05L247.32,117.05L247.48,137.36L247.63,147.69L247.94,133.48L248.1,139.98L248.26,131.82L248.72,123.73L249.19,149.87L249.35,126.8L249.5,124.12L249.66,155.68L249.82,133.27L250.28,145.99L250.44,157.2L250.91,116.37L251.37,119.37L251.53,130.4L251.69,137.79L251.84,116.74L252,122.72L252.15,120.65L252.47,114.97L252.93,142.99L253.09,140.95L253.25,144.31L253.4,142.83L253.56,125.07L253.71,125.93L253.87,139.41L254.03,129.63L254.49,145.49L254.65,141.11L255.12,117.5L255.27,145.73L256.05,124.57L256.21,126.6L256.68,131.85L256.83,117.39L256.99,158.09L257.46,122.58L257.61,117.63L257.77,154.85L258.24,129.26L258.39,116.65L258.55,122.27L258.7,110.66L258.86,147.23L259.48,128.25L259.64,152.37L260.42,120.4L260.58,143.25L260.73,110.42L261.2,131.43L261.36,156.75L261.51,155.67L261.67,130.57L261.82,120.94L262.13,141.05L262.29,135.12L262.45,154.94L263.23,112.33L263.38,112.86L263.54,103.12L263.69,101.96L263.85,127.55L264.01,148.75L264.47,120.97L264.63,132.91L264.79,108.08L265.1,151.95L265.57,137.89L265.72,129.93L266.19,111.08L266.35,136.44L266.5,132.94L266.66,104.82L266.97,149.19L267.12,133.43L267.28,141.32L267.44,140.61L267.59,121.42L267.75,152.39L268.22,113.01L268.37,122.26L268.53,116.39L268.68,132.02L268.84,131.98L269,133.98L269.31,135.24L269.46,112.44L269.78,108.81L270.24,148.79L270.4,122.46L270.71,123.7L270.87,117.2L271.02,120.27L271.18,146.23L271.65,154.61L271.96,110.26L272.11,131.36L272.27,153.25L272.43,99.79L272.58,115.76L272.74,110.29L272.89,150.33L273.52,119.71L273.67,112.43L273.83,109.45L273.99,124.62L274.14,122.18L274.3,95.3L274.92,148.17L275.08,127.94L275.23,112.29L275.7,100.34L275.86,144.13L276.01,140.49L276.17,125.8L276.33,141.39L276.64,109.41L276.79,120.79L276.95,128.62L277.11,108.57L277.26,137.47L277.57,132.91L277.73,127.14L278.04,142.71L278.51,96.94L278.66,127.88L278.82,128.58L278.98,115.69L279.13,106.82L279.29,141.22L279.44,128.8L279.6,130.77L279.76,136.26L279.91,135.15L280.07,113.74L280.38,98.5L280.54,129.47L280.85,127.46L281,143.58L281.16,112.56L281.47,157.33L281.63,136.34L281.78,95.35L282.1,127.7L282.72,125.89L282.87,109.46L283.19,88.45L283.34,131.19L283.65,125.93L283.81,116.38L284.28,161.68L284.59,136.21L284.75,105.7L284.9,139.57L285.37,109.05L285.53,85.29L286.46,128.39L286.62,120.52L286.93,140.62L287.24,112.4L287.4,116.09L288.02,135.04L288.18,114.82L288.64,110.33L288.8,129.15L288.96,114.89L289.27,110.4L289.42,125.15L289.58,136.98L289.74,91.83L290.36,89.81L290.67,122.22L290.83,118.39L291.14,124.14L291.3,102.91L291.61,117.17L291.76,130.69L292.08,139.78L293.17,95.77L293.32,105.88L293.63,136.47L294.1,125.52L294.26,116.16L294.57,96.37L294.73,129.39L294.88,119.39L295.04,121.64L295.35,92.66L295.66,118.5L295.82,123.36L296.44,95.53L296.6,135.64L297.53,102.35L297.69,117.77L297.85,103.09L298.31,111.14L298.47,128.3L298.62,130.41L298.78,105.31L298.94,103.06L299.09,104.92L299.25,110.59L299.4,93.13L299.72,128.98L299.87,132.11L300.18,142.98L300.65,101.74L300.81,116.31L301.28,119.62L301.9,94.35L302.06,123.67L302.37,123.18L302.52,132L302.68,105.31L302.99,101.07L303.46,119.91L303.61,100.56L303.77,112.17L304.24,95.13L304.39,90.97L304.55,111.55L305.17,96.38L305.33,97.31L305.49,112.81L305.95,94.69L306.11,87.73L306.73,121.54L306.89,87.31L307.36,141.06L307.67,107.68L307.83,110.7L308.29,130.73L308.45,123.96L308.6,107.92L308.76,111.84L308.92,100.16L309.07,109.2L309.23,81.04L309.85,112.05L310.01,92.05L310.16,95.67L310.32,89.65L310.48,120.83L310.79,137.71L311.41,82.09L311.57,129.05L311.72,83.54L312.35,109.02L312.5,90.17L313.13,141.79L313.28,118.24L313.44,109.33L313.59,111.96L313.75,131.11L313.91,88.08L314.06,144.6L314.53,115.29L314.69,113.24L315.47,94.76L315.62,108.09L315.78,131.32L316.25,102.36L316.4,115.6L316.56,115.88L316.87,112.81L317.03,117.45L317.18,116.09L317.34,122.23L317.49,125.13L317.65,91.42L317.96,136.68L318.43,104.02L318.59,126.3L318.74,118.07L319.05,118.77L319.21,140.01L319.52,101.31L320.14,102.37L320.3,95.25L320.46,137.71L320.92,120.55L321.08,102.29L321.24,100.21L321.39,111.56L321.55,128.34L322.02,107.48L322.17,98.48L322.33,89.01L322.48,118.4L322.64,133.24L322.8,96.52L323.26,100.7L323.42,133.61L323.73,99.31L324.04,103.76L324.2,132.27L324.35,98.58L324.98,106.76L325.13,120.6L325.91,98.41L326.07,104.54L326.23,134.22L326.69,125.03L326.85,102.23L327.16,106.2L327.32,86.66L327.47,102.27L327.63,106.82L328.1,90.47L328.25,95.15L328.41,122.37L328.72,79.33L328.88,103.22L329.03,122.65L329.34,124.79L329.66,94.62L329.81,116.23L329.97,105.93L330.44,91.47L330.59,108.91L330.75,111.72L330.9,93.89L331.37,125.32L331.53,124.42L331.68,123.15L331.84,108.32L332,105.09L332.15,115.98L332.62,105.54L332.78,115.78L333.09,81.95L333.4,111.98L333.56,119.4L333.71,88.61L334.18,120.11L334.33,100.11L334.49,110.75L334.8,85.72L334.96,112.11L335.27,102.7L335.43,133.98L335.74,124.36L335.89,90.45L336.67,134.63L336.83,96.59L337.3,105.99L337.45,83.67L337.61,94.73L337.77,108.93L337.92,77.4L338.39,101.45L338.55,107.43L338.7,103.02L338.86,111.72L339.01,77.72L339.64,111.79L339.95,107.73L340.1,99.31L340.26,77.85L340.57,127.85L340.73,96.95L340.88,105.28L341.04,86.59L341.2,106.7L341.35,95.05L341.51,141.8L342.13,97.93L342.44,104.79L342.6,103.47L342.76,114.51L343.22,96.16L343.38,95.23L343.54,97.45L343.69,124.66L344.16,74.99L344.47,101.11L344.63,93.18L344.78,90.22L345.09,96.88L345.25,113.42L345.72,86.66L345.87,91.59L346.03,120.57L346.5,75.71L346.97,92.04L347.12,110.9L347.28,113.4L347.43,86.52L347.75,113.39L348.06,95.56L348.21,85.33L348.37,112.11L348.84,92.22L348.99,86.17L349.15,73L349.46,99.62L349.62,130.96L349.93,81.87L350.55,83.64L350.71,121.78L351.02,72.2L351.49,92.6L351.64,100.31L351.96,77.98L352.11,111.87L352.27,93.63L352.58,112.81L352.89,99.86L353.05,101.32L353.36,85.8L353.52,105.47L353.67,102.23L353.83,107.13L354.3,75.17L354.45,104.77L354.61,80.31L354.92,104.3L355.07,125.83L355.85,85.9L356.01,94.65L356.17,100.4L356.32,92.4L356.48,127.66L356.79,89.46L357.26,101.05L357.41,103.39L357.57,76.7L357.88,108.22L358.04,80.04L358.19,125.61L358.97,84.62L359.13,91.67L359.29,97.03L359.44,100.48L359.6,82.93L360.38,108.69L360.53,69.33L360.69,60.43L360.84,109.89L361.16,111.74L361.31,107.06L361.47,87.15L361.62,140.98L362.09,87.81L362.25,81.34L362.4,116.42L362.87,76.7L363.03,97.37L363.18,95.29L363.34,84.87L363.65,99.33L363.81,106.77L363.96,113.44L364.12,91.1L364.28,74.23L364.74,111.92L365.21,99.33L365.37,94.12L365.52,106L365.68,86.78L365.99,89.46L366.15,79.16L366.3,75.65L366.46,108.07L366.93,64.76L367.08,76.84L367.24,106.54L367.71,81.91L367.86,109.09L368.02,81.92L368.17,102.07L368.33,108.77L368.49,87.45L368.64,86.44L369.42,104.47L369.58,63.01L370.36,97.89L370.51,83.76L370.98,119.56L371.14,92.27L371.29,77.41L372.07,104.35L372.23,85.63L372.54,91.86L372.7,110.53L373.48,64.19L373.63,107.68L373.79,86.21L374.26,122.29L374.41,87.14L374.57,87.25L374.88,103.45L375.04,72.69L375.19,76.71L375.35,65.96L375.5,90.6L375.81,73.57L376.28,78.68L376.44,87.86L376.59,67.42L376.75,100.18L377.06,85.73L377.22,85.05L377.37,76.87L377.53,105.1L377.69,110.9L378.15,74.9L378.31,112.89L378.47,90.21L378.62,92.21L378.78,111.11L378.93,76.72L379.25,99.28L379.4,86.58L379.56,70.16L380.03,88.77L380.18,102.39L380.96,61.33L381.12,88.77L381.27,71.79L381.74,82.58L381.9,87.8L382.05,86.68L382.21,69.84L382.99,111.03L383.14,99.3L383.3,101.03L383.46,87.01L383.61,92.6L383.77,86.54L383.92,61.98L384.7,99.82L384.86,79.45L385.17,70.14L385.48,87.71L385.64,78.99L385.8,75.95L385.95,91.7L386.26,96.72L386.57,67.86L386.73,101.55L387.04,88.95L387.2,96.04L387.35,126.61L387.82,80.16L387.98,127.02L388.13,113.18L388.29,100.53L388.6,103.33L389.07,61.87L389.23,64.99L389.38,84.73L389.69,85.17L390.16,63.69L390.32,86.92L390.63,73.45L390.79,86.24L391.41,79.64L391.56,105.42L391.72,101.61L391.88,68.61L392.19,96.16L392.66,90.49L392.81,84.52L392.97,75.24L393.12,104.8L393.28,77.96L393.44,105.67L394.06,55.18L394.22,68.37L394.37,77.62L394.53,68.88L394.84,91.59L395,79.67L395.15,83.39L395.31,64.04L395.46,92L395.78,71.78L395.93,80.23L396.4,57.07L396.55,90.33L396.71,85.02L397.02,111.09L397.33,71.82L397.49,90.34L397.8,83.84L398.11,98.32L398.27,77.5L398.43,78.16L398.58,83.54L399.21,50.62L399.36,54.93L399.52,84.02L399.67,79.08L399.83,89.27L399.99,93.59L400.14,106.29L400.3,72.64L400.45,97.73L400.61,79.11L400.92,94.64L401.39,37.16L401.54,88.13L401.7,116.06L402.17,72.64L402.32,59.2L402.95,96.23L403.1,74.44L403.26,63.16L403.42,79.63L403.57,56.6L403.88,75.49L404.04,63.58L404.82,97.28L404.98,77.82L405.29,55.97L405.6,71.05L405.76,73.29L406.22,73.2L406.38,87.58L406.54,80.61L406.69,56.21L407.63,87.53L407.78,90.98L407.94,76.32L408.56,87.65L408.72,88.93L408.87,61.12L409.03,90.82L409.34,68.77L409.5,98.77L409.97,41.07L410.43,63.47L410.59,65.9L410.9,71.09L411.06,58.96L411.21,75.48L411.37,84.1L411.68,65.2L411.84,51.06L412.46,91.79L412.77,81.59L412.93,85.82L413.24,79.47L413.4,57.3L414.18,105.61L414.33,101.46L414.49,60.65L415.11,57.47L415.42,93.37L415.58,82.4L415.89,97.63L416.05,81.99L416.2,96.61L416.36,73.09L416.52,80.46L416.83,70.68L416.98,54.54L417.14,84.34L417.76,72.12L417.92,64.29L418.7,106.85L418.85,83.03L419.17,71.34L419.32,84.58L419.48,93.49L419.79,111.95L419.95,82.7L420.26,84.55L420.57,50.54L420.88,54.28L421.04,73.56L421.19,85.01L421.35,51.65L421.51,74.22L421.66,55.54L421.82,56.12L421.97,61.58L422.13,89L422.75,83.7L422.91,78.24L423.06,76.84L423.22,65.76L423.38,69.65L423.53,102.12L423.84,66.43L424.47,76.37L424.62,79.05L424.78,65.32L424.94,67.68L425.09,105.69L426.18,65.44L426.34,78.2L426.5,73.36L426.65,89.96L426.81,97.42L426.96,100.08L427.12,71.76L427.59,70.95L427.9,101.57L428.21,89.11L428.37,62.26L428.52,85.03L428.99,54.33L429.15,69.77L429.3,64.37L429.61,85.52L429.77,73.39L429.93,67.15L430.39,77.27L430.71,41.88L430.86,68.51L431.49,109.56L431.64,71.57L431.8,85.26L431.95,58.41L432.11,77.68L432.27,54.32L432.42,55L432.58,68.37L432.73,41.65L433.2,81.9L433.36,90.68L433.51,94L433.67,79.59L433.98,53.97L434.45,114.97L434.6,81.17L435.07,62.56L435.38,65.27L435.54,82.67L435.85,33.29L436.01,88.07L436.16,94.68L436.32,78.94L436.63,86.82L436.79,78.24L436.94,79.25L437.1,42.88L437.57,42.41L438.03,80.81L438.19,83.95L438.5,54.31L438.66,86.94L439.13,61.12L439.28,70.23L439.59,58.36L439.91,64.15L440.06,81.2L440.22,80.67L440.37,82.55L440.53,63.03L440.69,50.86L441,74.61L441.31,57.73L441.47,72.78L441.62,52.85L441.78,76.94L442.25,57.06L442.4,70.76L442.56,66.54L442.71,78.7L442.87,75.58L443.02,37.81L443.65,88.42L443.8,58.27L443.96,52.63L444.12,66.66L444.74,60.89L444.9,67.73L445.21,99.47L445.52,60.32L445.68,42.54L446.14,87.93L446.46,62.45L446.61,79.74L446.77,99.73L446.92,56.08L447.39,97.03L447.55,56L447.86,95.25L448.17,64.32L448.33,43.35L448.64,87.35L449.11,76.01L449.26,65.14L449.42,68.96L449.57,54.52L449.73,97.78L450.2,64.68L450.35,25.11L450.98,87.94L451.13,54.16L451.29,61.12L451.45,53.24L451.6,85.28L451.76,85.8L451.91,53.02L452.07,76.98L452.54,74.25L452.69,51.04L452.85,46.56L453.01,75.04L453.32,52.95L453.78,59.22L453.94,79.46L454.56,86.28L454.72,62.69L454.88,76.67L455.19,47.79L455.5,91.32L455.66,67.9L455.81,66.35L456.75,47.96L456.9,67.13L457.22,78.42L457.53,33.2L457.68,74.48L457.84,56.82L458.15,84.41L458.31,92.9L458.62,40.91L458.93,50.06L459.09,81.93L459.24,52.49L459.87,70.03L460.02,72.42L460.18,42.52L460.49,87.72L460.8,63.04L460.96,66.16L461.11,56.49L461.27,78.34L461.74,58.54L461.89,57.69L462.05,92.88L462.21,54.68L462.67,77.69L462.83,49.23L463.76,81.53L463.92,74.48L464.08,69.9L464.23,77.84L464.39,76.56L464.54,88.9L464.7,52.66L465.32,78.56L465.48,48.81L465.79,74.73L465.95,74.04L466.1,88.75L466.42,69.18L466.88,77.88L467.04,86.71L467.35,57.9L467.66,69.04L467.82,97.69L468.44,53.14L468.76,53.39L468.91,90.82L469.07,87.28L469.22,98.98L469.38,63.01L469.69,38.99L470,64.98L470.16,86.96L470.47,88.07L471.09,57.35L471.25,86.82L471.41,68.24L472.03,74.15L472.19,82.32L472.5,41.71L472.97,62.5L473.12,89.17L473.59,60.82L473.75,70.23L473.9,88.32L474.52,49.68L474.84,56.74L474.99,51.36L475.3,48.77L475.46,53.28L475.62,52.69L475.77,62.3L475.93,91.34L476.24,54.7L476.4,70.64L476.55,51.97L477.18,84.89L477.33,73.15L477.49,47.03L477.8,75.62L478.27,55.99L478.42,58.87L478.58,91.43L478.89,41.9L479.2,66.48L479.36,88.6L479.83,37.68L479.98,60.18L480.14,79.76L480.29,55.55L480.76,99.25L480.92,78.24L481.39,47.08L481.7,62.98L481.85,76.6L482.17,53.69L482.32,87.3L482.63,43.03L482.79,64.5L482.95,73.62L483.1,75.34L483.26,69.47L483.41,64.15L483.73,60.22L484.19,78.15L484.35,76.93L484.5,71.24L484.66,72.13L484.82,97.66L485.13,41.88L485.28,105.63L485.44,98.9L486.06,64.49L486.22,82.94L486.38,79.65L486.69,61.86L486.84,89.84L487,81.27" style="vector-effect: non-scaling-stroke; fill: none; stroke: rgb(31, 119, 180); stroke-opacity: 1; stroke-width: 2px; opacity: 1;"/><g class="points"/></g><g class="trace scatter trace8cbeb3" style="stroke-miterlimit: 2; opacity: 1;"><path class="js-line" d="M0,310.43L0.16,311.2L0.31,306.59L0.62,310.43L0.78,308.13L0.94,302.76L1.4,311.97L1.56,306.59L1.72,301.99L2.03,308.13L2.18,293.55L2.81,310.05L3.12,306.59L3.27,298.15L4.21,308.13L4.37,309.66L4.52,308.9L4.68,301.22L4.83,305.06L5.3,302.76L5.46,292.78L5.77,309.66L6.24,306.98L6.39,304.29L6.86,311.2L7.02,309.66L7.17,306.21L7.64,284.34L7.8,261.7L7.95,311.97L8.58,299.69L8.73,301.22L8.89,307.74L9.2,300.45L9.36,305.83L9.51,300.45L9.67,300.45L9.82,308.51L9.98,311.58L10.29,310.43L10.45,304.67L10.92,308.13L11.38,290.86L11.54,242.9L12.01,307.74L12.48,302.76L12.63,309.66L12.79,309.66L12.94,306.98L13.25,288.94L13.41,300.45L13.57,307.36L13.72,307.36L13.88,296.62L14.03,292.78L14.5,299.3L14.66,306.21L14.97,306.59L15.13,305.83L15.28,301.22L15.44,301.22L15.59,306.59L15.91,312.73L16.06,302.76L16.22,299.69L16.69,309.66L16.84,307.36L17,300.45L17.15,292.01L17.47,307.36L17.62,307.36L17.78,307.36L18.4,301.22L18.71,302.76L18.87,301.99L19.18,293.93L19.34,303.52L19.49,302.76L19.65,303.52L19.8,303.14L19.96,304.29L20.12,309.66L20.58,285.87L20.74,304.29L20.9,280.88L21.52,298.15L21.68,295.85L21.83,284.34L22.14,305.06L22.3,308.13L22.46,309.66L22.61,301.22L23.55,308.13L23.7,305.06L24.01,300.45L24.33,304.29L24.48,306.59L24.64,303.91L24.95,310.43L25.11,310.43L25.26,302.37L25.89,304.29L26.04,309.28L26.2,310.43L26.35,303.52L26.67,310.81L26.82,308.9L26.98,293.93L27.6,311.2L27.91,309.66L28.07,310.05L28.85,299.69L29,295.85L29.32,302.76L29.47,298.92L29.63,286.64L30.56,311.2L30.72,302.37L30.88,295.85L31.19,308.13L31.34,305.83L31.5,305.44L31.81,302.76L31.97,304.29L32.12,307.36L32.28,306.59L32.44,310.43L32.9,304.29L33.06,306.59L33.22,313.12L34.77,295.85L34.93,300.45L35.55,311.97L35.71,308.13L35.87,305.44L36.02,299.69L36.65,301.99L36.8,305.06L36.96,305.06L37.11,307.36L37.27,304.29L37.58,310.43L37.74,308.9L37.89,308.13L38.05,299.69L38.67,302.76L38.83,305.06L38.98,295.08L39.45,310.43L39.61,309.66L40.54,291.24L40.7,296.62L40.86,303.52L41.01,308.9L41.17,295.85L41.32,290.48L42.1,305.06L42.26,303.14L42.42,301.99L43.2,311.97L43.35,307.74L43.51,311.58L43.66,311.2L43.82,297.38L44.29,292.01L44.75,308.9L44.91,307.36L45.07,311.2L45.38,303.91L45.53,301.99L45.69,303.52L45.85,298.92L46,308.13L46.78,302.76L46.94,304.29L47.09,309.66L47.56,305.83L47.72,301.99L48.19,311.97L48.34,308.51L48.5,305.83L49.28,298.92L49.43,308.13L50.06,299.69L50.21,301.99L50.37,303.52L50.68,308.13L50.84,301.22L51.15,310.05L51.77,308.9L51.93,308.51L52.55,298.15L52.71,302.76L52.86,304.29L53.18,300.84L53.33,305.44L53.49,307.36L53.64,300.45L53.96,310.43L54.27,305.83L54.42,306.59L54.89,312.73L55.05,307.36L55.2,304.67L55.36,308.9L55.67,300.45L55.98,305.83L56.14,305.06L56.61,313.5L56.92,308.13L57.07,305.06L57.23,298.15L57.85,302.76L58.01,297.38L58.32,307.36L58.79,301.99L58.95,305.44L59.1,305.06L59.26,308.13L59.41,310.43L59.57,306.98L59.72,302.76L60.35,308.9L60.5,308.51L60.66,305.06L60.82,305.06L60.97,303.52L61.13,301.99L61.44,305.83L61.6,305.83L61.91,307.36L62.22,298.92L62.69,299.69L62.84,301.22L63,302.76L63.16,297L63.47,309.66L63.94,303.91L64.09,303.14L64.25,302.76L64.4,308.13L64.56,308.9L64.72,303.52L65.34,310.43L65.49,307.36L65.65,308.9L65.96,291.24L66.27,293.55L66.43,306.59L66.59,310.43L66.74,302.76L67.05,306.98L67.21,305.06L67.37,305.83L67.52,298.92L68.46,307.36L68.61,307.74L69.24,308.13L69.55,301.99L69.71,304.67L70.02,308.9L70.17,304.29L70.33,305.83L70.48,299.69L71.26,311.97L71.42,308.13L72.2,301.6L72.36,306.59L72.51,309.66L72.82,302.76L73.14,308.13L73.29,308.13L73.6,311.2L74.23,305.44L74.38,307.36L74.54,309.66L74.7,304.29L74.85,300.45L75.32,311.58L75.63,307.36L75.79,310.43L76.41,297L76.57,299.69L76.72,304.29L77.03,303.14L77.19,305.06L77.35,308.9L77.66,303.52L78.28,304.29L78.44,302.76L78.91,309.66L79.22,308.9L79.37,303.52L79.53,305.06L79.69,298.92L79.84,306.59L80.31,301.22L80.46,297.77L81.4,308.9L81.56,307.36L82.34,299.69L82.49,289.71L83.43,310.05L83.58,308.9L83.74,301.99L84.05,305.83L84.21,309.66L84.68,303.52L84.83,311.2L85.14,304.29L85.3,303.14L86.08,310.43L86.23,304.29L86.39,304.29L86.55,311.97L87.79,302.37L87.95,309.66L88.42,311.2L88.57,301.99L88.73,311.97L89.51,301.6L89.67,305.44L89.82,304.29L89.98,310.43L90.45,299.69L90.76,306.21L90.91,303.52L91.07,308.9L91.54,307.36L91.69,301.99L92,300.84L92.16,307.36L92.32,302.76L92.47,302.76L92.78,309.66L93.1,305.44L93.25,303.52L93.56,299.3L93.72,303.91L94.19,309.66L94.66,309.28L94.81,304.29L95.28,307.36L95.44,301.6L95.59,301.22L95.75,306.59L96.68,299.69L96.84,299.3L96.99,305.83L97.46,294.7L97.62,288.56L98.24,310.05L98.55,301.22L98.71,303.52L98.87,305.06L99.02,302.76L99.18,298.15L99.49,308.9L99.65,303.91L99.8,300.45L100.27,299.69L100.43,310.43L100.58,306.59L100.74,305.06L101.2,304.29L101.36,305.83L101.52,302.76L101.67,299.69L101.83,305.06L101.98,301.99L102.14,306.98L102.3,302.76L102.45,308.13L102.92,303.52L103.08,309.28L103.54,298.15L104.01,303.14L104.17,305.83L104.48,299.69L104.95,303.52L105.1,305.83L105.26,301.22L105.57,307.36L105.73,302.76L105.88,309.28L106.51,311.97L106.66,301.99L106.82,308.9L107.44,302.76L107.6,309.66L108.07,300.45L108.22,306.98L109.31,297.38L109.47,299.69L109.63,303.52L109.78,300.84L110.09,305.83L110.25,304.29L110.41,305.83L110.56,306.59L110.72,300.45L111.03,305.06L111.34,299.69L111.5,301.99L111.65,300.45L111.81,307.74L112.43,305.06L112.59,308.13L113.37,294.31L113.52,302.76L113.68,297.77L113.99,309.66L114.15,308.13L114.62,296.23L114.77,305.83L115.24,307.36L115.86,298.92L116.02,301.22L116.18,300.07L116.33,306.59L116.8,298.92L117.11,300.45L117.27,305.83L117.58,293.55L118.05,301.99L118.2,305.06L118.36,305.06L118.51,300.45L119.45,308.9L119.61,293.55L120.39,304.29L120.54,302.76L120.7,302.76L120.85,299.69L121.01,298.92L121.17,299.69L121.32,305.06L121.48,300.84L121.63,306.98L121.94,306.59L122.1,305.06L122.26,301.22L122.57,307.36L122.72,309.66L123.04,301.6L123.19,307.36L123.35,297.38L124.13,306.59L124.28,303.52L124.44,297L124.6,307.36L124.91,306.59L125.06,308.13L125.69,293.55L125.84,302.37L126,301.99L126.16,302.76L126.31,303.91L126.47,307.36L126.93,306.21L127.09,301.99L127.56,306.59L127.87,292.4L128.03,306.59L128.81,298.15L128.96,305.83L129.43,308.9L129.74,301.99L129.9,308.51L130.21,310.05L130.52,297.38L130.83,301.99L130.99,302.37L131.15,299.69L131.46,306.59L131.61,303.52L131.77,305.83L132.24,299.3L132.39,303.52L132.55,307.36L133.17,301.99L133.33,308.9L133.95,300.45L134.11,305.06L134.26,308.13L134.58,301.22L135.04,305.83L135.2,302.37L135.36,301.99L135.51,302.76L135.67,303.52L135.82,303.91L135.98,309.66L136.45,298.15L136.92,300.84L137.07,303.52L137.23,294.31L137.85,297.77L138.01,300.45L138.16,307.36L138.63,302.76L138.79,300.45L139.25,308.51L139.41,300.07L139.72,306.59L139.88,302.37L140.03,305.83L140.5,303.52L140.66,302.76L140.97,304.29L141.13,300.45L141.28,307.36L142.06,290.09L142.22,299.69L142.37,295.08L142.53,306.98L142.68,300.45L142.84,304.29L143.46,296.23L143.62,303.52L143.78,307.36L144.56,300.07L144.71,300.45L144.87,303.52L145.18,305.83L145.34,300.45L145.49,301.99L145.65,297.38L145.8,300.45L145.96,297.38L146.12,296.62L146.27,303.52L146.9,304.29L147.21,298.15L147.36,297.38L147.52,290.48L147.67,305.83L148.14,294.31L148.3,296.62L148.45,299.3L148.61,292.01L148.77,298.15L148.92,290.48L149.08,296.62L149.23,283.95L149.39,291.24L149.55,273.59L149.7,293.55L150.33,283.19L150.48,292.01L150.79,296.62L151.11,285.1L151.26,294.31L151.57,277.43L152.04,279.73L152.2,299.69L152.51,305.83L152.82,273.59L152.98,289.71L153.13,295.85L153.44,291.24L153.6,255.17L154.07,304.29L154.54,297.38L154.69,262.08L154.85,296.23L155.32,284.34L155.47,265.15L155.63,297L156.25,282.03L156.41,285.87L156.56,258.24L156.88,295.08L157.03,289.71L157.19,295.08L157.81,266.69L157.97,275.13L158.12,300.45L158.43,278.58L158.9,282.03L159.06,292.78L159.53,293.55L159.99,236.76L160.15,295.08L160.93,238.29L161.09,289.71L161.55,255.94L162.02,263.62L162.18,284.34L162.8,287.79L163.11,249.03L163.27,272.06L163.42,232.15L163.74,291.24L163.89,242.9L164.05,282.8L164.52,283.19L164.67,246.73L164.83,250.57L164.98,273.59L165.14,250.57L165.3,286.64L165.61,274.36L165.76,277.43L166.08,288.17L166.23,275.9L166.39,235.99L166.7,236.76L166.86,273.59L167.01,285.1L167.17,275.13L167.32,246.73L168.1,297.38L168.26,289.71L168.41,268.6L168.57,297.77L168.73,252.87L169.04,286.64L169.19,241.74L169.35,228.7L169.51,266.69L169.66,261.31L169.82,268.99L170.13,281.65L170.29,259.4L170.44,278.97L170.6,260.16L171.07,296.23L171.22,266.69L171.38,244.43L172,303.91L172.31,275.9L172.47,241.36L172.63,235.99L172.78,265.15L173.09,234.45L173.25,273.59L173.41,267.84L173.56,277.05L173.87,248.27L174.18,267.45L174.34,269.76L174.81,228.31L174.96,278.97L175.12,278.2L175.28,234.84L175.59,286.64L175.9,264.38L176.06,282.8L176.52,288.17L176.68,221.41L176.84,275.9L176.99,285.1L177.15,265.92L177.3,249.8L177.77,292.78L178.08,281.27L178.24,272.83L178.55,235.99L179.02,258.24L179.17,285.87L180.11,218.34L180.27,288.94L180.73,221.41L181.2,231.38L181.36,249.03L181.51,245.2L181.67,282.8L182.14,229.85L182.45,265.15L182.61,232.92L183.07,268.99L183.23,253.64L183.39,249.8L183.54,257.48L183.7,224.48L184.01,267.45L184.32,254.41L184.48,232.15L184.63,275.9L185.1,214.5L185.26,216.03L185.57,278.58L185.88,254.41L186.04,248.27L186.35,293.93L186.66,280.5L186.82,245.96L186.97,279.73L187.44,237.52L187.6,269.76L187.75,279.73L187.91,282.8L188.06,234.45L188.38,220.64L188.53,241.74L188.69,263.62L188.84,258.24L189,218.72L189.62,256.71L189.78,230.62L189.93,233.69L190.09,220.64L190.25,206.83L190.4,233.69L190.56,227.55L190.71,232.92L190.87,216.8L191.03,281.27L191.96,193.01L192.12,212.2L192.27,252.1L192.74,229.08L192.9,210.66L193.05,213.73L193.21,241.74L193.52,267.45L193.68,204.52L194.15,209.51L194.3,224.48L194.46,261.31L194.61,218.34L194.92,221.79L195.08,190.71L195.39,182.65L195.7,250.57L195.86,201.07L196.02,200.3L196.17,201.45L196.33,220.64L196.95,181.5L197.11,187.64L197.26,184.57L197.42,179.2L197.58,191.48L197.73,234.45L198.51,175.36L198.67,179.96L198.82,184.57L198.98,184.57L199.14,197.23L199.29,152.34L199.76,175.74L199.91,195.7L200.23,174.59L200.38,215.27L200.54,212.96L200.69,196.85L201.01,207.59L201.16,206.83L201.32,189.17L201.47,189.94L201.63,206.06L202.57,165.77L202.72,188.79L203.19,156.94L203.35,199.15L203.5,157.71L203.81,204.52L203.97,238.29L204.28,169.22L204.75,207.59L204.9,193.01L205.53,155.02L205.68,159.24L205.84,159.24L206.15,208.36L206.31,196.08L206.46,149.27L206.78,179.96L206.93,159.24L207.09,161.16L207.24,158.48L207.4,183.8L208.02,143.89L208.34,157.71L208.49,176.89L208.8,179.96L208.96,154.64L209.12,184.57L209.58,143.51L209.89,160.78L210.05,157.33L210.21,143.89L210.36,191.48L210.67,160.39L210.83,176.13L210.99,151.57L211.45,186.49L211.61,185.34L212.39,142.36L212.55,160.01L213.01,141.59L213.17,153.1L213.33,163.08L213.48,138.52L213.95,159.24L214.11,164.62L214.26,144.66L214.73,165.38L214.89,146.96L215.04,148.12L215.2,136.22L215.35,150.03L215.82,142.36L215.98,157.71L216.44,140.44L216.6,158.86L216.76,142.36L216.91,160.01L217.85,143.89L218,161.93L218.32,173.06L218.47,136.99L218.63,131.62L218.78,159.24L218.94,137.75L219.41,170.76L219.56,159.63L220.19,134.69L220.34,151.57L220.5,141.59L220.65,141.21L220.81,130.08L220.97,176.89L221.43,131.62L221.59,133.92L221.9,130.85L222.06,175.36L222.37,156.17L222.53,147.73L222.84,142.36L223.15,146.2L223.31,156.56L224.24,110.13L224.4,151.95L224.87,152.34L225.49,122.41L225.64,169.99L225.8,134.69L226.27,175.36L226.42,152.72L226.58,143.89L227.05,176.89L227.2,136.22L227.36,149.27L227.52,152.34L227.67,151.95L227.83,147.73L227.98,155.41L228.14,139.29L228.3,151.57L228.45,125.48L229.39,151.95L229.54,133.15L230.48,160.78L230.63,140.44L231.1,166.15L231.26,146.58L231.41,141.59L232.66,164.23L232.82,140.82L233.13,151.57L233.29,126.24L233.44,134.69L233.6,160.01L233.91,130.46L234.38,141.59L234.53,143.13L234.69,166.92L235.16,150.03L235.31,129.31L235.47,150.03L235.94,117.03L236.09,127.39L236.4,156.17L237.03,154.64L237.18,138.52L237.34,157.71L237.96,143.89L238.12,142.36L238.28,142.36L238.43,151.57L238.59,160.01L238.74,134.69L238.9,151.57L239.06,141.98L239.21,121.64L239.68,136.99L239.84,144.28L239.99,136.99L240.15,155.02L240.46,141.59L240.62,148.5L240.93,133.92L241.24,140.06L241.39,148.12L241.86,117.03L242.17,122.41L242.33,149.27L242.49,122.41L243.11,140.06L243.27,138.52L243.89,117.03L244.05,137.76L244.36,135.07L244.67,151.57L244.83,150.03L244.98,133.15L245.14,146.96L245.45,111.66L245.61,132L245.76,115.5L246.38,155.41L246.54,143.13L246.7,136.99L247.01,105.52L247.16,127.01L247.32,129.31L247.63,156.17L247.79,128.55L247.94,136.6L248.1,123.17L248.26,121.64L248.41,138.52L248.57,138.52L248.72,117.03L249.66,161.55L249.82,136.22L250.28,128.55L250.44,149.27L250.6,127.01L250.75,130.08L250.91,120.87L251.22,128.55L251.37,123.94L251.53,122.41L251.69,153.87L251.84,111.28L252.47,127.78L252.62,143.13L253.09,136.99L253.25,150.03L253.4,158.48L253.56,117.8L253.87,146.2L254.49,142.36L254.65,136.6L254.96,107.06L255.12,116.65L255.27,150.8L256.21,118.57L256.37,138.14L256.52,143.89L256.68,134.69L256.83,112.43L256.99,143.89L257.61,125.48L257.77,146.96L258.55,105.91L258.7,117.03L258.86,150.42L259.48,121.26L259.8,130.85L259.95,145.05L260.26,98.23L260.42,111.66L260.58,145.05L260.73,108.98L261.2,124.71L261.36,149.65L261.98,106.29L262.13,138.52L262.29,138.14L262.45,146.2L262.6,126.24L262.76,127.01L262.91,130.85L263.38,98.62L263.69,103.99L263.85,137.76L264.32,146.58L264.47,127.78L264.94,113.2L265.1,138.14L265.25,114.73L265.57,132.38L265.88,108.59L266.03,127.01L266.19,111.66L266.66,87.87L266.97,143.13L267.12,131.62L267.28,128.55L267.44,140.06L267.75,148.12L268.53,103.99L268.68,140.06L269.46,117.03L269.62,135.45L269.78,107.82L270.24,140.82L270.4,134.69L270.56,135.45L270.71,129.31L271.02,99.38L271.34,114.73L271.49,140.82L271.65,153.87L271.8,127.01L271.96,103.22L272.11,106.29L272.27,127.78L272.43,97.08L272.89,139.67L273.05,111.66L273.21,127.01L273.36,137.76L273.52,108.59L273.67,120.87L273.83,113.96L273.99,112.43L274.14,130.85L274.3,102.84L274.45,132.38L274.77,120.1L274.92,151.57L275.7,110.13L275.86,131.62L276.01,140.83L276.17,119.34L276.33,139.29L276.48,117.03L276.64,108.59L276.79,131.62L277.11,120.87L277.26,134.69L277.57,140.06L277.88,81.73L278.04,135.45L278.51,88.64L278.66,123.94L278.82,134.69L279.13,113.96L279.44,138.91L279.6,123.94L279.76,119.34L279.91,136.22L280.38,107.82L280.54,129.31L280.69,133.15L280.85,139.29L281,133.92L281.16,103.99L281.47,151.57L281.63,140.82L281.78,81.35L282.72,123.94L282.87,114.73L283.03,116.27L283.19,84.8L283.65,146.96L283.97,140.06L284.12,130.08L284.28,166.92L284.43,117.8L284.59,128.55L284.75,101.3L285.37,132.38L285.53,64.85L286.46,119.34L286.62,133.15L287.09,135.84L287.4,117.8L287.55,118.19L287.71,125.48L288.02,141.59L288.18,114.35L288.33,129.31L288.49,119.34L288.8,106.29L288.96,134.3L289.11,118.57L289.27,99.77L289.58,140.44L289.74,86.34L290.05,120.87L290.2,94.78L291.14,128.16L291.3,102.84L291.45,90.17L291.61,119.34L291.76,143.13L292.08,144.66L293.17,98.62L293.32,123.17L293.79,138.52L294.26,109.36L294.41,99.38L294.57,77.13L294.73,132.38L295.19,94.78L295.35,85.57L295.66,124.32L296.13,95.55L296.29,91.71L296.44,95.55L296.6,141.59L297.07,92.48L297.53,105.52L297.69,118.57L297.85,99.77L298.47,106.29L298.62,133.15L299.4,89.41L299.56,94.78L299.72,127.39L299.87,140.06L300.18,132.38L300.34,113.2L300.65,90.94L300.81,113.2L300.96,119.34L301.12,118.57L301.28,126.24L301.59,130.85L301.9,97.08L302.06,128.55L302.52,148.5L302.68,105.52L302.84,128.55L303.61,88.64L303.77,138.52L304.39,96.31L304.55,127.01L304.71,97.85L305.17,104.75L305.33,87.87L305.49,115.5L305.64,121.64L305.8,116.27L305.95,95.16L306.11,66.38L306.58,113.96L306.73,115.5L306.89,90.94L307.2,94.78L307.36,141.21L307.51,82.12L307.98,130.08L308.14,134.69L308.6,85.19L308.92,107.82L309.07,118.95L309.23,61.01L309.7,92.48L309.85,122.41L310.32,87.1L310.48,137.75L310.63,102.45L310.79,136.99L311.72,64.08L311.88,95.55L312.04,74.06L312.35,114.35L312.5,97.85L312.66,118.57L312.97,90.94L313.13,130.08L313.28,126.24L313.44,127.01L313.59,103.22L313.91,78.66L314.06,151.57L314.22,110.89L314.37,86.34L315,113.2L315.15,102.45L315.31,81.73L315.47,80.2L315.62,113.58L315.78,132.38L316.25,103.22L316.4,97.08L316.56,97.08L316.71,110.89L316.87,108.59L317.03,114.73L317.18,114.35L317.34,118.95L317.49,135.45L317.65,72.52L318.12,125.86L318.27,80.96L319.21,150.8L319.36,130.08L319.52,98.62L320.14,100.15L320.3,93.63L320.61,138.52L320.92,106.29L321.08,84.8L321.86,128.55L322.02,95.55L322.17,101.69L322.33,71.76L322.64,127.78L323.11,118.57L323.26,91.71L323.42,133.92L323.58,86.34L323.89,110.13L324.04,84.03L324.2,123.56L324.82,112.81L324.98,110.13L325.13,129.31L325.29,99.38L325.6,103.6L325.76,113.2L325.91,85.95L326.23,141.59L326.38,98.62L326.54,117.8L327.79,80.96L327.94,90.94L328.1,90.17L328.25,94.01L328.41,127.01L328.72,88.64L329.03,113.96L329.19,107.06L329.34,123.94L329.66,85.57L329.81,106.29L329.97,100.92L330.44,80.58L330.59,112.43L330.75,110.13L330.9,72.91L331.37,128.55L331.84,114.73L332,108.98L332.15,126.24L332.46,105.14L332.62,116.27L332.78,107.82L332.93,83.27L333.4,107.82L333.56,110.13L333.71,79.05L334.02,127.78L334.33,80.58L334.49,80.96L335.43,135.07L335.58,125.48L335.74,122.02L335.89,93.24L336.36,98.62L336.52,121.64L337.3,81.73L337.45,100.92L337.77,108.59L338.08,80.96L338.23,104.75L338.39,92.48L338.55,119.72L338.7,108.59L338.86,116.27L339.48,65.62L339.64,103.99L339.79,91.71L340.26,85.95L340.57,119.72L340.73,81.73L341.35,75.59L341.66,129.31L341.82,96.31L342.13,112.81L342.29,112.43L342.44,97.08L342.76,106.67L342.91,85.19L343.22,85.95L343.38,88.64L343.54,80.96L343.69,111.66L344.16,52.57L344.47,103.22L344.63,105.52L344.94,67.92L345.09,83.27L345.25,130.08L345.72,76.36L345.87,90.17L346.03,126.63L346.5,57.94L346.81,85.57L346.97,100.92L347.12,111.66L347.28,107.06L347.43,78.66L347.59,96.31L348.06,94.78L348.21,77.89L348.37,123.17L348.99,87.87L349.15,64.46L349.46,77.13L349.62,123.17L350.55,70.99L350.71,117.8L350.86,64.08L351.33,120.87L351.49,98.62L351.64,119.34L351.96,54.87L352.42,111.66L352.58,111.66L352.74,115.5L352.89,97.85L353.05,113.2L353.36,82.5L353.67,108.59L353.83,87.1L353.98,101.3L354.3,64.85L354.45,96.31L354.61,69.07L355.07,117.8L355.39,98.62L355.54,96.31L355.7,97.85L355.85,68.69L356.48,121.64L356.63,114.73L356.79,81.73L357.41,113.2L357.57,100.15L357.73,89.41L358.04,67.92L358.19,120.87L358.35,88.64L358.51,89.41L358.66,119.34L358.97,74.82L359.13,77.13L359.29,84.03L359.75,82.5L360.07,107.06L360.22,92.48L360.38,95.55L360.53,66.38L360.84,128.55L361,107.82L361.16,96.31L361.47,82.5L361.62,128.55L362.72,70.22L362.87,64.85L363.81,110.89L363.96,111.66L364.12,77.13L364.74,77.51L364.9,85.95L365.37,84.03L365.52,118.19L365.68,69.45L365.99,62.16L366.46,117.8L366.61,85.19L366.93,48.73L367.08,74.82L367.24,107.06L367.39,106.29L367.55,96.7L367.86,113.2L368.02,73.67L368.17,93.63L368.33,120.87L368.64,70.22L369.11,103.22L369.27,75.98L369.42,102.45L369.58,67.92L370.05,97.08L370.2,90.94L370.36,92.48L370.51,82.5L370.98,114.73L371.14,84.8L371.29,69.45L371.6,98.62L371.92,61.78L372.07,77.9L372.23,81.73L372.38,77.89L372.54,78.66L372.7,100.15L372.85,110.13L373.01,64.85L373.16,72.52L373.48,69.45L373.63,119.72L373.79,74.06L374.41,99.38L374.57,82.12L374.72,97.85L375.04,68.69L375.19,75.59L375.35,61.01L375.97,100.92L376.13,85.57L376.28,68.3L376.44,71.75L376.59,53.34L377.53,117.03L377.69,118.57L378.15,58.71L378.47,80.2L378.62,77.13L378.93,70.22L379.25,94.01L379.4,78.66L379.71,59.09L379.87,71.76L380.03,94.78L380.18,108.59L380.34,94.78L380.49,67.92L380.65,46.43L380.8,108.59L381.12,63.7L381.27,78.66L381.43,101.69L381.58,64.08L381.9,73.29L382.05,66.39L382.36,61.78L382.52,65.62L382.68,84.03L382.83,71.75L382.99,108.59L383.14,119.72L383.92,57.94L384.08,92.09L384.39,69.45L384.7,99.38L384.86,70.22L385.02,79.43L385.17,60.63L385.64,64.85L385.8,78.66L385.95,85.19L386.26,83.27L386.42,57.94L387.35,128.55L387.51,59.86L388.13,116.27L388.29,75.21L388.6,100.15L389.07,52.57L389.23,55.64L389.38,68.69L389.85,93.24L390.01,65.62L390.16,40.67L390.94,114.73L391.1,98.62L391.25,71.75L391.41,57.17L391.56,112.43L392.5,63.31L392.66,79.43L393.12,68.69L393.28,84.8L393.44,103.99L394.06,44.13L394.22,70.99L394.37,78.66L394.53,66.77L394.68,91.71L394.84,103.22L395,47.96L395.62,62.55L395.78,71.75L395.93,76.36L396.09,59.86L396.24,58.71L396.4,50.27L396.55,95.55L397.02,100.15L397.33,62.93L397.49,93.63L397.65,92.48L397.8,69.45L397.96,95.55L398.27,68.69L398.43,75.6L398.58,71.76L399.05,72.52L399.21,37.6L399.36,37.99L399.52,77.9L399.67,57.94L399.99,91.71L400.14,112.43L400.61,58.32L400.92,89.41L401.08,76.36L401.23,71.75L401.39,32.62L401.7,103.6L402.17,68.69L402.32,55.64L402.79,64.85L402.95,93.24L403.57,39.52L403.88,53.34L404.04,57.94L404.82,94.78L404.98,74.82L405.6,40.29L405.76,70.6L405.91,75.59L406.38,89.41L406.69,54.87L406.85,85.57L407,49.88L407.47,86.34L407.63,86.34L407.94,49.88L408.25,68.69L408.41,80.96L408.56,89.41L408.72,70.99L408.87,52.57L409.34,51.8L409.5,85.57L409.65,64.85L409.81,68.69L409.97,41.06L410.12,69.45L410.43,48.73L410.59,64.85L410.9,79.43L411.06,44.51L411.37,91.71L411.84,57.56L411.99,70.22L412.3,68.68L412.46,82.5L412.62,42.59L413.08,81.35L413.4,56.41L413.55,65.62L413.71,66.38L413.86,54.87L414.18,102.45L414.49,43.36L414.64,99.77L414.8,56.41L414.96,51.8L415.27,62.55L415.42,78.66L415.58,70.22L415.74,103.22L416.2,87.87L416.36,59.09L416.83,55.64L417.14,88.64L417.29,81.73L417.45,63.31L417.76,48.73L417.92,72.52L418.07,78.28L418.23,74.06L418.39,54.49L418.7,110.13L418.85,85.57L419.01,48.73L419.79,104.75L419.95,57.17L420.1,77.13L420.73,64.08L420.88,57.94L421.04,57.17L421.19,78.28L421.66,31.08L421.82,44.13L421.97,80.96L422.28,75.59L422.44,77.9L422.6,57.17L423.53,102.45L423.69,94.78L423.84,47.2L424,107.06L424.62,82.5L424.78,67.15L424.94,53.34L425.09,92.09L425.25,77.13L425.4,84.8L425.72,73.29L425.87,97.85L426.18,41.06L426.65,84.8L426.81,78.66L427.12,51.03L427.43,92.48L427.59,48.73L428.05,122.02L428.21,64.85L428.37,58.71L428.83,93.24L428.99,34.92L429.61,76.74L429.77,50.65L429.93,46.43L430.39,70.22L430.55,31.08L431.49,110.13L431.64,77.9L431.8,88.64L432.27,34.92L432.73,41.06L432.89,55.64L433.2,52.19L433.51,87.49L433.67,54.88L433.98,50.27L434.45,108.98L434.6,88.64L434.76,43.36L435.54,75.59L435.7,67.15L435.85,17.27L436.16,90.17L436.32,59.09L436.48,67.15L436.94,70.99L437.1,53.72L437.26,24.94L437.72,48.35L437.88,56.41L438.35,83.27L438.66,74.82L438.81,67.15L438.97,68.69L439.13,81.35L439.59,49.12L439.91,56.41L440.06,66.38L440.22,62.16L440.37,68.68L440.53,41.83L440.69,33.38L440.84,83.27L441.62,31.46L441.78,67.15L442.09,45.66L442.25,54.87L442.4,74.82L443.02,21.87L443.34,39.14L443.49,88.64L443.65,84.8L443.8,44.13L443.96,42.21L444.12,62.93L444.74,44.13L444.9,67.92L445.05,68.69L445.21,79.43L445.68,39.14L445.99,61.78L446.14,73.29L446.77,86.34L447.08,36.45L447.24,64.85L447.39,103.22L447.55,51.8L447.86,74.06L448.02,51.8L448.33,41.06L448.48,50.27L448.64,75.59L448.79,20.34L449.42,42.21L449.57,48.73L449.73,102.45L450.2,35.69L450.35,29.55L450.98,93.24L451.13,45.66L451.29,57.17L451.45,33.38L451.6,82.88L451.91,51.03L452.07,80.2L452.69,29.55L452.85,40.29L453.01,61.01L453.16,70.99L453.32,46.43L453.47,67.15L453.63,47.96L453.94,79.43L454.1,69.45L454.25,49.5L454.41,50.65L454.56,80.96L455.03,32.23L455.34,44.89L455.5,77.13L455.66,33L456.28,35.69L456.44,49.5L456.59,65.23L456.75,34.15L457.22,60.24L457.37,25.33L457.53,16.5L457.68,47.96L457.84,37.99L458,50.27L458.46,70.99L458.62,41.06L458.77,35.69L458.93,34.92L459.09,49.5L459.24,28.01L459.4,54.1L459.87,34.92L460.02,78.66L460.18,43.36L460.49,81.35L460.65,67.15L460.8,92.48L461.58,40.67L461.74,41.83L461.89,66.38L462.05,74.06L462.21,43.74L462.67,57.94L462.83,21.1L463.14,71.75L463.61,62.16L463.76,63.31L463.92,51.42L464.23,68.3L464.39,80.96L464.54,76.36L464.7,45.66L465.32,61.01L465.48,40.29L465.64,45.66L465.79,77.89L466.1,85.95L466.57,41.83L466.73,67.92L466.88,58.71L467.04,93.24L467.35,64.08L467.51,69.45L467.66,68.68L467.82,77.89L467.98,79.43L468.13,77.13L468.29,70.22L468.44,43.36L468.91,70.99L469.07,110.89L469.69,24.17L470,40.29L470.16,72.52L470.47,91.71L470.94,44.13L471.09,44.89L471.25,86.34L471.87,44.9L472.03,85.57L472.65,37.99L472.97,49.5L473.12,83.27L473.43,35.69L473.75,67.92L473.9,96.31L474.84,40.29L474.99,41.06L475.15,20.34L475.46,54.49L475.62,44.13L475.77,53.34L476.24,36.45L476.4,70.99L476.55,41.83L476.86,82.12L477.33,61.78L477.49,45.67L477.64,73.29L478.11,57.94L478.27,37.99L479.05,83.27L479.2,61.78L479.36,63.31L479.51,92.86L479.83,33L480.14,77.13L480.29,59.48L480.45,42.21L480.61,64.85L480.76,100.15L481.54,41.83L481.7,73.29L481.85,70.99L482.01,53.34L482.32,81.73L482.63,33L482.79,61.39L482.95,76.36L483.41,66.38L483.57,57.17L483.73,64.08L483.88,51.8L484.04,42.59L484.35,82.11L484.82,72.91L484.97,65.62L485.13,30.7L485.28,85.95L485.6,71.75L485.75,69.45L485.91,62.55L486.06,72.52L486.22,85.57L486.69,47.2L486.84,96.31L487,80.2" style="vector-effect: non-scaling-stroke; fill: none; stroke: rgb(255, 127, 14); stroke-opacity: 1; stroke-width: 2px; opacity: 1;"/><g class="points"/></g></g></g><g class="overplot"/><path class="xlines-above crisp" d="M0,0" style="fill: none;"/><path class="ylines-above crisp" d="M0,0" style="fill: none;"/><g class="overlines-above"/><g class="xaxislayer-above"><g class="xtick"><text text-anchor="middle" x="0" y="403" transform="translate(157.31,0)" style="font-family: 'Open Sans', verdana, arial, sans-serif; font-size: 12px; fill: rgb(68, 68, 68); fill-opacity: 1; white-space: pre;">20</text></g><g class="xtick"><text text-anchor="middle" x="0" y="403" transform="translate(254.77,0)" style="font-family: 'Open Sans', verdana, arial, sans-serif; font-size: 12px; fill: rgb(68, 68, 68); fill-opacity: 1; white-space: pre;">40</text></g><g class="xtick"><text text-anchor="middle" x="0" y="403" transform="translate(352.23,0)" style="font-family: 'Open Sans', verdana, arial, sans-serif; font-size: 12px; fill: rgb(68, 68, 68); fill-opacity: 1; white-space: pre;">60</text></g><g class="xtick"><text text-anchor="middle" x="0" y="403" transform="translate(449.69,0)" style="font-family: 'Open Sans', verdana, arial, sans-serif; font-size: 12px; fill: rgb(68, 68, 68); fill-opacity: 1; white-space: pre;">80</text></g></g><g class="yaxislayer-above"><g class="ytick"><text text-anchor="end" x="59" y="4.199999999999999" transform="translate(0,386.55)" style="font-family: 'Open Sans', verdana, arial, sans-serif; font-size: 12px; fill: rgb(68, 68, 68); fill-opacity: 1; white-space: pre;">20</text></g><g class="ytick"><text text-anchor="end" x="59" y="4.199999999999999" transform="translate(0,348.17)" style="font-family: 'Open Sans', verdana, arial, sans-serif; font-size: 12px; fill: rgb(68, 68, 68); fill-opacity: 1; white-space: pre;">15</text></g><g class="ytick"><text text-anchor="end" x="59" y="4.199999999999999" transform="translate(0,309.8)" style="font-family: 'Open Sans', verdana, arial, sans-serif; font-size: 12px; fill: rgb(68, 68, 68); fill-opacity: 1; white-space: pre;">10</text></g><g class="ytick"><text text-anchor="end" x="59" y="4.199999999999999" transform="translate(0,271.43)" style="font-family: 'Open Sans', verdana, arial, sans-serif; font-size: 12px; fill: rgb(68, 68, 68); fill-opacity: 1; white-space: pre;">5</text></g><g class="ytick"><text text-anchor="end" x="59" y="4.199999999999999" transform="translate(0,233.06)" style="font-family: 'Open Sans', verdana, arial, sans-serif; font-size: 12px; fill: rgb(68, 68, 68); fill-opacity: 1; white-space: pre;">0</text></g><g class="ytick"><text text-anchor="end" x="59" y="4.199999999999999" transform="translate(0,194.69)" style="font-family: 'Open Sans', verdana, arial, sans-serif; font-size: 12px; fill: rgb(68, 68, 68); fill-opacity: 1; white-space: pre;">5</text></g><g class="ytick"><text text-anchor="end" x="59" y="4.199999999999999" transform="translate(0,156.31)" style="font-family: 'Open Sans', verdana, arial, sans-serif; font-size: 12px; fill: rgb(68, 68, 68); fill-opacity: 1; white-space: pre;">10</text></g><g class="ytick"><text text-anchor="end" x="59" y="4.199999999999999" transform="translate(0,117.94)" style="font-family: 'Open Sans', verdana, arial, sans-serif; font-size: 12px; fill: rgb(68, 68, 68); fill-opacity: 1; white-space: pre;">15</text></g><g class="ytick"><text text-anchor="end" x="59" y="4.199999999999999" transform="translate(0,79.57)" style="font-family: 'Open Sans', verdana, arial, sans-serif; font-size: 12px; fill: rgb(68, 68, 68); fill-opacity: 1; white-space: pre;">20</text></g></g><g class="overaxes-above"/></g></g><g class="polarlayer"/><g class="ternarylayer"/><g class="geolayer"/><g class="pielayer"/><g class="glimages"/><defs id="topdefs-a862fe"><g class="clips"/><clipPath id="legenda862fe"><rect width="131" height="48" x="0" y="0"/></clipPath></defs><g class="layer-above"><g class="imagelayer"/><g class="shapelayer"/></g><g class="infolayer"><g class="g-gtitle"><text class="gtitle" x="350" y="30" text-anchor="middle" style="font-family: 'Open Sans', verdana, arial, sans-serif; font-size: 17px; fill: rgb(68, 68, 68); opacity: 1; font-weight: normal; white-space: pre;">Rewards</text></g><g class="legend" pointer-events="all" transform="translate(556.74, 60)"><rect class="bg" shape-rendering="crispEdges" width="131" height="48" x="0" y="0" style="stroke: rgb(68, 68, 68); stroke-opacity: 1; fill: rgb(255, 255, 255); fill-opacity: 1; stroke-width: 0px;"/><g class="scrollbox" transform="translate(0, 0)" clip-path="url(#legenda862fe)"><g class="groups"><g class="traces" transform="translate(0, 14.5)" style="opacity: 1;"><g class="layers" style="opacity: 1;"><g class="legendfill"/><g class="legendlines"><path class="js-line" d="M5,0h30" style="fill: none; stroke: rgb(31, 119, 180); stroke-opacity: 1; stroke-width: 2px;"/></g><g class="legendsymbols"><g class="legendpoints"/></g></g><text class="legendtext user-select-none" text-anchor="start" x="40" y="4.680000000000001" style="font-family: 'Open Sans', verdana, arial, sans-serif; font-size: 12px; fill: rgb(68, 68, 68); fill-opacity: 1; white-space: pre;">Mean Reward</text><rect class="legendtoggle" pointer-events="all" x="0" y="-9.5" width="171" height="19" style="cursor: pointer; fill: rgb(0, 0, 0); fill-opacity: 0;"/></g><g class="traces" transform="translate(0, 33.5)" style="opacity: 1;"><g class="layers" style="opacity: 1;"><g class="legendfill"/><g class="legendlines"><path class="js-line" d="M5,0h30" style="fill: none; stroke: rgb(255, 127, 14); stroke-opacity: 1; stroke-width: 2px;"/></g><g class="legendsymbols"><g class="legendpoints"/></g></g><text class="legendtext user-select-none" text-anchor="start" x="40" y="4.680000000000001" style="font-family: 'Open Sans', verdana, arial, sans-serif; font-size: 12px; fill: rgb(68, 68, 68); fill-opacity: 1; white-space: pre;">Median Reward</text><rect class="legendtoggle" pointer-events="all" x="0" y="-9.5" width="171" height="19" style="cursor: pointer; fill: rgb(0, 0, 0); fill-opacity: 0;"/></g></g></g><rect class="scrollbar" rx="20" ry="3" width="0" height="0" x="0" y="0" style="fill: rgb(128, 139, 164); fill-opacity: 1;"/></g><g class="g-xtitle"><text class="xtitle" x="303.5" y="442" text-anchor="middle" style="font-family: 'Open Sans', verdana, arial, sans-serif; font-size: 14px; fill: rgb(68, 68, 68); opacity: 1; font-weight: normal; white-space: pre;">Frames in Mio.</text></g><g class="g-ytitle"><text class="ytitle" transform="rotate(-90,22,225)" x="22" y="225" text-anchor="middle" style="font-family: 'Open Sans', verdana, arial, sans-serif; font-size: 14px; fill: rgb(68, 68, 68); opacity: 1; font-weight: normal; white-space: pre;">Reward</text></g></g></svg>