<svg class="main-svg" xmlns="http://www.w3.org/2000/svg" xmlns:xlink="http://www.w3.org/1999/xlink" width="700" height="450" style="" viewBox="0 0 700 450"><rect x="0" y="0" width="700" height="450" style="fill: rgb(255, 255, 255); fill-opacity: 1;"/><defs id="defs-e34eca"><g class="clips"><clipPath class="plotclip" id="clipe34ecaxyplot"><rect width="580" height="330"/></clipPath><clipPath class="axesclip" id="clipe34ecax"><rect x="60" y="0" width="580" height="450"/></clipPath><clipPath class="axesclip" id="clipe34ecay"><rect x="0" y="60" width="700" height="330"/></clipPath><clipPath class="axesclip" id="clipe34ecaxy"><rect x="60" y="60" width="580" height="330"/></clipPath></g><g class="gradients"/></defs><g class="bglayer"><rect class="bg" x="60" y="60" width="580" height="330" style="fill: rgb(255, 255, 255); fill-opacity: 1; stroke-width: 0;"/></g><g class="layer-below"><g class="imagelayer"/><g class="shapelayer"/></g><g class="cartesianlayer"><g class="subplot xy"><g class="layer-subplot"><g class="shapelayer"/><g class="imagelayer"/></g><g class="gridlayer"><g class="x"><path class="xgrid crisp" d="M0,60v330" transform="translate(176.04000000000002,0)" style="stroke: rgb(238, 238, 238); stroke-opacity: 1; stroke-width: 1px;"/><path class="xgrid crisp" d="M0,60v330" transform="translate(292.07,0)" style="stroke: rgb(238, 238, 238); stroke-opacity: 1; stroke-width: 1px;"/><path class="xgrid crisp" d="M0,60v330" transform="translate(408.11,0)" style="stroke: rgb(238, 238, 238); stroke-opacity: 1; stroke-width: 1px;"/><path class="xgrid crisp" d="M0,60v330" transform="translate(524.15,0)" style="stroke: rgb(238, 238, 238); stroke-opacity: 1; stroke-width: 1px;"/></g><g class="y"><path class="ygrid crisp" d="M60,0h580" transform="translate(0,335.44)" style="stroke: rgb(238, 238, 238); stroke-opacity: 1; stroke-width: 1px;"/><path class="ygrid crisp" d="M60,0h580" transform="translate(0,297.38)" style="stroke: rgb(238, 238, 238); stroke-opacity: 1; stroke-width: 1px;"/><path class="ygrid crisp" d="M60,0h580" transform="translate(0,259.32)" style="stroke: rgb(238, 238, 238); stroke-opacity: 1; stroke-width: 1px;"/><path class="ygrid crisp" d="M60,0h580" transform="translate(0,221.25)" style="stroke: rgb(238, 238, 238); stroke-opacity: 1; stroke-width: 1px;"/><path class="ygrid crisp" d="M60,0h580" transform="translate(0,183.19)" style="stroke: rgb(238, 238, 238); stroke-opacity: 1; stroke-width: 1px;"/><path class="ygrid crisp" d="M60,0h580" transform="translate(0,145.13)" style="stroke: rgb(238, 238, 238); stroke-opacity: 1; stroke-width: 1px;"/><path class="ygrid crisp" d="M60,0h580" transform="translate(0,107.07)" style="stroke: rgb(238, 238, 238); stroke-opacity: 1; stroke-width: 1px;"/><path class="ygrid crisp" d="M60,0h580" transform="translate(0,69.01)" style="stroke: rgb(238, 238, 238); stroke-opacity: 1; stroke-width: 1px;"/></g></g><g class="zerolinelayer"><path class="xzl zl crisp" d="M0,60v330" transform="translate(60,0)" style="stroke: rgb(68, 68, 68); stroke-opacity: 1; stroke-width: 1px;"/><path class="yzl zl crisp" d="M60,0h580" transform="translate(0,373.5)" style="stroke: rgb(68, 68, 68); stroke-opacity: 1; stroke-width: 1px;"/></g><path class="xlines-below"/><path class="ylines-below"/><g class="overlines-below"/><g class="xaxislayer-below"/><g class="yaxislayer-below"/><g class="overaxes-below"/><g class="plot" transform="translate(60, 60)" clip-path="url(#clipe34ecaxyplot)"><g class="imagelayer"/><g class="maplayer"/><g class="barlayer"/><g class="carpetlayer"/><g class="violinlayer"/><g class="boxlayer"/><g class="scatterlayer"><g class="trace scatter trace2af2a1" style="stroke-miterlimit: 2; opacity: 1;"><path class="js-line" d="M0,16.5L0.74,310.43L0.93,307.43L1.11,303.93L2.04,312.99L2.41,312.33L2.6,312.77L2.78,313.24L2.97,309.16L3.34,232.47L3.71,278.99L3.9,285.13L4.83,311.89L5.01,312.43L5.2,311.43L5.38,278.9L5.76,226.1L6.13,258.47L6.31,276.5L7.06,311.81L7.24,311.55L7.43,311.67L7.61,310.7L7.8,302.08L7.98,302.59L8.17,309.07L8.35,307.08L8.54,308.83L8.73,312.06L9.65,313.34L9.84,313.34L10.4,313.3L10.58,312.42L10.77,311.87L10.95,312.68L11.14,313.32L12.81,313.31L13,313.27L13.55,313.4L13.74,313.03L13.92,312.59L15.22,313.37L15.41,313.42L15.97,312.82L16.15,311.4L16.34,310.51L16.52,311.85L16.71,312.45L16.9,312.27L17.08,310.87L17.27,310.3L17.45,312.18L17.82,313.21L18.19,312.08L18.38,311.39L19.12,313.46L19.49,313.32L19.68,313.32L21.72,313.49L21.91,313.38L23.21,313.29L23.39,313.46L24.32,313.47L24.51,312.81L24.88,309.19L25.25,312.95L25.44,313.28L26.92,313.5L27.11,313.5L52.17,313.29L52.36,307.77L52.54,303.56L52.91,311.39L53.1,313.11L54.21,313.43L54.4,313.39L59.23,313.5L59.41,313.5L66.09,313.12L66.28,276.44L66.47,238.69L67.02,276.84L67.21,306.43L68.14,313.19L68.32,313.3L69.99,313.48L70.18,313.48L79.46,313.39L79.65,309.73L80.02,276.48L80.39,300.5L80.58,307.17L80.95,288.55L81.13,261.25L81.32,240.06L81.5,263.25L81.69,290.11L82.06,256.13L82.62,260.6L82.8,259.17L82.99,257.13L83.18,246.97L83.36,246.99L83.55,248.25L83.73,248.79L83.92,255.1L84.29,278.48L84.48,260.75L84.66,252.69L85.22,247.31L85.4,249.69L85.59,252.43L86.33,260.98L86.52,259.14L86.7,259.72L88.75,313.29L88.93,313.38L89.12,313.29L89.3,308.05L91.16,250.43L91.34,256.65L91.9,302.16L92.27,281.64L92.46,273.69L92.83,229.72L93.39,248.63L93.57,268.22L93.76,270.46L93.94,262.2L94.31,256.91L94.5,251.23L95.24,206.58L95.61,219.9L95.8,225.78L95.99,237.97L96.54,230.09L96.73,234.46L96.91,239.29L97.47,236.17L97.66,232.61L97.84,229.11L98.03,235.89L98.21,254.26L98.4,252.74L98.59,241.31L99.14,272.69L99.33,249.48L99.51,240.93L99.7,255.65L99.88,272.46L100.26,290.12L100.44,289.89L100.63,265.64L101.18,243.27L101.56,244.36L101.74,245.52L102.11,246.56L102.3,239.4L102.48,223.71L102.86,234.38L103.04,241.08L103.23,241.75L103.41,236.59L103.97,273.79L104.15,254.41L104.34,233.89L104.53,225.7L104.71,233.45L104.9,243.19L105.08,238.62L105.27,214.49L105.83,182.63L106.01,198.49L106.2,211.3L106.57,191.96L106.75,201.47L106.94,218.44L107.31,184.66L107.87,189.5L108.05,191.9L108.8,185.02L108.98,187.14L109.17,189.84L109.35,188.79L109.54,196.2L109.72,199.84L110.1,193.83L110.28,195.64L110.65,191.78L110.84,203.68L111.77,218.04L111.95,221.04L113.44,200.11L113.62,203.73L113.81,219.31L114.18,198.71L114.37,194.25L115.11,212.06L115.29,226.27L115.85,207.52L116.04,215.14L116.22,220.28L116.41,225.45L116.59,220.71L116.78,214.47L117.34,199.55L117.52,202.53L117.71,212.16L118.08,243.26L118.45,212.9L118.64,207.65L119.01,225.69L119.38,216.37L119.56,208.86L119.94,197.97L120.12,203.76L120.31,220.13L120.49,223.97L120.68,217.48L120.86,211.82L121.79,202.09L121.98,204.74L122.35,223.51L122.54,219.51L122.72,201.98L122.91,199.36L123.09,202.29L123.28,207.79L123.46,215.77L123.65,207.13L123.83,194.75L124.21,187.68L124.58,191.39L124.76,194.21L125.51,197.46L125.69,193.58L126.06,189.4L126.25,190.17L126.43,199.88L126.99,206.64L127.18,198.43L127.55,201.67L127.73,200.84L127.92,198.42L128.1,195.94L128.29,200.81L128.48,199.85L128.66,204.75L128.85,208.2L129.03,202.43L129.22,199.43L129.4,194.25L129.59,198.25L129.78,206.55L130.15,215.18L130.52,209.15L130.7,207.32L131.08,217.78L131.45,212.84L131.63,214.25L132.56,231.54L132.75,219.44L133.49,200.55L133.67,201.51L133.86,211.58L134.05,219.66L134.6,211.18L134.79,216.7L134.97,224.29L135.53,219.81L135.72,222.49L135.9,224.15L136.09,219.55L136.46,223.67L136.65,218.98L137.2,236.26L137.39,233.17L137.57,222.17L137.94,214.15L138.13,215.86L138.32,224.01L139.06,231.65L139.24,231.05L139.43,228.35L139.62,227L139.8,230.93L139.99,234.62L140.92,226.69L141.1,228.76L141.29,233.63L141.47,233.49L141.66,233.74L141.84,232.13L142.4,232.57L142.77,223.01L142.96,226.17L143.89,239.28L144.26,234.92L144.44,236.13L145.19,246.84L145.37,244.99L145.56,240.87L146.3,212.35L146.49,217.66L146.67,225.92L147.41,215.14L147.6,216.27L147.78,220.78L148.16,216.26L148.34,217.97L148.53,221.51L149.08,209.75L149.27,215.59L149.46,215.02L149.64,215.73L149.83,218.46L150.38,224.78L150.57,222.96L150.76,221.38L150.94,226.07L151.31,222.93L151.5,220.18L152.24,211.91L152.61,213.78L152.8,220.01L153.35,219.18L153.73,229.68L153.91,219.55L154.1,217.27L154.28,222.66L154.47,226.73L154.84,222.93L155.03,217.93L155.58,213.3L155.77,219.43L155.95,221.44L156.14,216.66L156.33,214.95L156.51,216.69L156.7,214.89L156.88,212.06L157.44,219.02L157.62,226.21L158,232.26L158.18,228.34L158.37,222.68L158.92,211.54L159.11,214.93L159.3,220.32L159.48,220.39L159.67,217.13L160.78,208.96L160.97,206.8L161.71,202.46L161.9,202.63L162.08,205.16L162.82,219.58L163.01,213.47L163.19,205.56L163.38,202.28L163.57,204.58L163.75,212L163.94,215.32L164.12,212.74L164.31,208.26L164.49,208.37L164.68,211.9L165.24,215.89L165.42,223.88L165.61,223.3L165.79,217.98L166.35,218.4L167.28,201.38L167.65,204.84L167.84,204.68L168.39,202.64L168.58,204.13L168.76,205.98L169.69,195.96L169.88,202.92L170.06,208.87L170.44,197.65L170.62,198.85L171.73,203.84L171.92,201.72L172.11,202.59L172.29,202.22L172.48,197.77L173.03,172.16L173.22,175.63L173.41,187.06L173.96,174.63L174.33,180.74L174.52,184.36L174.71,183.82L174.89,186.86L176.19,203.52L176.38,198.46L176.56,197.18L176.75,203.03L177.86,218.22L178.05,211.88L178.42,208.07L178.6,210.83L178.79,217.23L179.53,238.82L179.9,235.65L180.09,238.09L180.28,240.07L180.65,236.57L180.83,237.75L181.39,248.6L181.76,243.94L181.95,244.21L182.5,243.65L182.87,245.69L183.06,243.9L183.43,244.92L183.8,241.48L183.99,243.76L185.1,256.05L185.29,251.2L185.66,251.37L186.4,242.72L186.59,246.43L187.14,251.95L187.52,248.98L187.7,248.61L187.89,247.39L188.07,247.73L188.26,254.41L188.44,259.61L188.82,250.53L189,247.68L189.56,252.1L189.74,250.75L189.93,249.66L190.3,252.87L190.86,251.42L191.04,249.86L191.41,259.27L191.97,257.19L192.16,255.61L193.27,261.33L193.46,265.63L193.83,267.69L194.01,266.49L194.2,264.76L194.57,253.49L195.13,255.95L195.31,256.06L195.69,258.23L195.87,256.79L196.06,254.32L196.24,250.5L196.8,251.28L196.98,252.53L197.54,256.38L198.1,256.18L198.28,256.35L199.96,269.68L200.14,270.3L201.44,247.68L201.63,249.14L201.81,251.18L202.37,256.68L202.55,264.55L203.48,252.55L203.67,253.12L204.04,241.84L204.23,244.66L204.41,253.07L204.97,263.66L205.34,259.3L205.52,259.73L205.71,261.11L205.9,256.33L206.08,251.92L206.45,255.27L206.64,257.62L206.82,261.14L207.01,257.98L207.2,249.66L208.5,231.85L208.68,229.17L208.87,229.73L209.05,234.12L209.98,229.59L210.17,237.37L211.09,248.81L211.28,245.54L212.21,229.13L212.39,233.38L212.58,236.38L212.95,237.16L213.14,233.24L213.32,234.24L213.51,243.94L213.69,250.24L214.07,243.7L214.25,242.38L214.62,232.44L215.18,233.58L215.36,235.49L215.74,233.5L215.92,230.06L216.11,231.11L216.66,230.93L216.85,230.75L217.96,235.54L218.15,236.1L218.52,245.96L218.89,241.02L219.08,240.92L219.45,227.88L219.82,235.15L220.01,237.94L220.38,235.7L220.56,237.67L220.75,239.72L220.93,238.36L221.12,230.79L221.31,228.2L221.49,232.24L221.86,230.28L222.05,237.21L223.16,257.12L223.35,256.34L223.53,249.71L225.02,217.61L225.2,218.09L227.25,237.42L227.43,234.38L228.92,218.66L229.1,221.44L229.29,223.07L230.96,211.26L231.15,212.37L232.26,241.11L232.45,238.05L232.63,233.28L233.75,246.34L233.93,234.82L234.86,225.13L235.04,226.58L235.23,227.28L235.42,219.67L235.6,218.84L235.79,223.14L236.16,230.98L236.34,228.61L236.53,223.54L237.83,237.61L238.02,235.08L238.2,228.68L239.13,224.06L239.31,222.83L240.06,210.34L240.24,214.71L240.43,223.8L240.99,229.23L241.17,228.69L241.36,224.83L242.1,222.15L242.29,222.54L242.47,224.06L242.66,222.62L242.84,217.62L243.03,213.77L243.21,218.64L243.4,222.35L244.14,228.92L244.33,227.2L244.51,222.9L244.7,220.99L245.26,222.67L245.44,227.51L245.63,231.16L246,228.97L246.18,226.41L246.93,220.88L247.11,222.23L247.3,225.47L247.67,228.12L247.86,236.8L248.97,247.87L249.15,245.87L249.53,252.61L249.71,245.72L249.9,240.71L250.27,248.16L250.45,244.58L250.64,238.18L250.83,235.21L251.01,240.67L251.2,245.75L251.57,246.29L251.75,243.5L252.31,243.82L252.5,236.59L252.68,230.86L253.05,242.9L253.61,238.74L253.8,232.75L254.35,227.34L254.54,235.2L254.72,241.28L255.1,228.78L255.28,220.3L256.21,214.38L256.4,219.77L256.77,218.02L257.14,227.38L257.32,226.22L257.51,222.8L257.88,217.62L258.07,221.43L258.25,226L258.62,231.39L258.81,236.05L259.37,239.07L259.55,237L259.74,234.09L260.11,225.44L260.67,226.19L260.85,226.52L261.22,222.86L261.41,230.17L261.59,231.82L261.78,227.96L261.97,224.55L262.52,230.05L262.71,237.69L263.27,227.37L263.45,231.47L263.64,242.66L263.82,249.15L264.19,236.38L264.38,237.73L264.94,253.87L265.31,247.66L265.49,244.67L266.05,256.71L266.24,249.15L266.42,241.6L266.98,242.35L267.16,249.92L267.35,247.33L267.54,234.05L267.91,227.61L268.46,229.12L268.65,224.73L269.58,236.59L269.95,232.12L270.13,231.42L271.06,237.77L271.25,235.01L271.81,225.33L272.18,230.41L272.36,232.83L273.1,224.55L273.29,226.25L273.48,228.07L273.66,232.75L274.03,226.37L274.22,222.44L274.59,236.17L274.96,228.37L275.15,228.37L275.33,234.31L275.89,232.01L276.08,231.15L277,238.66L277.19,235.97L277.38,232.11L277.75,238.18L277.93,235.07L278.12,236.73L278.49,250.09L278.86,241.68L279.05,237.15L279.42,233.48L279.6,236.18L279.79,245.11L279.97,244.89L280.16,236.61L281.27,224.92L281.46,227.25L282.76,243.02L282.94,239.64L283.13,231.73L283.5,237.72L283.69,243L283.87,243.13L284.06,234.44L284.43,235.52L284.99,225.56L285.17,228.63L285.36,233.03L285.54,233.26L285.73,228.36L286.1,236.47L286.29,231.32L286.47,227.13L286.66,224.28L286.84,225.72L287.03,231.3L287.4,235.43L287.59,233.36L287.77,225.29L287.96,221.07L288.33,224.94L288.51,227.53L288.7,230.33L288.89,226.87L289.07,224.13L289.44,221.02L289.63,217.77L290.93,237.53L291.11,239.3L291.86,223.86L292.04,224.9L292.23,232.22L292.41,235.5L292.6,227.19L292.78,223.53L293.53,229.19L293.71,227.41L293.9,221.48L294.08,218.41L294.46,221.66L294.64,226.56L294.83,230.13L295.01,224.68L295.2,216.66L295.57,230.38L295.76,238.8L295.94,239.78L296.13,236.02L296.31,231.81L296.68,238.68L296.87,242.26L297.06,243.06L297.24,239.61L297.43,240.41L297.61,237.9L297.98,231.75L298.35,237.43L298.54,238.15L298.73,238.73L298.91,232.53L299.84,221.67L300.03,224.94L300.4,231.7L300.77,230L300.95,227.26L301.33,234.54L301.51,231.06L301.7,230.16L301.88,230.05L302.07,228.9L302.44,221.33L302.62,228.48L302.81,232.44L303.18,224.44L303.55,228.99L303.74,234.15L304.11,241.67L304.3,232.46L304.48,232.34L304.67,234.73L304.85,230.28L305.04,232.23L305.22,229.63L305.41,230.46L305.6,240.53L305.78,241.54L305.97,239.89L306.15,235.99L306.34,229.46L306.9,233.84L307.08,234.35L307.27,234.88L307.45,230.98L307.82,235.24L308.01,234.24L308.19,230.03L308.94,224.1L309.12,229.07L309.31,229.46L309.49,232.09L309.68,231.54L309.87,226.39L310.61,217.08L310.79,220.75L310.98,223.23L311.35,225.07L311.54,220.82L311.91,221.87L312.09,219.1L312.28,220.59L312.46,228.38L312.84,245.72L313.21,230.64L313.39,224.47L313.58,222.94L313.76,223.35L313.95,228.51L314.69,244.35L315.06,241.79L315.25,246.65L315.81,236.1L315.99,238.54L316.18,248.73L316.36,248.54L316.55,239.37L316.73,239.59L316.92,243.6L317.48,237.57L317.66,237.99L317.85,243.42L318.03,245.11L318.22,240.65L318.41,234.86L318.59,234.61L318.78,236L319.15,232.7L319.33,238.68L319.71,252.8L320.26,250.45L320.45,255.44L321.19,262.87L321.38,262.11L321.56,261.64L321.75,262.32L321.93,260.68L322.12,252.67L322.49,242.96L322.86,246.13L323.05,251.8L323.42,246.88L323.6,247.26L323.79,250.43L324.16,238.24L324.35,242.18L324.53,248.21L325.09,261.34L325.28,256.47L325.46,249.45L325.65,249.53L325.83,245.37L326.57,237.64L326.76,239.57L326.95,239.75L327.32,236.37L327.5,242.77L327.69,246.64L327.87,244.5L328.06,246.81L328.25,252.36L328.62,246.07L328.8,255.78L328.99,260.76L329.17,254.73L329.36,250.33L330.29,243.48L330.47,243.87L330.85,241.85L331.03,247.54L331.22,254.15L331.4,248.35L331.59,238.37L331.77,235.7L332.14,237.88L332.33,241.35L332.52,240.77L332.7,235.55L333.26,233.91L334.37,245.39L334.56,244.88L334.93,250.6L335.12,246.6L335.3,238.22L335.67,231.65L335.86,235.89L336.04,243.21L336.23,249.58L336.6,244.6L336.79,242.29L336.97,242.35L337.16,241.17L337.53,242.29L337.9,242.05L338.09,240.29L338.64,246.22L338.83,242.92L339.2,223.08L339.76,224.08L339.94,229L341.24,249.61L341.43,245.97L341.8,234.99L342.17,243.7L342.36,240.46L343.47,225.1L343.66,229.27L343.84,231L344.03,222.26L344.21,222.74L344.4,230.23L344.58,231.92L344.96,229.07L345.14,227.73L345.88,223.84L346.07,227.19L346.25,236.35L346.63,224.3L346.81,220.78L347.18,228.75L347.37,224.79L347.55,218.67L348.3,238.55L348.67,234.6L348.85,232.86L349.04,232.23L349.23,228.27L349.41,219.85L349.78,230.26L349.97,237.26L350.34,249.6L350.71,239.6L350.9,230.65L351.64,224.96L351.82,227.86L352.01,232L352.2,228.24L352.57,234.28L352.75,235.62L353.68,223.57L353.87,224.35L354.05,219.75L354.24,225.16L354.42,235.44L355.72,248.67L355.91,247.3L356.09,248.59L356.28,242.44L357.02,227.35L357.58,227.5L357.77,229.05L358.51,236.32L358.88,235.23L359.07,233.9L359.44,225.61L359.62,230.81L359.81,235.66L360.36,222.51L360.55,228.98L360.74,230.72L361.11,253.78L361.48,245.71L361.66,238.51L362.59,233.69L362.78,232.06L364.08,242.76L364.26,239.95L364.45,236.68L364.82,242.95L365.01,244.62L365.56,255.51L365.75,253.03L365.93,251.47L367.79,231.32L367.98,235.1L369.09,245.49L369.28,243.37L369.65,255.8L369.83,265.96L370.2,248.6L370.39,235.59L370.58,234.37L370.76,238.48L370.95,237.52L371.13,238.56L371.32,243.06L371.5,245.59L371.69,238.84L371.88,235.53L372.25,245L372.62,242.53L372.8,239.73L373.18,243.86L373.36,240.08L373.55,234.24L373.73,229.05L374.1,235.43L374.29,236.48L374.66,247.23L375.22,246.63L375.4,249.61L376.89,235.73L377.07,233.58L377.45,240.3L377.63,243.21L378.37,230.84L378.56,232.82L378.75,238.48L378.93,238.13L379.12,241.82L379.49,246.37L379.67,240.77L379.86,236.41L380.04,236.78L380.23,234.17L380.6,237.35L380.79,240.63L381.16,231.98L381.34,234.55L381.53,243.04L381.9,257.51L382.27,244.74L382.46,233.52L383.39,248.52L383.57,241.62L384.13,233.42L384.5,236.94L384.69,242.49L385.06,235.91L385.43,237.79L385.61,239.7L385.99,236.56L386.17,229.67L386.36,223.16L386.54,227.48L386.73,236.88L387.47,245.86L387.66,238.58L388.59,256.49L388.77,248.22L388.96,248.56L389.14,245.76L390.44,230.12L390.63,232.27L390.81,230.2L391,232.68L391.18,241.54L391.37,240.75L391.56,233.12L391.74,230.94L391.93,238.71L392.11,242.14L392.3,236.63L392.67,239.2L392.86,238.05L393.41,251.5L393.6,243.68L393.78,243.61L393.97,247.8L394.34,243.71L394.53,242.09L394.71,241.35L394.9,242.21L395.08,247.63L395.27,249.52L395.45,247.46L395.64,241.57L395.83,238.2L396.2,241.49L396.38,250.81L396.57,259.93L396.94,245.54L397.13,238.98L397.31,236.5L397.5,239.59L397.68,242.92L397.87,242.99L398.05,241.16L398.8,249.33L398.98,248.15L399.17,244.69L399.72,246.09L400.1,239.14L400.28,235.77L400.47,237.2L400.65,244.45L401.02,255.83L401.21,244.63L401.4,237.21L401.95,230.87L402.14,234.11L402.32,238.98L402.7,243.87L403.07,241.4L403.25,240.36L403.81,238.68L403.99,244.18L404.18,242.42L406.04,279.89L406.22,267.88L406.97,239.71L407.15,241.46L407.34,245.11L407.89,237.55L408.08,238.03L408.27,242.06L408.82,248.53L409.01,260.51L409.19,271.51L409.75,260.84L409.94,256.43L410.31,266.04L410.49,260.7L410.68,252.85L411.98,232.17L412.16,239.23L412.91,252.6L413.09,249.19L413.28,244.23L414.02,238.39L414.21,240.17L414.39,243.47L414.76,233.73L415.13,238.65L415.32,239.66L415.69,245.88L415.88,238.79L416.06,237.17L417.55,255.33L417.73,253.52L417.92,247.72L418.48,238.09L418.66,240.38L418.85,242.94L419.4,246.79L419.59,241.22L419.96,229.02L420.33,236.13L420.52,240.5L421.08,257.21L421.26,256.77L421.45,247.85L421.63,242.13L422.19,247.35L422.38,250.8L423.3,234.5L423.49,235.04L424.05,233.03L424.6,248.16L424.79,240.77L424.97,237.72L425.16,242.86L425.35,244.81L425.72,238.85L425.9,240.89L426.09,249.59L426.46,265.5L426.83,249.92L427.02,252.22L427.57,272.43L427.76,271.7L427.94,254.37L428.13,241.15L428.69,241.58L428.87,247.45L429.06,248.04L429.24,245.93L429.43,246.05L429.62,240.79L430.54,234.11L430.73,238.86L431.84,253.83L432.03,244.6L433.14,235.98L433.33,234.09L433.51,235.35L433.7,244.66L434.26,260.19L434.44,257.24L434.63,251.09L435,244.93L435.19,246.85L435.37,254.69L435.93,240.19L436.3,245.29L436.49,245.26L437.41,269.08L437.6,268.41L437.78,256.73L438.71,242.81L438.9,244.32L439.27,242.41L439.46,245.67L439.83,238.48L440.01,242.4L440.2,246.71L440.38,243.09L440.57,249.83L440.76,258.94L442.06,267L442.24,265.34L443.17,244.83L443.35,249.15L443.73,244.67L443.91,252.72L444.28,259.16L444.47,255.67L444.65,248.51L445.03,250.61L445.58,234.62L445.77,241.57L445.95,243.81L446.14,238.15L446.33,236.41L447.62,279.65L447.81,273.14L448,262.26L448.92,244.79L449.11,249.87L449.48,263.16L449.85,255.17L450.04,257.92L451.15,269.76L451.34,267.11L451.52,262.19L452.08,238.12L452.64,238.59L452.82,240.17L453.75,249.64L453.94,247.79L454.12,240.4L454.31,244.97L454.49,257.22L454.87,275.42L455.05,260.32L455.24,248L455.61,253.02L455.79,258.22L456.17,245.53L456.54,250.14L456.72,254.46L457.65,261.3L457.84,256.67L458.39,256.95L458.58,270.11L458.95,280.09L459.14,274.45L459.32,265.37L460.44,237.43L460.62,237.03L461.55,247.22L461.73,243.3L462.85,280.9L463.22,277.6L463.41,270.34L463.78,255.44L464.15,264.7L464.33,265.63L464.52,263.81L464.71,253.4L465.26,254.25L465.45,255.67L466.01,254.34L466.38,264.75L466.56,255.6L466.75,250.56L467.12,257.97L467.3,258.35L468.05,254.68L468.23,249.19L469.16,239.98L469.35,240.74L469.53,245.39L470.09,260.5L470.28,250.13L470.46,247.16L470.65,252.65L470.83,254.63L471.57,234.58L471.95,236.22L472.13,241.55L473.06,266.47L473.25,255.88L473.62,274.92L473.8,271.59L473.99,263.17L474.73,249.76L474.92,254.96L475.1,257.42L475.66,240.07L475.85,247.05L476.03,250.74L476.22,250.43L476.4,252.27L477.14,251.34L477.33,248.09L477.7,243.22L477.89,247.27L478.07,250.13L478.26,248.72L478.44,251.4L478.63,252.4L479.74,245.46L479.93,242.79L480.3,254.51L480.49,245.56L480.67,239.56L481.6,254.93L481.79,249.75L481.97,246.16L482.16,246.62L482.34,244.49L482.53,243.97L482.71,249.46L482.9,249.31L483.09,247.78L483.83,264.89L484.2,261.45L484.39,252.25L484.57,241.05L484.94,253.62L485.13,253.34L485.5,264.46L485.87,255.48L486.06,258.22L486.24,261.86L486.61,254.33L486.8,251.1L487.73,261.46L487.91,249.11L488.1,244.23L488.28,250.41L488.47,254.84L489.03,252.76L489.21,258.38L489.4,270.3L489.58,273.97L489.77,260.97L490.7,243.24L490.88,247.02L491.25,248.26L491.44,246.04L491.81,240.71L492.18,242.79L492.37,246.18L492.74,250.79L492.93,247.69L493.11,245.05L493.48,238.55L493.67,245.6L493.85,249.21L494.41,245.87L494.6,243.35L494.97,254.06L495.52,253.51L495.71,248.35L496.45,245.2L496.64,248.75L497.01,246.34L497.57,262.3L497.75,272.45L498.12,268.22L498.31,274.11L498.5,278.98L499.24,288.84L499.42,283.08L500.35,261.99L500.54,258.95L500.72,264.18L500.91,255.57L501.09,243.85L501.28,243.74L501.47,248.29L501.65,248.25L501.84,249.62L502.39,248.82L502.77,254.56L502.95,245.78L503.88,263.93L504.07,255.76L504.99,245.8L505.18,247.56L505.36,255.04L505.74,242.05L506.11,248.14L506.29,255.6L506.85,250.66L507.22,271.4L507.41,268.48L508.71,245.53L508.89,247.22L509.82,271.34L510.01,269.79L510.19,264.62L510.93,254.17L511.12,264.49L511.31,274.02L511.68,257.91L511.86,252.11L512.05,248.33L512.42,252.59L512.61,251.76L512.79,250.11L512.98,251.68L513.16,249.36L513.35,245.7L513.91,254.03L514.09,247.79L514.46,250L514.65,247.14L515.02,246.89L515.2,240.3L515.76,257.35L515.95,253.04L516.13,246.92L516.32,246.42L516.5,249.48L517.99,271.29L518.18,269.12L518.36,253.13L518.55,241.99L519.1,251.67L519.29,243.69L519.66,250.5L519.85,256.09L520.22,270.09L520.59,262.69L520.77,252.41L521.15,250.36L521.33,251.01L521.52,259.05L521.89,260.2L522.07,270.73L522.26,270.73L522.45,261.35L523.37,254.25L523.56,254.96L523.93,251.11L524.12,258.3L524.49,253.09L524.67,258.04L524.86,261.05L525.23,268.6L525.6,265.89L525.79,264.03L526.72,247.76L526.9,247.54L527.09,246.55L527.27,246.84L527.46,251.37L528.02,249.19L528.39,258.27L528.57,252.86L528.76,251L528.94,256.04L529.13,254.81L530.06,247.72L530.24,242.74L530.61,246.95L530.8,251.34L531.91,242.45L532.1,245.11L532.84,260.79L533.03,255.85L533.21,249.16L533.59,254.67L533.77,249.07L533.96,244.39L534.51,238.49L534.7,242.34L534.88,252.95L535.07,257.45L535.63,255.38L535.81,254.1L536.56,275.68L536.74,274.51L536.93,265.38L538.04,243.51L538.23,244.5L538.41,246.23L538.6,243.03L538.78,245.76L538.97,257.06L539.34,267.46L539.71,258.05L539.9,262.31L540.27,257.66L540.45,258.58L540.64,248.7L540.83,240.95L541.2,251.13L541.38,255.72L541.75,247.22L541.94,244.35L542.13,243.36L542.31,243.63L542.5,249.28L543.24,262.92L543.43,260.25L543.61,248.88L543.98,258.42L544.17,255.24L544.35,250.39L544.91,261.36L545.1,258.27L545.28,252.39L545.47,251.65L545.65,255.33L546.21,257.02L546.77,242.82L546.95,247.15L547.14,246.56L547.32,248.46L547.51,253.56L547.88,244.9L548.07,242.83L549.18,263.38L549.37,261.68L549.55,256.32L549.74,254.25L549.92,256.35L550.11,262.4L550.48,280.67L550.85,262.62L551.04,259.82L551.97,246.49L552.15,248.44L552.34,250.96L552.52,248.81L552.71,249.36L552.89,253.92L553.08,251.68L553.45,255.57L553.64,256.67L554.75,268.03L554.94,262.99L555.49,257.9L555.68,259.08L555.86,260.55L556.24,266.51L556.42,261.96L556.61,259.7L556.98,269.26L557.16,267.11L557.35,256.52L558.28,251.45L558.46,252.45L559.21,261.63L559.39,250.38L559.76,250.86L559.95,249.83L560.13,251.61L560.69,248.98L560.88,247.28L561.62,256.54L561.81,251.97L561.99,247.54L562.36,253.53L562.55,259.59L562.73,260.92L562.92,252.47L563.1,247.2L563.48,254.12L563.66,255.15L563.85,255.69L564.03,253.82L564.22,253.95L564.4,256.42L565.33,266.58L565.52,274.85L565.7,278.61L565.89,275.04L566.08,270.14L566.26,268.62L566.45,268.74L566.63,275.55L566.82,279.79L567,274.16L567.19,266.31L567.75,249.75L568.3,250.48L568.49,251.63L568.86,248.73L569.05,250.04L569.23,254.1L569.42,256.67L569.6,249.44L569.79,249.16L570.53,259.25L570.72,259.19L570.9,260.04L571.09,261.64L571.27,258.26L571.46,254.72L572.57,268.27L572.76,263.55L573.69,252.41L573.87,251.4L574.24,257.51L574.43,254.55L574.62,248.81L575.73,257.45L575.92,256.87L576.1,256.64L576.47,248.01L576.66,254.77L576.84,257.61L577.03,255.69L577.22,261.91L577.4,263.54L577.59,258.43L577.77,254.06L577.96,251.03L578.33,254.79L578.51,257.73L579.07,256.54L579.44,271.66L579.63,262.18L579.81,254.2L580,257.51" style="vector-effect: non-scaling-stroke; fill: none; stroke: rgb(31, 119, 180); stroke-opacity: 1; stroke-width: 2px; opacity: 1;"/><g class="points"/></g></g></g><g class="overplot"/><path class="xlines-above crisp" d="M0,0" style="fill: none;"/><path class="ylines-above crisp" d="M0,0" style="fill: none;"/><g class="overlines-above"/><g class="xaxislayer-above"><g class="xtick"><text text-anchor="middle" x="0" y="403" transform="translate(60,0)" style="font-family: 'Open Sans', verdana, arial, sans-serif; font-size: 12px; fill: rgb(68, 68, 68); fill-opacity: 1; white-space: pre;">0</text></g><g class="xtick"><text text-anchor="middle" x="0" y="403" transform="translate(176.04000000000002,0)" style="font-family: 'Open Sans', verdana, arial, sans-serif; font-size: 12px; fill: rgb(68, 68, 68); fill-opacity: 1; white-space: pre;">20</text></g><g class="xtick"><text text-anchor="middle" x="0" y="403" transform="translate(292.07,0)" style="font-family: 'Open Sans', verdana, arial, sans-serif; font-size: 12px; fill: rgb(68, 68, 68); fill-opacity: 1; white-space: pre;">40</text></g><g class="xtick"><text text-anchor="middle" x="0" y="403" transform="translate(408.11,0)" style="font-family: 'Open Sans', verdana, arial, sans-serif; font-size: 12px; fill: rgb(68, 68, 68); fill-opacity: 1; white-space: pre;">60</text></g><g class="xtick"><text text-anchor="middle" x="0" y="403" transform="translate(524.15,0)" style="font-family: 'Open Sans', verdana, arial, sans-serif; font-size: 12px; fill: rgb(68, 68, 68); fill-opacity: 1; white-space: pre;">80</text></g></g><g class="yaxislayer-above"><g class="ytick"><text text-anchor="end" x="59" y="4.199999999999999" transform="translate(0,373.5)" style="font-family: 'Open Sans', verdana, arial, sans-serif; font-size: 12px; fill: rgb(68, 68, 68); fill-opacity: 1; white-space: pre;">0</text></g><g class="ytick"><text text-anchor="end" x="59" y="4.199999999999999" transform="translate(0,335.44)" style="font-family: 'Open Sans', verdana, arial, sans-serif; font-size: 12px; fill: rgb(68, 68, 68); fill-opacity: 1; white-space: pre;">0.2</text></g><g class="ytick"><text text-anchor="end" x="59" y="4.199999999999999" transform="translate(0,297.38)" style="font-family: 'Open Sans', verdana, arial, sans-serif; font-size: 12px; fill: rgb(68, 68, 68); fill-opacity: 1; white-space: pre;">0.4</text></g><g class="ytick"><text text-anchor="end" x="59" y="4.199999999999999" transform="translate(0,259.32)" style="font-family: 'Open Sans', verdana, arial, sans-serif; font-size: 12px; fill: rgb(68, 68, 68); fill-opacity: 1; white-space: pre;">0.6</text></g><g class="ytick"><text text-anchor="end" x="59" y="4.199999999999999" transform="translate(0,221.25)" style="font-family: 'Open Sans', verdana, arial, sans-serif; font-size: 12px; fill: rgb(68, 68, 68); fill-opacity: 1; white-space: pre;">0.8</text></g><g class="ytick"><text text-anchor="end" x="59" y="4.199999999999999" transform="translate(0,183.19)" style="font-family: 'Open Sans', verdana, arial, sans-serif; font-size: 12px; fill: rgb(68, 68, 68); fill-opacity: 1; white-space: pre;">1</text></g><g class="ytick"><text text-anchor="end" x="59" y="4.199999999999999" transform="translate(0,145.13)" style="font-family: 'Open Sans', verdana, arial, sans-serif; font-size: 12px; fill: rgb(68, 68, 68); fill-opacity: 1; white-space: pre;">1.2</text></g><g class="ytick"><text text-anchor="end" x="59" y="4.199999999999999" transform="translate(0,107.07)" style="font-family: 'Open Sans', verdana, arial, sans-serif; font-size: 12px; fill: rgb(68, 68, 68); fill-opacity: 1; white-space: pre;">1.4</text></g><g class="ytick"><text text-anchor="end" x="59" y="4.199999999999999" transform="translate(0,69.01)" style="font-family: 'Open Sans', verdana, arial, sans-serif; font-size: 12px; fill: rgb(68, 68, 68); fill-opacity: 1; white-space: pre;">1.6</text></g></g><g class="overaxes-above"/></g></g><g class="polarlayer"/><g class="ternarylayer"/><g class="geolayer"/><g class="pielayer"/><g class="glimages"/><defs id="topdefs-e34eca"><g class="clips"/></defs><g class="layer-above"><g class="imagelayer"/><g class="shapelayer"/></g><g class="infolayer"><g class="g-gtitle"><text class="gtitle" x="350" y="30" text-anchor="middle" style="font-family: 'Open Sans', verdana, arial, sans-serif; font-size: 17px; fill: rgb(68, 68, 68); opacity: 1; font-weight: normal; white-space: pre;">Distribution Entropy</text></g><g class="g-xtitle"><text class="xtitle" x="350" y="442" text-anchor="middle" style="font-family: 'Open Sans', verdana, arial, sans-serif; font-size: 14px; fill: rgb(68, 68, 68); opacity: 1; font-weight: normal; white-space: pre;">Frames in Mio.</text></g><g class="g-ytitle"><text class="ytitle" transform="rotate(-90,22,225)" x="22" y="225" text-anchor="middle" style="font-family: 'Open Sans', verdana, arial, sans-serif; font-size: 14px; fill: rgb(68, 68, 68); opacity: 1; font-weight: normal; white-space: pre;">Entropy</text></g></g></svg>