<svg class="main-svg" xmlns="http://www.w3.org/2000/svg" xmlns:xlink="http://www.w3.org/1999/xlink" width="700" height="450" style="" viewBox="0 0 700 450"><rect x="0" y="0" width="700" height="450" style="fill: rgb(255, 255, 255); fill-opacity: 1;"/><defs id="defs-a10b39"><g class="clips"><clipPath class="plotclip" id="clipa10b39xyplot"><rect width="580" height="330"/></clipPath><clipPath class="axesclip" id="clipa10b39x"><rect x="60" y="0" width="580" height="450"/></clipPath><clipPath class="axesclip" id="clipa10b39y"><rect x="0" y="60" width="700" height="330"/></clipPath><clipPath class="axesclip" id="clipa10b39xy"><rect x="60" y="60" width="580" height="330"/></clipPath></g><g class="gradients"/></defs><g class="bglayer"><rect class="bg" x="60" y="60" width="580" height="330" style="fill: rgb(255, 255, 255); fill-opacity: 1; stroke-width: 0;"/></g><g class="layer-below"><g class="imagelayer"/><g class="shapelayer"/></g><g class="cartesianlayer"><g class="subplot xy"><g class="layer-subplot"><g class="shapelayer"/><g class="imagelayer"/></g><g class="gridlayer"><g class="x"><path class="xgrid crisp" d="M0,60v330" transform="translate(176.04000000000002,0)" style="stroke: rgb(238, 238, 238); stroke-opacity: 1; stroke-width: 1px;"/><path class="xgrid crisp" d="M0,60v330" transform="translate(292.07,0)" style="stroke: rgb(238, 238, 238); stroke-opacity: 1; stroke-width: 1px;"/><path class="xgrid crisp" d="M0,60v330" transform="translate(408.11,0)" style="stroke: rgb(238, 238, 238); stroke-opacity: 1; stroke-width: 1px;"/><path class="xgrid crisp" d="M0,60v330" transform="translate(524.15,0)" style="stroke: rgb(238, 238, 238); stroke-opacity: 1; stroke-width: 1px;"/></g><g class="y"><path class="ygrid crisp" d="M60,0h580" transform="translate(0,337.97)" style="stroke: rgb(238, 238, 238); stroke-opacity: 1; stroke-width: 1px;"/><path class="ygrid crisp" d="M60,0h580" transform="translate(0,299.69)" style="stroke: rgb(238, 238, 238); stroke-opacity: 1; stroke-width: 1px;"/><path class="ygrid crisp" d="M60,0h580" transform="translate(0,261.40999999999997)" style="stroke: rgb(238, 238, 238); stroke-opacity: 1; stroke-width: 1px;"/><path class="ygrid crisp" d="M60,0h580" transform="translate(0,223.13)" style="stroke: rgb(238, 238, 238); stroke-opacity: 1; stroke-width: 1px;"/><path class="ygrid crisp" d="M60,0h580" transform="translate(0,184.85)" style="stroke: rgb(238, 238, 238); stroke-opacity: 1; stroke-width: 1px;"/><path class="ygrid crisp" d="M60,0h580" transform="translate(0,146.57)" style="stroke: rgb(238, 238, 238); stroke-opacity: 1; stroke-width: 1px;"/><path class="ygrid crisp" d="M60,0h580" transform="translate(0,108.28999999999999)" style="stroke: rgb(238, 238, 238); stroke-opacity: 1; stroke-width: 1px;"/><path class="ygrid crisp" d="M60,0h580" transform="translate(0,70.01)" style="stroke: rgb(238, 238, 238); stroke-opacity: 1; stroke-width: 1px;"/></g></g><g class="zerolinelayer"><path class="xzl zl crisp" d="M0,60v330" transform="translate(60,0)" style="stroke: rgb(68, 68, 68); stroke-opacity: 1; stroke-width: 1px;"/><path class="yzl zl crisp" d="M60,0h580" transform="translate(0,376.25)" style="stroke: rgb(68, 68, 68); stroke-opacity: 1; stroke-width: 1px;"/></g><path class="xlines-below"/><path class="ylines-below"/><g class="overlines-below"/><g class="xaxislayer-below"/><g class="yaxislayer-below"/><g class="overaxes-below"/><g class="plot" transform="translate(60, 60)" clip-path="url(#clipa10b39xyplot)"><g class="imagelayer"/><g class="maplayer"/><g class="barlayer"/><g class="carpetlayer"/><g class="violinlayer"/><g class="boxlayer"/><g class="scatterlayer"><g class="trace scatter trace027fd7" style="stroke-miterlimit: 2; opacity: 1;"><path class="js-line" style="vector-effect: non-scaling-stroke; fill: none; stroke: rgb(31, 119, 180); stroke-opacity: 1; stroke-width: 2px; opacity: 1;" d="M0,16.5L0.19,178.85L0.74,130.53L0.93,127.56L1.3,129.64L1.49,119.86L1.67,109.77L1.86,124.05L2.23,105.21L2.41,119.29L2.6,105.9L2.78,101.67L3.16,107.22L3.34,108.34L3.9,90.39L4.08,95.89L4.27,97.74L4.64,115.48L5.01,98.25L5.2,103.33L5.38,103.38L5.57,106.95L5.94,121.42L6.31,109.96L6.5,103.34L6.68,99.19L6.87,101.08L7.06,109.01L7.24,108.39L7.43,99.89L8.73,120.69L8.91,115.18L9.1,108.7L9.65,107.95L10.21,122.38L10.4,114.17L10.58,106.62L11.14,107.68L11.33,108.11L11.88,111.98L12.07,108.98L12.44,104.39L12.62,110.83L12.81,125.48L13,131.55L13.18,119.12L13.37,108.88L13.92,120.24L14.11,117.17L14.3,113.4L14.48,113.65L14.67,113.14L14.85,117.32L15.22,112.57L15.41,110.77L15.78,129.4L15.97,126.83L16.15,118.01L17.45,129.54L17.64,125.93L17.82,121.36L18.01,127.21L18.38,122.88L18.57,126.61L18.75,127.71L18.94,126.49L19.12,120.61L19.68,138.52L19.87,129.91L20.05,123.76L20.24,124.85L20.42,121.59L20.61,127.38L20.79,131.77L21.17,126.09L21.35,119.82L22.65,130.33L22.84,129.55L23.39,113.7L23.58,121.43L23.76,136.34L24.32,140.08L24.51,135.72L24.88,141.37L25.06,137.02L25.25,136.29L25.99,158.89L26.55,158.58L26.73,155.47L27.48,144.51L27.66,149.74L27.85,147.19L28.03,153.13L28.22,150.11L28.41,135.12L28.78,142.78L28.96,136.43L29.15,132.23L29.71,162.2L29.89,175.73L30.45,151.14L30.63,171.94L31.01,147.48L31.38,151.68L31.56,155.11L32.12,141.17L32.3,149.48L32.49,156.97L33.42,133.62L33.6,141.62L33.79,147.61L33.98,150.32L34.16,144L34.35,136.49L35.09,176.43L35.28,166.16L35.46,152.86L35.65,153.65L35.83,166.01L36.39,180.15L36.76,175.14L36.95,173.56L37.32,170.13L37.5,157.76L37.69,148.02L37.87,163.32L38.06,184.15L38.43,172.46L38.8,179.89L38.99,184.43L39.36,203.44L39.55,200.72L39.73,183.46L39.92,182.14L40.1,186.83L41.03,230.38L41.22,203.58L41.77,192.2L41.96,201.65L42.14,205.46L42.33,194.71L42.52,189.94L43.07,195.71L43.26,202.03L43.63,218.62L44,203.72L44.19,203.71L44.56,192.28L44.74,195.85L44.93,206.44L45.12,215.34L45.67,215.32L45.86,214.76L46.97,229.92L47.16,235.29L48.09,220.73L48.27,229.43L48.46,239.84L49.01,231.76L49.2,224.75L50.13,249.53L50.31,245.74L50.5,245.14L50.69,245.34L50.87,244.12L51.06,243.32L51.24,248.07L51.43,248.07L51.61,245.67L52.36,259.95L52.54,257.51L52.73,240.99L52.91,234.97L53.28,238.84L53.47,250L54.03,264.58L54.21,261.25L54.4,254.53L54.77,265.75L55.14,262.11L55.33,255.63L55.51,254.97L55.7,262.03L56.07,270.79L56.44,265.07L56.63,258.69L57,249.18L57.18,260.22L57.37,269.29L57.93,270.19L58.3,262.64L58.48,267.48L59.04,276.76L59.41,274.41L59.6,269.99L59.78,269.57L59.97,276.18L60.9,284.86L61.08,279.73L61.45,280.17L61.64,278.28L61.82,281.32L62.2,278.12L62.38,279.85L62.57,274.95L62.75,274.92L62.94,282.01L63.12,284.16L63.31,280.77L63.5,274.87L64.05,276.2L64.42,273.15L64.61,276.66L64.8,275.73L64.98,279.83L65.91,285.47L66.09,285.36L66.47,282.71L66.65,285.9L67.02,283.66L67.39,291.39L67.58,289.97L67.77,288.79L68.14,288.82L68.32,290.01L68.51,289.98L68.69,287.08L69.07,284.27L69.25,285.27L69.44,288.33L70.55,291.34L70.74,289.62L70.92,289.13L71.11,289.62L71.29,291.43L71.48,296.14L72.04,291.45L72.22,293.24L72.41,296.09L72.78,290.74L72.96,294.93L73.15,294.72L73.52,286.99L73.71,290.14L73.89,295.86L74.08,298.31L74.64,297.14L74.82,297.53L75.75,291.26L75.93,293.14L76.12,296.15L76.31,297.18L76.68,295.31L76.86,292.49L77.05,292.97L77.23,296.5L77.42,298.52L77.98,297.73L78.16,298.11L78.53,298L78.91,301.54L79.09,299.73L79.28,298.92L79.46,299.32L79.65,300.71L80.58,296.95L80.76,299.37L81.32,299.9L81.5,298.88L81.69,300.27L82.25,303.12L82.43,302.15L82.62,300.94L83.55,302.79L83.73,301.59L83.92,301.61L84.1,303.55L84.66,304.61L84.85,303.24L85.59,301.66L85.77,302.47L85.96,304.29L86.15,304.65L86.33,303.95L86.52,303.13L88,305.17L88.19,305.14L89.3,303.34L89.49,304.11L90.23,306.01L90.42,305.68L90.6,304.75L90.79,304.64L90.97,305.42L91.16,306.44L91.34,306.07L91.53,303L91.72,302.89L91.9,305.59L92.27,306.41L92.46,305.6L92.64,304.91L93.2,306.72L93.39,306.48L93.57,305.62L93.94,303.98L94.13,305.01L94.31,305.9L94.5,304.62L94.69,305.32L94.87,307.63L95.06,307.74L95.24,306.27L95.61,306.41L95.8,305.84L95.99,305.64L97.1,307.61L97.29,307.52L97.66,304.91L97.84,305.37L98.03,307.04L98.96,305.42L99.14,305.84L99.33,306.66L99.51,306.57L99.7,304.92L99.88,303.79L100.26,306.02L100.44,305.68L101.74,307.69L101.93,307.84L102.86,304.22L103.04,307.01L103.6,307.82L103.78,306.06L103.97,305.61L104.15,306.88L104.34,307.27L105.27,306.72L105.45,307.56L105.83,308.02L106.01,307.25L106.2,307.35L106.94,307.89L107.13,307.46L107.31,306.51L107.68,307.94L107.87,308.37L108.24,306.8L108.61,307.57L108.8,307.7L109.54,308.07L109.72,307.2L110.28,306.2L110.47,306.59L110.65,307.18L110.84,306.08L111.21,307.49L111.4,307.78L111.58,307.76L111.77,306.29L112.14,307.79L112.51,306.93L112.7,306.72L112.88,306.42L113.07,307.09L113.25,307.89L113.44,308.02L113.62,307.54L113.81,307L114.55,306.32L114.74,307.05L114.92,307.06L115.11,306.06L115.29,306.73L115.48,308.27L115.67,308.42L115.85,308.06L116.04,307.72L116.78,308L116.97,308.57L117.89,308.16L118.08,307.13L118.45,308.51L118.64,308.03L118.82,307.51L119.19,308.02L119.38,307.37L119.56,306.65L120.86,309.68L121.05,308.85L121.24,308.23L121.61,308.96L121.79,308.52L121.98,307.83L122.91,306.13L123.09,307.03L123.28,307.81L123.83,306.9L124.02,307.44L124.21,308.91L125.32,307.73L125.51,305.59L125.69,305.62L125.88,307.7L126.43,307.77L126.62,308.47L126.99,307.7L127.18,308.45L127.36,308.96L128.29,308.17L128.48,308.45L128.66,309.57L129.59,307.37L129.78,307.9L129.96,308.68L130.15,308.28L130.33,306.62L131.45,308.98L131.63,308.35L132.75,308.35L132.93,308.63L133.67,307.69L133.86,307.92L134.05,307.98L134.23,307.83L134.42,308.38L134.6,308.59L135.72,307.19L135.9,307.37L136.46,307.08L136.65,305.98L137.76,308.64L137.94,308.82L138.5,308.15L138.69,307.72L139.06,308.74L139.24,308.05L139.43,307.55L139.8,308.59L139.99,308.99L141.66,308.01L141.84,308.84L142.22,308.58L142.4,309.14L142.59,309.53L142.77,309.65L142.96,309.28L143.14,308.73L143.89,309.23L144.07,308.94L144.26,308.41L144.44,307.56L144.81,309.07L145,308.52L145.19,307.96L146.11,307.66L146.3,307.29L146.49,307.5L146.67,306.39L147.6,307.98L147.78,307.88L147.97,307.76L148.16,308.6L150.01,307.91L150.2,308.23L151.13,307.98L151.31,308.17L151.68,308.18L151.87,308.72L152.06,309.28L152.8,309.24L152.98,307.39L153.17,306.98L153.35,308.78L154.28,309.47L154.47,309.25L155.03,309.25L155.21,309.58L155.4,309.7L156.14,308.52L156.33,308.98L156.51,309.53L157.44,309.69L157.62,309.67L158.92,309.78L159.11,309.36L160.04,308.81L160.22,309.46L160.97,309.16L161.15,308.62L161.9,310.12L162.08,309.78L162.27,309.53L164.49,308.89L164.68,309.46L164.87,309.37L165.05,305.21L165.24,305.12L165.42,309.1L165.61,309.22L165.79,306.4L165.98,304.17L166.17,306.59L166.35,309.01L167.46,309.73L167.65,309.51L168.39,310.16L168.58,309.81L168.76,309.27L170.81,309.74L170.99,310.07L171.73,308.62L171.92,309.43L172.85,310.16L173.03,310.49L174.15,309.61L174.33,309.69L175.26,309.91L175.45,310.17L175.63,310.34L175.82,309.85L176.01,308.94L176.75,308.69L176.93,308.92L177.12,309.32L177.68,310.09L177.86,309.83L178.05,309.55L178.79,309.69L178.98,309.98L181.2,309.89L181.39,301.61L181.57,299.67L181.76,307.91L182.5,309.64L182.69,309.54L182.87,309.2L184.92,311.07L185.1,310.71L186.03,311.27L186.22,310.88L186.4,310.42L188.63,310.36L188.82,309.98L189.74,308.81L189.93,309.65L190.49,309.74L190.67,310.02L191.41,310.05L191.6,310L192.9,310.4L193.09,309.86L193.64,309.38L194.39,310.44L194.57,310.38L194.76,310.92L195.31,310.26L195.5,310.25L195.69,310.51L195.87,306.2L196.06,303.19L196.24,307.09L196.43,310.19L197.17,310.56L197.36,310.16L197.54,309.75L197.73,310.59L197.91,311.01L198.28,310.38L198.47,310.71L198.66,311.25L199.03,310.11L199.58,310.71L199.77,310.92L202.18,309.92L202.37,310.27L202.55,310.42L202.74,308.8L202.93,302.6L203.3,309.53L203.48,309.5L203.85,310.14L204.04,306.5L204.23,297.18L204.6,309.33L204.78,310.08L205.52,309.91L205.71,307.03L205.9,300.74L206.27,310.19L206.45,310.46L207.38,310.8L207.57,310.53L207.75,310.58L209.42,310.64L209.61,310.74L210.35,310.25L210.54,310.43L210.72,310.66L211.65,310.59L211.84,310.32L212.95,310.49L213.14,309.9L213.69,309.26L213.88,310.22L214.44,310.46L214.62,310.09L214.81,310.28L215.92,309.89L216.11,310.14L217.04,310.82L217.22,310.19L217.41,309.63L217.78,310.64L217.96,310.36L218.71,310.5L218.89,310.86L219.82,310.92L220.01,310.32L221.68,310.69L221.86,310.51L223.35,310.31L223.53,310.63L224.46,310.15L224.65,310.73L226.32,310.64L226.5,310.35L227.62,310.21L227.8,310.63L228.55,310.88L228.73,310.55L229.66,310.33L229.85,310.16L232.82,311.23L233,310.93L233.93,310.37L234.12,310.63L234.3,310.99L235.42,310.65L235.6,310.57L237.64,310.87L237.83,310.43L238.94,310.96L239.13,310.88L239.5,310.65L239.87,311.05L240.06,311.2L241.36,311.26L241.54,311.02L246,311.64L246.18,311.99L247.11,311.25L247.3,311.54L247.48,311.59L248.04,310.84L248.23,311.22L248.41,311.65L249.53,311.3L249.71,311.23L251.01,310.91L251.2,311.02L252.13,311.45L252.31,311.18L252.5,311.18L253.43,311.38L253.61,311.09L253.98,311.74L254.35,311.15L254.54,310.92L255.28,311.61L255.47,311.39L255.65,311.12L256.58,310.75L256.77,308.14L256.95,308.27L257.14,310.96L258.25,311.11L258.44,311.12L259.37,310.47L259.55,311.01L260.48,311.26L260.67,310.99L261.04,310.75L261.41,311.16L261.59,311.28L262.15,311.09L262.34,310.64L262.71,309.39L262.89,310.21L263.08,311.17L264.01,311.38L264.19,311.04L265.49,311.74L265.68,311.54L265.86,311.26L266.24,311.43L266.42,310.66L266.61,309.81L266.98,310.95L267.16,311.19L268.28,310.81L268.46,309.53L268.65,309.61L268.83,310.92L269.02,310.73L269.21,311.16L269.39,311.7L270.51,311.31L270.69,311.47L272.92,311.07L273.1,311.29L274.78,311.24L274.96,311.47L276.08,311.41L276.26,311.58L277.19,311.78L277.38,311.55L277.56,311.13L278.12,311.42L278.3,311.36L279.23,311.38L279.42,308.64L279.6,308.5L279.79,311.28L280.35,311.22L280.53,311.63L281.65,311.45L281.83,311.66L283.32,311.02L283.5,308.74L283.69,308.75L283.87,311.25L284.24,310.13L284.62,311.13L284.8,311.26L285.17,311.31L285.36,311.76L285.54,311.83L287.59,311.46L287.77,311.69L288.7,311.8L288.89,311.88L291.3,312L291.49,311.77L292.97,311.66L293.16,311.65L295.38,311.78L295.57,311.51L296.31,311.15L296.5,311.48L297.43,311.45L297.61,311.79L298.17,311.8L298.35,311.45L298.54,311.16L299.1,311.63L299.28,312.02L300.4,311.6L300.58,311.86L301.33,312.06L301.51,311.82L301.7,311.66L302.25,311.86L302.44,311.3L302.62,311.27L303.55,311.56L303.74,311.33L303.92,310.81L304.3,311.81L304.48,311.95L306.15,311.73L306.34,311.89L307.82,311.94L308.01,312.08L309.31,311.93L309.49,312.1L310.42,311.94L310.61,311.9L311.17,311.43L311.35,312.1L312.46,312.17L312.65,312.22L313.02,311.62L313.39,312.14L313.58,312.24L314.32,311.95L314.51,311.63L315.62,311.48L315.81,311.65L317.85,311.91L318.03,311.91L320.82,311.63L321.01,311.92L322.12,311.53L322.3,311.81L322.49,311.9L322.86,311.28L323.23,311.9L323.42,311.87L324.9,311.54L325.09,312.05L326.76,312.05L326.95,312.1L328.43,311.63L328.62,312L329.73,311.93L329.92,311.96L330.29,311.87L330.47,311.46L330.66,311.35L331.77,312.04L331.96,311.69L333.44,311.99L333.63,312.09L335.12,311.78L335.3,312L336.97,312.1L337.16,312.25L338.27,311.63L338.46,311.83L338.64,311.94L339.57,311.82L339.76,312.12L340.87,312.13L341.06,311.86L342.54,311.76L342.73,311.88L343.1,312.09L343.28,311.61L343.47,311.51L344.4,312.11L344.58,311.92L344.77,311.65L348.67,311.95L348.85,311.72L349.97,311.78L350.15,311.91L350.71,312.19L350.9,312.02L351.08,311.85L353.68,312.36L353.87,312.28L354.8,311.94L354.98,312.1L358.88,312.08L359.07,312.16L359.99,312.23L360.18,312.16L363.89,311.82L364.08,311.86L364.64,311.69L364.82,311.88L365.01,312.33L366.86,312.2L367.05,312.41L369.65,312.2L369.83,312.22L371.13,312.16L371.32,312.02L372.43,312.28L372.62,311.94L373.36,312.03L373.55,312.04L374.29,312.14L374.48,311.84L375.4,311.92L375.59,312.09L378.93,312.28L379.12,312.48L382.64,312.11L382.83,312.24L384.13,312.09L384.31,312.12L388.59,311.81L388.77,311.42L390.07,312.22L390.26,311.96L391.74,312.31L391.93,312.4L395.27,312.13L395.45,312.48L395.83,312.18L396.2,312.6L396.38,312.52L398.98,312.28L399.17,312.5L401.21,312.2L401.4,312.23L402.7,312.28L402.88,312.26L403.62,311.76L403.81,312.1L403.99,312.38L405.48,312.55L405.67,312.52L406.78,312.42L406.97,312.45L412.91,312.04L413.09,311.95L415.13,312.46L415.32,312.52L416.81,312.35L416.99,312.35L417.36,311.98L417.73,312.24L417.92,312.16L420.7,312.44L420.89,312.53L422,312.49L422.19,312.35L424.23,312.22L424.42,312.53L429.8,312.28L429.99,311.98L431.29,312.64L431.47,312.71L432.77,312.53L432.96,312.54L434.44,312.54L434.63,312.62L435.56,312.32L435.74,312.49L437.6,312.32L437.78,312.49L437.97,312.66L438.16,312.28L438.34,311.75L439.27,312.53L439.46,312.37L439.64,312.17L440.94,312.35L441.13,312.25L442.24,312.26L442.43,312.01L447.07,312.4L447.25,312.6L448.18,312.52L448.37,312.35L449.67,312.36L449.85,312.6L451.9,312.27L452.08,312.09L454.31,312.59L454.49,312.49L455.42,312.42L455.61,312.94L457.28,312.7L457.46,312.83L460.44,312.71L460.62,312.88L460.81,313.13L461.36,312.63L461.55,312.53L463.03,312.86L463.22,312.77L465.26,312.6L465.45,312.81L465.63,313.06L466.19,312.63L466.38,312.62L467.49,312.45L467.68,312.36L469.53,312.72L469.72,312.39L470.83,312.67L471.02,312.82L472.13,312.51L472.32,312.52L489.58,312.66L489.77,313.02L490.88,312.6L491.07,312.29L492.37,312.53L492.55,312.39L493.67,312.28L493.85,312.32L495.52,312.95L495.71,312.98L496.45,312.56L496.64,312.45L499.8,312.61L499.98,312.27L502.02,312.53L502.21,312.38L502.95,312.95L503.14,311.38L503.32,311.03L503.51,312.6L507.59,312.92L507.78,313.13L508.71,312.93L508.89,312.98L517.25,312.64L517.43,312.87L519.1,312.83L519.29,312.5L522.07,312.93L522.26,312.78L523.56,312.93L523.75,312.82L525.6,312.65L525.79,312.93L527.83,313.04L528.02,313.07L528.39,312.58L528.76,312.93L528.94,312.99L531.36,312.81L531.54,312.73L532.29,313.12L532.47,312.83L532.66,312.72L533.59,313.22L533.77,313.05L533.96,312.87L541.57,313.06L541.75,313.19L543.61,312.87L543.8,312.87L544.54,312.92L544.72,312.63L544.91,312.47L548.44,313.14L548.62,313.05L551.04,313.23L551.22,313.02L551.41,312.51L551.78,313.19L551.97,313.25L560.51,313.06L560.69,312.74L562.73,313.38L562.92,313.19L565.89,313.43L566.08,313.49L567.38,313.12L567.56,313.18L580,312.9"/><g class="points"/></g></g></g><g class="overplot"/><path class="xlines-above crisp" style="fill: none;" d="M0,0"/><path class="ylines-above crisp" style="fill: none;" d="M0,0"/><g class="overlines-above"/><g class="xaxislayer-above"><g class="xtick"><text text-anchor="middle" x="0" y="403" style="font-family: TOBESTRIPPEDOpen\ SansTOBESTRIPPED, verdana, arial, sans-serif; font-size: 12px; fill: rgb(68, 68, 68); fill-opacity: 1; white-space: pre;" transform="translate(60,0)">0</text></g><g class="xtick"><text text-anchor="middle" x="0" y="403" style="font-family: TOBESTRIPPEDOpen\ SansTOBESTRIPPED, verdana, arial, sans-serif; font-size: 12px; fill: rgb(68, 68, 68); fill-opacity: 1; white-space: pre;" transform="translate(176.04000000000002,0)">20</text></g><g class="xtick"><text text-anchor="middle" x="0" y="403" style="font-family: TOBESTRIPPEDOpen\ SansTOBESTRIPPED, verdana, arial, sans-serif; font-size: 12px; fill: rgb(68, 68, 68); fill-opacity: 1; white-space: pre;" transform="translate(292.07,0)">40</text></g><g class="xtick"><text text-anchor="middle" x="0" y="403" style="font-family: TOBESTRIPPEDOpen\ SansTOBESTRIPPED, verdana, arial, sans-serif; font-size: 12px; fill: rgb(68, 68, 68); fill-opacity: 1; white-space: pre;" transform="translate(408.11,0)">60</text></g><g class="xtick"><text text-anchor="middle" x="0" y="403" style="font-family: TOBESTRIPPEDOpen\ SansTOBESTRIPPED, verdana, arial, sans-serif; font-size: 12px; fill: rgb(68, 68, 68); fill-opacity: 1; white-space: pre;" transform="translate(524.15,0)">80</text></g></g><g class="yaxislayer-above"><g class="ytick"><text text-anchor="end" x="59" y="4.199999999999999" style="font-family: TOBESTRIPPEDOpen\ SansTOBESTRIPPED, verdana, arial, sans-serif; font-size: 12px; fill: rgb(68, 68, 68); fill-opacity: 1; white-space: pre;" transform="translate(0,376.25)">0</text></g><g class="ytick"><text text-anchor="end" x="59" y="4.199999999999999" style="font-family: TOBESTRIPPEDOpen\ SansTOBESTRIPPED, verdana, arial, sans-serif; font-size: 12px; fill: rgb(68, 68, 68); fill-opacity: 1; white-space: pre;" transform="translate(0,337.97)">0.2</text></g><g class="ytick"><text text-anchor="end" x="59" y="4.199999999999999" style="font-family: TOBESTRIPPEDOpen\ SansTOBESTRIPPED, verdana, arial, sans-serif; font-size: 12px; fill: rgb(68, 68, 68); fill-opacity: 1; white-space: pre;" transform="translate(0,299.69)">0.4</text></g><g class="ytick"><text text-anchor="end" x="59" y="4.199999999999999" style="font-family: TOBESTRIPPEDOpen\ SansTOBESTRIPPED, verdana, arial, sans-serif; font-size: 12px; fill: rgb(68, 68, 68); fill-opacity: 1; white-space: pre;" transform="translate(0,261.40999999999997)">0.6</text></g><g class="ytick"><text text-anchor="end" x="59" y="4.199999999999999" style="font-family: TOBESTRIPPEDOpen\ SansTOBESTRIPPED, verdana, arial, sans-serif; font-size: 12px; fill: rgb(68, 68, 68); fill-opacity: 1; white-space: pre;" transform="translate(0,223.13)">0.8</text></g><g class="ytick"><text text-anchor="end" x="59" y="4.199999999999999" style="font-family: TOBESTRIPPEDOpen\ SansTOBESTRIPPED, verdana, arial, sans-serif; font-size: 12px; fill: rgb(68, 68, 68); fill-opacity: 1; white-space: pre;" transform="translate(0,184.85)">1</text></g><g class="ytick"><text text-anchor="end" x="59" y="4.199999999999999" style="font-family: TOBESTRIPPEDOpen\ SansTOBESTRIPPED, verdana, arial, sans-serif; font-size: 12px; fill: rgb(68, 68, 68); fill-opacity: 1; white-space: pre;" transform="translate(0,146.57)">1.2</text></g><g class="ytick"><text text-anchor="end" x="59" y="4.199999999999999" style="font-family: TOBESTRIPPEDOpen\ SansTOBESTRIPPED, verdana, arial, sans-serif; font-size: 12px; fill: rgb(68, 68, 68); fill-opacity: 1; white-space: pre;" transform="translate(0,108.28999999999999)">1.4</text></g><g class="ytick"><text text-anchor="end" x="59" y="4.199999999999999" style="font-family: TOBESTRIPPEDOpen\ SansTOBESTRIPPED, verdana, arial, sans-serif; font-size: 12px; fill: rgb(68, 68, 68); fill-opacity: 1; white-space: pre;" transform="translate(0,70.01)">1.6</text></g></g><g class="overaxes-above"/></g></g><g class="polarlayer"/><g class="ternarylayer"/><g class="geolayer"/><g class="pielayer"/><g class="glimages"/><defs id="topdefs-a10b39"><g class="clips"/></defs><g class="layer-above"><g class="imagelayer"/><g class="shapelayer"/></g><g class="infolayer"><g class="g-gtitle"><text class="gtitle" style="font-family: TOBESTRIPPEDOpen\ SansTOBESTRIPPED, verdana, arial, sans-serif; font-size: 17px; fill: rgb(68, 68, 68); opacity: 1; font-weight: normal; white-space: pre;" x="350" y="30" text-anchor="middle">Distribution Entropy</text></g><g class="g-xtitle"><text class="xtitle" style="font-family: TOBESTRIPPEDOpen\ SansTOBESTRIPPED, verdana, arial, sans-serif; font-size: 14px; fill: rgb(68, 68, 68); opacity: 1; font-weight: normal; white-space: pre;" x="350" y="442" text-anchor="middle">Frames in Mio.</text></g><g class="g-ytitle"><text class="ytitle" transform="rotate(-90,22,225)" style="font-family: TOBESTRIPPEDOpen\ SansTOBESTRIPPED, verdana, arial, sans-serif; font-size: 14px; fill: rgb(68, 68, 68); opacity: 1; font-weight: normal; white-space: pre;" x="22" y="225" text-anchor="middle">Entropy</text></g></g></svg>