<svg class="main-svg" xmlns="http://www.w3.org/2000/svg" xmlns:xlink="http://www.w3.org/1999/xlink" width="700" height="450" style="" viewBox="0 0 700 450"><rect x="0" y="0" width="700" height="450" style="fill: rgb(255, 255, 255); fill-opacity: 1;"/><defs id="defs-3b9be9"><g class="clips"><clipPath class="plotclip" id="clip3b9be9xyplot"><rect width="484" height="330"/></clipPath><clipPath class="axesclip" id="clip3b9be9x"><rect x="60" y="0" width="484" height="450"/></clipPath><clipPath class="axesclip" id="clip3b9be9y"><rect x="0" y="60" width="700" height="330"/></clipPath><clipPath class="axesclip" id="clip3b9be9xy"><rect x="60" y="60" width="484" height="330"/></clipPath></g><g class="gradients"/></defs><g class="bglayer"><rect class="bg" x="60" y="60" width="484" height="330" style="fill: rgb(255, 255, 255); fill-opacity: 1; stroke-width: 0;"/></g><g class="layer-below"><g class="imagelayer"/><g class="shapelayer"/></g><g class="cartesianlayer"><g class="subplot xy"><g class="layer-subplot"><g class="shapelayer"/><g class="imagelayer"/></g><g class="gridlayer"><g class="x"><path class="xgrid crisp" d="M0,60v330" transform="translate(156.70999999999998,0)" style="stroke: rgb(238, 238, 238); stroke-opacity: 1; stroke-width: 1px;"/><path class="xgrid crisp" d="M0,60v330" transform="translate(253.57,0)" style="stroke: rgb(238, 238, 238); stroke-opacity: 1; stroke-width: 1px;"/><path class="xgrid crisp" d="M0,60v330" transform="translate(350.43,0)" style="stroke: rgb(238, 238, 238); stroke-opacity: 1; stroke-width: 1px;"/><path class="xgrid crisp" d="M0,60v330" transform="translate(447.29,0)" style="stroke: rgb(238, 238, 238); stroke-opacity: 1; stroke-width: 1px;"/></g><g class="y"><path class="ygrid crisp" d="M60,0h484" transform="translate(0,325.91)" style="stroke: rgb(238, 238, 238); stroke-opacity: 1; stroke-width: 1px;"/><path class="ygrid crisp" d="M60,0h484" transform="translate(0,271.22)" style="stroke: rgb(238, 238, 238); stroke-opacity: 1; stroke-width: 1px;"/><path class="ygrid crisp" d="M60,0h484" transform="translate(0,216.52)" style="stroke: rgb(238, 238, 238); stroke-opacity: 1; stroke-width: 1px;"/><path class="ygrid crisp" d="M60,0h484" transform="translate(0,161.82999999999998)" style="stroke: rgb(238, 238, 238); stroke-opacity: 1; stroke-width: 1px;"/><path class="ygrid crisp" d="M60,0h484" transform="translate(0,107.13)" style="stroke: rgb(238, 238, 238); stroke-opacity: 1; stroke-width: 1px;"/></g></g><g class="zerolinelayer"><path class="yzl zl crisp" d="M60,0h484" transform="translate(0,380.61)" style="stroke: rgb(68, 68, 68); stroke-opacity: 1; stroke-width: 1px;"/></g><path class="xlines-below"/><path class="ylines-below"/><g class="overlines-below"/><g class="xaxislayer-below"/><g class="yaxislayer-below"/><g class="overaxes-below"/><g class="plot" transform="translate(60, 60)" clip-path="url(#clip3b9be9xyplot)"><g class="imagelayer"/><g class="maplayer"/><g class="barlayer"/><g class="carpetlayer"/><g class="violinlayer"/><g class="boxlayer"/><g class="scatterlayer"><g class="trace scatter tracee5f74e" style="stroke-miterlimit: 2; opacity: 1;"><path class="js-line" style="vector-effect: non-scaling-stroke; fill: none; stroke: rgb(31, 119, 180); stroke-opacity: 1; stroke-width: 2px; opacity: 1;" d="M0,309.91L0.15,309.56L0.31,311.12L0.46,311.2L0.62,309.59L1.08,307.75L1.24,309.52L1.39,310.57L1.55,306.15L2.01,310.07L2.17,310.81L2.63,311.39L2.94,304.96L3.1,307.83L3.25,308.48L3.41,305.95L4.03,306.86L4.18,306.69L4.34,306.52L4.49,308.04L4.65,302.46L5.11,307.25L5.27,309.44L6.35,301.9L6.51,304.38L6.82,303.46L7.28,306.77L7.44,304.56L7.59,306.44L8.06,303.9L8.21,304.45L8.52,305.84L8.83,304.72L8.99,300.61L9.14,299.55L9.3,304.49L10.54,292.12L10.69,296.23L10.85,300.69L11,300.54L11.16,301.75L11.62,305.22L11.93,298.23L12.09,300.28L12.24,303.46L12.4,297.12L12.86,301.3L13.02,300.89L13.64,291.07L14.1,292.22L14.26,293.85L14.57,295.31L14.88,292.94L15.03,294.7L15.34,289.55L15.65,295.57L15.81,295.46L15.96,294.35L16.12,300.01L16.27,297.29L16.74,300.85L16.89,301.27L17.51,291.71L17.82,293.33L17.98,294.46L18.91,288.97L19.06,292.06L19.37,286.78L19.68,291.52L19.84,294.61L21.08,280.35L21.23,284.96L21.54,292L21.85,291.21L22.01,286.91L22.16,284.98L22.32,292.96L22.78,289.6L22.94,292.93L23.09,294.71L23.56,274.98L24.02,275.45L24.18,274.17L24.8,284.96L24.95,282.38L25.11,280.16L25.42,285.59L25.73,277.08L25.88,277.96L26.04,271.99L26.5,279.48L26.66,281.19L26.81,283.59L26.97,282.99L27.12,274.99L27.59,265.53L27.9,268.06L28.05,279.22L28.36,269.94L28.67,280.86L28.83,276.97L28.98,285.22L29.14,286.59L29.29,279.89L29.45,280.17L29.6,282.09L30.53,268.18L30.69,273.18L30.84,270.65L31,274.06L31.31,271.33L31.46,274.06L31.77,272.2L32.08,280.47L32.24,268.15L32.39,278.53L32.86,275.43L33.01,264.62L33.32,263.21L33.48,264.93L33.63,266.77L33.94,281.15L34.41,275.32L34.56,267.34L34.87,281.23L35.18,266.04L35.34,264.59L35.49,277.31L35.96,258.93L36.11,270L36.27,276.85L36.58,261.64L37.04,272.89L37.2,272.24L37.66,255.78L37.97,259.64L38.12,263.55L38.28,254.15L38.9,259.84L39.05,263.06L39.21,265.23L39.36,260.1L39.52,260.75L39.67,260.67L39.83,269.59L40.14,258.58L40.29,258.88L40.45,254.65L40.6,262.56L41.07,248.13L41.22,254.54L41.38,242.6L41.84,261.18L42,256.28L42.62,242.83L42.77,256.67L42.93,248.35L43.08,262.54L43.24,253.43L43.39,263.63L43.7,264.45L44.17,242.14L44.48,246.63L44.63,255.8L45.1,272.46L45.25,253.1L45.41,252.33L45.56,255.59L45.72,245.2L45.87,251.59L46.03,239.71L46.34,264.04L46.65,246.75L46.8,245.63L46.96,251.17L47.27,237.53L47.42,244.07L47.58,229.68L47.73,230.79L47.89,249.11L48.2,244.31L48.35,260.84L48.82,238.81L49.13,257.33L49.28,247.8L49.59,266.6L50.06,259.66L50.21,249.41L50.83,229.57L50.99,236.08L51.14,244.79L51.3,247.61L51.45,246.3L51.61,230.93L52.54,251.12L52.69,244.87L52.85,282.59L53.31,240.95L53.47,245.22L53.62,246.39L53.78,240.31L54.09,237.09L54.4,256.83L54.55,249.92L54.71,246.83L54.86,260.88L55.17,234.95L55.33,249.91L55.48,244.19L55.95,251.34L56.1,232.5L56.57,257.46L56.88,248.41L57.03,241.22L57.34,253.06L57.81,247.13L57.96,247.6L58.27,241.82L58.89,260.27L59.05,221.59L59.2,245.54L59.82,238.8L59.98,248.86L61.06,228.85L61.22,240.54L61.37,215.94L61.53,249.27L61.99,234.28L62.15,222.86L62.3,250.68L62.92,238.89L63.08,239.52L63.23,238.86L63.39,241.98L63.54,243.16L63.7,222.43L64.47,245.63L64.63,235.63L64.94,235.56L65.09,240.38L65.4,237.13L65.56,233.67L65.87,241.48L66.02,236.43L66.18,226.64L66.33,229.24L66.49,228.57L66.64,208.9L66.8,238.61L67.42,228.23L67.57,223.24L67.73,212.12L67.88,236.74L68.19,227L68.35,229.33L68.66,219.75L68.81,243.59L68.97,231.72L69.12,230.02L69.9,250.31L70.05,226.82L70.21,224.36L70.36,230.46L70.52,232.18L70.67,231.42L70.83,236.22L71.29,240.46L71.45,218.06L71.6,222.78L71.76,232.54L72.22,227.39L72.53,246.34L72.69,219.78L72.84,247.68L73.46,232.05L73.62,242.11L73.77,240.19L73.93,228.06L74.08,228.31L74.24,243.72L74.7,221.86L75.16,222.57L75.32,219.07L76.09,238.45L76.25,230.31L76.71,229.55L76.87,237.98L77.02,226.2L77.18,225.46L77.33,228.19L77.49,222.5L77.95,205.11L78.26,242.44L78.42,206.8L78.57,246.39L79.19,222.57L79.35,228.26L79.5,213.01L79.81,232.63L79.97,223.16L80.12,234.11L80.28,226.29L80.59,236.84L80.74,229.2L80.9,234.74L81.05,202.52L81.21,235.62L81.52,233.12L81.67,237.82L82.29,213.06L82.45,245.92L82.91,205.69L83.22,225.24L83.38,236.79L84.15,204.16L84.31,232.8L84.62,210.32L84.93,213.89L85.08,233.62L85.24,238.89L85.39,235.01L85.55,223.48L85.86,227.36L86.01,235.9L86.17,221.33L86.63,242.04L86.79,240.66L87.41,214.99L87.72,220.8L87.87,229.92L88.18,214.08L88.65,216.64L88.8,232.94L88.96,240.96L89.42,227.65L89.58,222.93L89.73,211.37L90.2,230.35L90.35,232.94L90.82,236.04L91.13,218.71L91.28,239.86L91.44,212.38L92.06,213.54L92.21,214.29L92.52,238.75L92.83,217.26L92.99,215.35L93.14,232.35L93.3,207.77L93.61,212.72L93.76,210.41L93.92,203.2L94.07,224.24L94.23,221.13L94.38,217.97L94.85,227.28L95,194.77L95.16,210.42L95.31,226.95L95.47,216.11L95.78,219.84L95.93,239.33L96.09,214.51L96.71,219.59L96.86,240.06L97.48,215.34L97.79,219.32L97.95,219.93L98.57,243.83L98.72,230.93L98.88,218.42L99.03,224.59L99.5,222.44L99.65,203.25L99.81,242.77L100.43,228.94L100.58,228.16L101.2,203.77L101.36,230.12L101.51,226.73L101.67,199.34L102.6,230.71L102.75,233.44L103.53,215.82L103.68,216.81L103.84,218.62L104.15,206.32L104.3,220.23L104.46,214.9L104.61,217.85L104.77,194.95L105.23,222.91L105.39,228.56L106.16,197.92L106.32,220.63L106.47,224.22L106.63,210.3L106.78,220.85L106.94,235.72L107.25,201.63L107.71,225.48L107.87,225.63L108.18,211.23L108.33,215.83L108.49,227.77L109.26,209.89L109.42,221.76L109.57,226.17L109.73,222.4L109.88,211.67L110.19,224.39L110.35,208.72L110.66,221.96L110.81,203.91L111.12,202.81L111.28,223.31L111.43,210.4L111.59,199.38L111.89,224.38L112.36,223.74L112.51,213.17L112.82,210.29L113.29,225L113.44,221.22L113.6,211.27L113.91,229.85L114.06,212.21L114.68,207.1L114.99,228.35L115.15,203.93L115.3,205.75L115.46,200.24L115.61,227.11L115.92,223.26L116.08,228.17L116.23,204.05L116.85,228.98L117.01,200.23L117.47,226.26L117.78,222.82L117.94,211.99L118.09,208.67L118.25,218.45L118.4,224.81L118.71,189.59L118.87,232.38L119.8,200.69L119.95,218.43L120.11,229.17L120.26,193.3L120.57,226.68L120.73,204.21L120.88,205.91L121.04,223.91L121.19,224.3L121.35,199.56L121.66,188.21L122.28,234.82L122.43,228.61L122.59,212.03L122.74,196.95L123.21,207.33L123.36,222.95L123.52,224.64L123.67,207.72L123.83,200.4L123.98,218.36L124.14,214.16L124.29,231.31L124.76,205.83L125.22,212.71L125.38,216.61L126.46,195.98L126.62,204.05L127.39,224.77L127.55,209.01L127.7,212.04L127.86,197.32L128.32,216.14L128.48,209.41L128.63,192.78L128.79,190.17L128.94,199.08L129.1,202.54L129.41,195.3L129.56,218.88L130.18,194.37L130.49,196.92L130.65,216.29L130.8,195.15L131.27,222.76L131.42,195.7L131.58,205.89L132.04,224.91L132.2,191.74L132.35,201.14L132.51,204.91L132.66,216.96L132.97,200.19L133.13,193.34L133.44,218.66L133.9,203.18L134.06,194.17L134.21,208.47L134.37,193.44L134.68,196.47L134.83,187.09L135.45,206.92L135.61,200.81L135.76,182.98L136.23,178.62L136.54,206.07L136.69,205.25L136.85,200.58L137,187.44L137.31,207.12L137.47,203.29L137.62,297.33L138.55,192.23L138.71,208.42L138.86,217.37L139.02,196.73L139.17,182.29L139.33,183.96L139.48,223.03L140.1,177.01L140.26,190.65L140.41,205.95L140.72,182.07L140.88,211.33L141.03,204L141.19,214.71L141.34,182.28L141.96,189.67L142.12,198.65L142.43,191.76L142.58,205.08L142.74,183.39L143.36,198.04L143.51,198.93L143.67,203.72L143.82,202.6L143.98,189.64L144.44,171.42L144.6,196.09L144.75,186.1L144.91,182.75L145.06,172.54L145.37,190.42L145.53,202.83L145.68,210.18L145.84,178.14L145.99,175.64L146.15,198.5L146.61,185.48L146.77,188.55L146.92,212.4L147.39,172.72L147.7,176.12L147.85,199.96L148.63,184.11L148.78,207.18L149.71,166.3L149.86,184.83L150.64,205.07L150.79,177.24L151.1,215.48L151.26,296.02L152.03,190.9L152.19,197.47L152.34,197.88L152.5,198.93L152.65,179.89L153.12,165.43L153.27,209.7L153.43,170.7L153.74,215.36L154.2,194.52L154.36,189.34L154.51,186.71L154.67,201.17L154.82,160.07L155.44,193.96L155.6,185.29L155.75,175.11L156.06,190.19L156.22,208.06L157.3,175.8L157.46,173.67L157.61,207.4L157.92,152.06L158.08,191.11L158.23,174.44L158.39,202.25L158.85,175.82L159.01,176.48L159.32,160.76L159.47,193.21L159.63,162.9L159.94,212.29L160.4,186.11L160.56,189.95L160.87,170.24L161.18,172.33L161.33,197.91L161.49,216.79L161.64,179.09L161.8,179.28L161.95,179.18L162.11,178.95L162.26,188.07L162.73,188.98L163.04,182.75L163.19,197.88L163.35,297.51L163.66,161.45L163.81,186.19L163.97,178.81L164.9,201.03L165.05,166.07L165.36,149.98L166.14,200.73L166.29,180.02L166.45,180.11L166.6,172.53L166.91,176.77L167.07,179.56L167.22,178.68L167.38,163.88L168.15,188.44L168.31,186.52L168.46,171.95L169.08,201.93L169.24,246.06L170.01,186.95L170.17,297.35L170.79,162.76L171.1,184.38L171.25,182.34L171.41,182.25L171.56,275.7L172.65,169.41L172.8,181.2L172.96,181.28L173.11,180.58L173.27,182.98L173.42,180.85L173.58,191.7L174.2,193.32L174.35,172.37L174.51,180.35L174.66,180.69L174.82,193.66L175.44,173.27L175.75,180.62L175.9,178.86L176.83,152.52L176.99,194.51L177.14,207.61L177.3,165.83L177.45,182.42L177.61,163.63L178.07,203.69L178.23,180.51L178.38,150.65L179,192.83L179.16,189.01L179.31,168.25L179.62,197.17L180.09,188L180.24,176.07L180.4,180.22L180.71,170.33L180.86,162.31L181.17,183.65L181.33,163.56L181.48,180.51L181.95,170.33L182.1,160.38L182.57,173.53L182.72,143.72L183.03,188.46L183.5,160.41L183.65,164.81L183.81,158.17L183.96,166.47L184.12,189.1L185.05,140.23L185.2,173.31L185.67,204.46L185.98,188.34L186.13,187.51L186.28,188.97L186.44,173.27L186.9,166.97L187.06,185.63L187.21,169.72L187.37,175.4L187.52,156.04L187.68,158.47L187.83,186.82L188.45,165.01L188.61,170.67L188.76,152.74L189.23,180.05L189.38,164.45L189.54,172.94L189.85,177.43L190,154.31L190.16,187.22L190.78,168.95L190.93,169.55L191.09,168.78L191.24,153.26L191.4,190.74L192.02,175.87L192.17,175.61L192.33,170.19L192.48,188.39L192.64,128.34L193.57,194.16L193.72,169.17L194.34,178.02L194.5,156.86L194.65,188.44L195.43,155.51L195.58,177.8L195.89,181.4L196.2,150.41L196.36,163.47L196.51,173.75L196.67,176.88L196.82,171.04L196.98,159.68L197.13,185.77L197.29,152.38L197.6,175.45L197.75,154.12L197.91,167.64L198.37,158.56L198.53,148.67L199.3,200.9L199.46,174.43L199.61,185.76L199.77,153.4L199.92,175.28L200.08,160.1L200.39,159.66L200.54,181.45L200.7,138.49L201.32,178.05L201.63,170.06L201.78,147.03L202.25,177.53L202.56,170.04L202.71,156.41L203.02,167.6L203.18,150.53L203.8,180.53L203.95,164.03L204.11,156.05L204.26,140.59L204.73,168.66L204.88,154L205.04,183.38L205.5,154.07L205.66,148.14L205.81,149.2L205.97,179.27L206.43,147.15L206.59,173L206.74,135.09L206.9,182.32L207.21,160.35L207.36,175L207.52,132.35L208.14,150.07L208.29,166L208.6,158.76L208.76,168L208.91,181.97L209.07,184.81L209.22,145.5L210.15,187.32L210.31,170.67L210.77,136.56L210.93,149.72L211.08,156.37L211.55,181.55L211.86,161.89L212.01,148.26L212.32,190.17L212.63,178.2L212.79,136.51L213.41,198.17L213.56,163.9L213.72,156.5L213.87,162.89L214.03,150.38L214.18,263.85L214.8,139.29L214.96,158.11L215.11,165.48L215.42,141.58L215.58,173.81L215.73,162.41L215.89,173.35L216.2,145.69L216.66,155.7L216.82,171.48L216.97,130.26L217.44,182.51L217.59,164.46L217.75,165.88L217.9,161.56L218.06,170.61L218.21,181.94L218.52,184.6L219.14,137.93L219.3,164.74L219.76,138.03L220.07,145.48L220.23,178.05L220.54,162.74L220.85,173.39L221,196.29L221.47,144.53L221.93,157.83L222.09,137.55L222.24,169.77L222.86,144.64L223.02,144.11L223.94,189.2L224.1,146.28L224.25,177.09L224.56,141.19L224.87,163.76L225.03,158.94L225.18,160.61L225.34,158.7L225.49,173.44L225.96,139.93L226.11,168.42L226.27,175.85L226.58,120.65L227.04,166.61L227.2,146.18L227.35,155.11L227.66,133.55L227.82,148.24L227.97,143.95L228.13,129.46L228.28,179.86L228.59,140.21L228.75,141.43L229.06,143.93L229.21,119.89L229.83,170.99L229.99,155L230.14,133.83L230.92,164.8L231.07,162.95L231.23,159.4L231.38,154.81L231.54,172.56L231.69,170.27L232,129.72L232.31,178.57L232.47,159.71L232.62,156.41L232.78,141.35L232.93,178.73L233.09,282.89L233.86,141.09L234.02,166.72L234.33,108.33L234.48,168.69L234.79,140.86L234.95,158.51L235.57,138.37L235.72,161.19L235.88,164.82L236.03,108.87L236.5,230.14L236.81,168.78L236.96,165.83L237.43,119.18L237.74,151.47L237.89,162.72L238.05,178.44L238.2,142.31L238.36,149.47L238.51,140.84L238.67,118.55L238.82,158.39L238.98,140.31L239.13,168.68L239.29,173.83L239.44,165.38L239.6,149.88L239.75,157.63L239.91,136.57L240.06,140.31L240.22,197.79L240.53,118.52L240.99,119.68L241.15,157.11L241.61,169.24L241.92,132.84L242.08,176.63L242.23,182.97L242.39,147.99L242.54,145.4L242.7,156.66L242.85,163.62L243.01,151.91L243.16,129.37L243.78,155.11L243.94,186.45L244.25,119.16L244.71,171.32L244.87,149.97L245.02,139.33L245.18,158.3L245.49,139.99L245.64,160.5L245.95,151.83L246.11,165.2L246.26,125.32L246.73,179.92L246.88,127.82L247.04,130.55L247.19,134.8L247.35,164.92L247.5,116.52L247.81,178.44L248.12,135.5L248.28,170.59L248.43,171.09L248.59,151.92L248.9,141.2L249.05,164.51L249.83,124.42L249.98,134.34L250.45,126.77L250.76,156.81L250.91,145.74L251.07,125.65L251.53,157.8L251.69,156.62L252,184.24L252.15,126.33L252.46,130.04L252.62,167.3L252.93,115.03L253.39,128.65L253.55,137.57L253.7,161.27L254.01,130.83L254.17,132.24L254.32,130.26L254.63,119.19L255.1,171.97L255.25,171.15L255.72,143.99L255.87,115.78L256.34,164.27L256.65,125.29L256.8,128.33L257.58,171.01L257.73,133.39L257.89,157.04L258.04,124.25L258.51,139.92L258.66,144.64L258.82,122.23L259.13,152.87L259.28,136.53L259.44,159.07L259.59,142.09L260.06,160.61L260.21,157.03L260.67,126.97L260.83,156.02L260.98,179.65L261.45,123.77L261.76,126.28L261.91,134.36L262.07,142.82L262.22,118.02L262.38,182.79L262.84,116.97L263.31,122.62L263.46,153.66L263.62,156.35L263.77,138.62L264.24,114.19L264.39,163.67L264.55,108.88L265.32,166.37L265.48,154.04L265.79,156.75L266.41,110.93L266.56,150.11L266.72,135.2L266.87,158.91L267.18,142.31L267.34,154.81L268.11,94.96L268.27,143.69L268.42,128.93L268.58,160.14L269.04,131.25L269.2,143.04L269.35,154.22L269.51,110.19L269.82,180.92L270.28,153.78L270.44,158.87L270.75,166.58L271.06,121.29L271.21,144.56L271.37,164.54L271.99,115.98L272.14,142.9L272.3,127.08L272.76,122.82L272.92,153.3L273.07,152.65L273.23,104.26L274.16,153.79L274.31,123.62L274.47,115.6L274.62,121.31L274.78,160.84L275.4,134.8L275.71,138.2L275.86,150.92L276.17,152.78L276.33,105.76L276.79,123.47L276.95,146.03L277.1,121.48L277.72,134.56L277.88,142.74L278.19,156.88L278.34,124.74L278.96,157.11L279.27,146.4L279.43,118.05L279.58,114.8L279.74,143.26L279.89,105.2L280.2,154.43L280.36,134.32L280.51,153.28L280.82,113.46L280.98,169.8L281.13,129.82L281.29,161.08L281.91,131.13L282.06,148.2L282.22,139.46L282.37,139.44L282.53,111.69L283.15,150.11L283.3,104.83L283.92,156.1L284.08,118.39L284.7,159.6L284.85,118.46L285.16,133.24L285.32,103.73L285.94,163.2L286.09,124.85L286.25,100.12L286.71,144.2L287.02,137.13L287.18,118.25L287.49,161.96L288.11,153.09L288.26,115.58L288.42,116.95L288.57,134.28L288.73,119.62L289.04,151.48L289.19,143.39L289.35,140.02L289.5,139.39L289.66,149.04L289.97,158.49L290.74,89.72L290.9,125.9L291.52,104.11L291.67,141.37L291.98,115.76L292.14,121.33L292.29,144.41L292.76,121.75L293.07,126.58L293.22,133.17L293.38,117.17L293.69,158.47L293.84,138.58L294,133.5L294.15,134.09L294.31,130.97L294.46,97.92L294.77,132.53L294.93,165.9L295.7,107.41L295.86,135.4L296.01,152.09L296.79,102.7L296.94,125.75L297.1,135.86L297.25,143.54L297.41,122.19L297.56,100.05L297.87,132.08L298.18,83.67L298.33,103.04L298.8,142.43L299.11,121.77L299.26,113.3L299.42,154.79L299.57,110.05L300.04,132.96L300.19,138.07L300.35,154.47L300.81,136.04L300.97,117.9L301.74,141.8L301.9,156.58L302.21,160.48L302.67,117.15L302.83,119.57L302.98,135.23L303.14,134.45L303.29,114.57L303.45,90.96L303.6,154.71L303.76,159.73L303.91,157.72L304.07,129.91L304.69,107.52L304.84,123.22L305,152.87L305.15,111.63L305.62,118.54L305.77,152.58L305.93,149.09L306.08,122.82L306.39,130.67L306.7,114L306.86,132.84L307.01,148.79L307.48,127.24L307.63,119.9L307.94,96.21L308.41,162L308.56,154.45L308.72,116.38L308.87,104.12L309.03,111.92L309.18,141.47L309.96,101.49L310.11,141.14L310.89,109L311.04,130.03L311.2,123.75L311.35,155.93L311.51,158.59L311.66,132.01L311.82,86.61L312.28,113.03L312.44,158.38L313.06,110.98L313.37,124.15L313.52,150.57L313.68,158.63L313.83,132.32L313.99,78.62L314.61,133.83L314.76,117.18L314.92,119.77L315.23,149.57L315.38,142.23L315.54,85.09L316.31,174.25L316.47,126.57L316.78,123.16L316.93,131.39L317.09,150.83L317.86,103.57L318.02,139.38L318.17,114.03L318.48,142.34L318.64,138.63L318.79,141.72L319.41,148.55L319.88,97.19L320.03,121.8L320.19,140.65L320.65,116.06L320.81,94.25L321.43,143.03L321.58,106.03L321.74,116.34L321.89,117.69L322.05,130.05L322.2,88.67L322.67,140.92L322.82,108.93L322.98,124.66L323.29,120.3L323.75,166.27L323.91,118.57L324.84,159.79L324.99,107.59L325.15,133.87L325.46,106.35L325.77,119.18L325.92,122.06L326.23,116.64L326.39,97.54L327.32,145.52L327.47,129.21L327.94,114.86L328.09,152.2L328.71,152.41L329.02,127.36L329.18,164.67L329.64,101.8L329.95,149.41L330.11,152.88L331.04,72.27L331.19,113.37L331.5,167.29L331.81,116.07L331.97,107.3L332.43,72.93L332.59,147.44L332.74,120.5L332.9,93.47L333.67,144.48L333.98,128.48L334.14,112.54L334.29,101.77L334.45,136.74L334.6,143.27L334.76,143.27L334.91,104.34L335.37,139.88L335.68,127.27L335.84,103.4L335.99,73.13L336.15,118.07L336.3,116.63L336.46,148.41L336.61,148.66L336.77,112.33L337.08,120.38L337.39,101.95L337.54,148.38L337.85,92.06L338.16,129.61L338.32,157.85L338.78,115.75L338.94,161.86L339.09,106.05L339.71,146.55L339.87,129.79L340.02,120.52L340.18,122.09L340.33,151.08L340.64,136.84L340.8,109.9L340.95,94.14L341.42,115.14L341.57,122.87L342.04,132.95L342.35,104.18L342.5,141.5L342.81,94.61L343.12,116.31L343.28,123.2L343.59,101.14L343.74,116.16L343.9,63.51L344.83,146.91L344.98,120.77L345.14,123.69L345.29,146.63L345.6,135.9L345.76,94L346.07,151.94L346.38,115.59L346.53,106.83L346.69,98.99L346.84,161.41L347,112.25L347.62,150.69L347.77,145.33L348.08,104.09L348.24,118.32L348.39,157.35L348.86,106.6L349.01,157.61L349.17,112.28L349.32,123.37L349.48,121.68L349.63,109.05L349.94,139.99L350.25,133.94L350.41,90.04L350.87,146.85L351.34,144.47L351.49,133.33L352.11,80.53L352.27,118.66L352.42,113.74L352.73,151.26L353.04,74.08L353.2,128.51L353.51,136.4L353.66,117.95L353.97,98.62L354.13,113.48L354.28,132.11L354.9,108.72L355.06,113.25L355.21,137.95L355.37,135.92L355.52,98.71L356.45,142.98L356.61,107.66L356.76,104.32L356.92,122.68L357.07,141.91L357.38,109.35L357.54,102.01L357.69,136.57L358.31,119.78L358.47,101.74L358.62,145.45L358.93,88.82L359.09,118.53L359.24,99.38L359.4,148.88L359.71,97.81L360.02,108.7L360.17,95.85L360.64,83.62L361.1,131.45L361.26,139.74L361.41,101.82L361.72,145.88L361.88,106.5L362.03,136.14L362.19,110.92L362.65,118.29L362.81,144.28L362.96,139.57L363.12,86.9L363.89,128.25L364.05,121.28L364.2,93.36L364.82,132.35L364.98,121.34L365.13,107.75L365.29,105.63L365.44,124.04L365.75,125.38L366.06,95.46L366.22,98.64L366.37,115.16L366.68,120.31L366.84,151.04L367.3,98.22L367.61,108.42L367.77,118.46L367.92,82.59L368.08,142.32L368.39,97.86L368.54,135.04L368.7,92.12L369.01,154.04L369.32,117.75L369.47,132.33L369.94,140.07L370.25,85.27L370.4,125.54L371.02,108.79L371.18,133.61L371.95,99.42L372.11,102.52L372.26,110.18L372.57,113.22L372.72,104.72L372.88,137.39L373.34,86.75L373.65,102.93L373.81,118.62L374.12,95.79L374.43,138.38L374.58,95.84L374.89,159.04L375.05,137.41L375.2,105.36L375.51,90.53L375.67,130.31L376.44,92.79L376.6,119.67L376.91,110.71L377.06,152.5L377.22,101.31L377.68,95.34L377.84,141.09L377.99,102.47L378.15,105.34L378.3,136.04L378.46,141.43L378.77,126.63L378.92,110.57L379.08,119.88L379.23,74.17L379.85,119.78L380.01,92.25L380.16,90.27L380.78,88.4L381.09,134.97L381.25,81.12L381.4,143.5L381.87,101.11L382.02,82.08L382.95,144.98L383.11,115.4L383.26,119.99L383.42,85.87L384.19,150.74L384.35,107.08L385.28,138.29L385.43,126.19L385.59,138.26L385.9,111.97L386.21,128.95L386.36,90.96L387.14,125.41L387.29,102.15L387.45,103.81L387.6,122.92L388.07,132.35L388.22,81.63L388.38,133.47L388.53,132.92L388.69,91.36L388.84,90.49L389,108.02L389.31,107.63L389.46,135.84L389.62,124.4L389.77,109.55L390.39,103.17L390.7,142.06L390.86,120.96L391.01,119.9L391.17,106.28L391.48,82.63L391.63,101.53L391.79,116.42L391.94,92.81L392.25,124.02L392.56,100.1L392.72,119.18L393.03,114.79L393.18,122.22L393.34,118.89L393.49,116.5L394.27,93.7L394.42,103.12L394.58,112.69L394.89,108.07L395.04,117.05L395.35,84.94L395.51,140.19L396.13,85.87L396.44,105.28L396.59,86.87L396.75,79.96L396.9,88.96L397.06,117.51L397.21,84.83L397.37,131.82L397.83,99.18L397.99,79.43L398.76,127.11L398.92,112.72L399.38,102.58L399.54,139.15L399.69,110.94L399.85,96.01L400.31,108.66L400.47,135.89L400.62,100.39L401.24,113.73L401.4,146.01L402.33,84.12L402.48,127.35L402.64,150.04L403.1,125.01L403.26,123.16L403.57,94.6L403.88,126.61L404.03,121.79L404.65,91.92L404.81,140.66L405.12,165.11L405.27,114.97L405.43,133.55L405.58,102.75L405.89,108.17L406.05,107.26L406.2,92.58L406.36,136.74L406.67,101.76L406.82,119.26L406.98,96.25L407.13,129.48L407.44,101.03L407.6,131.78L408.37,94.2L408.53,127.06L408.99,79.9L409.15,96.01L409.3,120.24L409.46,117.41L409.61,136.5L410.54,76.24L410.69,107.3L411,86.7L411.31,116.23L411.47,96.71L411.62,116.96L411.93,128.8L412.4,90.06L412.55,99.33L412.71,111.47L412.86,120.31L413.02,96.43L413.17,94.22L413.33,112.8L413.64,87.12L413.95,105.7L414.1,77.73L415.03,137.77L415.19,104.01L415.34,106.97L415.5,80.54L416.27,121.29L416.43,92.97L416.58,90.43L416.74,124.74L416.89,82.89L417.51,112.31L417.67,111.08L417.98,119.93L418.13,107.58L418.29,106.33L418.44,74.31L419.22,141.97L419.53,125.44L419.68,87.3L419.84,238.13L420.3,91.83L420.46,114.32L420.77,72.03L421.39,82.12L421.54,140.44L422.01,98.52L422.32,109.85L422.47,116.69L422.78,79.35L423.09,114.61L423.25,126.14L423.87,65.52L424.02,112.19L424.18,110.98L424.49,127.51L424.64,97.65L424.8,118.45L425.11,83.15L425.26,51.54L425.73,128.09L426.19,109.78L426.35,104.9L426.5,105.92L426.66,89.01L426.81,96.82L426.97,63.82L427.43,121.5L427.74,108.79L427.9,80.18L428.67,131.37L428.83,128.62L428.98,91.82L429.14,76.23L429.29,109.51L429.45,97.02L429.6,124.94L430.22,87.62L430.38,110.51L430.53,131.77L431.31,78.12L431.46,101.15L431.62,111.6L431.77,88.37L431.93,94.01L432.08,88.82L432.24,89.15L432.39,100.88L432.7,117.75L432.86,89.84L433.01,88.5L433.17,108.04L433.32,109.16L433.48,91.88L433.94,134.8L434.25,103.15L434.41,109.47L434.56,121.99L434.87,86.24L435.03,92.9L435.34,77.74L435.49,106.83L435.65,79.46L435.8,101.52L435.96,117.87L436.42,106.88L436.58,80.52L437.66,134.55L437.82,99.77L437.97,101.86L438.13,131.95L438.28,86.93L438.59,134.77L438.9,116.87L439.06,107.25L439.21,142.67L439.68,85.31L439.83,67.56L440.3,122.31L440.76,112.38L440.92,108.58L441.07,114.46L441.23,80.89L441.38,83.63L441.54,108.71L441.85,125.66L442.16,78.9L442.31,112.7L442.47,82.41L443.09,85.9L443.24,99.62L443.4,117.12L443.71,88.77L443.86,93.27L444.02,88.14L444.48,86.25L444.79,100.9L444.95,119.48L445.57,132.6L445.72,89.38L445.88,95.33L446.03,87.82L446.19,111.24L446.34,129.91L447.27,72.66L447.42,90.32L448.04,102.96L448.2,93.47L448.51,119.07L448.66,98.48L448.82,92.46L449.28,90.74L449.75,147.35L449.9,93.05L450.06,93.96L450.21,109.3L450.83,81.36L450.99,107.83L451.14,131.89L451.3,100.04L451.76,114.24L451.92,98.1L452.07,91.31L452.23,112.29L452.38,95.04L452.54,119.88L453,90.34L453.16,109.45L453.62,83.74L453.93,92.2L454.09,120.63L454.4,88.58L454.71,128.36L454.86,123.12L455.02,119.94L455.17,99.5L455.33,109.53L455.48,85.94L455.79,100.42L455.95,82.74L456.26,143.96L456.72,132.49L456.88,113.18L457.03,114.31L457.19,128.72L457.34,63.52L457.96,95.03L458.12,84.86L458.43,116.67L458.89,93.39L459.05,98.86L459.36,77.65L459.51,148.15L459.67,106.95L460.29,129.72L460.44,106.61L460.91,106.9L461.06,75.17L461.22,120.05L461.68,70.87L461.99,113.64L462.15,108.31L462.3,107.2L462.46,99.13L462.61,122.83L463.08,88.58L463.23,83.24L463.39,76.14L463.54,121.37L463.7,110.25L463.85,132.48L464.01,52.5L464.94,123.91L465.09,92.49L465.56,80.67L465.71,150.85L465.87,96.48L466.02,87.92L466.18,113.99L466.33,136.03L466.64,81.95L467.11,109.03L467.26,104.45L467.42,103.18L467.57,78.81L468.66,108.91L468.81,67.67L469.12,104.57L469.59,82.02L469.74,81.09L470.36,111.1L470.52,79.24L470.98,118.71L471.45,112.84L471.6,92.91L471.91,80.83L472.22,116.74L472.38,52.71L473.31,139.11L473.46,110.86L473.62,112.43L473.77,94.52L473.93,57.64L474.39,120.23L474.55,120.55L475.48,73.36L475.63,90.89L475.79,126.62L476.25,86.19L476.41,113.73L476.56,107.11L476.72,84.65L477.34,101.2L477.49,103.59L477.65,106.34L477.8,97.2L477.96,70.64L478.58,130.27L478.73,96.62L478.89,91.14L479.2,80.39L479.51,109.32L479.66,71.87L479.82,65.01L479.97,103.38L480.13,98.83L480.44,108.41L480.59,67.53L480.75,59.66L480.9,75.3L481.06,83.68L481.52,125.11L481.68,119.1L481.83,90.29L482.3,86.88L482.45,107.33L482.61,128.91L482.92,57.64L483.54,81.88L483.69,86.69L483.85,96.97L484,91.71"/><g class="points"/></g><g class="trace scatter trace279c55" style="stroke-miterlimit: 2; opacity: 1;"><path class="js-line" style="vector-effect: non-scaling-stroke; fill: none; stroke: rgb(255, 127, 14); stroke-opacity: 1; stroke-width: 2px; opacity: 1;" d="M0,312.41L0.31,312.95L0.77,311.86L0.93,311.86L1.08,309.67L1.39,312.95L1.55,310.22L1.7,312.95L1.86,311.86L2.17,313.5L2.32,312.95L2.48,312.95L2.63,313.5L2.79,312.41L3.1,312.95L3.25,310.77L3.87,309.67L4.03,310.77L4.34,308.58L4.49,311.86L4.65,310.77L4.8,310.77L5.11,311.31L5.27,312.95L5.89,307.48L6.2,308.03L6.35,307.48L6.51,306.94L6.66,310.77L7.28,311.86L7.44,308.03L7.59,310.77L7.75,310.77L7.9,311.86L8.21,307.48L8.52,309.67L8.68,310.77L8.83,310.77L8.99,306.39L9.14,305.84L9.3,311.86L10.07,304.75L10.23,305.3L11.16,308.58L11.31,306.39L11.62,310.77L11.78,304.2L11.93,303.11L12.09,302.56L12.24,307.48L12.4,304.2L12.86,308.03L13.02,309.67L13.79,300.92L13.95,306.39L14.88,296.54L15.03,306.39L15.19,293.81L15.81,303.11L15.96,300.92L16.12,308.03L16.74,304.2L16.89,304.2L17.2,297.09L17.51,298.73L17.67,302.01L17.98,305.3L18.13,299.83L18.29,291.07L19.22,300.92L19.37,291.07L19.84,299.83L20.15,293.26L20.3,299.28L21.23,292.17L21.39,292.72L21.85,305.3L22.01,291.07L22.32,302.01L22.47,298.73L22.94,304.2L23.56,287.79L23.71,292.17L24.02,288.89L24.49,291.07L24.64,294.36L24.8,296.54L24.95,287.79L25.11,287.79L25.26,290.53L25.73,279.59L26.19,280.14L26.35,284.51L26.5,292.17L27.12,289.43L27.28,275.76L27.74,274.12L27.9,277.4L28.05,290.53L28.21,267.01L28.83,284.51L28.98,292.17L29.14,292.17L29.29,282.32L29.76,277.95L29.91,288.89L30.07,285.6L30.22,285.6L30.38,286.7L30.53,281.23L30.69,286.15L30.84,275.76L31.31,285.6L31.46,279.04L31.62,279.59L31.77,273.57L31.93,273.57L32.08,284.51L32.24,273.57L32.7,274.67L32.86,287.79L33.17,263.73L33.63,275.21L33.79,298.19L33.94,299.83L34.1,268.1L34.87,298.73L35.03,282.32L35.18,280.14L35.34,266.46L35.65,294.36L36.11,277.95L36.27,287.79L36.73,267.01L36.89,272.48L37.04,295.45L37.2,296.54L37.35,263.73L37.66,264.82L37.81,272.48L37.97,270.29L38.12,280.14L39.05,265.91L39.21,267.01L39.36,259.35L39.67,277.95L39.83,279.04L39.98,283.42L40.14,268.1L40.29,264.27L40.6,263.73L40.76,246.22L40.91,271.38L41.53,261.54L41.69,263.73L41.84,267.01L42,258.26L42.15,253.88L42.31,257.16L42.46,253.88L42.62,247.32L43.39,274.67L43.55,263.73L43.7,286.7L44.01,252.79L44.17,238.57L45.1,285.06L45.41,271.38L45.56,277.95L46.03,248.41L46.18,261.54L46.34,274.67L47.27,232L47.42,242.94L47.73,229.81L47.89,247.32L48.35,272.48L48.51,257.16L48.66,243.49L48.82,236.38L48.97,260.44L49.13,259.35L50.06,280.14L50.21,265.91L50.83,223.25L50.99,245.13L51.14,244.58L51.3,258.26L51.45,258.26L51.61,261.54L51.76,218.88L52.23,259.35L52.38,269.2L52.54,273.57L52.69,258.26L52.85,305.84L53.78,250.6L53.93,256.07L54.09,240.21L54.4,274.12L54.55,257.16L54.71,272.48L54.86,273.02L55.02,258.26L55.17,253.88L55.64,260.44L55.79,260.44L55.95,263.73L56.1,239.66L56.57,282.32L56.72,250.05L57.34,262.63L57.65,254.98L57.81,252.79L58.12,268.1L58.27,257.16L58.43,252.24L58.58,275.76L59.05,234.19L59.2,247.32L59.98,267.01L60.13,259.35L60.44,238.57L61.06,239.66L61.22,247.32L61.37,219.97L61.53,249.51L61.84,247.32L61.99,245.13L62.15,224.35L62.3,271.38L62.77,229.27L62.92,232.55L63.08,232.55L63.23,262.09L63.85,235.28L64.16,246.22L64.32,249.51L64.47,253.33L64.63,241.85L64.78,247.32L64.94,245.13L65.09,235.28L65.4,236.38L65.56,257.16L66.02,244.04L66.18,241.3L66.49,232.55L66.64,207.94L66.95,245.13L67.42,237.47L67.57,236.38L67.88,240.21L68.04,228.72L68.19,233.1L68.35,238.57L68.5,249.51L68.66,236.38L68.81,248.41L68.97,228.72L70.05,256.07L70.21,228.72L70.83,248.41L70.98,218.33L71.91,246.77L72.07,248.41L72.38,252.79L72.69,235.28L72.84,256.07L73.15,235.28L73.46,237.47L73.62,258.26L74.08,232L74.24,256.07L75.32,221.06L75.47,244.04L75.78,245.13L75.94,234.19L76.09,245.13L76.25,246.22L76.4,250.6L76.56,234.74L76.71,226.53L76.87,248.41L77.33,228.72L77.49,227.63L77.95,219.97L78.26,248.41L78.42,206.3L78.88,251.69L79.19,239.66L79.35,244.04L79.5,219.97L79.97,239.66L80.12,247.32L80.59,248.41L81.05,206.84L81.21,253.88L81.83,216.69L82.29,221.06L82.45,269.74L82.91,217.78L83.22,234.19L83.38,258.8L84.15,216.14L84.31,247.32L84.62,216.69L85.08,227.63L85.24,245.13L85.39,246.22L85.55,222.7L85.7,221.06L85.86,229.81L86.17,221.06L86.63,252.79L86.79,245.13L87.25,224.35L87.41,229.81L87.56,248.41L88.18,210.12L88.34,230.91L88.49,233.1L88.65,215.59L88.96,248.41L89.11,250.05L89.89,217.78L90.04,229.81L90.2,227.63L90.35,224.35L90.51,233.1L90.66,234.19L90.97,218.88L91.28,247.86L91.44,223.25L91.59,222.16L91.75,230.91L92.06,215.59L92.21,217.78L92.37,250.6L92.52,248.41L92.68,229.81L92.83,228.72L92.99,219.97L93.14,237.47L93.45,212.31L93.61,217.23L93.76,221.06L94.07,227.08L94.54,198.09L94.69,224.35L94.85,235.28L95,184.96L95.93,256.07L96.09,221.61L96.86,247.32L97.02,229.81L97.17,216.14L97.64,226.53L97.79,229.81L97.95,218.88L98.26,222.16L98.41,259.9L99.65,204.65L99.81,251.69L100.27,218.88L100.58,234.19L100.74,227.08L100.89,204.65L101.36,236.38L101.51,239.66L101.98,205.75L102.13,242.94L102.29,222.16L102.44,217.23L102.75,247.32L103.22,240.75L103.37,226.53L103.53,235.28L103.84,228.72L103.99,195.9L104.3,233.1L104.61,218.88L104.77,197L105.39,239.66L105.7,236.38L105.85,229.81L106.16,210.12L106.32,235.28L106.47,234.74L107.09,197L107.25,221.06L107.4,232L107.87,222.16L108.02,234.19L108.18,205.2L108.8,225.44L108.95,217.78L109.11,209.03L109.26,203.56L109.42,221.06L109.57,239.66L109.88,203.56L110.19,240.75L110.35,215.59L110.5,219.97L110.66,219.97L110.81,211.22L110.97,217.78L111.12,202.47L111.28,253.88L112.2,204.65L112.36,220.52L112.67,221.06L112.82,218.88L113.29,209.03L113.44,232L113.6,206.84L113.91,245.13L114.37,223.25L114.53,225.44L114.99,235.28L115.46,199.19L115.61,230.91L116.08,234.74L116.23,201.37L116.39,222.16L116.54,219.97L116.85,227.63L117.01,209.03L117.16,225.44L118.09,206.84L118.25,218.88L118.4,223.25L118.56,221.06L118.71,183.87L119.02,229.27L119.49,219.97L119.64,218.88L119.8,193.72L120.11,246.22L120.26,199.73L120.42,219.97L120.88,210.12L121.04,238.02L121.19,216.69L121.66,187.15L121.81,224.35L122.12,190.43L122.28,241.85L122.74,184.96L123.21,206.84L123.36,224.35L123.52,229.81L123.67,193.72L124.29,225.99L124.45,211.22L124.6,235.28L125.07,197L125.22,212.31L125.69,209.58L125.84,219.97L126,199.19L126.62,222.16L126.77,202.47L126.93,204.65L127.39,227.63L127.55,212.31L127.86,205.75L128.01,198.09L128.32,219.97L128.63,189.89L128.79,186.06L129.56,221.06L129.72,203.56L129.87,200.28L130.18,194.26L130.65,218.88L130.8,191.53L131.27,225.44L131.42,190.43L131.58,221.61L131.73,190.43L132.04,223.25L132.35,210.12L132.51,206.84L132.66,229.81L133.13,195.9L133.28,209.03L133.59,222.16L133.75,205.75L133.9,210.12L134.06,186.06L134.68,215.59L134.83,187.15L135.45,217.23L135.76,209.03L135.92,202.47L136.07,202.47L136.23,178.4L136.69,216.69L137.16,210.12L137.31,203.56L137.47,210.67L137.62,309.67L137.78,206.3L138.4,236.38L138.55,198.09L138.71,215.59L139.02,211.22L139.17,181.14L139.48,218.88L139.64,208.48L139.79,181.68L140.41,209.03L140.57,190.98L140.72,179.49L141.03,216.69L141.34,176.21L141.5,191.53L141.65,186.06L141.96,205.75L142.27,203.56L142.43,186.06L142.74,184.42L143.51,214.5L143.67,214.5L144.75,183.87L144.91,185.51L145.22,179.49L145.37,195.36L145.68,214.5L145.84,192.62L145.99,195.9L146.15,189.89L146.77,184.96L146.92,218.88L147.08,210.12L147.23,206.84L147.39,174.02L148.32,198.09L148.47,202.47L148.78,211.22L149.24,183.87L149.4,187.15L149.55,205.75L149.71,181.68L150.17,200.83L150.33,206.84L150.79,183.87L150.95,197L151.1,212.31L151.26,310.77L151.57,202.47L151.72,227.63L151.88,218.88L152.65,187.7L152.81,188.25L152.96,207.39L153.12,177.31L153.58,201.37L153.74,217.23L154.2,187.15L154.51,191.53L154.67,204.11L154.82,171.29L155.13,226.53L155.29,175.12L155.44,204.65L155.91,186.06L156.06,210.12L156.22,198.09L156.37,211.22L156.68,181.14L157.3,183.87L157.46,174.02L157.61,213.41L157.77,172.93L158.23,191.53L158.39,214.5L159.32,171.84L159.47,192.62L159.63,174.02L159.94,211.22L160.09,210.12L160.56,210.67L160.87,181.68L161.02,189.34L161.18,184.42L161.33,208.48L161.49,213.41L161.64,184.96L161.8,186.6L161.95,180.59L162.11,194.26L162.42,202.47L162.57,187.15L163.19,199.19L163.35,312.95L163.66,170.74L164.12,184.96L164.28,198.64L165.36,168.56L165.52,186.06L166.14,210.12L166.29,178.4L167.07,211.22L167.22,186.06L167.38,183.87L167.53,190.43L167.69,195.36L168.15,203.56L168.46,177.31L168.62,189.34L169.24,252.79L169.39,195.9L169.7,207.94L169.86,195.36L170.01,184.42L170.17,307.48L170.48,176.76L170.63,185.51L170.79,169.65L171.56,303.65L171.72,244.04L171.87,195.9L172.18,179.49L172.34,182.78L172.49,219.97L172.96,184.96L173.27,190.43L173.42,184.96L173.73,176.21L173.89,205.2L174.2,201.37L174.35,184.96L174.66,205.75L174.97,189.34L175.13,182.78L175.28,200.28L175.9,199.19L176.06,180.59L176.21,191.53L176.37,172.93L176.68,176.21L176.83,171.84L177.14,213.41L177.61,180.59L177.76,180.59L178.07,207.39L178.38,171.84L178.54,178.95L179.16,213.41L179.31,181.68L179.78,199.19L180.09,187.15L180.24,187.15L180.4,187.15L180.55,186.06L180.86,171.84L181.33,172.93L181.48,198.09L181.79,169.65L182.26,188.79L182.41,177.31L182.57,181.68L182.72,171.84L182.88,200.28L183.03,207.94L183.19,171.84L183.81,170.74L183.96,180.59L184.12,203.56L185.05,174.02L185.2,189.34L185.36,178.95L185.51,221.06L186.9,172.93L187.06,193.72L187.68,172.93L187.83,197.54L188.45,181.68L188.61,193.17L188.76,184.96L189.23,197L189.38,175.12L189.54,186.06L189.85,196.45L190,170.74L190.16,188.79L190.62,184.42L190.78,174.02L191.09,175.12L191.24,181.68L191.4,209.03L191.55,178.4L191.86,189.34L192.02,183.87L192.33,201.37L192.64,167.46L192.79,200.28L192.95,176.21L193.41,210.67L193.57,185.51L193.72,186.06L193.88,192.07L194.19,181.68L194.34,184.42L194.5,184.96L194.81,195.9L194.96,174.02L195.12,179.49L195.27,177.31L195.43,177.31L195.58,179.49L195.89,180.59L196.05,188.25L196.2,167.46L196.67,189.34L196.82,185.51L197.13,188.25L197.29,171.84L197.75,175.12L197.91,183.32L198.22,178.4L198.37,190.43L198.53,171.84L198.84,194.26L199.15,181.68L199.3,211.77L199.77,170.74L200.08,175.12L200.23,194.81L200.7,169.65L201.16,175.12L201.32,190.43L201.94,170.74L202.09,174.02L202.25,195.9L202.4,171.29L203.02,175.12L203.18,178.4L203.33,180.04L203.49,174.02L203.64,186.06L204.26,171.84L204.42,183.87L204.57,189.34L204.73,186.06L204.88,171.84L205.04,205.75L205.5,183.87L205.66,170.74L206.12,205.75L206.28,181.68L206.43,171.84L206.59,174.02L206.74,167.46L206.9,195.36L207.36,209.03L207.52,168.56L207.83,174.02L207.98,180.04L208.14,172.93L208.45,184.96L208.76,175.12L208.91,192.62L209.22,173.48L209.69,175.12L209.84,182.78L210,172.93L210.15,200.83L210.46,186.06L210.62,188.25L210.93,177.31L211.39,184.96L211.55,184.42L211.7,184.96L211.86,173.48L212.32,197L212.48,176.21L212.63,180.59L212.79,174.02L213.1,179.49L213.25,172.93L213.41,206.3L213.87,176.21L214.03,178.4L214.18,299.83L214.49,177.31L214.65,182.78L214.8,170.74L215.27,176.21L215.42,171.84L215.73,181.14L216.2,179.49L216.35,177.31L216.51,181.68L216.82,178.4L216.97,168.56L217.44,197L217.75,180.59L217.9,175.12L218.21,192.62L218.37,174.57L218.52,186.06L218.68,171.29L218.83,171.84L218.99,168.56L219.61,175.12L219.76,168.56L220.23,184.96L220.54,176.21L220.69,182.78L221,191.53L221.16,177.31L221.31,192.62L221.47,172.93L221.93,188.79L222.09,172.38L222.24,190.43L222.4,170.74L222.71,177.31L222.86,168.56L223.02,168.56L223.17,175.67L223.63,175.12L223.94,200.28L224.1,168.56L224.25,198.09L224.87,177.85L225.03,180.59L225.18,171.84L225.49,182.23L225.65,172.93L225.8,183.87L226.27,197L226.58,167.46L226.73,180.59L226.89,168.56L227.04,189.34L227.51,170.74L227.66,170.74L227.97,172.93L228.13,168.56L228.28,183.87L229.21,167.46L229.37,180.59L229.83,188.25L230.14,169.65L230.3,175.12L230.61,168.56L230.92,199.19L231.07,188.79L231.23,176.21L231.38,171.84L231.54,190.43L232,170.74L232.16,175.12L232.31,197L232.78,171.84L232.93,183.87L233.09,306.39L233.86,170.74L234.02,181.68L234.33,165.27L234.48,184.96L234.79,173.48L234.95,175.67L235.41,170.74L235.57,171.84L235.72,176.21L235.88,169.65L236.03,118.23L236.5,241.85L236.96,180.59L237.12,171.84L237.43,164.73L238.05,194.81L238.2,172.93L238.51,177.31L238.67,167.46L238.98,169.65L239.13,189.89L240.06,168.56L240.22,197L240.99,167.46L241.15,179.49L241.61,191.53L241.92,168.56L242.08,201.37L242.23,214.5L242.39,170.74L242.54,171.84L242.85,187.15L243.01,178.4L243.16,167.46L243.32,167.46L243.47,169.65L243.63,168.56L243.78,181.14L243.94,181.68L244.09,168.56L244.25,159.8L244.4,179.49L244.56,174.02L244.71,177.31L244.87,171.84L245.02,181.68L245.18,177.31L245.33,184.96L246.26,167.46L246.42,181.68L246.73,200.28L247.04,168.56L247.19,172.93L247.35,172.93L247.5,158.71L247.81,192.62L247.97,170.74L248.12,171.84L248.28,186.06L248.74,170.2L248.9,172.38L249.05,172.93L249.21,167.46L249.36,184.96L249.67,171.84L249.83,129.17L250.76,187.15L250.91,172.93L251.22,168.56L251.69,171.84L251.84,174.02L252.15,151.05L252.31,194.81L252.62,181.68L252.77,166.91L252.93,157.62L253.08,171.84L253.39,171.84L253.55,174.02L253.7,191.53L254.01,168.56L254.17,169.65L254.32,167.46L254.48,194.81L255.1,184.96L255.25,181.68L255.41,197.54L255.56,171.84L255.72,171.84L255.87,167.46L256.34,179.49L256.49,161.99L256.96,184.42L257.58,181.68L257.73,169.65L257.89,180.04L258.2,167.46L258.35,168.56L258.51,168.56L258.66,179.49L258.82,167.46L259.28,172.38L259.44,173.48L260.06,187.15L260.21,176.21L260.37,174.02L260.67,167.46L260.83,172.93L260.98,205.75L261.76,168.56L261.91,172.93L262.22,167.46L262.38,181.68L262.84,154.33L263.15,179.49L263.31,171.29L264.08,182.23L264.24,167.46L264.39,185.51L264.55,106.2L265.32,182.78L265.48,178.4L265.63,168.56L266.25,171.84L266.41,167.46L266.87,181.68L267.18,169.65L267.34,169.65L267.49,168.56L267.65,170.74L267.96,169.65L268.11,110.58L268.58,183.87L268.89,167.46L269.04,171.29L269.2,170.74L269.35,183.32L269.51,156.52L269.82,186.06L269.97,169.65L270.13,186.06L270.59,170.2L270.9,172.93L271.06,175.12L271.21,171.84L271.37,197L271.99,151.05L272.14,171.84L272.3,168.56L272.61,171.84L272.76,129.17L273.07,181.68L273.54,169.65L273.69,168.56L274,171.84L274.16,181.14L274.31,167.46L274.78,192.62L274.93,171.84L275.09,167.46L275.24,189.34L275.71,170.74L275.86,169.65L276.02,169.65L276.17,171.84L276.33,167.46L276.48,172.93L276.79,168.56L276.95,172.93L277.1,148.32L277.57,168.56L277.72,171.84L278.03,178.4L278.34,170.2L278.5,172.93L278.65,168.56L278.96,174.02L279.12,184.96L279.43,167.46L279.74,174.02L279.89,95.26L280.2,173.48L280.67,167.46L280.82,101.28L281.6,197L281.75,168.56L281.91,168.01L282.06,171.84L282.37,172.93L282.53,167.46L282.84,170.74L282.99,172.38L283.3,157.62L283.46,167.46L283.61,175.12L283.77,172.93L283.92,179.49L284.08,157.07L284.7,175.12L284.85,167.46L285.01,167.46L285.32,154.33L285.78,174.02L285.94,172.93L286.09,167.46L286.25,109.48L286.71,176.21L287.02,171.84L287.18,167.46L287.49,177.31L288.11,174.57L288.26,122.61L289.19,179.49L289.35,169.65L289.66,176.21L289.81,167.46L289.97,175.12L290.12,166.91L290.43,171.84L290.74,155.43L290.9,168.56L291.05,167.46L291.21,171.84L291.36,170.2L291.52,147.77L291.83,186.06L292.29,174.02L292.45,161.99L292.91,178.4L293.38,169.65L293.53,170.74L293.69,186.06L294,167.46L294.15,168.56L294.31,171.84L294.62,165.27L294.77,170.74L294.93,180.59L295.24,167.46L295.55,173.48L295.7,85.42L296.01,187.15L296.48,168.56L296.63,168.01L296.79,126.99L296.94,174.02L297.25,170.74L297.41,168.56L297.72,172.93L298.18,60.26L298.33,108.94L298.49,176.21L298.64,159.8L299.26,167.46L299.42,180.59L299.57,165.82L300.19,170.74L300.35,179.49L300.97,167.46L301.12,134.64L301.28,179.49L301.9,174.02L302.05,167.46L302.21,182.78L302.67,161.99L302.83,169.1L303.14,169.65L303.29,164.73L303.45,115.5L303.76,184.96L304.22,168.56L304.38,167.46L304.69,145.58L304.84,171.84L305,180.59L305.15,96.36L305.77,180.59L305.93,178.4L306.08,171.84L306.7,151.6L306.86,172.93L307.01,175.12L307.17,169.65L307.32,170.74L307.48,167.46L307.79,173.48L307.94,77.76L308.41,177.85L308.72,167.46L308.87,137.38L309.49,172.93L309.65,167.46L309.8,167.46L309.96,142.3L310.11,168.56L310.42,168.56L310.58,172.93L310.89,167.46L311.04,168.56L311.2,159.8L311.51,182.23L311.66,171.29L311.82,72.29L312.44,178.4L312.59,172.93L312.75,165.82L312.9,175.12L313.06,143.4L313.21,146.68L313.83,179.49L313.99,95.26L314.14,170.74L314.76,167.46L314.92,167.46L315.23,175.12L315.38,172.38L315.54,79.4L316.31,182.78L316.47,170.74L316.78,161.99L316.93,170.74L317.09,176.21L317.86,119.33L318.02,168.56L318.17,153.24L318.64,174.02L318.79,169.65L318.95,171.84L319.1,164.18L319.26,118.23L319.57,170.2L320.03,168.56L320.19,172.93L320.5,167.46L320.65,170.74L320.81,108.39L321.43,177.31L321.58,145.58L321.74,174.02L321.89,168.56L322.05,170.74L322.2,72.29L322.98,167.46L323.13,167.46L323.29,168.01L323.44,174.02L323.91,152.69L324.06,168.56L324.22,170.74L324.53,169.1L324.68,179.49L324.84,178.4L324.99,134.64L325.46,109.48L325.77,175.67L325.92,170.74L326.23,168.56L326.39,82.14L326.54,174.02L327.16,169.1L327.32,171.84L327.94,160.9L328.09,193.72L329.02,167.46L329.18,181.68L329.64,120.42L329.8,180.04L330.57,170.74L330.73,182.23L330.88,169.65L331.04,85.42L331.5,187.15L331.81,169.65L331.97,111.12L332.12,174.02L332.43,29.63L332.74,165.27L332.9,81.04L333.67,172.93L333.83,171.84L333.98,166.37L334.6,171.84L334.76,171.29L334.91,163.63L335.07,180.59L335.22,158.71L335.53,163.09L335.68,163.09L335.99,55.88L336.15,168.56L336.3,152.15L336.46,178.4L336.77,167.46L336.92,104.56L337.54,180.59L337.7,167.46L337.85,107.84L338.32,171.84L338.63,146.68L338.78,167.46L338.94,184.96L339.4,169.1L339.56,167.46L340.33,172.93L340.49,170.74L340.8,167.46L340.95,168.56L341.11,122.61L341.42,104.56L342.04,171.84L342.19,170.74L342.35,167.46L342.66,171.84L342.81,123.7L343.43,167.46L343.59,160.9L343.74,159.8L343.9,40.57L344.05,169.65L344.52,117.14L344.67,171.84L344.83,175.12L344.98,164.18L345.29,171.84L345.45,171.84L345.6,169.65L345.76,122.61L346.07,180.59L346.53,133.55L346.69,112.77L346.84,179.49L347.46,167.46L347.62,180.59L347.77,171.29L347.93,175.12L348.08,107.3L349.01,183.87L349.17,117.14L349.94,170.74L350.1,106.2L350.41,93.07L350.87,174.02L351.03,157.62L351.18,157.62L351.34,179.49L351.65,161.99L351.96,166.37L352.11,75.57L352.89,170.74L353.04,19.78L353.51,170.74L353.82,154.33L353.97,90.89L354.28,171.84L354.75,168.01L354.9,153.24L355.21,172.93L355.37,170.74L355.52,145.58L355.68,101.28L356.14,171.84L356.3,168.56L356.45,169.65L356.61,167.46L356.76,104.01L357.07,172.93L357.54,133.55L357.69,170.74L357.85,133L358.16,171.84L358.47,145.58L358.62,174.02L358.78,170.74L358.93,66.27L359.4,179.49L359.71,126.99L359.86,139.02L360.02,172.93L360.48,167.46L360.64,58.07L361.26,173.48L361.72,172.93L361.88,141.21L362.34,171.84L362.5,164.18L362.65,118.23L362.81,178.4L363.12,97.45L363.43,167.46L363.58,168.01L363.74,170.74L363.89,167.46L364.05,167.46L364.2,74.48L364.82,170.74L364.98,167.46L365.13,128.08L365.44,174.02L365.91,168.56L366.06,141.21L366.22,139.02L366.37,144.49L366.53,168.56L366.84,175.12L367.3,118.23L367.46,167.46L367.61,154.33L367.77,167.46L367.92,69.01L368.54,171.29L368.7,118.23L368.85,167.46L369.01,171.84L369.47,170.74L369.63,154.88L369.94,169.65L370.25,65.73L370.4,169.65L370.71,167.46L370.87,151.05L371.18,168.56L371.49,167.46L371.64,120.42L371.8,158.71L372.26,91.98L372.41,91.98L372.88,170.74L373.03,79.95L373.19,167.46L373.34,54.24L374.27,168.01L374.43,170.74L374.74,95.26L374.89,175.12L375.05,170.74L375.2,167.46L375.51,72.29L375.67,170.74L375.98,140.11L376.13,168.56L376.44,125.89L376.75,174.02L376.91,168.56L377.06,180.59L377.22,141.21L377.53,169.65L377.68,108.39L378.3,175.67L378.46,167.46L378.61,171.84L378.77,180.59L378.92,167.46L379.08,167.46L379.23,66.82L379.7,167.46L380.01,107.3L380.16,98.54L380.63,175.12L380.78,152.69L380.94,108.39L381.25,62.44L381.4,171.84L381.71,130.27L381.87,101.83L382.02,41.66L382.33,174.02L382.64,75.57L382.8,109.48L383.26,174.02L383.42,78.85L383.57,172.93L383.73,157.62L384.19,177.31L384.35,157.07L384.5,167.46L384.66,169.65L384.81,168.56L384.97,87.6L385.59,170.74L385.74,163.63L385.9,158.71L386.21,172.93L386.36,110.58L386.52,94.17L386.67,168.56L387.14,170.74L387.29,128.08L387.45,110.58L387.76,93.62L388.07,171.84L388.22,50.41L388.53,174.02L389,160.9L389.15,172.93L389.31,78.31L389.77,109.48L389.93,170.74L390.24,151.6L390.39,101.83L390.7,177.31L391.17,169.65L391.32,111.67L391.63,152.15L391.94,69.56L392.1,168.56L392.25,168.01L392.41,152.69L392.56,142.85L392.72,167.46L392.87,164.73L393.03,167.46L393.18,168.56L393.34,167.46L393.49,161.99L393.65,147.77L394.11,168.56L394.27,149.96L394.42,167.46L394.58,169.65L394.73,146.68L395.04,167.46L395.35,98L395.51,170.74L395.82,171.84L396.13,136.28L396.28,155.43L396.44,165.27L396.75,66.82L397.21,100.73L397.37,167.46L397.99,47.13L398.14,143.4L398.3,161.99L398.45,174.57L398.61,65.73L399.38,167.46L399.54,171.84L400.31,93.07L400.47,175.67L400.62,85.42L401.09,167.46L401.24,168.56L401.4,172.93L401.71,167.46L401.86,135.74L402.17,63.54L402.79,174.02L402.95,168.56L403.1,167.46L403.26,169.65L403.41,168.56L403.57,51.51L404.03,170.74L404.5,167.46L404.65,116.05L405.12,192.62L405.43,163.09L405.58,148.86L405.74,167.46L406.05,135.74L406.2,75.57L406.36,171.84L406.82,160.9L406.98,84.32L407.6,170.74L407.75,167.46L407.91,96.9L408.06,167.46L408.37,84.32L408.68,120.42L408.84,95.26L408.99,74.48L409.15,154.33L409.3,146.68L409.61,171.84L409.76,164.73L409.92,114.95L410.23,159.8L410.54,41.66L410.69,149.96L410.85,79.95L411.31,169.65L411.47,110.58L411.62,155.43L411.93,168.56L412.4,85.42L412.55,146.68L412.86,169.65L413.02,105.11L413.17,102.92L413.33,160.9L413.48,167.46L413.64,62.44L413.79,167.46L414.26,58.07L414.41,158.71L414.57,145.58L414.88,170.74L415.5,72.29L415.65,88.7L415.96,72.29L416.27,167.46L416.43,146.68L416.58,118.23L416.74,171.29L416.89,72.29L417.36,167.46L417.51,167.46L417.67,167.46L417.82,168.56L418.29,160.9L418.44,56.98L419.22,174.02L419.37,170.74L419.53,168.56L419.84,300.92L420.3,63.54L420.46,158.71L420.77,69.01L421.23,119.33L421.39,72.29L421.54,175.12L422.16,163.63L422.32,164.73L422.47,168.56L422.63,159.8L422.78,111.67L422.94,94.17L423.09,167.46L423.25,171.29L423.56,164.73L423.71,168.56L423.87,44.94L424.49,171.29L424.8,167.46L424.95,157.62L425.26,36.19L425.57,156.52L425.73,169.1L425.88,55.88L426.19,169.65L426.5,151.05L426.66,85.42L426.97,47.13L427.43,168.56L427.59,78.31L428.67,170.74L428.83,170.2L429.14,70.1L429.29,177.31L429.45,152.15L429.6,168.56L429.76,163.09L429.91,110.58L430.07,110.58L430.22,73.38L430.38,170.74L431,140.11L431.15,168.56L431.31,35.1L431.93,79.95L432.08,116.05L432.7,167.46L432.86,108.94L433.17,162.54L433.48,61.35L433.63,175.12L434.1,76.67L434.25,160.9L434.41,167.46L434.87,67.91L435.34,87.6L435.49,134.64L435.65,44.94L436.11,168.56L436.27,119.33L436.58,64.63L437.04,169.65L437.2,154.33L437.51,169.65L437.66,168.56L437.82,135.74L437.97,78.85L438.13,180.04L438.44,171.84L438.59,171.84L438.75,151.05L439.21,171.29L439.37,170.74L439.83,34L439.99,88.7L440.14,167.46L440.76,143.4L440.92,167.46L441.07,171.84L441.23,108.39L441.38,106.2L441.54,147.22L441.69,67.91L441.85,167.46L442.16,96.9L442.31,161.44L442.47,85.96L442.93,168.56L443.09,91.98L443.24,121.52L443.4,148.86L443.55,63.54L443.86,139.02L444.02,119.33L444.33,65.73L444.64,163.09L444.79,167.46L444.95,167.46L445.1,123.7L445.26,105.11L445.41,139.02L445.57,174.02L445.72,66.82L446.19,134.1L446.34,168.01L446.65,167.46L446.8,151.05L446.96,53.69L447.11,159.8L447.58,101.28L447.73,140.11L448.2,77.21L448.35,167.46L448.51,170.74L448.82,110.58L448.97,167.46L449.44,172.38L449.59,64.63L449.75,178.4L450.83,54.79L450.99,153.24L451.14,169.1L451.3,111.67L451.45,94.17L451.76,168.56L452.23,167.46L452.38,83.23L452.69,168.56L453,69.01L453.16,104.56L453.31,80.49L454.09,167.46L454.24,71.74L454.71,171.84L455.02,171.29L455.17,109.48L455.48,90.89L455.64,165.27L455.79,95.26L455.95,107.3L456.1,85.42L456.26,177.31L456.88,156.52L457.03,171.84L457.19,174.02L457.34,36.19L457.96,129.17L458.12,52.05L458.43,170.74L458.58,49.32L458.74,64.63L458.89,51.51L459.51,175.12L459.82,172.38L459.98,169.65L460.13,172.93L460.44,166.37L460.6,113.86L460.91,117.69L461.06,56.98L461.22,169.65L461.68,47.13L461.99,154.88L462.15,116.05L462.46,59.71L462.61,170.74L462.92,167.46L463.08,95.26L463.39,46.58L463.54,172.38L463.85,167.46L464.01,49.32L464.32,42.75L464.94,170.74L465.09,48.22L465.71,181.14L465.87,123.16L466.02,82.14L466.33,169.65L466.49,151.05L466.64,49.86L466.8,63.54L466.95,171.84L467.57,59.16L467.88,107.3L468.04,157.62L468.19,142.3L468.5,170.2L468.66,153.79L468.81,36.19L469.28,167.46L469.43,126.99L469.59,72.29L469.74,55.33L469.9,167.46L470.36,168.56L470.52,60.26L470.67,69.01L470.83,94.72L470.98,170.74L471.6,145.58L471.76,120.97L472.22,171.29L472.38,28.53L472.53,130.27L472.69,74.48L473.15,171.84L473.31,175.12L473.62,168.56L473.77,111.67L473.93,16.5L474.39,169.1L474.55,170.74L475.48,52.05L475.63,71.2L475.79,171.84L476.25,60.26L476.41,167.46L476.56,130.27L477.18,86.51L477.34,102.37L477.49,154.33L477.65,167.46L477.8,163.09L477.96,48.22L478.42,38.38L479.04,146.13L479.2,77.76L479.35,67.91L479.51,98.54L479.66,36.74L479.82,23.06L479.97,111.67L480.13,86.51L480.28,110.58L480.44,167.46L480.75,23.06L481.21,97.45L481.37,171.84L481.52,170.74L481.68,163.63L481.99,79.95L482.45,145.58L482.61,168.01L482.76,157.07L482.92,34L483.85,118.23L484,79.95"/><g class="points"/></g></g></g><g class="overplot"/><path class="xlines-above crisp" style="fill: none;" d="M0,0"/><path class="ylines-above crisp" style="fill: none;" d="M0,0"/><g class="overlines-above"/><g class="xaxislayer-above"><g class="xtick"><text text-anchor="middle" x="0" y="403" style="font-family: TOBESTRIPPEDOpen\ SansTOBESTRIPPED, verdana, arial, sans-serif; font-size: 12px; fill: rgb(68, 68, 68); fill-opacity: 1; white-space: pre;" transform="translate(156.70999999999998,0)">20</text></g><g class="xtick"><text text-anchor="middle" x="0" y="403" style="font-family: TOBESTRIPPEDOpen\ SansTOBESTRIPPED, verdana, arial, sans-serif; font-size: 12px; fill: rgb(68, 68, 68); fill-opacity: 1; white-space: pre;" transform="translate(253.57,0)">40</text></g><g class="xtick"><text text-anchor="middle" x="0" y="403" style="font-family: TOBESTRIPPEDOpen\ SansTOBESTRIPPED, verdana, arial, sans-serif; font-size: 12px; fill: rgb(68, 68, 68); fill-opacity: 1; white-space: pre;" transform="translate(350.43,0)">60</text></g><g class="xtick"><text text-anchor="middle" x="0" y="403" style="font-family: TOBESTRIPPEDOpen\ SansTOBESTRIPPED, verdana, arial, sans-serif; font-size: 12px; fill: rgb(68, 68, 68); fill-opacity: 1; white-space: pre;" transform="translate(447.29,0)">80</text></g></g><g class="yaxislayer-above"><g class="ytick"><text text-anchor="end" x="59" y="4.199999999999999" style="font-family: TOBESTRIPPEDOpen\ SansTOBESTRIPPED, verdana, arial, sans-serif; font-size: 12px; fill: rgb(68, 68, 68); fill-opacity: 1; white-space: pre;" transform="translate(0,380.61)">0</text></g><g class="ytick"><text text-anchor="end" x="59" y="4.199999999999999" style="font-family: TOBESTRIPPEDOpen\ SansTOBESTRIPPED, verdana, arial, sans-serif; font-size: 12px; fill: rgb(68, 68, 68); fill-opacity: 1; white-space: pre;" transform="translate(0,325.91)">50</text></g><g class="ytick"><text text-anchor="end" x="59" y="4.199999999999999" style="font-family: TOBESTRIPPEDOpen\ SansTOBESTRIPPED, verdana, arial, sans-serif; font-size: 12px; fill: rgb(68, 68, 68); fill-opacity: 1; white-space: pre;" transform="translate(0,271.22)">100</text></g><g class="ytick"><text text-anchor="end" x="59" y="4.199999999999999" style="font-family: TOBESTRIPPEDOpen\ SansTOBESTRIPPED, verdana, arial, sans-serif; font-size: 12px; fill: rgb(68, 68, 68); fill-opacity: 1; white-space: pre;" transform="translate(0,216.52)">150</text></g><g class="ytick"><text text-anchor="end" x="59" y="4.199999999999999" style="font-family: TOBESTRIPPEDOpen\ SansTOBESTRIPPED, verdana, arial, sans-serif; font-size: 12px; fill: rgb(68, 68, 68); fill-opacity: 1; white-space: pre;" transform="translate(0,161.82999999999998)">200</text></g><g class="ytick"><text text-anchor="end" x="59" y="4.199999999999999" style="font-family: TOBESTRIPPEDOpen\ SansTOBESTRIPPED, verdana, arial, sans-serif; font-size: 12px; fill: rgb(68, 68, 68); fill-opacity: 1; white-space: pre;" transform="translate(0,107.13)">250</text></g></g><g class="overaxes-above"/></g></g><g class="polarlayer"/><g class="ternarylayer"/><g class="geolayer"/><g class="pielayer"/><g class="glimages"/><defs id="topdefs-3b9be9"><g class="clips"/><clipPath id="legend3b9be9"><rect width="134" height="48" x="0" y="0"/></clipPath></defs><g class="layer-above"><g class="imagelayer"/><g class="shapelayer"/></g><g class="infolayer"><g class="g-gtitle"><text class="gtitle" style="font-family: TOBESTRIPPEDOpen\ SansTOBESTRIPPED, verdana, arial, sans-serif; font-size: 17px; fill: rgb(68, 68, 68); opacity: 1; font-weight: normal; white-space: pre;" x="350" y="30" text-anchor="middle">Rewards</text></g><g class="legend" pointer-events="all" transform="translate(553.6800000000001, 60)"><rect class="bg" shape-rendering="crispEdges" style="stroke: rgb(68, 68, 68); stroke-opacity: 1; fill: rgb(255, 255, 255); fill-opacity: 1; stroke-width: 0px;" width="134" height="48" x="0" y="0"/><g class="scrollbox" transform="translate(0, 0)" clip-path="url(#legend3b9be9)"><g class="groups"><g class="traces" style="opacity: 1;" transform="translate(0, 14.5)"><g class="layers" style="opacity: 1;"><g class="legendfill"/><g class="legendlines"><path class="js-line" d="M5,0h30" style="fill: none; stroke: rgb(31, 119, 180); stroke-opacity: 1; stroke-width: 2px;"/></g><g class="legendsymbols"><g class="legendpoints"/></g></g><text class="legendtext user-select-none" text-anchor="start" style="font-family: TOBESTRIPPEDOpen\ SansTOBESTRIPPED, verdana, arial, sans-serif; font-size: 12px; fill: rgb(68, 68, 68); fill-opacity: 1; white-space: pre;" x="40" y="4.680000000000001">Mean Reward</text><rect class="legendtoggle" style="cursor: pointer; fill: rgb(0, 0, 0); fill-opacity: 0;" pointer-events="all" x="0" y="-9.5" width="174" height="19"/></g><g class="traces" style="opacity: 1;" transform="translate(0, 33.5)"><g class="layers" style="opacity: 1;"><g class="legendfill"/><g class="legendlines"><path class="js-line" d="M5,0h30" style="fill: none; stroke: rgb(255, 127, 14); stroke-opacity: 1; stroke-width: 2px;"/></g><g class="legendsymbols"><g class="legendpoints"/></g></g><text class="legendtext user-select-none" text-anchor="start" style="font-family: TOBESTRIPPEDOpen\ SansTOBESTRIPPED, verdana, arial, sans-serif; font-size: 12px; fill: rgb(68, 68, 68); fill-opacity: 1; white-space: pre;" x="40" y="4.680000000000001">Median Reward</text><rect class="legendtoggle" style="cursor: pointer; fill: rgb(0, 0, 0); fill-opacity: 0;" pointer-events="all" x="0" y="-9.5" width="174" height="19"/></g></g></g><rect class="scrollbar" rx="20" ry="3" width="0" height="0" style="fill: rgb(128, 139, 164); fill-opacity: 1;" x="0" y="0"/></g><g class="g-xtitle"><text class="xtitle" style="font-family: TOBESTRIPPEDOpen\ SansTOBESTRIPPED, verdana, arial, sans-serif; font-size: 14px; fill: rgb(68, 68, 68); opacity: 1; font-weight: normal; white-space: pre;" x="302" y="442" text-anchor="middle">Frames in Mio.</text></g><g class="g-ytitle"><text class="ytitle" transform="rotate(-90,22,225)" style="font-family: TOBESTRIPPEDOpen\ SansTOBESTRIPPED, verdana, arial, sans-serif; font-size: 14px; fill: rgb(68, 68, 68); opacity: 1; font-weight: normal; white-space: pre;" x="22" y="225" text-anchor="middle">Reward</text></g></g></svg>