<svg class="main-svg" xmlns="http://www.w3.org/2000/svg" xmlns:xlink="http://www.w3.org/1999/xlink" width="700" height="450" style="" viewBox="0 0 700 450"><rect x="0" y="0" width="700" height="450" style="fill: rgb(255, 255, 255); fill-opacity: 1;"/><defs id="defs-22d9f4"><g class="clips"><clipPath class="plotclip" id="clip22d9f4xyplot"><rect width="484" height="330"/></clipPath><clipPath class="axesclip" id="clip22d9f4x"><rect x="60" y="0" width="484" height="450"/></clipPath><clipPath class="axesclip" id="clip22d9f4y"><rect x="0" y="60" width="700" height="330"/></clipPath><clipPath class="axesclip" id="clip22d9f4xy"><rect x="60" y="60" width="484" height="330"/></clipPath></g><g class="gradients"/></defs><g class="bglayer"><rect class="bg" x="60" y="60" width="484" height="330" style="fill: rgb(255, 255, 255); fill-opacity: 1; stroke-width: 0;"/></g><g class="layer-below"><g class="imagelayer"/><g class="shapelayer"/></g><g class="cartesianlayer"><g class="subplot xy"><g class="layer-subplot"><g class="shapelayer"/><g class="imagelayer"/></g><g class="gridlayer"><g class="x"><path class="xgrid crisp" d="M0,60v330" transform="translate(156.70999999999998,0)" style="stroke: rgb(238, 238, 238); stroke-opacity: 1; stroke-width: 1px;"/><path class="xgrid crisp" d="M0,60v330" transform="translate(253.57,0)" style="stroke: rgb(238, 238, 238); stroke-opacity: 1; stroke-width: 1px;"/><path class="xgrid crisp" d="M0,60v330" transform="translate(350.43,0)" style="stroke: rgb(238, 238, 238); stroke-opacity: 1; stroke-width: 1px;"/><path class="xgrid crisp" d="M0,60v330" transform="translate(447.29,0)" style="stroke: rgb(238, 238, 238); stroke-opacity: 1; stroke-width: 1px;"/></g><g class="y"><path class="ygrid crisp" d="M60,0h484" transform="translate(0,386.41)" style="stroke: rgb(238, 238, 238); stroke-opacity: 1; stroke-width: 1px;"/><path class="ygrid crisp" d="M60,0h484" transform="translate(0,345.71)" style="stroke: rgb(238, 238, 238); stroke-opacity: 1; stroke-width: 1px;"/><path class="ygrid crisp" d="M60,0h484" transform="translate(0,305.01)" style="stroke: rgb(238, 238, 238); stroke-opacity: 1; stroke-width: 1px;"/><path class="ygrid crisp" d="M60,0h484" transform="translate(0,264.31)" style="stroke: rgb(238, 238, 238); stroke-opacity: 1; stroke-width: 1px;"/><path class="ygrid crisp" d="M60,0h484" transform="translate(0,182.91)" style="stroke: rgb(238, 238, 238); stroke-opacity: 1; stroke-width: 1px;"/><path class="ygrid crisp" d="M60,0h484" transform="translate(0,142.20999999999998)" style="stroke: rgb(238, 238, 238); stroke-opacity: 1; stroke-width: 1px;"/><path class="ygrid crisp" d="M60,0h484" transform="translate(0,101.50999999999999)" style="stroke: rgb(238, 238, 238); stroke-opacity: 1; stroke-width: 1px;"/></g></g><g class="zerolinelayer"><path class="yzl zl crisp" d="M60,0h484" transform="translate(0,223.61)" style="stroke: rgb(68, 68, 68); stroke-opacity: 1; stroke-width: 1px;"/></g><path class="xlines-below"/><path class="ylines-below"/><g class="overlines-below"/><g class="xaxislayer-below"/><g class="yaxislayer-below"/><g class="overaxes-below"/><g class="plot" transform="translate(60, 60)" clip-path="url(#clip22d9f4xyplot)"><g class="imagelayer"/><g class="maplayer"/><g class="barlayer"/><g class="carpetlayer"/><g class="violinlayer"/><g class="boxlayer"/><g class="scatterlayer"><g class="trace scatter trace265649" style="stroke-miterlimit: 2; opacity: 1;"><path class="js-line" style="vector-effect: non-scaling-stroke; fill: none; stroke: rgb(31, 119, 180); stroke-opacity: 1; stroke-width: 2px; opacity: 1;" d="M0,283.43L0.15,307.31L0.77,306L0.93,302.38L1.86,308.73L2.01,307.98L2.17,306.66L2.32,297.55L2.48,294.64L2.63,310.18L2.94,288.02L3.41,297.91L3.56,296.99L3.72,293.9L3.87,305.2L4.03,297.93L4.18,310.03L4.34,295.1L4.96,305.07L5.11,302.32L5.27,297.34L5.58,305.42L5.73,302.63L5.89,304.7L6.2,303.17L6.35,308.71L6.51,306.07L6.66,301.9L7.28,301.49L7.44,307.9L7.59,305.51L7.75,307.26L7.9,304.02L8.06,307.06L8.21,301.33L8.37,301.22L8.52,300.11L8.68,306.01L8.99,297.53L9.3,302.46L9.45,302.1L9.61,309.56L9.76,294.46L10.07,302.12L10.23,301.5L10.38,302.6L10.54,310.6L11,302.93L11.16,311.73L11.31,308.06L11.47,307.94L12.24,298.92L12.4,305.02L12.55,302.57L12.71,305.07L12.86,313.5L13.48,298.37L13.64,304.27L13.79,307.49L14.1,310.12L14.88,299.87L15.03,301.95L15.19,306.8L15.5,305.84L15.65,308.86L15.81,302.62L15.96,310.26L16.27,302.36L16.58,303.85L16.74,300.54L17.05,307.64L17.51,305.34L17.67,299.87L18.13,295.88L18.44,307.91L18.6,306.45L18.75,303.87L18.91,299.67L19.06,306.85L19.37,305.93L19.53,304.69L19.68,304.58L19.84,307.09L20.61,299.44L20.77,303.99L20.92,299.83L21.23,307.26L21.39,306.34L21.54,305.34L22.01,298.48L22.32,302.05L22.47,304.61L22.78,296.05L22.94,305.14L23.25,299.03L23.56,306.83L23.71,301.72L23.87,306.97L24.02,301.03L24.49,309.41L24.64,307.13L24.95,296.79L25.42,301.19L25.57,305.83L26.19,298.67L26.35,301.08L26.5,304L26.81,298.65L26.97,304.68L27.12,299.14L27.74,303.85L27.9,306.24L28.36,301.87L28.52,311.6L28.67,299.8L29.29,302.58L29.45,306.3L30.07,300.26L30.22,302.89L30.38,304.16L30.69,303.37L31,310.83L31.15,304.04L31.31,307.36L31.62,303.96L31.93,307.15L32.08,304.29L32.24,298.97L32.86,299.89L33.01,302.77L33.17,302.11L33.32,304.71L33.48,306.35L33.63,301.72L33.79,300.45L34.1,294.18L34.56,304.81L34.72,302.12L35.18,300.8L35.49,305.71L35.65,300.73L35.96,302.45L36.11,299.87L36.27,305.1L37.04,298.58L37.2,302.8L37.35,305.73L37.5,297.69L37.97,303.44L38.12,302.32L38.28,294.29L38.59,303.19L38.74,302.95L38.9,305.82L39.52,297.01L39.67,302.28L39.83,300.02L40.14,295.03L40.29,299.01L40.45,302.2L40.6,300.48L40.91,303.66L41.07,305.86L41.22,305.78L41.38,301.13L41.69,300.89L42.15,308.55L42.31,301.5L42.46,295L42.62,303.77L42.93,298.48L43.08,301.45L43.55,304.31L43.7,292.14L43.86,296.65L44.01,300.5L44.17,297.55L44.48,302.22L44.63,298.88L44.79,301.14L44.94,298.49L45.1,304.45L45.25,302.9L45.41,305.58L45.72,294.96L46.03,300.95L46.18,300.63L46.34,306.14L46.8,296.8L46.96,300.04L47.27,302.25L47.42,295.38L47.58,296.58L47.73,300.83L48.35,289.54L48.51,297.95L48.66,303.7L49.75,296L49.9,295.33L50.06,298.75L50.21,294.01L50.37,298.55L50.52,292.5L50.99,305.23L51.3,298.66L51.45,292.96L51.76,300.24L51.92,298.03L52.07,292.48L53,299.8L53.16,293.01L53.31,298.39L53.78,296.15L53.93,288.84L54.09,305.01L54.55,291.2L54.71,289.92L55.02,289.07L55.33,299.17L55.48,297.99L55.64,285.08L56.1,302.48L56.41,290.66L56.57,296.58L56.88,288.79L57.03,301.26L57.19,300.46L57.34,295.63L57.5,300.63L57.96,295.82L58.12,289.21L58.74,299.48L58.89,288.23L59.2,293.31L59.36,283.59L59.51,295.28L59.67,297.66L59.98,293.09L60.13,293.8L60.29,293.95L60.44,300.6L60.75,289.25L60.91,286.83L61.68,298.44L61.84,290.13L61.99,300.95L62.46,300.02L62.61,287.94L62.92,298.13L63.54,297.21L63.7,288.82L63.85,288.78L64.01,298.09L64.63,298.42L64.94,286.58L65.09,301.9L65.56,287.24L65.87,296.5L66.02,298.58L66.18,288.55L66.33,299.83L66.8,294L66.95,299.82L67.88,288.18L68.04,296.76L68.81,280.76L68.97,293.48L69.28,281.32L69.43,285.79L69.59,293.39L69.9,284.89L70.05,294.81L70.36,285.7L70.52,294.66L70.83,284.48L70.98,288.41L71.14,275.9L71.6,297.87L71.91,283.26L72.07,291.28L72.22,289.79L72.38,295.89L72.84,280.02L73,290.11L73.15,295.07L73.46,285.27L74.08,287.37L74.24,291.73L74.39,294.62L74.54,286.47L74.7,275.65L74.85,275.38L75.01,292.08L75.47,280.2L75.78,284.6L75.94,289.13L76.56,271.95L76.71,289.42L76.87,281.08L77.49,287.44L77.64,284.28L77.95,268.84L78.26,276.87L78.42,288.63L78.73,281.23L78.88,284.04L79.04,286.05L79.19,290.97L79.35,279.62L79.66,290.63L79.81,274.9L80.9,287.57L81.05,273.25L81.98,290.33L82.14,280.36L82.29,272.56L82.45,284.31L82.76,279.25L82.91,286.87L83.53,263.41L83.69,289.82L84.31,261.59L84.46,281.28L84.62,277.24L84.77,277.85L84.93,275.97L85.08,266.27L85.24,278.42L85.86,274.61L86.01,270.55L86.17,279.19L86.32,264.53L86.63,278.68L86.79,264.42L87.72,276.36L87.87,276.81L88.03,274.25L88.18,282.36L88.34,263.44L88.65,285.79L88.96,268.86L89.11,268.63L89.27,275.69L89.42,263.25L89.89,273.21L90.04,272.57L90.2,261.95L90.82,265.26L90.97,269.58L91.28,264.85L91.44,272.21L91.59,248.55L92.52,286.36L92.68,271.27L92.83,274.66L92.99,260.57L93.61,272.11L93.76,267.28L93.92,261.29L94.54,287.69L94.69,260.69L94.85,260.52L95,257.62L95.16,247.75L95.31,259.93L95.78,249.76L95.93,254.92L96.09,264.51L96.4,244.15L96.55,260.72L96.71,251.53L96.86,229.59L97.33,254.72L97.48,250.74L97.79,246.02L97.95,257.52L98.1,245.56L98.88,265.56L99.03,262.33L99.19,249.15L99.34,238.67L99.65,252.3L99.81,247.98L99.96,260L100.58,221.91L100.89,243.27L101.05,239.39L101.98,225.58L102.13,245.61L102.75,220.6L102.91,226.84L103.06,239.05L103.37,258.16L103.53,236.06L103.68,236.64L103.84,236.9L104.15,251.04L104.3,221.42L104.61,250.95L104.77,242.35L105.23,218.34L105.39,228.48L105.54,245.3L106.16,218.95L106.32,258.71L106.78,218.68L107.09,229.1L107.25,225.81L107.4,226.53L107.56,224.15L107.71,243.93L107.87,246.67L108.02,232.2L108.18,202.97L108.64,235.97L108.8,227L109.26,236.31L109.42,209.79L109.57,216.2L109.73,210.69L110.19,216.06L110.35,202.08L110.5,216.61L110.66,174.46L110.97,225.35L111.12,210.62L111.28,219.11L111.59,185.31L111.74,230.76L112.05,186.55L112.2,185.37L112.98,214.34L113.13,191.98L113.6,219.26L113.75,202.79L113.91,204.45L114.06,211.85L114.22,202.23L114.37,208.22L114.53,191.45L114.68,198.59L114.84,181.63L114.99,162.36L115.77,209.11L115.92,207.73L116.08,188.74L116.23,186.83L116.39,194.51L116.54,209.11L116.7,177.16L117.01,203.01L117.16,193.8L117.63,184.26L117.78,170.67L118.56,202.16L118.71,178.01L119.64,203.3L119.8,183.07L120.11,171.73L120.26,210.89L120.57,191.42L120.73,183.51L121.35,210.91L121.5,199.64L121.66,189.17L121.81,192L121.97,151.68L122.59,194.1L122.9,184.79L123.05,184.5L123.36,171.66L123.83,205.28L123.98,183.21L124.14,174.54L124.29,203.29L124.45,207.06L124.76,167.11L125.22,189L125.38,184.37L125.53,185.38L125.69,159.32L126.31,214.48L126.46,171.19L127.08,162.69L127.24,201.52L127.39,182.74L127.7,199.59L127.86,170.1L128.17,163.48L128.32,171.58L128.48,182.07L128.63,187.32L128.79,185.72L128.94,160.13L129.72,200.21L129.87,167.82L130.8,190.78L130.96,179.81L131.27,172.92L131.42,190.04L131.58,182L131.73,166.71L131.89,154.78L132.04,171.21L132.51,158.54L132.66,180.69L132.97,165.89L133.13,184.5L133.44,165.58L133.75,198.4L133.9,193.05L134.83,171.41L134.99,184.33L135.14,182.12L135.3,149.45L136.23,182.96L136.38,186.93L136.54,189.81L136.69,160.49L137,148.78L137.16,191.25L137.31,157.05L137.47,157.66L137.78,197.3L137.93,170.66L138.4,148.32L138.55,165.47L138.71,175.6L138.86,185.85L139.17,167.19L139.33,181.61L139.48,166.98L139.64,128.04L139.95,177.69L140.1,167.71L140.26,172.53L140.41,175.56L140.57,166.35L140.72,175.12L140.88,157.03L141.03,149.53L141.19,185.85L142.12,128.7L142.27,167.26L142.43,166.36L142.58,157.67L142.74,155.99L142.89,185.79L143.05,163.96L143.67,168.61L143.82,174.04L144.29,150.6L144.44,180.06L144.6,165.91L144.75,163.52L144.91,166.74L145.06,158.76L145.22,156L145.37,148.14L145.53,177.25L145.68,173.9L146.46,139.94L146.61,169.51L147.23,178.49L147.39,133.46L147.54,153.11L147.7,156.53L147.85,178.57L148.16,160.94L148.63,163.85L148.78,170.73L148.93,169.37L149.09,184.51L150.02,147.06L150.17,144.6L150.64,175.32L150.95,167.78L151.1,155.56L151.26,150.72L151.41,172.21L151.88,138.17L152.19,151.28L152.34,177.45L152.65,148.6L153.12,165.28L153.27,151.99L153.74,181.64L153.89,177.86L154.05,142.46L154.67,181.82L154.98,166.45L155.13,143.05L155.6,179.67L156.06,179.54L156.22,171.02L156.37,167.52L156.53,195.49L157.46,125.49L157.61,145.93L157.77,136.8L157.92,162.52L158.39,143.97L158.54,165.79L158.7,174.78L158.85,163.66L159.01,148.02L159.16,175.08L159.32,126.61L159.78,153.08L159.94,166.59L160.25,133.55L160.71,150.49L160.87,150.82L161.18,133.17L161.33,159.7L161.64,180.16L161.8,138.18L161.95,171.45L162.11,122.23L162.26,176.88L162.73,153.46L162.88,145.45L163.04,158.49L163.35,142.98L163.5,143.64L163.66,142.95L163.81,166.35L164.12,138.46L164.28,161.98L164.43,130.62L165.21,173.21L165.36,156L165.83,118.73L165.98,160.18L166.76,152.17L166.91,157.41L167.07,155.39L167.22,159.93L167.38,136.18L167.53,138.79L167.69,171.26L167.84,137.07L168,173.2L168.46,137.27L168.62,164.77L169.39,129.06L169.55,159.43L170.01,131.49L170.17,156.75L170.32,162.62L170.48,120.04L170.94,134.57L171.1,160.51L171.87,134.55L172.03,143.55L172.18,150.81L172.34,136.09L172.8,137.6L172.96,151.6L173.11,105.42L173.27,158.22L173.58,148.54L173.73,154.2L173.89,153.2L174.04,120.75L174.66,153.22L174.97,144.3L175.13,139L175.28,132.04L175.44,142.53L175.59,162.38L175.75,141.75L176.37,152.37L176.52,162.93L177.14,115.64L177.3,147.46L177.45,128.19L177.61,120.46L177.76,146.44L177.92,152.34L178.07,152.98L178.23,142.58L178.69,131.18L178.85,138.78L179,139.53L179.16,162.43L179.62,125.82L179.78,134.18L179.93,163.26L180.24,132.47L180.4,170.09L180.86,133.73L181.02,131.67L181.33,140.18L181.48,132.34L181.64,132.36L181.95,147.03L182.1,107.49L182.26,108.51L182.41,139.05L182.57,154.82L182.88,135.46L183.03,150.44L183.19,119.9L183.81,143.87L184.12,140.44L184.27,96.83L184.74,167.36L185.2,162.82L185.36,140.73L185.51,155.17L186.13,147.01L186.28,131.28L186.44,132.28L186.59,131.67L186.75,124.41L186.9,119.35L187.06,152.79L187.83,121.28L188.14,121.87L188.3,148.03L188.61,155.62L188.76,127.58L188.92,120.12L189.07,136.87L189.38,130.16L189.54,127.03L189.85,133.93L190,131.18L190.16,122.58L190.62,130.96L190.78,130.92L190.93,139.48L191.09,112.53L191.4,171.13L191.55,160.85L191.71,135.58L192.02,126.48L192.48,157.58L192.64,141.17L193.26,118.83L193.41,120.07L193.57,163.2L193.72,114.74L194.34,136.09L194.5,127.78L194.81,137.9L195.27,110.99L195.43,132.07L195.58,115.36L195.74,155.14L196.2,123.56L196.36,142.97L196.98,150.14L197.29,114.39L197.44,144.43L197.6,182.56L197.91,134.98L198.06,110.12L198.68,159.12L198.99,148.29L199.15,108.21L199.77,162.37L199.92,129.6L200.08,130.38L200.23,130.37L200.39,109.98L201.01,149.94L201.16,119.12L201.32,134.65L201.47,144.57L201.63,133.54L201.78,108.32L202.09,150.87L202.4,106.31L202.56,111.28L202.87,97.38L203.33,146.53L203.49,112.83L204.42,136.64L204.57,135.21L204.73,136.69L204.88,123.1L205.04,113.94L205.19,129.91L205.5,119.53L205.66,131.65L205.81,94.38L206.12,143.78L206.43,118.22L206.59,132.41L206.74,118.39L207.05,147.78L207.36,123.03L207.52,140.42L207.83,150.03L208.14,116.57L208.29,127.36L208.45,119.63L208.6,102.38L209.07,133.4L209.22,141.36L209.38,108.03L209.84,114.86L210,144.34L210.15,148.93L210.31,120.53L210.62,105.15L211.08,143.86L211.24,115.85L211.55,154.31L211.7,112.77L211.86,124.05L212.01,128.43L212.17,119.01L212.32,125.2L212.48,145.21L212.94,111.39L213.25,119.81L213.41,132.05L213.56,140.11L213.72,103.24L213.87,103.9L214.03,126.2L214.34,136.15L214.65,109.78L214.8,146.28L215.27,112.36L215.73,117.66L215.89,121.16L216.04,132.76L216.35,109.97L216.66,125.28L216.82,134.17L217.28,100.08L217.44,107.93L217.59,135.71L217.9,125.75L218.06,107.2L218.83,145.89L218.99,95.54L220.07,148.25L220.23,113.53L220.38,132.52L220.54,98.58L221,119.62L221.16,88.75L221.78,145.92L221.93,126.58L222.09,107.86L222.55,113.76L222.71,110.1L222.86,97.92L223.48,124.71L223.79,118.67L223.94,101.55L224.1,100.3L224.25,127.98L225.03,105.61L225.18,108.14L225.34,126.18L225.49,159.78L225.96,113.24L226.11,126.37L226.73,109.81L226.89,127.89L227.04,104.51L227.66,121.96L227.82,133.23L227.97,159.04L228.13,126.44L228.28,135.87L228.44,110.26L228.59,135.87L228.75,97.49L229.06,115.32L229.21,111.12L229.37,107.04L229.52,127.09L229.99,91.89L230.14,130.42L230.45,108.99L230.61,104.4L230.76,95.61L230.92,125.28L231.07,100.27L231.23,138.32L231.54,69.54L232,105.51L232.16,99.14L232.31,120.03L232.47,98.7L232.93,103.01L233.09,120.17L233.4,85.15L233.86,98.45L234.02,94.49L234.17,92.47L234.33,137.69L234.64,92.94L235.1,95.95L235.26,132.04L235.88,94.34L236.03,101.15L236.19,117.96L236.5,97.17L236.81,101.34L236.96,120.2L237.12,123.21L237.27,106.86L237.58,127.05L237.74,80.71L238.51,111.61L238.67,88.88L239.13,122.63L239.44,101.89L239.6,89.4L239.75,122.64L240.37,114.51L240.53,114.62L240.99,147.1L241.15,100.4L241.3,98.83L241.46,108.65L241.61,86.23L242.08,113.3L242.23,106.2L242.7,84.2L242.85,112.95L243.16,122.53L243.47,82.12L243.78,93.68L243.94,122.41L244.09,82.79L244.56,126.2L244.71,107.69L244.87,92.49L245.02,65.62L245.18,102.63L245.49,88.12L245.64,112.04L245.95,75.29L246.42,104.52L246.57,98.92L246.73,80.95L247.04,116.36L247.19,109.74L247.35,106.46L247.81,98.97L248.12,130.86L248.28,101.59L248.9,128L249.05,113.18L249.21,95.27L249.36,131.11L249.98,116.73L250.14,125.62L251.07,78.32L251.22,106.59L251.38,72.12L251.53,124.3L251.84,112.51L252,112.04L252.31,90.31L252.62,114.95L252.77,113.44L253.24,133.4L253.7,78.18L253.86,98.43L254.01,106.53L254.17,51.03L254.48,107.38L254.94,93.56L255.1,82.88L255.56,126.15L255.87,114.29L256.03,123.99L256.34,83.15L256.8,102.33L256.96,110.8L257.11,91.99L257.42,138.08L257.73,96.67L257.89,139.34L258.66,91.22L258.82,111.94L258.97,113.39L259.13,96.9L259.28,102.92L259.44,93.86L259.59,102.58L259.75,79.07L260.06,139.82L260.52,119.94L260.67,114.53L261.14,77.71L261.45,96.37L261.6,100.6L261.76,85.97L262.07,110.65L262.22,101.06L262.38,131.05L263.15,91.7L263.31,91.78L263.46,105.38L263.62,115.25L263.77,89L263.93,106.12L264.08,71.13L264.24,99.72L264.86,91.57L265.01,89.18L265.63,87.03L266.1,136.61L266.25,130.63L266.56,72.34L266.87,77.79L267.03,113.02L267.18,89.25L267.65,116.11L267.8,109.14L267.96,102.59L268.27,68.45L268.58,105.34L268.73,121.93L269.51,82.33L269.66,88.93L269.82,108.47L270.28,116.22L270.44,85.89L270.59,96.46L270.75,92.12L271.06,102.68L271.37,72.96L271.52,76.26L271.68,127.66L272.3,78.76L272.61,100.12L272.76,113.79L273.23,88.26L273.54,98.06L273.69,113.93L273.85,116.73L274,100.29L274.31,82.39L274.62,132.8L274.93,126.7L275.09,107.86L275.24,94.05L275.4,132.23L275.55,106.98L275.71,124.6L275.86,76.51L276.48,109.39L276.64,94.69L277.26,71.73L277.41,100.2L277.57,87.93L277.88,112.3L278.03,113.05L278.19,111.27L278.34,94.77L278.5,101.33L278.65,75.69L279.58,122.81L279.74,106.65L280.2,72.78L280.51,103.64L280.67,95.44L280.82,102.49L280.98,92.65L281.13,93.65L281.29,79.64L281.44,72.03L281.75,86.67L281.91,82.48L282.06,86.09L282.37,83.44L282.53,112.67L282.84,92.85L282.99,91.77L283.15,118.1L283.77,114.98L283.92,106.75L284.08,112.87L284.23,105.32L284.39,93.17L284.54,106.23L284.7,96.66L284.85,67.75L285.16,116.34L285.63,107.03L285.78,75.61L285.94,109.79L286.56,99.26L286.71,99.03L287.02,106.77L287.18,106.03L287.33,92.78L287.49,93.2L287.64,86.53L287.95,94.86L288.26,89.41L288.42,77.01L288.57,118.52L289.04,74.43L289.19,90.73L289.35,88.3L289.5,75.02L289.66,89.55L289.81,85.95L289.97,102.11L290.12,102.73L290.28,79.64L290.59,112.28L291.05,111.61L291.21,95.8L291.36,123.79L291.83,79.46L291.98,81.32L292.14,120.92L292.76,93.25L292.91,122.65L293.22,79.75L293.84,88.55L294,91.1L294.15,97.39L294.31,79.89L294.46,74.49L295.08,67.44L295.24,118.78L295.39,67.59L296.01,123.96L296.17,113.43L296.32,81.03L296.48,73.42L296.63,98.77L296.79,94.03L296.94,91.62L297.1,84.85L297.25,86.13L297.41,107.09L297.56,111.3L297.72,80.02L297.87,54.38L298.02,105.42L298.33,98.04L298.49,87.06L298.64,97.99L298.8,76.89L299.11,86.56L299.26,83.89L299.42,104.53L299.73,82.31L299.88,83.54L300.04,85.12L300.19,80.43L300.35,101.67L300.5,121.03L300.66,76.36L300.97,89.11L301.12,74.02L301.28,110.85L301.59,71.01L301.74,76.68L301.9,70.65L302.36,81.93L302.52,95.41L302.67,95.37L302.83,71.1L303.6,93.2L303.76,63.39L304.53,104.07L304.69,71.39L305.15,98.34L305.46,91.52L305.62,86.77L305.77,84.26L305.93,85.1L306.08,60.71L307.01,109.85L307.17,74.72L307.32,54.73L307.48,81.36L307.79,80.69L307.94,72.4L308.56,93.7L308.87,86.92L309.03,57.29L309.49,93.1L309.8,92.5L309.96,62.58L310.11,64.14L310.27,77.61L310.42,68.44L310.58,81.56L310.73,97.75L310.89,111.63L311.2,79.54L311.35,54.49L311.51,61.23L311.66,113.78L312.13,84.75L312.59,94.32L312.75,94.48L313.06,102.21L313.21,75.71L313.37,99.27L313.83,68.72L313.99,80.6L314.14,89.14L314.3,54.98L314.45,89.69L314.76,78.76L314.92,108.98L315.38,55.62L315.54,108.03L315.69,111.91L316.16,85.21L316.47,102.86L316.62,91.78L316.93,115.06L317.24,90.04L317.4,76.97L317.71,105.23L317.86,103.7L318.02,80.68L318.79,99.35L318.95,74.22L319.1,65.63L319.26,122.19L319.57,79.1L320.03,94.65L320.19,86.78L320.5,104.31L320.96,100.08L321.12,94.92L321.43,119.99L321.58,77.61L321.74,91.92L321.89,81.06L322.2,71.66L322.36,96.48L322.51,85.05L322.67,77.87L322.82,102.27L322.98,71.09L323.44,96.98L323.6,81.37L323.75,66.8L324.06,107.3L324.22,89.14L324.37,98.37L324.53,120L324.84,89.83L324.99,97.49L325.15,78.56L325.77,98.07L325.92,59.49L326.23,82.47L326.7,69.21L326.85,77.31L327.01,118.82L327.16,66.28L327.63,95.83L327.78,71.81L327.94,44.68L328.4,76.69L328.56,104.36L328.71,98.81L328.87,63.42L329.18,85.53L329.33,97.89L329.49,56.79L329.95,100.42L330.11,80.31L330.26,85.52L330.42,103.11L330.57,71.79L330.73,87.97L330.88,46.38L331.35,86.62L331.81,81.05L331.97,76.39L332.12,80.52L332.28,60.12L333.21,109.7L333.36,95.36L333.83,51.19L334.14,68.87L334.29,84.94L334.6,78.83L334.76,100.24L334.91,56.27L335.53,87.36L335.68,99.86L335.84,73.69L336.46,93.44L336.61,92.94L337.08,67.55L337.39,87.71L337.54,82.96L337.7,85.21L337.85,106.35L338.16,56L338.78,71.11L338.94,70.05L339.71,86.7L339.87,82.02L340.02,111.41L340.95,61.93L341.11,65.61L341.26,110.68L341.88,100.59L342.04,110.04L342.97,56.46L343.12,102.47L343.59,51.45L344.05,71.48L344.21,89.17L345.14,65.07L345.29,81.28L345.45,62.39L345.6,97.33L346.07,74.24L346.22,82.37L346.38,91.12L346.53,61.21L346.84,76.14L347,81.64L347.15,58.53L347.62,101.26L347.77,83.89L348.39,58.37L348.7,64.85L348.86,69.87L349.32,63.48L349.94,94.57L350.1,86.38L350.25,70.98L350.56,98.8L350.87,79.1L351.03,120.67L351.65,66.87L351.8,74.68L351.96,99.01L352.11,103.83L352.27,90.73L352.42,93.77L352.58,75.47L352.73,108.56L353.2,90.59L353.35,78.45L353.82,43.43L353.97,60.2L354.13,86.48L354.75,53.59L354.9,74.14L355.06,63.31L355.37,116.98L355.83,71L355.99,84.93L356.14,68.05L356.3,87.84L356.61,76.95L356.76,99.15L357.07,99.75L357.54,54.38L357.69,86.99L358,78.75L358.62,103.21L358.78,79.42L358.93,44.29L359.24,83.07L359.55,71.01L359.71,102.2L360.17,105.7L360.64,64.19L360.79,103.7L361.57,70.12L361.72,82.38L361.88,74.03L362.03,97.27L362.5,66.41L362.65,87.67L362.81,66.38L363.58,97.99L363.74,58.77L363.89,48.03L364.2,72.8L364.36,82.34L364.51,95.47L364.67,53.03L365.13,90.3L365.29,75.64L365.44,74.85L365.6,84.15L365.75,67.6L366.06,94.99L366.22,79.68L366.37,107.97L366.68,72.78L366.84,116.2L367.3,47.86L367.77,82.24L367.92,67.92L368.7,84.43L368.85,84.37L369.01,79.15L369.16,65.85L369.32,98.19L369.47,96.26L369.63,91.01L370.56,66.5L370.71,71.91L371.02,63.26L371.18,72.19L371.33,68.85L371.49,106.3L371.64,58.65L372.26,90.31L372.41,75.65L372.72,108.85L373.03,80.51L373.19,76.6L373.65,67.45L373.81,97.3L373.96,65.08L374.12,109.9L374.43,58.6L374.58,79.79L374.74,68.54L374.89,72.75L375.05,98.98L375.51,63.38L375.82,94.99L375.98,86.37L376.13,71.61L376.6,91.33L376.75,76.27L376.91,68.81L377.06,37.45L377.53,84.56L377.68,95.63L377.84,107.34L377.99,77.33L378.15,106.79L378.3,75.72L378.61,88.33L378.77,99.36L379.08,47.04L379.54,64.56L379.7,92.91L379.85,95.99L380.01,72.1L380.32,63.25L380.63,103.24L380.78,57.87L381.25,92.89L381.71,86.03L381.87,89.46L382.18,53.44L382.64,64.53L382.8,69.81L383.11,102.81L383.57,84.95L383.73,73.05L383.88,59.04L384.19,89.43L384.35,86.1L385.12,47.38L385.28,64.58L385.9,100.2L386.05,82.05L386.21,72.51L386.36,72.33L386.52,60.21L386.67,86.94L386.83,59.09L387.14,82.19L387.29,58.58L387.6,96.35L387.91,76.24L388.07,57.98L388.84,94.37L389,75.34L389.15,82.79L389.62,72.01L389.77,58.29L390.08,46.78L390.39,92.06L390.55,78.32L390.7,75.9L391.17,83.16L391.32,49.54L391.48,77.92L391.63,75.41L391.79,52.62L391.94,41.62L392.1,63.48L392.25,96.67L392.72,77.46L392.87,56.69L393.03,62.02L393.18,54.52L393.34,41.17L393.49,107.36L394.11,61.82L394.27,88.78L394.42,71.29L394.89,95.69L395.04,77.61L395.2,91.68L395.35,92.01L395.51,72.71L395.66,74.71L395.82,94.21L396.13,57.17L396.59,68.69L396.75,76.51L396.9,81.15L397.06,60.55L397.68,94.68L397.83,53.58L398.3,49.79L398.76,77.63L398.92,58.54L399.23,55.1L399.38,66.88L399.54,57.24L399.69,56.31L399.85,56.03L400,64.83L400.16,62.81L400.31,70.3L400.47,56.6L400.62,82.24L401.24,62.47L401.4,55.38L401.71,108.74L402.02,51.63L402.17,29.28L402.95,77.24L403.1,70.1L403.26,70.84L403.41,89.54L403.57,103.67L403.72,66.15L404.03,86.48L404.19,85.93L404.5,54.27L404.96,67.22L405.12,90.57L405.27,54.7L405.89,67.8L406.05,97.7L406.82,53.15L406.98,81.01L407.13,81.04L407.29,76.95L407.44,102.61L407.6,66.88L408.22,91.39L408.37,82.87L408.53,81.45L408.68,95.51L409.3,65.15L409.46,83.85L409.61,70.25L409.76,64.49L409.92,69.76L410.07,84.06L410.23,84.19L410.38,68.16L410.54,69.34L410.69,69.24L410.85,64.1L411.16,68.51L411.31,41.11L411.47,59.31L411.62,60.98L412.09,39.71L412.24,108.01L412.55,84.05L412.71,59.86L412.86,40.53L413.02,85.74L413.17,65.49L413.33,80.61L413.48,79.46L413.64,48.57L413.79,97.08L414.26,68.06L414.41,54.36L415.03,48.34L415.5,106.21L415.65,57.64L415.81,90.67L416.27,67.64L416.43,55.2L416.89,104.96L417.2,65.34L417.36,65.57L417.82,93.57L418.13,70.21L418.29,59.52L418.6,79.01L419.06,64.07L419.22,72.52L419.68,104.45L419.84,72.55L419.99,74.98L420.15,75.15L420.3,62.8L420.46,57.86L420.61,73.54L420.77,70.61L420.92,92.84L421.39,61.21L421.54,97.42L421.7,67.75L421.85,73.7L422.16,37.92L422.32,93.79L422.47,77.14L422.63,46.98L423.71,100.38L423.87,86.27L424.02,49.34L424.64,51.93L424.8,100.97L425.11,57.81L425.57,60.98L425.73,78.13L426.19,111.65L426.35,43.9L427.12,85.56L427.28,60.5L427.9,103.96L428.05,70.77L428.21,45.72L428.36,99.81L428.98,74.85L429.14,92.8L429.29,98.89L429.45,72.19L430.07,54.78L430.22,74.62L430.38,71.75L430.53,87.18L431.46,54.38L431.62,55.59L432.39,91.34L432.55,77.86L432.7,55.68L433.32,56.44L433.48,76.11L433.79,84.89L434.1,82.51L434.25,58.43L434.72,53.99L435.03,95.34L435.18,51.87L435.49,91.23L435.8,83.18L435.96,45.09L436.58,100.18L436.89,80.71L437.04,64.45L437.2,84.71L437.35,62.92L437.66,69.84L437.82,59.73L437.97,54.55L438.13,90.44L438.75,59.66L439.06,63.22L439.21,102.06L440.14,42.4L440.3,62.16L440.45,50.39L440.76,76.79L440.92,91.65L441.07,53.2L441.38,108.64L441.54,86.24L441.69,92.28L442,54.14L442.47,54.22L442.62,89.67L442.93,93.32L443.4,60.71L443.55,106.42L444.02,66.98L444.33,85.4L444.48,77.03L444.79,92.21L444.95,90.15L445.1,67.92L445.26,28.36L445.88,44.11L446.03,60.42L446.34,47.57L446.8,66.72L446.96,65.72L447.11,65.46L447.27,53.93L447.42,76.72L447.73,29.16L447.89,55.47L448.04,38.34L448.35,87.53L448.82,66.54L448.97,62.9L449.13,75.96L449.75,75.26L449.9,46.26L450.06,86.83L450.52,54.6L450.68,51.51L451.45,86L451.61,30.16L452.69,103.2L452.85,82.36L453.16,38.95L453.31,95.87L453.62,56.9L453.78,89.34L454.24,52.22L454.4,65.65L454.55,88.27L455.17,51.58L455.33,95.68L455.48,96.94L455.64,85.43L455.95,53.61L456.41,55.28L456.57,58.6L457.5,85.7L457.65,68.31L457.81,69.22L457.96,81.79L458.58,61.76L458.74,73.9L458.89,71.82L459.05,64.14L459.2,67.13L459.36,16.5L459.67,82.74L460.29,70.81L460.44,71.3L460.6,60.45L461.06,74.47L461.22,77L461.37,111.5L461.84,57.76L461.99,47.53L462.15,42.02L462.3,89.72L462.46,96.53L462.61,72.11L462.77,54.78L462.92,56.86L463.08,78.79L463.39,51.72L463.54,73.84L463.7,78.62L464.01,24.13L464.16,62.4L464.32,82.93L464.78,40.9L465.09,63.03L465.25,72.52L465.4,71.97L465.56,58.5L465.71,44.03L466.02,75.86L466.18,59.92L466.33,68.49L466.49,67.68L466.64,41.65L466.95,75.05L467.11,53.91L467.26,38.2L468.19,81.33L468.35,66.41L468.5,71.41L468.66,45.77L468.81,84.56L469.12,64.83L469.28,69.37L469.9,40.53L470.05,63.68L470.21,57.96L470.36,61.88L470.52,75.24L470.67,67.48L470.98,70.79L471.14,82.69L471.29,83.09L471.45,81.61L471.6,110.75L472.07,48.29L472.38,66.98L472.53,84.11L473.62,46.06L473.77,79.89L474.08,44.51L474.55,54.72L474.7,63.5L474.86,78.32L475.01,47.35L475.48,69.48L475.63,54.64L475.79,41.35L476.1,68.13L476.25,85.95L476.72,38.14L476.87,59.9L477.03,70.96L477.34,38.93L477.8,39.83L477.96,56.27L478.11,55.48L478.27,68.32L478.42,67.64L478.58,46.61L478.73,31.47L478.89,61.75L479.04,86.53L479.35,95.82L479.82,47.44L479.97,54.45L480.13,47.2L480.28,57.86L480.75,39.5L480.9,46.4L481.68,64.55L481.83,43.72L482.14,34.38L482.61,77.77L482.76,57.02L483.38,34.92L483.54,42.59L483.69,89.04L483.85,76.37L484,80.83"/><g class="points"/></g></g></g><g class="overplot"/><path class="xlines-above crisp" style="fill: none;" d="M0,0"/><path class="ylines-above crisp" style="fill: none;" d="M0,0"/><g class="overlines-above"/><g class="xaxislayer-above"><g class="xtick"><text text-anchor="middle" x="0" y="403" style="font-family: TOBESTRIPPEDOpen\ SansTOBESTRIPPED, verdana, arial, sans-serif; font-size: 12px; fill: rgb(68, 68, 68); fill-opacity: 1; white-space: pre;" transform="translate(156.70999999999998,0)">20</text></g><g class="xtick"><text text-anchor="middle" x="0" y="403" style="font-family: TOBESTRIPPEDOpen\ SansTOBESTRIPPED, verdana, arial, sans-serif; font-size: 12px; fill: rgb(68, 68, 68); fill-opacity: 1; white-space: pre;" transform="translate(253.57,0)">40</text></g><g class="xtick"><text text-anchor="middle" x="0" y="403" style="font-family: TOBESTRIPPEDOpen\ SansTOBESTRIPPED, verdana, arial, sans-serif; font-size: 12px; fill: rgb(68, 68, 68); fill-opacity: 1; white-space: pre;" transform="translate(350.43,0)">60</text></g><g class="xtick"><text text-anchor="middle" x="0" y="403" style="font-family: TOBESTRIPPEDOpen\ SansTOBESTRIPPED, verdana, arial, sans-serif; font-size: 12px; fill: rgb(68, 68, 68); fill-opacity: 1; white-space: pre;" transform="translate(447.29,0)">80</text></g></g><g class="yaxislayer-above"><g class="ytick"><text text-anchor="end" x="59" y="4.199999999999999" style="font-family: TOBESTRIPPEDOpen\ SansTOBESTRIPPED, verdana, arial, sans-serif; font-size: 12px; fill: rgb(68, 68, 68); fill-opacity: 1; white-space: pre;" transform="translate(0,386.41)">−20</text></g><g class="ytick"><text text-anchor="end" x="59" y="4.199999999999999" style="font-family: TOBESTRIPPEDOpen\ SansTOBESTRIPPED, verdana, arial, sans-serif; font-size: 12px; fill: rgb(68, 68, 68); fill-opacity: 1; white-space: pre;" transform="translate(0,345.71)">−15</text></g><g class="ytick"><text text-anchor="end" x="59" y="4.199999999999999" style="font-family: TOBESTRIPPEDOpen\ SansTOBESTRIPPED, verdana, arial, sans-serif; font-size: 12px; fill: rgb(68, 68, 68); fill-opacity: 1; white-space: pre;" transform="translate(0,305.01)">−10</text></g><g class="ytick"><text text-anchor="end" x="59" y="4.199999999999999" style="font-family: TOBESTRIPPEDOpen\ SansTOBESTRIPPED, verdana, arial, sans-serif; font-size: 12px; fill: rgb(68, 68, 68); fill-opacity: 1; white-space: pre;" transform="translate(0,264.31)">−5</text></g><g class="ytick"><text text-anchor="end" x="59" y="4.199999999999999" style="font-family: TOBESTRIPPEDOpen\ SansTOBESTRIPPED, verdana, arial, sans-serif; font-size: 12px; fill: rgb(68, 68, 68); fill-opacity: 1; white-space: pre;" transform="translate(0,223.61)">0</text></g><g class="ytick"><text text-anchor="end" x="59" y="4.199999999999999" style="font-family: TOBESTRIPPEDOpen\ SansTOBESTRIPPED, verdana, arial, sans-serif; font-size: 12px; fill: rgb(68, 68, 68); fill-opacity: 1; white-space: pre;" transform="translate(0,182.91)">5</text></g><g class="ytick"><text text-anchor="end" x="59" y="4.199999999999999" style="font-family: TOBESTRIPPEDOpen\ SansTOBESTRIPPED, verdana, arial, sans-serif; font-size: 12px; fill: rgb(68, 68, 68); fill-opacity: 1; white-space: pre;" transform="translate(0,142.20999999999998)">10</text></g><g class="ytick"><text text-anchor="end" x="59" y="4.199999999999999" style="font-family: TOBESTRIPPEDOpen\ SansTOBESTRIPPED, verdana, arial, sans-serif; font-size: 12px; fill: rgb(68, 68, 68); fill-opacity: 1; white-space: pre;" transform="translate(0,101.50999999999999)">15</text></g><g class="ytick"><text text-anchor="end" x="59" y="4.199999999999999" style="font-family: TOBESTRIPPEDOpen\ SansTOBESTRIPPED, verdana, arial, sans-serif; font-size: 12px; fill: rgb(68, 68, 68); fill-opacity: 1; white-space: pre;" transform="translate(0,60.81)">20</text></g></g><g class="overaxes-above"/></g></g><g class="polarlayer"/><g class="ternarylayer"/><g class="geolayer"/><g class="pielayer"/><g class="glimages"/><defs id="topdefs-22d9f4"><g class="clips"/><clipPath id="legend22d9f4"><rect width="134" height="48" x="0" y="0"/></clipPath></defs><g class="layer-above"><g class="imagelayer"/><g class="shapelayer"/></g><g class="infolayer"><g class="g-gtitle"><text class="gtitle" style="font-family: TOBESTRIPPEDOpen\ SansTOBESTRIPPED, verdana, arial, sans-serif; font-size: 17px; fill: rgb(68, 68, 68); opacity: 1; font-weight: normal; white-space: pre;" x="350" y="30" text-anchor="middle">Rewards</text></g><g class="legend" pointer-events="all" transform="translate(553.6800000000001, 60)"><rect class="bg" shape-rendering="crispEdges" style="stroke: rgb(68, 68, 68); stroke-opacity: 1; fill: rgb(255, 255, 255); fill-opacity: 1; stroke-width: 0px;" width="134" height="48" x="0" y="0"/><g class="scrollbox" transform="translate(0, 0)" clip-path="url(#legend22d9f4)"><g class="groups"><g class="traces" style="opacity: 1;" transform="translate(0, 14.5)"><g class="layers" style="opacity: 1;"><g class="legendfill"/><g class="legendlines"><path class="js-line" d="M5,0h30" style="fill: none; stroke: rgb(31, 119, 180); stroke-opacity: 1; stroke-width: 2px;"/></g><g class="legendsymbols"><g class="legendpoints"/></g></g><text class="legendtext user-select-none" text-anchor="start" style="font-family: TOBESTRIPPEDOpen\ SansTOBESTRIPPED, verdana, arial, sans-serif; font-size: 12px; fill: rgb(68, 68, 68); fill-opacity: 1; white-space: pre;" x="40" y="4.680000000000001">Mean Reward</text><rect class="legendtoggle" style="cursor: pointer; fill: rgb(0, 0, 0); fill-opacity: 0;" pointer-events="all" x="0" y="-9.5" width="174" height="19"/></g><g class="traces" style="opacity: 0.5;" transform="translate(0, 33.5)"><g class="layers" style="opacity: 1;"><g class="legendfill"/><g class="legendlines"><path class="js-line" d="M5,0h30" style="fill: none; stroke: rgb(255, 127, 14); stroke-opacity: 1; stroke-width: 2px;"/></g><g class="legendsymbols"><g class="legendpoints"/></g></g><text class="legendtext user-select-none" text-anchor="start" style="font-family: TOBESTRIPPEDOpen\ SansTOBESTRIPPED, verdana, arial, sans-serif; font-size: 12px; fill: rgb(68, 68, 68); fill-opacity: 1; white-space: pre;" x="40" y="4.680000000000001">Median Reward</text><rect class="legendtoggle" style="cursor: pointer; fill: rgb(0, 0, 0); fill-opacity: 0;" pointer-events="all" x="0" y="-9.5" width="174" height="19"/></g></g></g><rect class="scrollbar" rx="20" ry="3" width="0" height="0" style="fill: rgb(128, 139, 164); fill-opacity: 1;" x="0" y="0"/></g><g class="g-xtitle"><text class="xtitle" style="font-family: TOBESTRIPPEDOpen\ SansTOBESTRIPPED, verdana, arial, sans-serif; font-size: 14px; fill: rgb(68, 68, 68); opacity: 1; font-weight: normal; white-space: pre;" x="302" y="442" text-anchor="middle">Frames in Mio.</text></g><g class="g-ytitle"><text class="ytitle" transform="rotate(-90,22,225)" style="font-family: TOBESTRIPPEDOpen\ SansTOBESTRIPPED, verdana, arial, sans-serif; font-size: 14px; fill: rgb(68, 68, 68); opacity: 1; font-weight: normal; white-space: pre;" x="22" y="225" text-anchor="middle">Reward</text></g></g></svg>