<svg class="main-svg" xmlns="http://www.w3.org/2000/svg" xmlns:xlink="http://www.w3.org/1999/xlink" width="700" height="450" style="" viewBox="0 0 700 450"><rect x="0" y="0" width="700" height="450" style="fill: rgb(255, 255, 255); fill-opacity: 1;"/><defs id="defs-8fc204"><g class="clips"><clipPath class="plotclip" id="clip8fc204xyplot"><rect width="580" height="330"/></clipPath><clipPath class="axesclip" id="clip8fc204x"><rect x="60" y="0" width="580" height="450"/></clipPath><clipPath class="axesclip" id="clip8fc204y"><rect x="0" y="60" width="700" height="330"/></clipPath><clipPath class="axesclip" id="clip8fc204xy"><rect x="60" y="60" width="580" height="330"/></clipPath></g><g class="gradients"/></defs><g class="bglayer"><rect class="bg" x="60" y="60" width="580" height="330" style="fill: rgb(255, 255, 255); fill-opacity: 1; stroke-width: 0;"/></g><g class="layer-below"><g class="imagelayer"/><g class="shapelayer"/></g><g class="cartesianlayer"><g class="subplot xy"><g class="layer-subplot"><g class="shapelayer"/><g class="imagelayer"/></g><g class="gridlayer"><g class="x"><path class="xgrid crisp" d="M0,60v330" transform="translate(176.04000000000002,0)" style="stroke: rgb(238, 238, 238); stroke-opacity: 1; stroke-width: 1px;"/><path class="xgrid crisp" d="M0,60v330" transform="translate(292.07,0)" style="stroke: rgb(238, 238, 238); stroke-opacity: 1; stroke-width: 1px;"/><path class="xgrid crisp" d="M0,60v330" transform="translate(408.11,0)" style="stroke: rgb(238, 238, 238); stroke-opacity: 1; stroke-width: 1px;"/><path class="xgrid crisp" d="M0,60v330" transform="translate(524.15,0)" style="stroke: rgb(238, 238, 238); stroke-opacity: 1; stroke-width: 1px;"/></g><g class="y"><path class="ygrid crisp" d="M60,0h580" transform="translate(0,366.62)" style="stroke: rgb(238, 238, 238); stroke-opacity: 1; stroke-width: 1px;"/><path class="ygrid crisp" d="M60,0h580" transform="translate(0,325.09)" style="stroke: rgb(238, 238, 238); stroke-opacity: 1; stroke-width: 1px;"/><path class="ygrid crisp" d="M60,0h580" transform="translate(0,283.56)" style="stroke: rgb(238, 238, 238); stroke-opacity: 1; stroke-width: 1px;"/><path class="ygrid crisp" d="M60,0h580" transform="translate(0,242.03)" style="stroke: rgb(238, 238, 238); stroke-opacity: 1; stroke-width: 1px;"/><path class="ygrid crisp" d="M60,0h580" transform="translate(0,200.51)" style="stroke: rgb(238, 238, 238); stroke-opacity: 1; stroke-width: 1px;"/><path class="ygrid crisp" d="M60,0h580" transform="translate(0,158.98000000000002)" style="stroke: rgb(238, 238, 238); stroke-opacity: 1; stroke-width: 1px;"/><path class="ygrid crisp" d="M60,0h580" transform="translate(0,117.45)" style="stroke: rgb(238, 238, 238); stroke-opacity: 1; stroke-width: 1px;"/><path class="ygrid crisp" d="M60,0h580" transform="translate(0,75.92)" style="stroke: rgb(238, 238, 238); stroke-opacity: 1; stroke-width: 1px;"/></g></g><g class="zerolinelayer"><path class="xzl zl crisp" d="M0,60v330" transform="translate(60,0)" style="stroke: rgb(68, 68, 68); stroke-opacity: 1; stroke-width: 1px;"/></g><path class="xlines-below"/><path class="ylines-below"/><g class="overlines-below"/><g class="xaxislayer-below"/><g class="yaxislayer-below"/><g class="overaxes-below"/><g class="plot" transform="translate(60, 60)" clip-path="url(#clip8fc204xyplot)"><g class="imagelayer"/><g class="maplayer"/><g class="barlayer"/><g class="carpetlayer"/><g class="violinlayer"/><g class="boxlayer"/><g class="scatterlayer"><g class="trace scatter trace7ffe1b" style="stroke-miterlimit: 2; opacity: 1;"><path class="js-line" style="vector-effect: non-scaling-stroke; fill: none; stroke: rgb(31, 119, 180); stroke-opacity: 1; stroke-width: 2px; opacity: 1;" d="M0,16.5L0.19,313.5L0.74,251.96L0.93,251.14L1.49,99.51L1.86,140.48L2.04,183.42L2.78,63.31L2.97,85.74L3.16,118.82L3.9,180.64L4.08,172.93L4.27,148.48L4.64,184.82L4.83,161.12L6.13,84.46L6.31,81.72L6.68,73.54L6.87,82.42L7.06,104.08L7.24,107.6L7.43,87.24L7.61,87.08L7.8,85.82L8.54,58.71L8.73,82.86L8.91,123.91L9.47,84.1L9.65,64.15L9.84,62.84L10.03,74.14L10.21,76.05L10.4,63.27L10.58,55.05L10.95,66.3L11.14,84.15L11.33,98.41L11.7,79.24L12.07,98.3L12.25,102.4L12.44,116.68L12.62,89.25L12.81,63.5L13,64L13.18,79.85L13.37,105.49L13.74,67.96L13.92,52.88L14.67,116.37L14.85,97.61L15.04,66.5L15.78,46.43L15.97,62.11L16.15,78.93L16.71,65.42L16.9,51.4L17.08,47.34L17.27,53.29L17.45,62.22L18.01,96.74L18.38,82.88L18.57,78.42L19.12,47.76L19.49,65.76L19.68,81.42L20.05,69.58L20.24,92.23L20.42,91.44L20.61,70.92L20.98,55.04L21.17,55.29L21.35,77.81L21.91,140.17L22.28,117.57L22.46,85.57L23.39,46.81L23.58,45.31L23.95,48.81L24.14,60.71L24.32,60.94L24.51,68.6L25.06,55.5L25.44,100.95L25.62,96.59L25.99,46.79L26.36,71.89L26.55,73.62L26.73,75.49L26.92,85.75L27.29,96.83L27.66,90.21L27.85,83.36L28.41,60.55L28.59,81.59L28.78,77.21L28.96,49.77L29.71,36.13L29.89,39.67L30.26,74.58L30.82,60.84L31.01,64.5L31.38,62.21L31.56,66.71L31.75,66.21L31.93,68.25L32.3,85.98L32.49,72.92L32.68,61.56L33.42,56.86L33.6,63.91L33.79,61.86L33.98,64.47L34.16,75.88L34.35,80.27L34.72,74.09L34.9,68.28L35.28,68.89L35.46,65.47L35.65,82.08L35.83,90.42L36.2,81.02L36.39,76.82L37.32,60.94L37.5,71.02L37.69,85.04L37.87,73.89L38.06,48.45L38.25,32.98L38.62,61.93L38.8,78.88L38.99,77.21L39.17,63.66L39.73,38.7L39.92,55.56L40.1,55.26L40.29,54.33L40.47,67.71L41.22,104.06L41.4,87.9L41.59,69.1L41.96,54.68L42.33,62.81L42.52,61.31L42.89,68.48L43.26,62.76L43.44,65.26L43.63,64.64L43.82,64.97L44,72.65L44.37,70.34L44.56,80.86L44.93,86.54L45.12,82.86L45.3,73.4L46.23,85.44L46.41,95.38L46.6,101.35L46.79,98.57L46.97,87.4L47.9,67.87L48.09,77.61L48.27,80.51L48.46,70.36L48.64,70.33L48.83,72.05L49.2,80.92L49.57,77.38L49.76,76.51L50.13,72.81L50.31,75.65L50.5,79.77L51.24,85.28L51.43,84.21L51.61,84.72L53.47,97.18L53.66,93.96L54.03,88.18L54.4,92.63L54.58,89.16L55.51,82.6L55.7,82.9L55.88,88.44L56.07,90.63L56.44,87.47L56.63,85.15L57.18,87.31L57.37,85.76L57.55,80.49L57.74,74.74L58.11,82L58.3,81.57L58.67,79.51L58.85,71.59L59.04,71.64L59.23,70.69L59.41,70.37L59.6,70.54L59.78,67.79L60.15,84.52L60.52,74.56L60.71,70.89L60.9,71.81L61.08,83.33L61.27,93.14L61.82,86.31L62.01,89.77L62.2,89.97L62.38,88.23L63.12,74.46L63.5,75.26L63.68,78.36L64.8,99.48L64.98,98.88L65.17,98.33L65.35,103.23L65.54,100.67L65.72,91.48L66.09,106.28L66.47,100.53L66.65,94.75L67.21,123.03L67.58,113.56L67.77,116.14L67.95,116.81L68.14,113.81L68.32,113.6L68.51,116.33L68.69,116.38L68.88,118.93L69.81,135.52L69.99,130.96L70.18,120.68L70.36,120.02L70.55,124.83L71.29,104.99L71.48,106.02L71.66,107.89L71.85,101.38L72.22,112.57L72.41,107.29L72.59,110.23L72.78,110.68L72.96,107.77L73.34,122.38L73.71,114.86L73.89,111.53L74.08,108.27L74.45,114.38L74.64,111.51L74.82,113.06L75.01,119.32L75.19,110.08L75.38,101.01L75.56,102.1L75.75,99.79L75.93,97.85L76.12,96.26L76.31,108.29L76.49,117.55L76.68,100.86L76.86,91.56L77.42,95.59L77.79,94.51L77.98,94.26L78.35,107.45L78.72,106.75L78.91,100.32L79.09,96.14L79.28,98.49L79.46,105.58L79.83,92.5L80.2,98.03L80.39,98.77L80.58,98.85L80.76,95.8L81.88,86.77L82.06,86.89L82.99,106.58L83.18,100.71L84.1,86.06L84.29,92.82L84.66,104.55L85.03,93.03L85.22,91.72L85.59,95.2L85.77,101.74L85.96,114.01L86.15,103.88L86.33,86.8L86.52,87.22L86.7,90.47L87.07,90.52L87.26,92.29L88,99.45L88.19,97.51L88.37,97.85L88.56,98.57L88.75,97.76L88.93,105.24L89.3,116.16L89.67,109.7L89.86,105.88L90.42,100.35L90.6,96.65L90.97,96.04L91.16,99.74L92.27,106.43L92.46,105.34L92.64,101.09L92.83,102.17L93.02,108.96L93.2,110.36L93.57,109.7L93.76,107.77L94.31,116.54L94.5,121.23L94.69,121.65L94.87,113.6L95.06,106.5L95.61,111.84L95.8,112.82L96.17,98.21L96.54,105.3L96.73,110.05L97.66,133.64L97.84,124.12L98.03,122.06L98.21,124.11L98.4,130.41L98.59,134.75L98.96,126.62L99.14,123.41L99.88,105.82L100.07,109.75L100.26,115.69L101.18,140.14L101.37,134.85L101.56,127.26L101.74,128.15L101.93,135.03L102.3,142.03L102.48,138.59L102.67,130.83L102.86,130.29L103.04,133.03L103.41,141.5L103.6,133.3L103.78,127.26L103.97,127.63L104.15,131.2L104.34,130.01L104.53,121.71L104.71,117.79L105.08,122.14L105.27,126.33L106.01,134.33L106.2,144.23L106.38,148.07L106.75,140.12L106.94,128.56L107.13,121.71L107.68,126.38L107.87,125.75L108.05,128.39L108.43,124.34L108.61,123.69L108.8,123.42L108.98,124.56L109.17,126.76L109.35,123.28L109.54,121.02L110.28,133.24L110.65,129.21L110.84,129.99L111.4,134.06L111.58,131.84L111.77,130.47L111.95,134.11L112.14,132.19L112.32,124.52L112.88,145.47L113.07,144.33L113.25,138.64L114.18,129.76L114.37,133.78L114.74,141.48L114.92,147.76L115.85,138.78L116.04,150.45L116.22,158.46L116.59,146.04L116.78,145.06L116.97,143.09L117.15,148.55L117.34,150.28L117.52,147.38L117.71,153.05L117.89,160.07L118.45,144.57L118.82,150.31L119.01,152.5L119.38,143L119.56,148.71L119.75,158.1L119.94,157.96L120.12,152.52L120.49,143.47L120.68,148.26L120.86,153.22L121.24,145.91L121.61,149L121.79,154.54L122.16,154.04L122.72,163.73L122.91,160.67L123.09,158.92L123.28,161.38L123.46,159.99L123.65,156.06L123.83,155.71L124.02,161.73L124.21,165.43L124.39,161.24L124.76,163.3L124.95,152.75L125.13,150.95L125.32,158.27L125.69,163.49L125.88,162.23L126.06,156.63L126.81,153.77L126.99,156.21L127.18,156.48L127.36,161.9L127.55,167.21L127.92,159.33L128.1,157.48L129.03,146.27L129.22,150.4L130.15,155.43L130.33,155.93L130.52,153.42L130.7,156.99L130.89,160.92L131.45,143.51L131.63,148.43L131.82,155.21L132.75,165.36L132.93,173.33L133.3,169.21L133.49,177.98L133.86,180.96L134.05,179.74L134.23,176.34L134.79,164.43L134.97,171.31L135.16,175.95L135.9,166.61L136.09,168.5L136.27,174.76L137.39,187.73L137.57,184.62L138.32,175.41L138.5,181.32L138.69,189.43L139.24,188.98L139.43,185.66L139.8,190.92L139.99,188.92L140.17,186.36L140.36,185.83L140.54,180.39L141.29,172.93L141.47,174.41L141.66,176.68L141.84,178.56L142.03,174.51L142.22,170.09L142.59,164.72L142.96,168.92L143.14,173.45L143.51,175.63L143.7,172.59L144.07,167.23L144.26,168.85L144.44,174.01L144.63,175.32L145,175.07L145.19,172.29L145.74,186.02L146.11,181.38L146.3,181.47L146.67,175.48L147.04,178.18L147.23,178.35L147.78,185.32L147.97,183.9L148.16,175.67L148.34,171.48L148.53,176.23L148.71,183.6L148.9,183.78L149.08,175.19L149.27,173.61L149.46,180.21L150.2,191.64L150.38,184.71L150.57,180.31L150.76,189.33L151.31,181.53L151.5,183.06L152.43,185.93L152.61,189.97L152.98,175.15L153.54,180.38L153.73,176.86L154.1,185.92L154.47,179.91L154.65,178.79L154.84,174.52L155.21,179.68L155.4,179.8L156.51,188.32L156.7,182.76L156.88,182.58L157.07,180.46L157.62,177.16L157.81,181.11L158.92,173.55L159.11,175.79L159.67,174.66L160.04,183.83L160.22,183.23L160.41,177.14L160.6,176.8L160.78,178.02L161.15,184.76L161.52,179.27L161.71,176.57L162.08,172.53L162.27,176.49L162.64,172.7L163.01,179.88L163.19,175.99L163.38,175.81L163.57,178.51L163.94,181.2L164.31,178.6L164.49,179.13L164.87,186.38L165.42,184.02L165.61,177.86L166.17,182.27L166.35,187.66L167.28,176.64L167.46,179.61L167.65,184.38L168.02,178.31L168.21,172.15L168.39,174.29L168.58,173.61L168.76,165.72L168.95,161.55L169.32,162.52L169.51,165.99L170.25,177.09L170.44,169.64L170.62,166.9L170.81,172.2L170.99,175.05L171.18,174.85L171.36,176.36L171.73,181.06L171.92,177.41L172.11,174.43L172.48,179.59L172.85,176.05L173.03,175.72L173.41,174.69L173.59,176.88L173.96,171.9L174.15,175.19L174.33,179.99L174.89,176.91L175.08,172.32L175.26,172.33L175.45,176.86L175.63,177.37L175.82,172.24L176.01,169.81L176.19,170.63L176.38,176.32L176.56,177.22L176.75,173.99L177.12,168.92L177.3,174.95L177.49,175.49L177.68,173.16L177.86,174.22L178.05,179.28L178.23,178.78L178.42,174.42L178.98,168.12L179.16,173.72L179.53,180.64L179.9,175.57L180.09,172.6L180.28,170.57L180.46,172.81L180.65,180.01L180.83,183.27L181.02,181.47L181.2,175.87L181.39,167.13L181.76,175.57L181.95,178.11L182.13,177.51L182.32,170.78L182.87,165.37L183.06,165.44L183.25,169.84L183.43,174.21L183.8,169.87L183.99,166.2L184.73,173.96L184.92,173.71L185.1,168.92L185.29,167.85L185.47,169.63L185.66,171.29L185.85,171.66L186.03,171.49L186.22,176.65L186.4,182.29L186.77,174.67L186.96,174.42L187.7,181.95L187.89,179.69L188.44,173.13L188.63,175.48L188.82,177.45L189.19,179.93L189.37,177.93L189.56,177.77L190.49,182.19L190.67,175.94L190.86,171.37L191.23,179.5L191.41,180.79L191.97,182L192.34,171.73L192.53,175.44L192.9,182.33L193.46,181.47L193.64,179.03L194.01,179.5L194.39,174L194.57,175.99L194.76,182.12L195.69,173.47L195.87,177.81L196.24,169.22L196.61,173.32L196.8,173.56L197.17,180.9L197.36,174.02L197.54,170.45L197.73,174.48L198.1,169.1L198.28,169.02L198.66,170.36L198.84,167.69L199.03,167.56L199.21,170.56L200.51,178.42L200.7,177.71L200.88,176.14L201.25,169.71L201.44,171.03L201.63,177.05L201.81,180.23L202,173.51L202.18,167.84L202.37,164.72L202.74,170.21L202.93,175.44L203.11,178.63L203.3,173.19L203.48,168.61L203.67,168.97L203.85,174.33L204.23,168.77L204.41,171.98L204.6,176.24L204.78,178.2L204.97,174.72L205.15,168.15L205.34,168.31L205.52,172.36L205.9,171.29L206.08,175.95L206.27,178.43L206.45,175.36L206.64,172.6L206.82,171.71L207.01,175.63L207.2,179.7L207.57,173.54L207.75,177.6L207.94,176.73L208.12,176.62L208.31,179.18L208.5,174.5L209.05,175.38L209.24,178.98L209.42,182.03L209.8,176.1L209.98,171.19L210.35,162.48L210.72,168.24L210.91,169.5L211.28,175.41L211.65,170.63L211.84,170.9L212.21,172.54L212.39,171.77L212.58,167.75L212.95,163.68L213.14,166.67L213.32,171.6L213.88,185.91L214.07,177.57L214.62,171.4L214.99,173.13L215.18,174.41L215.55,183.98L215.74,180.93L215.92,174.4L216.29,180.15L216.48,175.85L216.66,168.13L216.85,167.52L217.04,168.17L217.22,164.07L217.41,162.16L217.59,164.3L217.78,170.69L218.15,166L218.34,172.32L218.52,176.81L218.89,167.95L219.08,168.05L219.26,169.76L219.45,167.06L219.64,161.26L219.82,160.77L220.01,164.93L220.19,164.68L220.38,167.03L220.75,174.18L220.93,172.48L221.12,165.74L221.31,164.36L221.68,166.66L221.86,173.42L222.05,176.57L222.42,172.39L222.61,170.36L223.16,161.38L223.35,162.19L223.53,166.1L223.72,166.62L223.91,170.83L224.28,163.61L224.65,169.11L224.83,171.43L225.95,165.06L226.13,166.58L226.5,163.47L226.69,168.58L227.43,183.49L227.8,181.08L227.99,179.38L229.1,167.42L229.29,167.57L229.48,166.01L229.66,166.77L229.85,173.15L230.03,174.81L230.22,168.46L231.33,181.51L231.52,178.22L232.45,168.67L232.63,168.1L233.75,179.48L233.93,172.96L234.3,173.36L234.86,168.25L235.04,170.28L235.23,170.51L235.42,168.8L235.6,173.58L235.79,175.11L235.97,169.87L236.53,175.14L236.72,172.18L237.46,161.19L237.83,163L238.02,167.54L238.39,166.71L238.76,173.81L238.94,168L239.13,167.35L239.31,167.84L239.5,171.44L240.43,179.48L240.61,175.55L240.99,178.16L241.17,175.29L241.54,163.66L241.91,169.16L242.1,170.39L242.84,162.99L243.03,165.75L243.21,168.74L243.77,169.2L244.14,163.69L244.33,165.45L244.51,166.11L244.7,170.44L244.88,172.48L245.07,166.5L245.26,166.15L245.63,165.35L245.81,167.6L246.18,168.96L247.48,161.74L247.67,161.31L248.23,187.11L248.41,177.85L248.6,169.91L248.78,169.57L248.97,167.3L249.15,167.41L249.34,170.73L249.9,170.91L250.27,165.63L250.45,168.71L251.01,158.35L251.2,163.34L251.38,166.29L251.57,164.19L251.75,167.7L251.94,169.07L252.13,169.19L252.31,172.09L252.5,173.5L252.68,171.67L252.87,164.78L253.05,162.77L253.24,165.48L253.43,165.22L253.61,167.16L253.98,166.62L254.17,173.81L254.35,175.18L254.54,169.08L254.91,179.84L255.1,171.73L255.28,168.6L256.21,173.4L256.4,170.65L257.7,159.35L257.88,162.46L258.07,163.34L258.25,160.42L258.44,160.9L258.62,164.9L259.37,170.64L259.55,167.84L259.74,167.68L260.11,167.02L260.29,168.19L260.48,173.04L260.67,177.58L261.04,173.25L261.22,169.91L261.59,165.52L261.78,167.58L261.97,170.04L262.15,175.54L262.52,168.36L262.71,169.53L263.08,168.79L263.27,172.16L263.45,176.34L263.82,170.21L264.01,169.22L264.19,170.54L264.38,170.51L264.56,167.01L265.12,173.02L265.49,171.9L265.68,170.17L265.86,167.54L266.42,167.71L266.61,171.24L266.79,174.95L266.98,170.11L267.35,174.68L267.54,173.09L267.91,166.92L268.28,172.62L268.46,170.96L269.02,171.36L269.21,167.59L269.39,168.2L269.58,171.24L270.32,161.88L270.69,165.41L270.88,170.47L271.25,160.4L271.62,167.47L271.81,165.48L271.99,163.43L272.18,170.43L272.55,165.36L272.92,174.33L273.1,170.52L273.48,170.35L273.66,172.44L273.85,172.31L274.03,167.19L274.4,165.68L274.59,167.51L275.52,175.65L275.7,170.39L276.08,160.78L276.45,164.04L276.63,167.43L277.56,172.04L277.75,169.43L278.67,166.6L278.86,169.42L279.05,169.56L279.23,166.25L279.6,169.99L279.79,166.96L279.97,169.07L280.16,167.96L280.35,160.59L280.53,159.24L280.72,161.79L280.9,169.38L281.27,162.43L281.46,167.1L281.65,165.88L282.2,160L282.39,161.44L282.57,163.6L282.94,158.76L283.13,161.09L283.32,165.19L283.69,165.67L283.87,168.22L284.24,170.79L284.62,170.71L284.8,166.77L284.99,165.9L285.17,166.8L285.36,169.72L286.29,173.34L286.47,173.94L287.22,169.03L287.4,169.12L287.59,175.45L288.14,170.77L288.33,166.98L288.7,161.81L288.89,166.2L289.07,170.08L289.26,171.18L289.44,170.95L289.63,168.83L290,172.06L290.19,168.78L290.37,161.73L290.56,159.31L290.93,160.87L291.11,167.07L291.3,167.41L291.49,163.41L291.86,158.3L292.04,160.47L292.23,166.32L292.6,162.51L292.78,166.04L292.97,166.83L293.53,166.57L294.08,172.27L294.27,170.69L295.01,158.33L295.2,159.27L295.38,163.74L295.94,163.63L296.5,168.53L296.68,167.36L297.06,167.58L297.24,162.8L297.43,157.66L297.8,164.77L297.98,163.83L298.17,164.55L298.35,169.19L298.73,161.3L298.91,162.58L299.1,171.74L299.28,174.93L299.47,168.69L299.65,165.25L299.84,163.22L300.21,165.12L300.4,166.11L300.77,172.38L301.14,169.14L301.33,167.97L301.51,170.08L301.7,168.53L301.88,162.89L302.07,161.68L302.25,165.87L302.62,170.88L302.81,166.78L303,165.16L303.37,170.84L303.74,165.2L303.92,167.59L304.48,162.26L304.67,165.59L305.04,164.54L305.22,166.31L305.41,166.91L305.6,166.4L305.78,161.42L305.97,162.29L306.15,170.06L306.52,169.81L306.71,172.9L306.9,170.84L307.08,163.13L307.27,161L307.45,168.62L307.64,167.79L307.82,160.59L308.01,161.04L308.19,164.32L308.38,164.97L308.57,162.55L308.94,164.76L309.12,162.02L309.31,161.82L309.49,162L309.68,163.47L310.05,174.43L310.42,169.07L310.61,165.27L311.91,174.17L312.09,171.32L312.28,171.51L312.46,168.37L312.84,170.05L313.39,166.76L313.58,170.35L313.95,177.29L314.14,169.47L314.32,166.99L314.51,166.88L314.69,164.61L315.25,171.53L315.44,169.5L315.62,165.73L316.92,175.1L317.11,170.19L318.03,163.65L318.22,162.79L318.41,162.06L318.59,157.18L319.89,162.53L320.08,161.93L320.26,164.71L320.45,161.84L320.63,157.42L320.82,156.82L321.01,159.38L321.93,170L322.12,161.95L322.86,165.64L323.05,170.09L323.6,166.49L323.98,174.36L324.16,168.11L324.35,165.74L324.72,167.71L324.9,172.73L325.28,175.52L325.46,181.68L325.83,176.68L326.02,176.94L326.2,171.49L327.13,167.42L327.32,168.2L327.5,170.56L327.69,167.71L327.87,170.17L328.06,168.01L328.25,162.06L328.62,168.67L328.8,165.82L328.99,166.1L330.1,184.03L330.29,183.7L330.47,183.74L331.4,169.98L331.59,170.91L332.14,163.91L332.33,167.98L332.52,169.76L333.44,161.22L333.63,163.19L334,162.26L334.19,167.85L334.37,167.46L334.56,164.1L334.74,163.38L334.93,169.3L335.12,169.28L335.3,167.06L335.86,182.28L336.23,173.89L336.41,167.76L336.79,168.02L337.53,159.1L337.71,161.3L337.9,162.82L338.27,165.73L338.46,160.84L338.64,160.9L339.01,164.81L339.39,161.96L339.57,161.62L339.76,160.39L339.94,162.83L340.13,163.42L340.31,162.79L340.5,168.16L340.87,162.83L341.06,165.94L341.24,167.75L341.43,169.32L341.61,166.74L341.8,164.7L342.17,168.03L342.36,163.73L342.54,162.26L343.1,168.84L343.28,173.28L343.47,174.01L343.66,169.6L343.84,168.26L344.03,173.25L344.21,174.8L344.4,173.21L344.58,166.47L345.33,161.52L345.51,163.44L346.07,162.48L346.63,173.43L346.81,168.08L347,166.31L347.18,172.15L347.37,173L347.55,168.07L347.74,166.79L347.93,168.44L348.11,175.95L348.3,179.5L348.48,171.79L348.67,169.56L348.85,172.27L349.23,171.39L349.41,169.25L349.6,163.86L349.97,171.59L350.34,163.94L350.52,163.63L350.71,165.81L351.08,162.98L351.27,162.29L351.45,162.3L351.64,165.31L352.01,170.77L352.38,167.06L352.57,162.2L352.94,171.01L353.31,167.1L353.5,166.29L354.24,171.5L354.42,171.27L354.61,171.51L354.98,168.06L355.54,168.8L355.72,168.02L355.91,164.16L356.09,169.6L356.28,173.13L357.21,164.74L357.39,168.42L357.77,177.07L358.14,168.84L358.32,168.8L358.88,170.33L359.07,165.54L359.25,163.26L359.62,166.31L359.81,167.65L360.92,172.19L361.11,167.5L361.29,165.99L361.48,168.1L361.66,170.7L362.04,178.77L362.41,174.47L362.59,171.91L362.78,166.56L363.15,172.55L363.34,171.98L363.52,173.14L363.71,171.38L363.89,171.57L364.08,170.66L364.45,168.91L364.64,167.03L364.82,170.76L365.01,167.01L365.19,161.95L366.49,173.71L366.68,172.03L366.86,171.9L367.42,178.53L367.61,176.98L367.79,172.83L368.35,166.95L368.53,172.1L369.28,161.33L369.46,165.7L369.65,171.89L369.83,172.3L370.02,167.21L370.2,164.86L370.39,169.46L370.58,169.93L370.76,173.01L371.13,169.31L371.32,168.32L371.5,167.58L371.69,169.05L372.06,168.18L372.25,169.08L372.62,175.8L372.8,167.43L372.99,168.67L373.36,174.64L373.73,171.04L373.92,169.62L374.48,180.01L374.85,176.19L375.03,176.18L375.22,170.93L375.77,174.69L375.96,172.81L376.52,160.33L376.89,165.09L377.07,169.52L377.45,168.32L377.63,170.83L378,167.81L378.19,173.13L378.37,174.81L378.56,168.32L378.75,165.8L378.93,171.65L379.12,178.09L379.49,173.33L379.86,176.22L380.04,178.53L381.34,167.12L381.53,164.87L381.72,164.24L381.9,168.44L382.09,167.42L382.27,170.13L382.46,177.85L383.02,163.47L383.39,167.35L383.57,168.27L384.31,175.79L384.5,175.32L384.69,170.18L385.43,181.69L385.61,177.48L385.8,179.75L385.99,181.24L386.17,173.37L387.1,162.82L387.29,168.7L387.84,178.63L388.03,174.81L388.21,173.11L388.77,173.42L389.88,163.23L390.07,166.96L390.44,172.04L390.81,166.92L391,169.17L391.37,181.48L391.74,173.52L391.93,171.79L392.3,167.27L392.67,170.36L392.86,170.97L393.04,168.86L393.23,172.54L393.41,175.56L393.78,179.02L393.97,176.3L394.15,175.34L394.34,176.44L394.53,171.08L395.27,166.24L395.45,169.67L395.64,175.42L396.2,170.74L396.38,171.3L396.57,170.75L396.75,172.28L396.94,172.94L397.5,181.2L397.68,176.72L397.87,171.77L398.24,173.19L398.43,174.06L399.54,166.01L399.72,171.34L399.91,173.35L400.1,167.78L400.28,166.32L401.58,179.52L401.77,176.74L401.95,174.18L402.14,179.41L402.32,180.17L402.7,181.6L403.44,171.78L403.62,178.63L403.81,179.49L403.99,175.39L404.18,175.2L404.37,173.24L404.92,170.17L405.11,173.83L405.48,174.67L405.67,178.64L406.04,173.73L406.22,167.52L406.41,166.99L406.59,169.47L407.15,161.91L407.34,166.68L407.52,174.21L407.71,176.9L408.08,171.96L408.27,170.79L408.64,179.04L409.01,174.56L409.19,173.18L409.56,169.39L410.12,169.47L410.31,172L410.68,181.25L411.05,175.16L411.24,176.52L412.16,168.39L412.35,171.16L412.54,178.48L413.09,167.6L413.28,170.08L413.46,173.35L413.65,174.43L413.83,171.8L414.02,169.63L414.21,171.56L414.76,171.06L414.95,169.67L415.32,173.13L415.69,171.55L415.88,167.87L416.06,164.66L416.43,169.37L416.62,173.34L416.81,171.23L417.18,174.45L417.36,172.9L417.55,184.05L417.73,183.66L417.92,173.55L418.1,172.06L418.48,172.63L418.66,181.17L418.85,188.56L419.22,180.33L419.4,185.77L419.59,180.45L420.33,174.11L420.52,174.33L420.7,180.46L420.89,183.13L421.08,177.27L421.26,176.49L421.63,177.42L421.82,172.82L422,170.66L422.19,176.22L422.38,176.05L422.93,179.62L423.12,177.38L423.3,173.63L423.49,176.74L423.86,173.34L424.05,174.82L424.23,176.14L424.79,172.14L424.97,174.49L425.16,175.38L425.35,172.39L425.53,175.69L425.72,179.76L425.9,182.07L426.09,180L426.27,173.7L426.65,172.18L427.02,176.3L427.2,171.21L427.57,181.39L427.76,176.87L427.94,170.05L428.13,168.27L428.32,173.25L428.5,174.75L428.87,169.86L429.24,172.53L429.43,176.95L429.62,180.24L429.8,172.87L429.99,170.38L430.73,164.85L430.92,166.37L431.1,167.94L431.47,163.83L431.66,170.91L431.84,172.36L432.22,180.73L432.4,178.1L432.59,174.77L432.77,176.41L433.14,175.62L433.33,172.45L433.51,171.69L433.7,179.06L433.89,184.73L434.26,179.52L434.44,178.49L434.81,167.98L435.19,172.72L435.37,174.42L435.56,173.53L435.74,175.57L435.93,183.93L436.11,187.13L436.3,179.76L436.49,172.77L436.67,169.98L437.04,172.79L437.23,176.86L437.41,180.4L437.78,179.89L437.97,176.62L438.16,177.52L438.34,183.99L438.71,173.77L439.08,176.24L439.27,177.33L439.46,186.02L439.83,178.52L440.01,173.79L440.2,171.65L440.57,173.89L440.76,180.09L440.94,185.36L441.13,177.55L441.31,173.85L441.68,177.08L442.06,175.93L442.24,174.15L442.61,169.54L442.8,175.52L442.98,176.96L443.35,168.6L443.54,172.63L443.73,179.99L443.91,182.16L444.1,180.67L444.28,173.92L444.47,174.97L444.65,180.81L445.03,172.03L445.4,176.22L445.58,177.99L445.95,181.67L446.14,180.36L446.33,177.24L446.51,178.65L446.7,175.42L446.88,169.78L447.62,177.06L447.81,176.65L448,171.5L448.18,171.61L448.37,176.11L448.55,179.05L448.74,177.57L448.92,170.65L449.3,178.92L449.48,178.04L449.67,175.35L450.04,180.45L450.22,179.18L450.41,173.61L450.6,173.44L450.78,177.64L450.97,177.28L451.15,173.61L451.34,173.41L451.52,176.14L452.45,192.67L452.64,186.23L452.82,178.29L453.38,187.25L453.57,182.39L453.75,173.41L453.94,170.54L454.12,177.45L454.31,177.02L454.49,172.46L454.87,177.03L455.05,179.5L455.24,180.29L455.42,177.47L456.54,170.98L456.72,172.57L456.91,175.74L457.09,178.19L457.46,175.3L457.65,174.88L458.21,178.43L458.39,182.16L459.32,175.01L459.51,181.09L459.69,182.36L459.88,175.04L460.44,166.98L460.62,172.33L460.81,179.29L461.92,169.82L462.11,174.94L462.48,182.55L462.85,179.67L463.03,178.23L463.41,173.9L463.59,176.49L463.78,180.64L463.96,180.72L464.15,179.02L464.52,171.14L465.08,173.63L465.26,171.94L465.63,180.69L466.19,178.2L466.38,171.47L466.56,170.45L466.75,172.5L466.93,172.91L467.3,177.7L467.68,173.26L467.86,173.37L468.42,185.94L468.6,181.73L468.79,176.11L469.16,179.79L469.35,186.26L469.72,181.07L469.9,179.54L470.28,181.7L470.46,174.57L470.83,187.79L471.02,180.97L471.2,174.57L472.13,189.29L472.32,187.31L472.5,183.27L472.87,174.93L473.06,179.38L473.25,183.7L473.43,188.21L473.62,182.36L473.8,175.36L474.36,178.75L474.55,177.76L474.73,175.12L475.29,181.47L475.47,180.03L475.66,178.18L476.22,183.04L476.4,176.65L476.77,178.05L477.52,171.45L477.7,172.1L478.07,180.66L478.44,178.75L478.63,179.09L479.19,181.22L479.56,169.95L479.74,174.4L480.49,183.7L480.67,179.13L480.86,175.02L481.04,180.82L481.23,183.32L481.79,175.59L481.97,179.56L482.16,180.46L482.53,172.9L482.9,176.74L483.09,177.95L483.83,168.33L484.01,172.34L484.2,177.47L484.39,177.92L484.57,174.53L485.13,179.87L485.31,175.09L485.5,171.03L485.87,177.46L486.06,172.9L486.24,173.72L486.8,179.34L486.98,174.02L487.17,172.09L487.54,174.98L487.73,181.65L487.91,183.51L488.28,182.2L488.47,177.35L489.03,167.54L489.21,168.99L489.4,173.78L489.58,173.26L489.77,174.25L489.96,176.55L490.14,176.48L490.33,175.04L490.7,172.6L490.88,174.05L491.07,177.27L491.44,166.77L491.63,170.89L491.81,174.32L492,170.01L492.37,176.68L492.55,182.69L492.74,181.58L492.93,175.36L493.11,174L493.3,177.85L493.48,180.71L494.23,171.28L494.41,176.74L494.6,179.06L495.71,171.8L495.9,174.05L496.08,176.27L496.64,175.76L496.82,174.38L497.01,173.59L497.2,177.1L497.38,177.21L497.57,175.59L497.94,172.55L498.12,172.98L498.31,178.98L499.24,171.62L499.42,172.46L499.61,175.89L499.98,170.72L500.17,176.62L500.54,171.22L500.72,170.77L501.09,170.64L501.65,179.67L501.84,177.71L502.02,173.55L503.14,178.84L503.32,177.01L503.51,175.02L503.69,178.73L503.88,176.81L504.07,177.85L504.25,179.89L504.62,177.27L504.81,177.61L504.99,177.39L505.18,177.62L505.36,179.57L505.74,175.21L506.11,177.13L506.29,177.49L506.48,178.52L506.66,177.27L506.85,172.81L507.04,171.93L507.22,175.37L507.41,175.27L507.59,172.67L507.78,174.96L507.96,172.6L508.15,170L509.08,174.29L509.26,172.06L509.64,178.07L510.01,173.85L510.19,174.65L511.12,184.29L511.31,180.14L511.49,174.85L511.86,179.69L512.05,182.06L512.23,182.51L512.42,175.02L513.16,164.99L513.35,168.47L513.53,171.07L513.91,175.91L514.46,174.49L514.65,172.39L515.02,174.03L515.2,171.9L516.5,180.31L516.69,179.26L516.88,174.39L517.43,175.59L517.62,176.87L517.99,182.45L518.18,178.56L518.36,176.48L518.92,171.2L519.29,173.05L519.48,174.94L519.66,175.32L519.85,170.07L520.03,170.28L520.22,168.79L520.59,171.7L520.77,174.44L520.96,175.01L521.15,178.44L521.52,183.23L521.7,181.92L521.89,176.99L522.63,168.63L522.82,172L523,175.48L523.56,170.85L523.75,175.59L523.93,179.77L524.3,178.21L524.49,172.63L524.67,170.01L525.23,172.18L525.42,170.49L525.6,170.22L525.79,174.64L525.97,181.14L526.34,173.05L526.53,173.51L527.09,169.13L527.27,170.27L527.46,176.41L528.02,178.64L528.39,171.57L528.57,171.87L529.31,175.39L529.5,172.53L529.69,174.45L529.87,172.22L530.06,168.44L530.43,181.02L530.99,176.2L531.17,176.37L531.91,169.73L532.1,171.66L532.29,174.52L532.66,174.28L532.84,175.53L533.03,173.82L533.4,174.09L533.59,177.27L533.77,182.13L534.14,173.14L534.33,170.97L534.51,166.15L534.88,174.06L535.07,174.91L535.26,170.99L535.63,174.6L535.81,176.76L536,179.19L536.37,175.87L536.56,173.11L536.74,171.68L536.93,174.55L537.11,177.21L537.3,176.01L537.48,169.32L537.86,165.58L538.04,165.88L538.23,169.5L538.97,180.92L539.15,175.79L539.34,175.84L539.71,178.45L539.9,176.25L540.08,174.65L540.45,179.23L540.83,174.77L541.01,173.11L541.38,178.5L541.57,180.19L542.13,170.74L542.31,171.64L542.5,176.13L542.87,170.52L543.05,171.96L543.24,176.55L543.43,177.55L543.61,175.19L543.8,175.06L543.98,174.78L544.17,170.9L544.54,175.36L545.1,174.61L545.28,175.57L545.84,177.64L546.21,171.38L546.4,174.14L546.58,175.42L546.77,170.88L547.14,167.13L547.32,169.4L547.51,174.13L547.7,175.13L547.88,171.67L548.07,172.15L548.25,171.77L548.44,169.72L548.81,174L549.18,171.33L549.37,171.45L549.55,171.28L549.74,168.1L549.92,167.84L550.11,171.25L550.48,166.02L550.67,170.37L550.85,173.52L551.78,163.68L551.97,166.14L552.15,169.53L553.27,178.69L553.45,174.46L554.01,168.27L554.19,169.87L554.38,174.52L554.94,177.31L555.12,176.05L555.31,176.39L555.49,178.61L555.68,174.61L555.86,171.21L556.05,173.03L556.24,169.21L556.42,166.76L556.98,176.99L557.35,174.53L557.54,175.62L557.72,177.2L557.91,173.53L558.09,171L558.28,170.9L558.46,169.95L558.83,177.38L559.02,176.09L559.21,172.44L559.76,169.33L560.13,179.84L560.32,174.77L561.25,168.79L561.43,169.08L561.99,180.88L562.55,179.45L562.73,170.26L563.1,175.03L563.48,167L563.66,168.09L564.78,176.16L564.96,178.84L565.15,178.68L565.33,176.28L565.52,173.33L565.7,176.03L565.89,180.14L566.08,180.15L566.26,181.79L566.63,176.35L567.19,178.45L567.38,179.71L567.75,172.33L567.93,174.76L568.12,178.62L569.05,172.58L569.23,173.67L569.42,173.57L569.6,173.83L569.79,178.76L569.97,175.69L570.35,181.13L570.53,181.34L570.9,174.67L571.27,176.28L571.46,179.19L571.65,179.54L571.83,176.74L572.57,188.83L572.76,179.01L573.5,168.63L573.69,173.03L574.06,182.23L574.43,173.5L574.62,170.91L574.99,167.6L575.17,170.89L575.36,173.34L575.73,178.49L575.92,174.19L576.1,170.27L576.84,178.89L577.03,177.62L577.22,173.23L577.96,177.6L578.14,173.26L578.33,172.89L578.51,173.74L578.7,176.93L578.89,179.71L579.44,178.59L579.63,178.19L580,175.45"/><g class="points"/></g></g></g><g class="overplot"/><path class="xlines-above crisp" style="fill: none;" d="M0,0"/><path class="ylines-above crisp" style="fill: none;" d="M0,0"/><g class="overlines-above"/><g class="xaxislayer-above"><g class="xtick"><text text-anchor="middle" x="0" y="403" style="font-family: TOBESTRIPPEDOpen\ SansTOBESTRIPPED, verdana, arial, sans-serif; font-size: 12px; fill: rgb(68, 68, 68); fill-opacity: 1; white-space: pre;" transform="translate(60,0)">0</text></g><g class="xtick"><text text-anchor="middle" x="0" y="403" style="font-family: TOBESTRIPPEDOpen\ SansTOBESTRIPPED, verdana, arial, sans-serif; font-size: 12px; fill: rgb(68, 68, 68); fill-opacity: 1; white-space: pre;" transform="translate(176.04000000000002,0)">20</text></g><g class="xtick"><text text-anchor="middle" x="0" y="403" style="font-family: TOBESTRIPPEDOpen\ SansTOBESTRIPPED, verdana, arial, sans-serif; font-size: 12px; fill: rgb(68, 68, 68); fill-opacity: 1; white-space: pre;" transform="translate(292.07,0)">40</text></g><g class="xtick"><text text-anchor="middle" x="0" y="403" style="font-family: TOBESTRIPPEDOpen\ SansTOBESTRIPPED, verdana, arial, sans-serif; font-size: 12px; fill: rgb(68, 68, 68); fill-opacity: 1; white-space: pre;" transform="translate(408.11,0)">60</text></g><g class="xtick"><text text-anchor="middle" x="0" y="403" style="font-family: TOBESTRIPPEDOpen\ SansTOBESTRIPPED, verdana, arial, sans-serif; font-size: 12px; fill: rgb(68, 68, 68); fill-opacity: 1; white-space: pre;" transform="translate(524.15,0)">80</text></g></g><g class="yaxislayer-above"><g class="ytick"><text text-anchor="end" x="59" y="4.199999999999999" style="font-family: TOBESTRIPPEDOpen\ SansTOBESTRIPPED, verdana, arial, sans-serif; font-size: 12px; fill: rgb(68, 68, 68); fill-opacity: 1; white-space: pre;" transform="translate(0,366.62)">0.2</text></g><g class="ytick"><text text-anchor="end" x="59" y="4.199999999999999" style="font-family: TOBESTRIPPEDOpen\ SansTOBESTRIPPED, verdana, arial, sans-serif; font-size: 12px; fill: rgb(68, 68, 68); fill-opacity: 1; white-space: pre;" transform="translate(0,325.09)">0.4</text></g><g class="ytick"><text text-anchor="end" x="59" y="4.199999999999999" style="font-family: TOBESTRIPPEDOpen\ SansTOBESTRIPPED, verdana, arial, sans-serif; font-size: 12px; fill: rgb(68, 68, 68); fill-opacity: 1; white-space: pre;" transform="translate(0,283.56)">0.6</text></g><g class="ytick"><text text-anchor="end" x="59" y="4.199999999999999" style="font-family: TOBESTRIPPEDOpen\ SansTOBESTRIPPED, verdana, arial, sans-serif; font-size: 12px; fill: rgb(68, 68, 68); fill-opacity: 1; white-space: pre;" transform="translate(0,242.03)">0.8</text></g><g class="ytick"><text text-anchor="end" x="59" y="4.199999999999999" style="font-family: TOBESTRIPPEDOpen\ SansTOBESTRIPPED, verdana, arial, sans-serif; font-size: 12px; fill: rgb(68, 68, 68); fill-opacity: 1; white-space: pre;" transform="translate(0,200.51)">1</text></g><g class="ytick"><text text-anchor="end" x="59" y="4.199999999999999" style="font-family: TOBESTRIPPEDOpen\ SansTOBESTRIPPED, verdana, arial, sans-serif; font-size: 12px; fill: rgb(68, 68, 68); fill-opacity: 1; white-space: pre;" transform="translate(0,158.98000000000002)">1.2</text></g><g class="ytick"><text text-anchor="end" x="59" y="4.199999999999999" style="font-family: TOBESTRIPPEDOpen\ SansTOBESTRIPPED, verdana, arial, sans-serif; font-size: 12px; fill: rgb(68, 68, 68); fill-opacity: 1; white-space: pre;" transform="translate(0,117.45)">1.4</text></g><g class="ytick"><text text-anchor="end" x="59" y="4.199999999999999" style="font-family: TOBESTRIPPEDOpen\ SansTOBESTRIPPED, verdana, arial, sans-serif; font-size: 12px; fill: rgb(68, 68, 68); fill-opacity: 1; white-space: pre;" transform="translate(0,75.92)">1.6</text></g></g><g class="overaxes-above"/></g></g><g class="polarlayer"/><g class="ternarylayer"/><g class="geolayer"/><g class="pielayer"/><g class="glimages"/><defs id="topdefs-8fc204"><g class="clips"/></defs><g class="layer-above"><g class="imagelayer"/><g class="shapelayer"/></g><g class="infolayer"><g class="g-gtitle"><text class="gtitle" style="font-family: TOBESTRIPPEDOpen\ SansTOBESTRIPPED, verdana, arial, sans-serif; font-size: 17px; fill: rgb(68, 68, 68); opacity: 1; font-weight: normal; white-space: pre;" x="350" y="30" text-anchor="middle">Distribution Entropy</text></g><g class="g-xtitle"><text class="xtitle" style="font-family: TOBESTRIPPEDOpen\ SansTOBESTRIPPED, verdana, arial, sans-serif; font-size: 14px; fill: rgb(68, 68, 68); opacity: 1; font-weight: normal; white-space: pre;" x="350" y="442" text-anchor="middle">Frames in Mio.</text></g><g class="g-ytitle"><text class="ytitle" transform="rotate(-90,22,225)" style="font-family: TOBESTRIPPEDOpen\ SansTOBESTRIPPED, verdana, arial, sans-serif; font-size: 14px; fill: rgb(68, 68, 68); opacity: 1; font-weight: normal; white-space: pre;" x="22" y="225" text-anchor="middle">Entropy</text></g></g></svg>